<svg xmlns="http://www.w3.org/2000/svg" width="21" height="24" viewBox="0 0 21 24">
    <g fill="none" fill-rule="evenodd">
        <g fill="#8E8E93" fill-rule="nonzero">
            <g>
                <g>
                    <path d="M21.88 6.495L16.203.14C16.122.051 16.01 0 15.893 0H7.433c-.947 0-1.718.83-1.718 1.849v6.459H2.285C1.576 8.308 1 8.928 1 9.69v6.926C1 17.379 1.576 18 2.285 18h3.43v4.154c0 1.018.77 1.846 1.717 1.846h12.85C21.23 24 22 23.173 22 22.155V6.815c0-.12-.043-.234-.12-.32zM16 1.246l4.66 5.216H16V1.246zM2.285 17.076c-.236 0-.428-.206-.428-.46V9.692c0-.254.192-.46.428-.46h11.573c.236 0 .428.206.428.46v6.926c0 .253-.192.46-.428.46H2.285zm18.858 5.08c0 .508-.386.92-.86.92H7.431c-.475 0-.86-.413-.86-.922V18h7.286c.708 0 1.285-.62 1.285-1.383V9.69c0-.763-.577-1.383-1.285-1.383H6.57v-6.46c0-.51.386-.925.86-.925h7.712v6c0 .255.192.462.428.462h5.572v14.77z" transform="translate(-860 -279) translate(859 279)"/>
                </g>
            </g>
        </g>
    </g>
</svg>
