<?xml version="1.0" encoding="UTF-8"?>
<svg width="84px" height="50px" viewBox="0 0 84 50" version="1.1" xmlns="http://www.w3.org/2000/svg" xmlns:xlink="http://www.w3.org/1999/xlink">
    <title>Auto/compacto/Adaptaciones</title>
    <defs>
        <polygon id="path-1" points="6.72458401e-06 0.0226585803 68.9875963 0.0226585803 68.9875963 25.963061 6.72458401e-06 25.963061"></polygon>
    </defs>
    <g id="Auto/compacto/Adaptaciones" stroke="none" stroke-width="1" fill="none" fill-rule="evenodd">
        <path d="M42.5,38 C41.6808125,38 41.0139875,38.447986 41,39 L44,39 C43.9860125,38.447986 43.3191875,38 42.5,38" id="Fill-1" fill="#CDCDCA" transform="translate(42.500000, 38.500000) rotate(-180.000000) translate(-42.500000, -38.500000) "></path>
        <path d="M54.5,38 C53.6808481,38 53.0139747,38.4479328 53,39 L56,39 C55.9860253,38.4479328 55.3191519,38 54.5,38" id="Fill-3" fill="#CDCDCA" transform="translate(54.500000, 38.500000) rotate(-180.000000) translate(-54.500000, -38.500000) "></path>
        <path d="M42.5,12 C41.68085,12 41.0139875,11.5519651 41,11 L44,11 C43.9860125,11.5519651 43.3191875,12 42.5,12" id="Fill-5" fill="#CDCDCA" transform="translate(42.500000, 11.500000) rotate(-180.000000) translate(-42.500000, -11.500000) "></path>
        <path d="M54.5,12 C53.6808481,12 53.0139747,11.5519567 53,11 L56,11 C55.9860253,11.5519567 55.3191519,12 54.5,12" id="Fill-7" fill="#CDCDCA" transform="translate(54.500000, 11.500000) rotate(-180.000000) translate(-54.500000, -11.500000) "></path>
        <g id="Group-11" transform="translate(42.500000, 25.000000) rotate(-180.000000) translate(-42.500000, -25.000000) translate(8.000000, 12.000000)">
            <mask id="mask-2" fill="white">
                <use xlink:href="#path-1"></use>
            </mask>
            <g id="Clip-10"></g>
            <path d="M61.4122189,25.4636019 C61.4122189,25.4636019 61.6703805,25.3086755 65.1702705,24.0769058 C66.4219099,23.4540194 67.4545564,21.1732963 68.7875102,16.89071 C69.0597726,16.5018036 69.0488054,9.46902133 68.7875102,9.09559205 C67.4545564,4.81304447 66.4219099,2.53232139 65.1702705,1.909435 C61.6703805,0.677665328 61.4122189,0.522700131 61.4122189,0.522700131 C59.1795967,-0.202397348 53.39546,0.0330954458 51.8809587,0.177199503 L14.9465716,0.177199503 C13.5838495,0.177199503 12.2242609,0.256214298 10.8709001,0.411140705 C7.81690789,0.76443808 5.39968305,1.11769667 2.80094994,2.07677414 C-0.938339791,4.30482068 -0.928939276,21.6876877 2.80094994,23.9095667 C5.39968305,24.8686441 7.81690789,25.2219415 10.8709001,25.5752001 C12.2242609,25.7301265 13.5838495,25.8091413 14.9465716,25.8091413 L51.8809587,25.8091413 C53.39546,25.9516938 59.1795967,26.1887382 61.4122189,25.4636019" id="Fill-9" fill="#DFDFDC" mask="url(#mask-2)"></path>
        </g>
        <path d="M71,36 C71.3775024,32.8895595 72.1931081,31.0867727 73.7344034,30.0697173 C74.4061987,29.9851936 75.0460169,29.9748399 75.818998,30.0534361 C76.0506849,30.0764145 76.0613324,30.1697909 75.8429549,30.2587409 C74.0153869,31.0030188 73.3961723,31.5968015 72.9581036,32.4537006 C72.3163149,33.1208449 71.6669209,34.0565328 71,36" id="Fill-12" fill="#891214" transform="translate(73.500000, 33.000000) rotate(-180.000000) translate(-73.500000, -33.000000) "></path>
        <path d="M71,36 C71.2158094,35.1119565 71.4952952,34.3631685 71.8524181,33.733505 C72.3275479,33.1317003 72.8197795,32.6752947 73.3740976,32.3302858 L72.9843609,32.3302858 C73.0961629,32.2328378 73.2110674,32.1400266 73.3306254,32.053359 L74.8165887,32.0007711 C75.0526024,31.9930433 75.0619095,32.0440856 74.8383054,32.1229868 C73.2436812,32.6799314 72.1955803,33.8077694 71,36" id="Fill-14" fill="#E2272C" transform="translate(73.000000, 34.000000) rotate(-180.000000) translate(-73.000000, -34.000000) "></path>
        <path d="M71,14 C71.3775024,17.1104405 72.1931081,18.9132273 73.7344034,19.9302827 C74.4061987,20.0148064 75.0460169,20.0251601 75.818998,19.9465639 C76.0506849,19.9235855 76.0613324,19.8302091 75.8429549,19.7412591 C74.0153869,18.9969812 73.3961723,18.4031985 72.9581036,17.5462994 C72.3163149,16.8791551 71.6669209,15.9434672 71,14" id="Fill-16" fill="#891214" transform="translate(73.500000, 17.000000) rotate(-180.000000) translate(-73.500000, -17.000000) "></path>
        <path d="M71,15 C71.2158094,15.8880048 71.4952952,16.6367929 71.8524181,17.2664564 C72.3275479,17.8682997 72.8197795,18.3247053 73.3740976,18.6697142 L72.9843609,18.6697142 C73.0961629,18.7671622 73.2110674,18.8599734 73.3306254,18.946641 L74.8165887,18.9992289 C75.0526024,19.0069567 75.0619095,18.9559144 74.8383054,18.8770132 C73.2436812,18.3200686 72.1955803,17.1921919 71,15" id="Fill-18" fill="#E2272C" transform="translate(73.000000, 17.000000) rotate(-180.000000) translate(-73.000000, -17.000000) "></path>
        <path d="M9.20364334,30.0208071 C8.94736292,30.0354623 8.9305609,30.1232485 9.16694106,30.2152683 C11.0014593,30.9189327 12.0191134,31.6178567 13.1273316,33.211939 C13.5447207,33.8065401 13.8894997,34.437182 14.203336,35.0788605 C14.6511912,35.3087473 15.7612763,35.8776566 16,36 C15.3437283,34.5060431 14.7969676,33.3991631 14.1837932,32.3157313 C13.4509393,31.0222786 12.044098,30.1574076 10.4528714,30.0319885 C9.9587014,29.9929443 9.76438586,29.990158 9.20364334,30.0208071" id="Fill-20" fill="#AFCDD7" transform="translate(12.500000, 33.000000) rotate(-180.000000) translate(-12.500000, -33.000000) "></path>
        <path d="M16,36 C15.3437686,34.5060439 14.7970084,33.3991645 14.1837949,32.3157334 C13.4509417,31.0222452 12.0441017,30.1574108 10.4529164,30.0319556 C9.95870714,29.9929476 9.76443151,29.9901613 9.2036498,30.0208104 C9.06859824,30.0285541 9,30.0565979 9,30.0948822 C9,30.1291861 9.05517253,30.1717765 9.16698727,30.2152715 C11.0015037,30.9189355 12.0191172,31.6178229 13.127374,33.2119406 C13.5447231,33.8065413 13.8895017,34.4371828 14.2033774,35.078861 C14.6511925,35.3087115 15.7612765,35.8776567 16,36 M15.6307532,35.4401374 C15.2470876,35.2435052 14.7802064,35.0041378 14.4968762,34.8587805 C14.1364077,34.1277965 13.7984214,33.5449199 13.4367613,33.0297464 C12.5174971,31.7074183 11.6348955,30.9474135 10.1751868,30.2847839 C10.1444427,30.2708163 10.1287132,30.2390816 10.1375313,30.2088305 C10.1463891,30.1785432 10.1773715,30.1581345 10.2116905,30.1599076 C10.3083318,30.1650822 10.4140692,30.1726088 10.5402232,30.1825598 C12.0554222,30.3020082 13.3785699,31.1120938 14.0796464,32.3493859 C14.6129014,33.2915487 15.0896731,34.2401526 15.6307532,35.4401374" id="Fill-22" fill="#839AA3" transform="translate(12.500000, 33.000000) rotate(-180.000000) translate(-12.500000, -33.000000) "></path>
        <path d="M12,35 C12.3754445,35.2907061 12.6988583,35.6146974 13,36 L13,35 L12,35 Z" id="Fill-24" fill="#F2F2F2" transform="translate(12.500000, 35.500000) rotate(-180.000000) translate(-12.500000, -35.500000) "></path>
        <path d="M15,35.1236414 C14.8583678,35.0924163 14.7154476,35.0673571 14.5711833,35.0496497 C14.393317,35.0279107 14.2442924,35.0115472 14.1079805,35.0002429 C14.0595937,34.9962903 14.0159112,35.0409541 14.0034785,35.1070407 C13.9909338,35.1732063 14.0131671,35.242534 14.0565136,35.2730476 C14.3909089,35.5082242 14.7034629,35.7491714 14.9985999,36 C15,36 15,35.1236414 15,35.1236414" id="Fill-26" fill="#D76D00" transform="translate(14.500000, 35.500000) rotate(-180.000000) translate(-14.500000, -35.500000) "></path>
        <path d="M11,32 C11.0485198,32.085153 11.0970396,32.1712868 11.1456096,32.2594975 C11.4375815,32.7843194 11.7172604,33.3536216 12,34 L12,32 L11,32 Z" id="Fill-28" fill="#F2F2F2" transform="translate(11.500000, 33.000000) rotate(-180.000000) translate(-11.500000, -33.000000) "></path>
        <path d="M10,31 C10.1331388,31.2299262 10.2671396,31.4693799 10.4032622,31.7209494 C10.5703488,31.7990968 10.7760907,31.8953079 11,32 L11,31 L10,31 Z" id="Fill-30" fill="#F2F2F2" transform="translate(10.500000, 31.500000) rotate(-180.000000) translate(-10.500000, -31.500000) "></path>
        <path d="M12,34 C12.3486997,34.310879 12.6801568,34.6417147 13,35 L13,34 L12,34 Z" id="Fill-32" fill="#6C8187" transform="translate(12.500000, 34.500000) rotate(-180.000000) translate(-12.500000, -34.500000) "></path>
        <path d="M15,35.9380668 C14.8583649,35.9227623 14.7154417,35.91048 14.5711743,35.901801 C14.3933044,35.8911847 14.2442207,35.8831257 14.107962,35.8775851 C14.0595742,35.8756478 14.0158908,35.897539 14.0034578,35.929969 C13.9909688,35.9623602 14.0131466,35.99634 14.056494,36.0112957 C14.1630703,36.0480264 14.2666224,36.0851833 14.3688305,36.122534 L14.999832,36.122534 C15,36.0261352 15,35.9380668 15,35.9380668" id="Fill-34" fill="#FFA12F" transform="translate(14.500000, 36.000000) rotate(-180.000000) translate(-14.500000, -36.000000) "></path>
        <path d="M12,32 L11,32 C11.3349855,32.3138918 11.666523,32.6449752 12,33 L12,32 Z" id="Fill-36" fill="#6C8187" transform="translate(11.500000, 32.500000) rotate(-180.000000) translate(-11.500000, -32.500000) "></path>
        <path d="M10,31 C10.0559046,31.1453905 10.1119017,31.2922128 10.1683607,31.4418989 C10.4012197,31.5981936 10.6879505,31.7906157 11,32 L11,31 L10,31 Z" id="Fill-38" fill="#6C8187" transform="translate(10.500000, 31.500000) rotate(-180.000000) translate(-10.500000, -31.500000) "></path>
        <path d="M9.20364334,19.9791627 C8.94736292,19.9645437 8.9305609,19.8767213 9.16694106,19.7847375 C11.0014593,19.0810724 12.0191134,18.3821115 13.1273316,16.7880276 C13.5447207,16.1934621 13.8894997,15.5627834 14.203336,14.9211043 C14.6511912,14.6912534 15.7612763,14.1223435 16,14 C15.3437283,15.4939584 14.7969676,16.6008395 14.1837932,17.6842362 C13.4509393,18.9776902 12.044098,19.8425982 10.4528714,19.9680175 C9.9587014,20.0070618 9.76438586,20.0098481 9.20364334,19.9791627" id="Fill-40" fill="#AFCDD7" transform="translate(12.500000, 17.000000) rotate(-180.000000) translate(-12.500000, -17.000000) "></path>
        <path d="M14.2033672,14.9211038 C13.8895295,15.5628187 13.5447488,16.1934609 13.1273577,16.7880261 C12.0191343,18.3821091 11.0015151,19.0810696 9.1669485,19.7847343 C9.05517284,19.8282294 9,19.8707836 9,19.9051237 C9,19.943408 9.06855891,19.9714519 9.20365095,19.9791594 C9.76439612,20.0098448 9.95871258,20.0070585 10.4528849,19.9680504 C12.044119,19.842595 13.4509669,18.9777236 14.1838244,17.6842341 C14.7970016,16.6008381 15.3437649,15.4939576 16,14 C15.7613149,14.1223434 14.6511848,14.691253 14.2033672,14.9211038 M14.0796752,17.6505816 C13.3785551,18.8879111 12.0554395,19.6979975 10.5401923,19.8174461 C10.4140772,19.8273971 10.3082995,19.8348875 10.2116973,19.840062 C10.1773782,19.8418713 10.1463559,19.8214265 10.1375775,19.7911753 C10.1286799,19.7609242 10.1444095,19.7291533 10.1751935,19.7151856 C11.6349502,19.0525554 12.5175171,18.2925498 13.4367467,16.9702204 C13.7984486,16.4550826 14.1363972,15.8721692 14.4969074,15.1412206 C14.7801995,14.995827 15.2470833,14.7564594 15.6307908,14.559827 C15.0896679,15.7598492 14.6129332,16.708454 14.0796752,17.6505816" id="Fill-42" fill="#839AA3" transform="translate(12.500000, 17.000000) rotate(-180.000000) translate(-12.500000, -17.000000) "></path>
        <path d="M12,16 C12.3754445,15.7092939 12.6988583,15.3852666 13,15 L13,16 L12,16 Z" id="Fill-44" fill="#F2F2F2" transform="translate(12.500000, 15.500000) rotate(-180.000000) translate(-12.500000, -15.500000) "></path>
        <path d="M15,14.8764279 C14.8583678,14.9076555 14.7154476,14.9327166 14.5711833,14.9503464 C14.393317,14.9720871 14.2442924,14.9884519 14.1079805,14.9997571 C14.0595937,15.00371 14.0159112,14.9590427 14.0034785,14.8929509 C13.9909338,14.8268591 14.0131671,14.7574469 14.0565136,14.7269308 C14.3909089,14.4918147 14.7034629,14.2507694 14.9985999,14 C15,14 15,14.8764279 15,14.8764279" id="Fill-46" fill="#D76D00" transform="translate(14.500000, 14.500000) rotate(-180.000000) translate(-14.500000, -14.500000) "></path>
        <path d="M11,19 C11.0485198,18.9147893 11.0970396,18.8287132 11.1456096,18.7404448 C11.4375815,18.2156229 11.7172604,17.6463784 12,17 L12,19 L11,19 Z" id="Fill-48" fill="#F2F2F2" transform="translate(11.500000, 18.000000) rotate(-180.000000) translate(-11.500000, -18.000000) "></path>
        <path d="M10,19 C10.1331388,18.7700865 10.2671396,18.530646 10.4032622,18.2790903 C10.5703488,18.2008921 10.7760907,18.1046864 11,18 L11,19 L10,19 Z" id="Fill-50" fill="#F2F2F2" transform="translate(10.500000, 18.500000) rotate(-180.000000) translate(-10.500000, -18.500000) "></path>
        <path d="M13,15 C12.6801568,15.3582853 12.3486284,15.689049 12,16 L13,16 L13,15 Z" id="Fill-52" fill="#6C8187" transform="translate(12.500000, 15.500000) rotate(-180.000000) translate(-12.500000, -15.500000) "></path>
        <path d="M14.5711653,14.0981774 C14.7154357,14.0895372 14.8583619,14.0772549 15,14.0619504 C15,14.0619504 15,13.9738432 14.999832,13.8774832 L14.3688731,13.8774832 C14.266663,13.9148726 14.1630526,13.9519907 14.05653,13.9887215 C14.0131257,14.0036772 13.9910035,14.037657 14.0034368,14.0700482 C14.01587,14.1024394 14.0595543,14.1243694 14.1079432,14.1223933 C14.2442047,14.1168527 14.3932916,14.1088324 14.5711653,14.0981774" id="Fill-54" fill="#FFA12F" transform="translate(14.500000, 14.000000) rotate(-180.000000) translate(-14.500000, -14.000000) "></path>
        <path d="M12,17 C11.666523,17.3549876 11.3349855,17.6861478 11,18 L12,18 L12,17 Z" id="Fill-56" fill="#6C8187" transform="translate(11.500000, 17.500000) rotate(-180.000000) translate(-11.500000, -17.500000) "></path>
        <path d="M11,18 C10.6879505,18.2093612 10.4012197,18.4017621 10.1683607,18.5581498 C10.1119017,18.7077093 10.0559046,18.8545154 10,19 L11,19 L11,18 Z" id="Fill-58" fill="#6C8187" transform="translate(10.500000, 18.500000) rotate(-180.000000) translate(-10.500000, -18.500000) "></path>
        <path d="M61.3054214,35 C58.2906137,31.0002099 58.1730012,21.0783723 61.3054214,17 L69,18.6941839 C67.7693537,22.079467 67.7663332,29.8481587 69,33.3058161 L61.3054214,35 Z" id="Fill-60" fill="#2B3D44" transform="translate(64.000000, 26.000000) rotate(-180.000000) translate(-64.000000, -26.000000) "></path>
        <path d="M59.272303,25.9299779 C59.272303,24.2073415 59.4650144,22.5167472 59.8297087,21.0410776 C60.1392023,19.788507 60.5735203,18.6957611 61.100154,17.8366408 C61.2675683,17.5634543 61.5840847,17.4261478 61.8925589,17.4940877 L68.1707822,18.8763688 C68.3818812,18.9228703 68.5101793,19.1414195 68.4515805,19.3536836 C67.9989126,20.991183 67.7353692,23.3942214 67.7353692,25.9782145 C67.7353692,28.5662177 68.0001586,30.9866459 68.4546388,32.6468562 C68.5126335,32.8588119 68.3842221,33.0766285 68.1735384,33.1230142 L61.8993551,34.5044471 C61.5884645,34.5728497 61.2696072,34.4329983 61.1034389,34.1561102 C60.5839412,33.2903964 60.1523417,32.1850419 59.8407714,30.9143874 C59.4688656,29.397576 59.272303,27.6739756 59.272303,25.9299779 L59.272303,25.9299779 Z M69,33.3058198 C68.3835803,31.5780166 68.0759367,28.7738163 68.0759367,25.9779831 C68.0759367,23.1787183 68.3842976,20.3878978 69,18.6942188 L61.3054008,17 C59.7540815,19.0197676 59,22.4722508 59,25.9292838 C59,29.4527916 59.7836452,32.9810421 61.3054008,35 L69,33.3058198 Z" id="Fill-62" fill="#1D2A30" transform="translate(64.000000, 26.000000) rotate(-180.000000) translate(-64.000000, -26.000000) "></path>
        <path d="M59.8588434,16.8760517 C59.1478137,16.2522504 56.1354886,15.2884185 54.8734352,14.9028063 C48.1028548,12.8342059 42.1498322,12.8583867 36.5912474,13.1289197 C33.3941984,13.4148525 31.4309481,13.8877889 29.5887613,14.8159233 C29.3006573,14.9611401 29,15.2175089 29,15.5727187 C29,15.7685032 29.0906325,15.9208242 29.2117737,16.0551862 L60,17 L59.8588434,16.8760517 Z" id="Fill-64" fill="#2B3D44" transform="translate(44.500000, 15.000000) rotate(-180.000000) translate(-44.500000, -15.000000) "></path>
        <path d="M59.8588434,14.8851477 C59.4803401,14.5774302 58.4494928,14.180415 57.3778376,13.8224471 L29.5401027,13 C29.2678166,13.1378718 29,13.3668404 29,13.6774609 C29,13.8588776 29.0906325,14.0000613 29.2117737,14.1245221 L60,15 L59.8588434,14.8851477 Z" id="Fill-66" fill="#445D66" transform="translate(44.500000, 14.000000) rotate(-180.000000) translate(-44.500000, -14.000000) "></path>
        <path d="M44,14 L44.5724937,16.9355282 L47,17 L45.3304176,14.0211791 C45.1694507,14.0163126 45.0093532,14.0127698 44.8483467,14.0101613 C44.5661705,14.0052948 44.2839942,14.0017519 44,14" id="Fill-68" fill="#131313" transform="translate(45.500000, 15.500000) rotate(-180.000000) translate(-45.500000, -15.500000) "></path>
        <path d="M58.8088732,16.6629699 L29.4676984,15.7624139 C29.4179126,15.6730599 29.4037659,15.5813231 29.4255301,15.4890568 C29.4637342,15.3274254 29.6093215,15.1758104 29.83532,15.0618785 C31.6160251,14.1647643 33.5229628,13.7065658 36.6346689,13.4277371 C41.6411091,13.1842971 47.7686419,13.0598193 54.700675,15.1782373 C55.076808,15.2930517 55.4347524,15.4061452 55.77478,15.5164587 C57.2659427,16.0577896 58.2975297,16.4478143 58.8088732,16.6629699 L58.8088732,16.6629699 Z M59.8588821,16.8760517 C59.1478515,16.2522504 56.1355226,15.2884185 54.8734288,14.9028063 C48.1028399,12.8342059 42.1498098,12.8583867 36.5912569,13.1289197 C33.394165,13.4148525 31.4309511,13.8877889 29.5887232,14.8159233 C29.3006577,14.9611401 29,15.2175089 29,15.5727187 C29,15.7685032 29.0906326,15.9208242 29.211774,16.0552303 L60,17 L59.8588821,16.8760517 Z" id="Fill-70" fill="#131313" transform="translate(44.500000, 15.000000) rotate(-180.000000) translate(-44.500000, -15.000000) "></path>
        <path d="M33,15 L29.2723233,14.8691378 C29.2723233,14.8689842 29,13.0000512 29,13 C30.435668,13.5377841 32.3136743,14.3108233 32.8583209,14.8568503 L33,15 Z" id="Fill-72" fill="#131313" transform="translate(31.000000, 14.000000) rotate(-180.000000) translate(-31.000000, -14.000000) "></path>
        <path d="M59.8588434,33.1239483 C59.1478137,33.7477496 56.1354886,34.7115815 54.8734352,35.0971937 C48.1028548,37.1657941 42.1498322,37.1416133 36.5912474,36.8710803 C33.3941984,36.5851475 31.4309481,36.1122111 29.5887613,35.1840767 C29.3006573,35.0388599 29,34.7824911 29,34.4272813 C29,34.2314968 29.0906325,34.0791758 29.2117737,33.9448138 L60,33 L59.8588434,33.1239483 Z" id="Fill-74" fill="#2B3D44" transform="translate(44.500000, 35.000000) rotate(-180.000000) translate(-44.500000, -35.000000) "></path>
        <path d="M59.8588434,35.1148523 L60,35 L29.2117737,35.8754779 C29.0906325,35.9999796 29,36.1411224 29,36.3225391 C29,36.6331596 29.2678166,36.8621282 29.5401027,37 L57.3778376,36.1775529 C58.4494928,35.819585 59.4803401,35.4225698 59.8588434,35.1148523" id="Fill-76" fill="#445D66" transform="translate(44.500000, 36.000000) rotate(-180.000000) translate(-44.500000, -36.000000) "></path>
        <path d="M56,35.9184952 L56.3872829,34.0113331 L57,34 L56.5931279,36 C56.3922277,35.9740957 56.1948776,35.9469132 56,35.9184952" id="Fill-78" fill="#131313" transform="translate(56.500000, 35.000000) rotate(-180.000000) translate(-56.500000, -35.000000) "></path>
        <path d="M44,36 L44.5724937,33.0644718 L47,33 L45.3304176,35.9788209 C45.1694507,35.9836874 45.0093532,35.9872302 44.8483467,35.9898387 C44.5661705,35.9947052 44.2839942,35.9982481 44,36" id="Fill-80" fill="#131313" transform="translate(45.500000, 34.500000) rotate(-180.000000) translate(-45.500000, -34.500000) "></path>
        <path d="M33,35 L29.2723233,35.13091 C29.2723233,35.1310124 29,36.9998976 29,37 C30.435668,36.4621784 32.3136743,35.6891591 32.8583209,35.143146 L33,35 Z" id="Fill-82" fill="#131313" transform="translate(31.000000, 36.000000) rotate(-180.000000) translate(-31.000000, -36.000000) "></path>
        <path d="M55.7747465,34.4835576 C55.4347192,34.5938724 55.0767753,34.7069672 54.7006428,34.8217828 C47.7686184,36.9402242 41.6410933,36.815745 36.6346982,36.5723023 C33.5229571,36.2934706 31.6160606,35.835267 29.835319,34.9381429 C29.6093208,34.8242097 29.4637725,34.6725489 29.4255296,34.5109157 C29.4038042,34.4186484 29.4179121,34.3269106 29.4676978,34.2375997 L58.8088358,33.3370338 C58.297493,33.5521918 57.2659073,33.9421767 55.7747465,34.4835576 L55.7747465,34.4835576 Z M60,33 L29.2117737,33.9447801 C29.0906325,34.0791877 29,34.2314662 29,34.4272971 C29,34.7824666 29.3006573,35.0388823 29.5887613,35.1841008 C31.4309481,36.1122013 33.3941984,36.585187 36.5912474,36.8710789 C42.1498322,37.1416149 48.1028548,37.1657959 54.8734352,35.0971727 C56.1354886,34.7116004 59.1478137,33.7477137 59.8588434,33.1239497 L60,33 Z" id="Fill-84" fill="#131313" transform="translate(44.500000, 35.000000) rotate(-180.000000) translate(-44.500000, -35.000000) "></path>
        <path d="M56,14.0815048 L56.3872829,15.9886669 L57,16 L56.5931279,14 C56.3922277,14.0259469 56.1948776,14.0531294 56,14.0815048" id="Fill-86" fill="#131313" transform="translate(56.500000, 15.000000) rotate(-180.000000) translate(-56.500000, -15.000000) "></path>
        <path d="M36.9710866,37 L26,34.4312279 C27.7992565,31.4273601 27.7992565,20.5726801 26,17.5688123 L36.9710866,15 C39.6763045,19.4488272 39.6763045,32.5511728 36.9710866,37" id="Fill-88" fill="#2B3D44" transform="translate(32.500000, 26.000000) rotate(-180.000000) translate(-32.500000, -26.000000) "></path>
        <path d="M26.9613767,34.3490673 C26.7251887,34.2937608 26.5937356,34.0384105 26.6824793,33.809387 C27.4293196,31.8824628 27.7057233,28.6320417 27.7057233,26 C27.7057233,23.3679985 27.4293196,20.1175774 26.6824793,18.190613 C26.5937356,17.9616297 26.7251887,17.7062793 26.9613767,17.6509729 L36.3140192,15.4611017 C36.6793249,15.3755696 37.0542888,15.5613447 37.2107579,15.9072915 C37.6566929,16.8932018 38.0282527,18.1972047 38.299194,19.7381493 C38.6281632,21.6096465 38.8020881,23.7749593 38.8020881,26 C38.8020881,28.2250808 38.6281632,30.3903535 38.299194,32.2618105 C38.0282527,33.8027551 37.6566929,35.1067982 37.2107579,36.0927487 C37.0542888,36.4386553 36.6793249,36.6244304 36.3140192,36.5388983 L26.9613767,34.3490673 Z M39,26 C39,21.6121787 38.3236955,17.2243976 36.9710866,15 L26,17.5687768 C26.8996282,19.0707335 27.3494819,22.5353467 27.3494819,26 C27.3494819,29.4646533 26.8996282,32.9293067 26,34.4312232 L36.9710866,37 C38.3236955,34.7756024 39,30.3877811 39,26 L39,26 Z" id="Fill-90" fill="#1D2A30" transform="translate(32.500000, 26.000000) rotate(-180.000000) translate(-32.500000, -26.000000) "></path>
        <path d="M24,15.0260151 C25.2877165,17.2648916 25.9028476,21.6284814 25.9029229,25.9978455 C25.9029982,30.3671695 25.2880554,34.73509 24,36.974528 C24.3005249,37.049875 24.5616676,36.9517514 24.8152426,36.7633639 C25.15146,36.5136241 25.4402757,36.0924588 25.5913288,35.6987216 C27.5423688,30.6145434 27.3953066,20.9987585 25.5913288,16.2978115 C25.4429488,15.9110917 25.1566181,15.4866784 24.8152426,15.2331692 C24.5616676,15.0448217 24.3005249,14.9506681 24,15.0260151" id="Fill-92" fill="#131313" transform="translate(25.500000, 26.000000) rotate(-180.000000) translate(-25.500000, -26.000000) "></path>
        <path d="M31.7453812,39.6268832 L31.0184717,37.3306604 C30.9422575,37.0897655 31.1090109,36.9480188 31.3874896,37.0178104 C33.1315624,37.4548753 33.7906022,38.0598728 33.9960654,39.5010643 C34.0363514,39.7833641 33.7615815,40.0256764 33.4327569,39.997812 L32.1003523,39.8850114 C31.9312809,39.8706876 31.790025,39.7679958 31.7453812,39.6268832" id="Fill-94" fill="#DFDFDC" transform="translate(32.500000, 38.500000) rotate(-180.000000) translate(-32.500000, -38.500000) "></path>
        <path d="M34.1731314,37 C34.0337109,37.0267705 33.9662983,37.1547557 34.0165942,37.3387686 L34.6775242,39.7306248 C34.717997,39.8777263 34.8467091,39.9850023 35,40 L34.1731314,37 Z" id="Fill-96" fill="#131313" transform="translate(34.500000, 38.500000) rotate(-180.000000) translate(-34.500000, -38.500000) "></path>
        <path d="M32.9279638,38.1276849 C32.7029404,37.8098592 32.5505739,37.6295643 32.2370583,37.3715167 C32.0924543,37.2556193 31.916889,37.1467655 32.0436171,37.0563436 C32.1320651,36.9932267 32.2666444,36.9960166 32.3659599,37.0044322 C32.7703631,37.0482025 33.1893599,37.3778284 33.4462759,37.705762 C34.1187733,38.5497909 34.1009417,39.4436272 33.8033059,39.8170234 C33.7519404,39.8902481 33.6359467,39.9785661 33.5662174,39.9924701 C33.4992383,40.0079749 33.433989,40.0043617 33.4228111,39.9348416 C33.4044472,39.8185784 33.725681,39.3028033 32.9279638,38.1276849" id="Fill-98" fill="#F2F2F2" transform="translate(33.000000, 38.500000) rotate(-180.000000) translate(-33.000000, -38.500000) "></path>
        <path d="M31.7453812,10.3731122 L31.0184717,12.6693762 C30.9422575,12.9102341 31.1090109,13.0519811 31.3874896,12.9821894 C33.1315624,12.545161 33.7906022,11.9401625 33.9960654,10.4989313 C34.0363514,10.216631 33.7615815,9.97435552 33.4327569,10.0021827 L32.1003523,10.1150208 C31.9312809,10.1293447 31.790025,10.2320366 31.7453812,10.3731122" id="Fill-100" fill="#DFDFDC" transform="translate(32.500000, 11.500000) rotate(-180.000000) translate(-32.500000, -11.500000) "></path>
        <path d="M34.1731314,13 C34.0337109,12.9732292 33.9662983,12.8452811 34.0165942,12.661227 L34.6775242,10.2693399 C34.717997,10.1222753 34.8467091,10.0149979 35,10 L34.1731314,13 Z" id="Fill-102" fill="#131313" transform="translate(34.500000, 11.500000) rotate(-180.000000) translate(-34.500000, -11.500000) "></path>
        <path d="M32.9279638,11.8723087 C32.7029404,12.1901336 32.5505739,12.3704738 32.2370583,12.6284749 C32.0924543,12.7443719 31.916889,12.8532255 32.0436171,12.9436928 C32.1320651,13.0068096 32.2666444,13.0039739 32.3659599,12.9955584 C32.7703631,12.951834 33.1893599,12.622209 33.4462759,12.2942763 C34.1187733,11.450204 34.1009417,10.5564158 33.8033059,10.1830207 C33.7519404,10.1097504 33.6359467,10.0214784 33.5662174,10.0075287 C33.4992383,9.99202388 33.433989,9.99563709 33.4228111,10.0652027 C33.4044472,10.1814656 33.725681,10.6971936 32.9279638,11.8723087" id="Fill-104" fill="#F2F2F2" transform="translate(33.000000, 11.500000) rotate(-180.000000) translate(-33.000000, -11.500000) "></path>
        <path d="M9.20736679,20.0692542 C9.12641949,20.2805386 9.08492672,20.3854828 9,20.5940573 C9,20.5963155 9.21255945,23.1121843 9.23813452,24.4694379 C9.24473454,24.8194161 9.24580219,25.1737054 9.241386,25.5238068 C9.21673299,27.4763601 9.02271183,28.916633 9,29.4062494 C9.08492672,29.614865 9.12641949,29.7198502 9.20736679,29.9310525 C9.24124042,30.0195324 9.32417742,30.0164942 9.41177327,29.9579455 C9.81558769,29.6879482 10.2026594,29.4180741 10.5953606,29.132639 C10.6765505,29.0736387 10.7312433,28.9319887 10.7483257,28.8034772 C10.9159468,27.5410675 11,26.2707336 11,25.0003997 C11,23.7303943 10.9161409,22.4607584 10.7483257,21.1968706 C10.7312433,21.068318 10.6765505,20.9267091 10.5953606,20.8676677 C10.1992138,20.5798102 9.81287004,20.310552 9.41177327,20.0424434 C9.32286713,19.9829503 9.24124042,19.9808564 9.20736679,20.0692542" id="Fill-106" fill="#131313" transform="translate(10.000000, 25.000000) rotate(-180.000000) translate(-10.000000, -25.000000) "></path>
        <path d="M9.90236175,29.8803693 C9.94244432,29.85431 9.9624616,29.8412217 10.0024482,29.8150061 C9.6437212,29.8721257 9.46433372,29.8995134 9.10551075,29.9518664 C9.11314324,29.9710886 9.11693548,29.9806997 9.12447197,30 C9.43562788,29.9539371 9.59130184,29.9300266 9.90236175,29.8803693 M9.00926459,29.50667 C9.00758449,29.5238215 9.00556836,29.5430437 9.00412826,29.5588668 C9.32704493,29.5165937 9.56922043,29.4830721 9.81134793,29.448691 C10.0533794,29.4142708 10.2955069,29.3789911 10.6182316,29.3295682 C10.6428571,29.3149953 10.6551459,29.3077284 10.6796755,29.2930773 C10.6829877,29.2858104 10.6852919,29.2777621 10.6883161,29.2702998 C10.3526306,29.3213636 10.1008065,29.3577373 9.84893433,29.3932123 C9.59711022,29.4286483 9.34519009,29.4631467 9.00926459,29.50667 M10.7667051,28.8723384 C10.7694412,28.852452 10.7708333,28.8425284 10.7735695,28.822603 C10.4306836,28.8690956 10.1734831,28.9021875 9.91623464,28.9343807 C9.65908218,28.9665739 9.40178571,28.9979076 9.05875576,29.0373287 C9.05683564,29.0549881 9.05486751,29.0728038 9.05299539,29.0899552 C9.39578533,29.0499872 9.65288978,29.0182628 9.90994624,28.9856398 C10.1670507,28.9529777 10.4240591,28.9194171 10.7667051,28.8723384 M9.10824693,28.5654478 C9.10651882,28.5827165 9.10455069,28.6013527 9.10282258,28.6183088 C9.44724462,28.5833026 9.70550115,28.555407 9.96375768,28.52673 C10.2220142,28.498053 10.4802707,28.4685947 10.8245488,28.4272201 C10.8269489,28.4072947 10.828149,28.397332 10.8305012,28.3773675 C10.4861271,28.4181169 10.2277746,28.4470674 9.96947005,28.4753146 C9.71111751,28.5035228 9.45276498,28.5309495 9.10824693,28.5654478 M9.15260177,28.0920433 C9.15101767,28.1102106 9.14957757,28.1270495 9.14799347,28.1450215 C9.49327957,28.1150552 9.75225614,28.0912228 10.0111847,28.0666872 C10.2700653,28.0421516 10.5290419,28.0169909 10.874232,27.9815549 C10.8762481,27.9616295 10.8772561,27.9516667 10.8792723,27.9317023 C10.5339862,27.966435 10.2750096,27.991166 10.015985,28.0151937 C9.75696045,28.0392605 9.49793587,28.062624 9.15260177,28.0920433 M9.19042819,27.6173885 C9.18918011,27.6352042 9.18788402,27.6528245 9.18658794,27.6704839 C9.53240207,27.6457529 9.79181068,27.6260619 10.0511713,27.6057849 C10.3105319,27.585586 10.5698925,27.564762 10.9156586,27.5354989 C10.9173867,27.5155735 10.9181548,27.5055717 10.9197869,27.4856072 C10.5739727,27.5142061 10.3145641,27.5344831 10.0552035,27.5542523 C9.79574693,27.5740214 9.53633833,27.5932436 9.19042819,27.6173885 M9.26195276,25.2348942 C9.26219278,25.2616629 9.2624328,25.2884315 9.26262481,25.3152001 C9.61007104,25.3188477 9.87067972,25.3217893 10.1313364,25.3247898 C10.3918971,25.327849 10.6525058,25.3309083 11,25.3353207 C10.999808,25.3052575 10.999712,25.2901965 10.99952,25.2600744 C10.6520257,25.2546618 10.3914171,25.2507201 10.1307604,25.2469548 C9.87010369,25.2431307 9.609447,25.2394831 9.26195276,25.2348942 M10.0027842,21.185658 C9.96217358,21.1590517 9.94191628,21.1458072 9.90130568,21.1193962 C9.59072581,21.0698171 9.43538786,21.0459457 9.12475998,21 C9.1171275,21.0194957 9.11328725,21.029263 9.10555876,21.0487587 C9.46452573,21.1011508 9.64396121,21.1284994 10.0027842,21.185658 M10.6883161,21.7299736 C10.6807796,21.7114547 10.672571,21.6943814 10.6634025,21.6775815 C10.3308852,21.6264396 10.0813652,21.5899878 9.83184524,21.5544737 C9.58232527,21.5189595 9.3328053,21.4843831 9,21.4407425 C9.00100806,21.4565656 9.00268817,21.4757487 9.00388825,21.4929002 C9.34091782,21.5365408 9.59355799,21.5711173 9.84624616,21.6066705 C10.0989343,21.6422627 10.3515265,21.6787536 10.6883161,21.7299736 M9.04166667,21.9089508 C9.04339478,21.9260632 9.0452669,21.9438789 9.04709101,21.9615383 C9.39242512,22.0012329 9.65144969,22.0327619 9.91042627,22.0651505 C10.1694028,22.0975781 10.4283794,22.1308262 10.7736175,22.1776705 C10.7708813,22.1577451 10.7694892,22.1477824 10.7667051,22.127896 C10.421803,22.0804657 10.1631144,22.0467488 9.90432988,22.0138914 C9.64554531,21.981034 9.38676075,21.9491142 9.04166667,21.9089508 M9.08942972,22.3801675 C9.09120584,22.3974362 9.09322197,22.4162677 9.09495008,22.4337708 C9.44210829,22.4685426 9.70247696,22.4961256 9.96284562,22.5245682 C10.2232143,22.5529717 10.4835349,22.5821565 10.8305972,22.6231795 C10.828197,22.6029806 10.8269969,22.5929397 10.8245488,22.5727017 C10.4775826,22.5310146 10.2173579,22.5013218 9.95713326,22.4724495 C9.6968606,22.4435381 9.43653994,22.4155253 9.08942972,22.3801675 M9.13488863,22.8540409 C9.13647273,22.8720519 9.13786482,22.8888908 9.13949693,22.9070972 C9.4874712,22.9366728 9.7485119,22.9602316 10.0094086,22.9844156 C10.2704493,23.0086387 10.531394,23.0335259 10.8793203,23.0685322 C10.8773041,23.0486067 10.8762961,23.038644 10.874232,23.0186795 C10.5264497,22.9830091 10.265505,22.957614 10.0046563,22.9329221 C9.7437116,22.9082302 9.4828149,22.8842416 9.13488863,22.8540409 M9.17477919,23.328891 C9.17612327,23.3465504 9.17746736,23.3642488 9.17885945,23.3820254 C9.52707373,23.4063266 9.78821045,23.425666 10.0493952,23.4455524 C10.3105319,23.4654387 10.5716686,23.4858721 10.9198349,23.5146272 C10.9182028,23.4947017 10.9173867,23.4847 10.9156586,23.4647355 C10.5675403,23.4352771 10.3064516,23.4143359 10.0452669,23.3939416 C9.78413018,23.3735474 9.52299347,23.3537782 9.17477919,23.328891 M9.2078053,23.804249 C9.20895737,23.8220647 9.21006144,23.8402711 9.21121352,23.8582039 C9.5593798,23.8771135 9.82056452,23.8921553 10.0817012,23.9076268 C10.3428859,23.9230983 10.6040227,23.9390386 10.9521889,23.9614254 C10.9509409,23.9411484 10.9502688,23.9310294 10.9489727,23.9107523 C10.6007584,23.8876232 10.3395737,23.8712141 10.078437,23.8552347 C9.8172523,23.8392552 9.55606759,23.8237447 9.2078053,23.804249 M9.23377496,24.2810135 C9.23463902,24.2987511 9.23540707,24.3165277 9.23622312,24.3343043 C9.58424539,24.3477442 9.8452861,24.3584492 10.1062788,24.3694277 C10.3673195,24.3804844 10.6283122,24.3918145 10.9763345,24.4077549 C10.9754224,24.3877513 10.9749424,24.3777495 10.9739823,24.357785 C10.6259601,24.3411414 10.3649674,24.3293034 10.1039267,24.3177779 C9.84293395,24.3062524 9.58184524,24.2950786 9.23377496,24.2810135 M10.9922715,24.8582436 L10.9908794,24.8063884 C10.6430972,24.795847 10.3822005,24.7883465 10.1213518,24.7810486 C9.86050307,24.7737508 9.59965438,24.7666557 9.25187212,24.7578171 C9.25240015,24.7763456 9.25283218,24.7945902 9.25331221,24.8131997 C9.60114247,24.8214301 9.86194316,24.8279981 10.1227919,24.8347689 C10.3835925,24.8414991 10.6444412,24.8484726 10.9922715,24.8582436 M9.26392089,25.7181494 C9.26382488,25.744988 9.26372888,25.7718849 9.26358487,25.7987235 C9.61079109,25.7941243 9.87120776,25.7905147 10.1315284,25.7867888 C10.3919451,25.7830046 10.6523137,25.7792204 10.99952,25.7738061 C10.999712,25.7435908 10.999808,25.7285123 11,25.698297 C10.6527938,25.7025469 10.3923771,25.7056325 10.1319604,25.7086016 C9.87154378,25.711629 9.61117512,25.7144235 9.26392089,25.7181494 M9.25758449,26.1899661 C9.25720046,26.2086576 9.25686444,26.2270268 9.25643241,26.245678 C9.60330261,26.2368157 9.86347926,26.2298064 10.1236079,26.2225554 C10.3837846,26.2153849 10.6439612,26.2079728 10.9908794,26.1974991 C10.9914075,26.1766323 10.9916955,26.1661586 10.9922715,26.1452515 C10.6453533,26.1550001 10.3851286,26.1618483 10.124952,26.1685756 C9.86472734,26.1752627 9.60450269,26.1817483 9.25758449,26.1899661 M9.24327957,26.665266 C9.24255952,26.683316 9.24183948,26.7013271 9.24111943,26.719299 C9.58770161,26.7051949 9.84759025,26.6940601 10.1075269,26.6826128 C10.3674635,26.6711264 10.6274002,26.6593665 10.9739823,26.642801 C10.9749424,26.622524 10.9754224,26.612405 10.9763345,26.592167 C10.6297043,26.6079901 10.3697197,26.6192421 10.109783,26.6302597 C9.84984639,26.6411992 9.58986175,26.6518261 9.24327957,26.665266 M10.9521889,27.0388481 C10.9508929,27.059086 10.9502208,27.069205 10.9489247,27.089443 C10.6026786,27.1124158 10.34303,27.1287859 10.0833333,27.1446872 C9.82358871,27.1605885 9.56389209,27.1759818 9.21764593,27.1954384 C9.218702,27.1776228 9.21971006,27.1593773 9.22076613,27.1414835 C9.56701229,27.122652 9.82675691,27.1076494 10.0865015,27.0922951 C10.3461982,27.0769017 10.6058948,27.0610786 10.9521889,27.0388481" id="Fill-108" fill="#2F302F" transform="translate(10.000000, 25.500000) rotate(-180.000000) translate(-10.000000, -25.500000) "></path>
        <path d="M10.1329746,30 C10.0882518,29.9908881 10.0491308,29.971727 10.0257133,29.9416166 C10.0167137,29.9297675 10.0078058,29.9188183 10,29.908769 C10.23794,29.2825633 10.4266573,28.6531704 10.5618359,28.0219401 C11.0589293,25.7132286 10.8712221,23.3812313 10,21.091231 C10.0078058,21.0811817 10.0167137,21.0706825 10.0257133,21.0588333 C10.0491308,21.0269231 10.0859559,21.0091494 10.1329746,21 C11.033216,23.3192107 11.233137,25.6826683 10.7293397,28.0219401 C10.5875492,28.6836932 10.3875364,29.343684 10.1329746,30" id="Fill-110" fill="#818181" transform="translate(10.500000, 25.500000) rotate(-180.000000) translate(-10.500000, -25.500000) "></path>
        <path d="M10.1162063,30 C10.0759435,29.951125 10.0474769,29.9175976 10,29.8608001 C10.8680374,27.6043989 11.0589198,25.3089207 10.5679679,23.0352582 C10.4315815,22.401223 10.2419664,21.7685657 10,21.1396209 C10.0486468,21.0823641 10.0759435,21.048875 10.1162063,21 C11.0410795,23.3373875 11.2403459,25.7176027 10.7126408,28.0741268 C10.5691377,28.7184192 10.3687989,29.3608362 10.1162063,30" id="Fill-112" fill="#E7E7E7" transform="translate(10.500000, 25.500000) rotate(-180.000000) translate(-10.500000, -25.500000) "></path>
        <path d="M9.57492862,28.0086455 C9.43808595,28.6748421 9.2455592,29.3390655 9,30 C9.05776749,29.9813892 9.11477738,29.9630493 9.19167444,29.938093 C9.42643775,29.2975878 9.61025202,28.6540259 9.74292786,28.0086455 C10.2187047,25.6945621 10.0334699,23.3584243 9.19224264,21.0617909 C9.11534559,21.036912 9.0585251,21.0185721 9.00075761,21 C9.86139857,23.3165597 10.054967,25.6737845 9.57492862,28.0086455" id="Fill-114" fill="#818181" transform="translate(9.500000, 25.500000) rotate(-180.000000) translate(-9.500000, -25.500000) "></path>
        <path d="M9.17613803,29.9437576 C9.41942985,29.2910865 9.61001157,28.6351676 9.74553843,27.9773001 C10.2210548,25.6716309 10.0293476,23.3439156 9.17688835,21.0563188 C9.12417825,21.0394308 9.0709054,21.02239 9.00056274,21 C9.2502323,21.6587845 9.44512837,22.3209695 9.58468821,22.9851413 C10.0758676,25.3219884 9.8790957,27.6821042 9,30 C9.07015508,29.9776482 9.12342792,29.9606074 9.17613803,29.9437576" id="Fill-116" fill="#E7E7E7" transform="translate(9.500000, 25.500000) rotate(-180.000000) translate(-9.500000, -25.500000) "></path>
        <path d="M8.54585389,28.1073049 C8.41227635,28.7402422 8.22829803,29.3714142 8,30 C8.07111767,29.9772573 8.13553585,29.9564851 8.22850417,29.9264351 C8.4568022,29.2741214 8.63469945,28.6190161 8.76178363,27.9623509 C9.20662982,25.6630784 9.02811416,23.3452505 8.22901951,21.0612083 C8.15388215,21.0367003 8.09740029,21.0182681 8.04112457,21 C8.87433508,23.3518599 9.04501749,25.7404611 8.54585389,28.1073049" id="Fill-118" fill="#818181" transform="translate(8.500000, 25.500000) rotate(-180.000000) translate(-8.500000, -25.500000) "></path>
        <path d="M9.58390984,23.0123387 C10.0632593,25.3404235 9.86703687,27.688463 9,30 C9.05973367,29.9816271 9.1079435,29.9668233 9.15361597,29.9527496 C9.3877931,29.3317215 9.57650921,28.7081382 9.71352662,28.082811 C10.2254389,25.7443838 10.0503611,23.3845419 9.19569385,21.0609591 C9.13701741,21.0425862 9.0784467,21.024335 9,21 C9.25066997,21.6681162 9.44530658,22.3393555 9.58390984,23.0123387" id="Fill-120" fill="#E7E7E7" transform="translate(9.500000, 25.500000) rotate(-180.000000) translate(-9.500000, -25.500000) "></path>
        <path d="M8.50134389,27.4428181 C8.37385865,27.9632626 8.20644237,28.4825431 8,29 C8.08291631,28.9763329 8.1545207,28.9558084 8.26062643,28.9252351 C8.48109557,28.3413161 8.65247102,27.7552245 8.77452654,27.16793 C9.19747889,25.1321674 9.02497225,23.0821657 8.26051331,21.0581979 C8.17850195,21.0348411 8.11741764,21.0174982 8.05576772,21 C8.87508943,23.1340395 9.02678215,25.2978375 8.50134389,27.4428181" id="Fill-122" fill="#818181" transform="translate(8.500000, 25.000000) rotate(-180.000000) translate(-8.500000, -25.000000) "></path>
        <path d="M8.56261136,22.7162966 C9.05942093,24.8096115 8.87040557,26.9192268 8,29 C8.05561391,28.9852338 8.10092006,28.9731523 8.1443085,28.9616078 C8.36292868,28.4500825 8.54031786,27.9367545 8.67539732,27.4222759 C9.23213567,25.3018832 9.07140669,23.1629272 8.20327841,21.0533502 C8.14263049,21.0373567 8.08138328,21.021248 8.00059929,21 C8.23899596,21.5702067 8.42633332,22.142638 8.56261136,22.7162966" id="Fill-124" fill="#E7E7E7" transform="translate(8.500000, 25.000000) rotate(-180.000000) translate(-8.500000, -25.000000) "></path>
        <path d="M9.42816874,29.6759756 C9.31515998,29.3584708 9.25162038,29.1943264 9.25162038,29.1943264 C9.2855052,28.504602 9.47594589,26.8946348 9.48177889,25.0004293 C9.47590136,23.0926944 9.29178346,21.622797 9.25166491,20.8068505 C9.25162038,20.8065322 9.31515998,20.6424277 9.42816874,20.3249228 C9.43484775,20.3086875 9.44090338,20.2966303 9.48249132,20.3242464 C9.7524567,20.5062178 10.3624725,20.9014375 10.5797182,21.0655022 C10.6257589,21.0958241 10.6694841,21.2058506 10.6822632,21.3040188 C10.6823968,21.3048942 10.6825304,21.3057299 10.6826194,21.3066053 C10.7751459,22.022951 10.8441178,22.7700563 10.8839692,23.5412759 C10.9102399,24.0491484 10.9233308,24.5535987 10.923687,25.0638189 C10.9168299,26.4176812 10.8049788,27.8314312 10.6822632,28.6968399 C10.6728681,28.7689838 10.6396512,28.8893961 10.5780708,28.93659 C10.2763578,29.1558072 9.42830232,29.7126245 9.48249132,29.6766521 C9.44090338,29.7042681 9.43484775,29.692211 9.42816874,29.6759756 M9.52577127,29.9336324 C9.89850427,29.6585067 10.6563042,29.0303811 10.602605,29.0743121 C10.7124523,28.9845003 10.7608529,28.811323 10.7789752,28.6779384 C10.9223067,27.5061271 10.9994269,26.3106392 10.999516,25.0865802 C11.0023657,24.5933116 10.9927479,24.0813406 10.9675903,23.5471254 C10.9340172,22.8346794 10.8733273,22.0943388 10.7789752,21.3229601 C10.7788416,21.3218459 10.7787081,21.3206919 10.77853,21.3195777 C10.7619215,21.1854768 10.7111165,21.0180297 10.6003786,20.9246763 C10.442487,20.796982 9.78545098,20.2511076 9.52274345,20.065157 C9.45546361,20.0170478 9.40710761,20.0044336 9.3647182,20.0008124 C9.31881117,19.9948038 9.23777258,20.0209873 9.20419944,20.117524 C9.13910141,20.2934469 9.07110914,20.4715982 9,20.6520973 C9.04897937,21.7118925 9.2228116,23.076459 9.21760198,25.0004691 C9.2228116,26.9263893 9.04946916,28.2784609 9,29.3488012 C9.07110914,29.5292206 9.13910141,29.7074515 9.20419944,29.8833744 C9.24609907,30.0038663 9.36177943,30.0478769 9.52577127,29.9336324" id="Fill-126" fill="#818181" transform="translate(10.000000, 25.000000) rotate(-180.000000) translate(-10.000000, -25.000000) "></path>
        <path d="M10.4294007,29.883471 C10.2926966,29.7077833 10.1503745,29.5296683 10,29.3491258 C10.1047753,28.2784857 10.4692884,26.9266258 10.4578652,25.0007469 C10.4692884,23.076778 10.1036517,21.7118262 10,20.6523282 C10.1503745,20.4717857 10.2926966,20.2937105 10.4294007,20.1175055 C10.5,20.0212056 10.6707865,19.9945838 10.767603,20.0008712 C10.8336142,20.0032986 10.9076779,20.0110185 11,20.0352526 C10.9543071,20.0536372 10.9121723,20.0802191 10.8849251,20.1175055 C10.748221,20.2937105 10.6058989,20.4717857 10.4555243,20.6523282 C10.5592697,21.7118262 10.9248127,23.076778 10.9133895,25.0007469 C10.9248127,26.9266258 10.5602996,28.2784857 10.4555243,29.3491258 C10.6058989,29.5296683 10.748221,29.7077833 10.8849251,29.883471 C10.9100187,29.9178525 10.9475655,29.9459068 10.9965356,29.9652861 C10.7095506,30.0373917 10.5079588,29.9909131 10.4294007,29.883471" id="Fill-128" fill="#F2F2F2" transform="translate(10.500000, 25.000000) rotate(-180.000000) translate(-10.500000, -25.000000) "></path>
        <path d="M11.0691524,29.1750409 L11,29 C12.9730079,29.6801547 13.422275,29.8101044 14.6188659,30.1763003 C16.4859445,30.7181445 16.9671395,30.8338023 18.3658167,31.1655903 C18.419117,31.177274 20.3706034,31.6247555 22.1708048,31.917455 C25.4684512,32.4627292 24.5448894,32.2602121 26,32.4665523 C25.9788514,32.5200043 25.8450224,32.9044582 25.807798,33 C24.3381408,32.7513912 25.5101516,33.0254754 22.0811379,32.3638288 C20.3067101,32.0263955 18.3858463,31.5327867 18.2758886,31.5055962 C16.5392821,31.0441443 16.0609964,30.8974015 14.5389713,30.4110459 C12.8262735,29.8361873 12.521764,29.7199936 11.0691524,29.1750409" id="Fill-130" fill="#CDCDCA" transform="translate(18.500000, 31.000000) rotate(-180.000000) translate(-18.500000, -31.000000) "></path>
        <path d="M11.068818,20.8245827 L11,21 C12.9741124,20.3189031 13.415234,20.1916781 14.6124947,19.8249942 C16.4806185,19.2824279 16.9620829,19.1666518 18.3615431,18.8343858 C18.4148732,18.8226865 20.367452,18.3746087 22.1686612,18.0815191 C25.4681537,17.5355181 24.5440748,17.7383052 26,17.53169 C25.9699575,17.4611724 25.877404,17.1729128 25.8076531,17 C24.3371358,17.2489401 25.5098773,16.972022 22.0789814,17.6345861 C20.303523,17.9724692 18.3815839,18.4667001 18.2715647,18.4939625 C16.533986,18.9559936 16.0554325,19.1029677 14.5325927,19.5899358 C12.8189361,20.1655605 12.52228,20.2789038 11.068818,20.8245827" id="Fill-132" fill="#CDCDCA" transform="translate(18.500000, 19.000000) rotate(-180.000000) translate(-18.500000, -19.000000) "></path>
        <path d="M76,36 C75.5451561,35.8622219 75.0892101,35.7080121 74.6273856,35.532505 C71.128615,33.3885033 71.1197974,16.6152396 74.6273856,14.4656609 C75.0873731,14.290865 75.5411147,14.1370296 75.9941216,14 C75.7817999,14.358837 73.9710584,14.6909119 73.112954,18.3077661 C73.1133214,18.307055 73.1136888,18.3066807 73.1140562,18.3059321 C72.6785744,20.1425623 72.5684273,22.4055899 72.5342956,24.2927875 C72.5338547,24.7087794 72.5337445,25.6896206 72.5342956,25.7270876 C72.5687579,27.6319519 72.6809993,29.8803446 73.1140562,31.7098258 C73.1136888,31.7090397 73.1133214,31.7083286 73.112954,31.7075426 C73.9633062,35.2879778 75.7680223,35.6839449 76,36" id="Fill-134" fill="#CDCDCA" transform="translate(74.000000, 25.000000) rotate(-180.000000) translate(-74.000000, -25.000000) "></path>
        <path d="M77,34 C76.6647715,33.7504753 76.3490005,33.4641963 76.0496857,33.1398257 C75.4315488,32.4711026 74.8833886,31.6401943 74.3784451,30.6322766 C74.1588109,29.3873277 74.0413659,27.9318244 74.0006002,26.2319161 C74,26.2068146 74,25.8415634 74,25.4818903 C74,25.1217204 74.0006002,24.7676254 74.0006002,24.7676254 C74.0413659,23.0676789 74.1588109,21.613169 74.3784451,20.3686786 C74.8827884,19.360226 75.4309485,18.5298143 76.0490855,17.8605946 C76.3490005,17.5367206 76.6647715,17.2504798 77,17 C74.7306801,18.8518543 74.6278907,23.0128912 74.6278907,25.4999618 C74.6278907,27.9871088 74.7306801,32.1486041 77,34" id="Fill-136" fill="#F2F2F2" transform="translate(75.500000, 25.500000) rotate(-180.000000) translate(-75.500000, -25.500000) "></path>
        <path d="M53.0697135,33.4071715 C55.1700884,33.0942321 55.9967599,32.9501811 58.0638028,32.4941514 C58.8302469,32.3283847 59.7398269,32.1157561 60.6676821,31.8498159 C66.8413022,30.0801748 66.1669617,29.4107959 60.231263,30.5940445 C59.2557852,30.7884909 58.3591165,30.9793696 57.705618,31.0936429 C55.9944612,31.4003386 55.2489741,31.5321423 52.8199918,31.8431262 C49.8586173,32.1650538 48.3496362,32.2586406 45.3224789,32.3537712 C43.7412019,32.3995697 41.6423596,32.4453339 40.0636112,32.3963449 C37.4355182,32.303753 36.5009966,32.1908519 34.5940239,31.9471421 C33.6936772,31.8091976 32.923057,31.6606526 32.2417052,31.5548872 C28.395424,30.9578597 27.6118542,31.4883335 31.8612609,32.6526108 C32.6413059,32.8663372 33.4485147,33.0430132 34.3236517,33.2299123 C36.3129199,33.5920466 37.3099677,33.7522556 39.986143,33.9248491 C41.6534319,34.0216264 43.7046516,34.0094821 45.3706762,33.9738724 C48.426453,33.8951744 49.9995312,33.7933199 53.0697135,33.4071715" id="Fill-138" fill="#F2F2F2" transform="translate(47.000000, 32.000000) rotate(-180.000000) translate(-47.000000, -32.000000) "></path>
        <path d="M53.0697135,16.5928604 C55.1700884,16.9057642 55.9967599,17.0498145 58.0638028,17.5058424 C58.8302469,17.6716083 59.7398269,17.8842361 60.6676821,18.1502095 C66.8413022,19.9198089 66.1669617,20.5892193 60.231263,19.4059414 C59.2557852,19.2114957 58.3591165,19.0206179 57.705618,18.9063794 C55.9944612,18.5996506 55.2489741,18.4678475 52.8199918,18.1568991 C49.8586173,17.8349386 48.3496362,17.7413865 45.3224789,17.646222 C43.7412019,17.600458 41.6423596,17.5546596 40.0636112,17.6036484 C37.4355182,17.6962399 36.5009966,17.8091405 34.5940239,18.0528494 C33.6936772,18.1907933 32.923057,18.3393377 32.2417052,18.4451027 C28.395424,19.0421277 27.6118542,18.5116904 31.8612609,17.3473836 C32.6413059,17.133658 33.4485147,16.9569828 34.3236517,16.7700845 C36.3129199,16.4079518 37.3099677,16.2477777 39.986143,16.0751505 C41.6534319,15.9783737 43.7046516,15.990518 45.3706762,16.0261275 C48.426453,16.1048251 49.9995312,16.2066792 53.0697135,16.5928604" id="Fill-140" fill="#F2F2F2" transform="translate(47.000000, 18.000000) rotate(-180.000000) translate(-47.000000, -18.000000) "></path>
        <path d="M62.3119249,30.3461919 C58.3823095,29.509948 57.5818019,30.2530143 61.9232377,31.8838388 C62.7202225,32.1832662 63.5449204,32.4306987 64.4390183,32.6924994 C64.9042294,32.808599 65.3162848,32.9098979 65.708025,33 C65.7906945,32.4738997 65.8833453,31.9853779 65.985312,31.5419793 C66.0224585,31.380228 65.9869169,31.2157856 65.903856,31.0989651 C65.5370105,31.0391854 65.1510242,30.9720052 64.7152092,30.8956947 C63.7953555,30.7024197 63.0080781,30.4943438 62.3119249,30.3461919" id="Fill-142" fill="#445D66" transform="translate(62.500000, 31.500000) rotate(-180.000000) translate(-62.500000, -31.500000) "></path>
        <path d="M33.4766128,34.0045946 C39.9225362,32.0868731 39.2184121,31.3614819 33.0209043,32.6437797 C32.0024005,32.8544599 31.0661819,33.0613481 30.3838992,33.1851464 C29.8964287,33.2758203 29.4840429,33.3524042 29.0904983,33.4226681 C29.0026128,33.5228221 28.9724509,33.663573 29.0281344,33.7950297 C29.1793438,34.152186 29.3111921,34.5590475 29.4258392,35 C29.821744,34.9149026 30.2542911,34.8181689 30.7578426,34.7028469 C31.5581327,34.5232092 32.5077921,34.2928253 33.4766128,34.0045946" id="Fill-144" fill="#445D66" transform="translate(33.500000, 33.500000) rotate(-180.000000) translate(-33.500000, -33.500000) "></path>
        <path d="M59.3864914,30.4481661 C59.2443669,30.8967696 59.1151727,31.3909725 59,31.9231424 C59.1590921,31.9496852 59.3158928,31.9752558 59.4713296,32 C59.6208195,31.2968085 59.7971521,30.6512725 60,30.0825454 C59.7607071,30.0566345 59.5199411,30.0292166 59.2729554,30 C59.3887282,30.1181789 59.4382672,30.2845337 59.3864914,30.4481661" id="Fill-146" fill="#31444C" transform="translate(59.500000, 31.000000) rotate(-180.000000) translate(-59.500000, -31.000000) "></path>
        <path d="M39,32.9104847 C38.8741492,32.3764099 38.7294164,31.8835806 38.5634304,31.4510435 C38.5023054,31.2918252 38.5354147,31.1213499 38.6318886,31 C38.4186976,31.0420109 38.2104685,31.0821757 38,31.1215751 C38.2384842,31.6254362 38.4442981,32.2638854 38.61731,33 C38.7417556,32.9713623 38.8691433,32.9415089 39,32.9104847" id="Fill-148" fill="#31444C" transform="translate(38.500000, 32.000000) rotate(-180.000000) translate(-38.500000, -32.000000) "></path>
        <path d="M33.0209056,18.3562271 C39.2184313,19.6385286 39.9225174,18.9130981 33.4766154,16.9954083 C32.507792,16.7071767 31.5581298,16.476755 30.7578374,16.297154 C30.2543245,16.1818688 29.8217762,16.0850976 29.4259502,16 C29.3113027,16.4411768 29.1794141,16.8482626 29.0281242,17.2055686 C28.9725606,17.3366911 29.0025225,17.4771078 29.0898882,17.5772249 C29.483634,17.6475262 29.896181,17.7241103 30.383853,17.8148217 C31.0661776,17.9386575 32.0023989,18.1455091 33.0209056,18.3562271" id="Fill-150" fill="#445D66" transform="translate(33.500000, 17.500000) rotate(-180.000000) translate(-33.500000, -17.500000) "></path>
        <path d="M65.985587,18.4599769 C65.8842105,18.0148069 65.7920678,17.5255859 65.7096676,17 C65.3167602,17.0903118 64.9035462,17.1919126 64.4367682,17.3083572 C63.5430036,17.5701173 62.7186493,17.817514 61.9220356,18.116744 C57.5823692,19.7471123 58.3825825,20.4898789 62.3105609,19.6539182 C63.0063849,19.5058165 63.7933735,19.297763 64.7128441,19.1046014 C65.1497296,19.0280285 65.5365333,18.960727 65.9042041,18.9008714 C65.9867608,18.7845229 66.0222485,18.6210489 65.985587,18.4599769" id="Fill-152" fill="#445D66" transform="translate(62.500000, 18.500000) rotate(-180.000000) translate(-62.500000, -18.500000) "></path>
        <path d="M59,18.0767941 C59.1152793,18.6085203 59.2443045,19.1035505 59.3861993,19.5539624 C59.4375137,19.7168825 59.3878423,19.8822815 59.2722892,20 C59.5194414,19.9709349 59.7605148,19.9435709 60,19.9177623 C59.7980285,19.3461323 59.6222892,18.7006732 59.4730011,18 C59.316977,18.0246908 59.1596386,18.0502564 59,18.0767941" id="Fill-154" fill="#31444C" transform="translate(59.500000, 19.000000) rotate(-180.000000) translate(-59.500000, -19.000000) "></path>
        <path d="M38.5632219,18.5498165 C38.729325,18.1170603 38.8741271,17.6239164 39,17.0895233 C38.8691642,17.0584964 38.7417541,17.0286853 38.6172867,17 C38.4442883,17.7362259 38.2384821,18.3746426 38,18.8786391 C38.2101981,18.917997 38.4181563,18.9580753 38.6310773,19 C38.5351135,18.8787292 38.5022179,18.7086439 38.5632219,18.5498165" id="Fill-156" fill="#31444C" transform="translate(38.500000, 18.000000) rotate(-180.000000) translate(-38.500000, -18.000000) "></path>
        <path d="M39,17.3038813 C42.2696949,16.93702 45.0673886,16.9768283 48.113812,17.0448314 C52.2425173,17.1371142 55.5094054,17.4054089 59,17.9722329 L58.9805112,18 C55.4920118,17.4334063 52.2394734,17.167283 48.1128632,17.0751317 C45.0680211,17.0070958 42.2793009,16.9664321 39.0122151,17.333096 L39,17.3038813 Z" id="Fill-158" fill="#9A9A9A" transform="translate(49.000000, 17.500000) rotate(-180.000000) translate(-49.000000, -17.500000) "></path>
        <path d="M39,32.6964935 L39.0131228,32.6667066 C42.2798672,33.0326218 45.0682227,32.9929826 48.1127493,32.9251658 C52.2384039,32.833178 55.4905631,32.5655889 58.97913,32 L59,32.0287688 C55.5094962,32.5946861 52.241487,32.8632933 48.1136584,32.9552811 C45.0676298,33.0231636 42.2693136,33.0628028 39,32.6964935" id="Fill-160" fill="#9A9A9A" transform="translate(49.000000, 32.500000) rotate(-180.000000) translate(-49.000000, -32.500000) "></path>
        <path d="M66,16.1286622 C66.1880938,16.034655 66.3802783,15.9698469 66.5746975,16.0143579 L66.7444592,16.0528154 C68.6894087,16.4954329 71.3221923,17.0536603 72.9766303,16.866714 L73,16.9621456 C71.3437439,17.1493293 68.6876285,16.6042771 66.7419594,16.161541 L66.5720462,16.1227274 C66.3802783,16.079166 66.2057063,16.1519266 66.0199987,16.2441534 L66,16.1286622 Z" id="Fill-162" fill="#9A9A9A" transform="translate(69.500000, 16.500000) rotate(-180.000000) translate(-69.500000, -16.500000) "></path>
        <path d="M66,34.9110795 L66.0174988,34.8194512 C66.2032433,34.9102645 66.3803142,34.9135245 66.572081,34.8707956 L66.7470308,34.8317925 C68.6913637,34.3981009 71.3452679,33.8532212 73,34.0364778 L72.975835,34.1318317 C71.3228453,33.9490409 68.6929924,34.5050976 66.7495306,34.9384399 L66.5747323,34.9775595 C66.3803142,35.0208704 66.1880928,35.0029406 66,34.9110795" id="Fill-164" fill="#9A9A9A" transform="translate(69.500000, 34.500000) rotate(-180.000000) translate(-69.500000, -34.500000) "></path>
        <path d="M59,12 L59.0384013,12.0010713 C59.6694243,12.7556125 60.1621576,13.2176991 60.8082728,13.8190498 L61,14 L60.9335942,14 L60.7699832,13.8476013 C60.1226942,13.2450862 59.6327557,12.7569166 59,12" id="Fill-166" fill="#9A9A9A" transform="translate(60.000000, 13.000000) rotate(-180.000000) translate(-60.000000, -13.000000) "></path>
        <path d="M28,12 L28.1341691,12.0012048 C28.6491064,12.3616144 28.9037077,12.659191 29,12.9955516 L28.8783676,13 C28.7834089,12.6691534 28.5080021,12.3554516 28,12" id="Fill-168" fill="#9A9A9A" transform="translate(28.500000, 12.500000) rotate(-180.000000) translate(-28.500000, -12.500000) "></path>
        <path d="M59,38 C59.6347497,37.2432256 60.1252279,36.7557958 60.7744496,36.1530791 L60.9392512,36 L61,36 L60.8128173,36.1816445 C60.1647174,36.7832429 59.7087365,37.2435052 59.0757818,37.9983224 L59,38 Z" id="Fill-170" fill="#9A9A9A" transform="translate(60.000000, 37.000000) rotate(-180.000000) translate(-60.000000, -37.000000) "></path>
        <path d="M28,38 C28.508,37.6447259 28.7833333,37.3309212 28.8782667,37 L29,37.0044531 C28.9037333,37.3408943 28.6492,37.6383245 28.1342667,37.9987476 L28,38 Z" id="Fill-172" fill="#9A9A9A" transform="translate(28.500000, 37.500000) rotate(-180.000000) translate(-28.500000, -37.500000) "></path>
        <path d="M72.2758413,36.9720952 C72.333734,36.9408306 72.3602764,36.9258983 72.4188702,36.895287 C72.7779447,36.7073262 72.9953926,36.3726552 73,36 L72.8810096,36.0287448 C72.8768029,36.3541764 72.6908053,36.6239851 72.3598758,36.7971069 C72.2404848,36.859636 72.1164864,36.934951 72,37 L72.2758413,36.9720952 Z" id="Fill-174" fill="#9A9A9A" transform="translate(72.500000, 36.500000) rotate(-180.000000) translate(-72.500000, -36.500000) "></path>
        <path d="M72.4437658,13.1318116 C72.3725034,13.091695 72.3311034,13.0674114 72.2609075,13.0262263 L72,13 C72.1260423,13.0763477 72.2570293,13.1610491 72.3866589,13.2339971 C72.7069032,13.4143759 72.8850107,13.6308888 72.8889858,13.9694998 L73,14 C72.99554,13.6123361 72.7912546,13.3275376 72.4437658,13.1318116" id="Fill-176" fill="#9A9A9A" transform="translate(72.500000, 13.500000) rotate(-180.000000) translate(-72.500000, -13.500000) "></path>
        <path d="M16.9588751,36.9510127 L17,37 L16.9506584,36.9974402 C16.8595345,36.8859629 16.737187,36.7781013 16.5739611,36.7050523 L15,36 L15.1043939,36.0154545 L16.5936813,36.6781429 C16.7417473,36.7447605 16.8684086,36.8395674 16.9588751,36.9510127" id="Fill-178" fill="#9A9A9A" transform="translate(16.000000, 36.500000) rotate(-180.000000) translate(-16.000000, -36.500000) "></path>
        <path d="M16.9369457,13.0721377 L17,13 L16.9500717,13.0025786 C16.8579825,13.1148466 16.7128082,13.2463254 16.5477788,13.3199136 L15,14 L15.078714,13.9886862 L16.5677169,13.3470539 C16.7174188,13.2799123 16.8454797,13.1844056 16.9369457,13.0721377" id="Fill-180" fill="#9A9A9A" transform="translate(16.000000, 13.500000) rotate(-180.000000) translate(-16.000000, -13.500000) "></path>
        <path d="M19.2543319,35.2488914 C17.2257756,34.9526883 15.72875,34.9961957 13.1306533,35.381501 C13.0941769,35.3745899 13.0674652,35.3695805 13,35.3642464 C15.7557441,34.9450814 17.1683575,34.8872416 19.2631282,35.193046 C19.9732883,35.2968516 20.5721228,35.409099 21.1522348,35.5174501 C22.7383936,35.8142098 23.9911806,36.0488625 26.3384616,35.897143 L26.9485537,35.8557228 L27,35.8993694 L26.3425773,35.953545 C23.9876298,36.1058674 22.6681039,35.8587377 21.140493,35.5726925 C20.5615511,35.4643878 19.9633218,35.3521404 19.2543319,35.2488914" id="Fill-182" fill="#9A9A9A" transform="translate(20.000000, 35.500000) rotate(-180.000000) translate(-20.000000, -35.500000) "></path>
        <path d="M19.2543319,14.7511029 C17.2257756,15.0473128 15.72875,15.0038044 13.1306533,14.6184903 C13.0941769,14.6254016 13.0674652,14.6304575 13,14.6357453 C15.7557441,15.0549198 17.1683575,15.112761 19.2631282,14.8069496 C19.9732883,14.7031416 20.5721228,14.5908917 21.1522348,14.4825381 C22.7383936,14.1857716 23.9911806,13.9511136 26.3384616,14.1028365 L26.9485537,14.1442577 L27,14.1006101 L26.3425773,14.0464797 C23.9876298,13.8941074 22.6681039,14.1412427 21.140493,14.4272944 C20.5615511,14.5356017 19.9633218,14.6478516 19.2543319,14.7511029" id="Fill-184" fill="#9A9A9A" transform="translate(20.000000, 14.500000) rotate(-180.000000) translate(-20.000000, -14.500000) "></path>
        <polygon id="Fill-186" fill="#9A9A9A" transform="translate(9.000000, 20.500000) rotate(-180.000000) translate(-9.000000, -20.500000) " points="8.87939643 21 9.07401075 20.0457709 9.12060357 20 8.92182847 20.9741258"></polygon>
        <polygon id="Fill-188" fill="#9A9A9A" transform="translate(9.000000, 29.500000) rotate(-180.000000) translate(-9.000000, -29.500000) " points="8.87802259 29 8.92053314 29.0262281 9.12197741 30 9.0762089 29.9579667"></polygon>
        <path d="M45.9602059,12.0015729 L45.9217776,12 C45.9244076,12.0154865 46.0742739,12.9556275 46.0358064,13.9966728 L46.071801,14 C46.1103471,12.9511509 45.9628751,12.0171199 45.9602059,12.0015729" id="Fill-190" fill="#9A9A9A" transform="translate(46.000000, 13.000000) rotate(-180.000000) translate(-46.000000, -13.000000) "></path>
        <path d="M47,16.9998471 L46.0373261,14.0006882 L46,14 L46.9637837,16.9987765 C46.9637837,16.9990059 47,17 47,17 L47,16.9998471 Z" id="Fill-192" fill="#4C4C4C" transform="translate(46.500000, 15.500000) rotate(-180.000000) translate(-46.500000, -15.500000) "></path>
        <path d="M45.9602059,37.9984271 L45.9217776,38 C45.9244076,37.984574 46.0742739,37.0443725 46.0358064,36.0033272 L46.071801,36 C46.1103471,37.0489096 45.9628751,37.9828801 45.9602059,37.9984271" id="Fill-194" fill="#9A9A9A" transform="translate(46.000000, 37.000000) rotate(-180.000000) translate(-46.000000, -37.000000) "></path>
        <path d="M47,33.0001529 L46.0373261,35.9993118 L46,36 L46.9637837,33.0012617 C46.9637837,33.0009941 47,33 47,33 L47,33.0001529 Z" id="Fill-196" fill="#4C4C4C" transform="translate(46.500000, 34.500000) rotate(-180.000000) translate(-46.500000, -34.500000) "></path>
        <path d="M67.7759689,13.0392675 C67.6218524,13.0392675 67.4745623,13.0582056 67.3487553,13.0980636 C67.1610688,13.1575644 67.0504808,13.253576 67.0374704,13.3684816 C67.0243797,13.4833431 67.1100714,13.6062204 67.2787644,13.7143875 C67.6369107,13.9441988 68.2525737,14.028275 68.6512368,13.9019625 C68.8389635,13.8424177 68.9495114,13.7464061 68.9625619,13.6315005 C68.9756124,13.5166389 68.8898806,13.3938057 68.7212277,13.2856385 C68.476119,13.1283205 68.1102227,13.0392675 67.7759689,13.0392675 M68.2252279,14 C67.8841075,14 67.5107423,13.9091413 67.2604937,13.7486082 C67.0785896,13.6318969 66.9866336,13.4951904 67.0015714,13.3635489 C67.0165093,13.2319513 67.1362528,13.1241805 67.3387164,13.0600113 C67.7455311,12.9310123 68.3739636,13.0168942 68.7394985,13.2513739 C68.9214427,13.3680852 69.0133987,13.5047916 68.9984207,13.6364332 C68.9834829,13.7680307 68.8637394,13.8758456 68.6612757,13.9400148 C68.5329389,13.9807096 68.3824765,14 68.2252279,14" id="Fill-198" fill="#9A9A9A" transform="translate(68.000000, 13.500000) rotate(-180.000000) translate(-68.000000, -13.500000) "></path>
    </g>
</svg>