<svg width="18" height="18" viewBox="0 0 18 18" fill="none" xmlns="http://www.w3.org/2000/svg">
<path d="M9 13.5C8.75501 13.5 8.511 13.4091 8.32405 13.2269L1.03002 6.09537C0.656659 5.72989 0.656659 5.13863 1.03002 4.77411C1.40339 4.40863 2.00812 4.40863 2.38139 4.77411L9 11.2447L15.6186 4.77411C15.992 4.40863 16.5967 4.40863 16.97 4.77411C17.3433 5.13915 17.3433 5.72989 16.97 6.09537L9.67551 13.2269C9.48909 13.4091 9.24455 13.5 9 13.5Z" fill="black"/>
<mask id="mask0_2422_3559" style="mask-type:alpha" maskUnits="userSpaceOnUse" x="0" y="4" width="18" height="10">
<path d="M9 13.5C8.75501 13.5 8.511 13.4091 8.32405 13.2269L1.03002 6.09537C0.656659 5.72989 0.656659 5.13863 1.03002 4.77411C1.40339 4.40863 2.00812 4.40863 2.38139 4.77411L9 11.2447L15.6186 4.77411C15.992 4.40863 16.5967 4.40863 16.97 4.77411C17.3433 5.13915 17.3433 5.72989 16.97 6.09537L9.67551 13.2269C9.48909 13.4091 9.24455 13.5 9 13.5Z" fill="white"/>
</mask>
<g mask="url(#mask0_2422_3559)">
<rect width="18" height="18" fill="#007AFF"/>
</g>
</svg>
