<?xml version="1.0" encoding="UTF-8" standalone="no"?>
<svg width="22px" height="24px" viewBox="0 0 22 24" version="1.1" xmlns="http://www.w3.org/2000/svg" xmlns:xlink="http://www.w3.org/1999/xlink">
  <path
     class="main-icon"
     d="M 1.5431149,14.791823 3.3481372,13.016801 11.470457,5.0298408 c 1.49693,-1.4610269 3.91328,-1.4566174 5.404604,0.00992 1.491325,1.4665389 1.495809,3.8427287 0.01009,5.3147797 L 8.763204,18.34389 c -0.3321943,0.326857 -0.8710293,0.326857 -1.2034104,0 -0.3321944,-0.326857 -0.3321944,-0.856553 0,-1.18341 L 15.68174,9.171132 c 0.830673,-0.8168669 0.830673,-2.1410144 0,-2.9578814 -0.830673,-0.8168669 -2.1772,-0.8168669 -3.007872,0 L 4.5494925,14.20021 2.7444701,15.975049 c -1.495435,1.471133 -1.4948745,3.855774 9.343e-4,5.326171 1.4959956,1.470397 3.9207527,1.47003 5.4161878,-0.0011 l 1.5038427,-1.4794 8.4229391,-8.28295 0.601799,-0.591613 C 20.793572,8.8130408 20.766854,5.4147568 18.630385,3.3136119 16.493729,1.2126507 13.038011,1.1863772 10.868845,3.254818 L 1.8442945,12.129565 C 1.6292463,12.340855 1.3159224,12.42335 1.022403,12.346 0.72869689,12.268649 0.49926229,12.043211 0.42060439,11.754387 c -0.0786579,-0.288825 0.005418,-0.596758 0.2202796,-0.808232 L 9.6654349,2.071592 c 2.8262681,-2.76661775 7.3964621,-2.76147329 10.2161911,0.011575 2.819915,2.7728646 2.825146,7.2671025 0.01177,10.046398 l -9.024551,8.874563 -1.5060844,1.4794 c -2.1719681,2.051537 -5.6140471,2.017363 -7.7432298,-0.07717 -2.12936951,-2.094347 -2.16318681,-5.479219 -0.076416,-7.614538 z"
     id="attach-clip"
  />
</svg>
