<?xml version="1.0" encoding="UTF-8"?>
<svg width="22px" height="24px" viewBox="0 0 22 24" version="1.1" xmlns="http://www.w3.org/2000/svg" xmlns:xlink="http://www.w3.org/1999/xlink">
    <!-- Generator: Sketch 53.2 (72643) - https://sketchapp.com -->
    <title>icono/placeholder</title>
    <desc>Created with Sketch.</desc>
    <defs>
        <path d="M20.4568851,14.7918233 L18.6518628,13.0168005 L10.5295428,5.02984084 C9.032613,3.56881388 6.61626344,3.57322342 5.12493877,5.03976232 C3.63361405,6.50630118 3.62912999,8.88249102 5.1148496,10.3545418 L13.236796,18.3438899 C13.5689903,18.670747 14.1078253,18.670747 14.4402064,18.3438899 C14.7724008,18.017033 14.7724008,17.4873372 14.4402064,17.1604802 L6.31826006,9.17113204 C5.48758737,8.35426513 5.48758737,7.03011757 6.31826006,6.21325062 C7.14893279,5.39638371 8.49545963,5.39638371 9.32613231,6.21325062 L17.4505075,14.2002103 L19.2555299,15.9750493 C20.7509649,17.4461815 20.7504044,19.830823 19.2545956,21.3012202 C17.7586,22.7716174 15.3338429,22.7712499 13.8384078,21.3001178 L12.3345651,19.8207178 L3.91162597,11.5377679 L3.30982733,10.9461549 C1.20642798,8.81304082 1.23314554,5.41475678 3.36961484,3.31361187 C5.50627097,1.21265069 8.96198903,1.18637718 11.1311546,3.25481803 L20.1557055,12.1295646 C20.3707537,12.340855 20.6840776,12.4233501 20.977597,12.3459995 C21.2713031,12.2686488 21.5007377,12.0432112 21.5793956,11.7543865 C21.6580535,11.4655617 21.5739774,11.157629 21.359116,10.9461549 L12.3345651,2.07159198 C9.50829739,-0.695025748 4.9381028,-0.689881287 2.11837438,2.08316698 C-0.701540871,4.85603157 -0.706772326,9.35026954 2.1066037,12.1295646 L11.1311546,21.0041276 L12.6372394,22.4835276 C14.8092075,24.5350652 18.2512865,24.5008913 20.3804692,22.4063607 C22.5098387,20.3120138 22.543656,16.9271421 20.4568851,14.7918233 L20.4568851,14.7918233 Z" id="path-1"></path>
    </defs>
    <g id="01-Vehiculos" stroke="none" stroke-width="1" fill="none" fill-rule="evenodd">
        <g id="calendar-acarga" transform="translate(-585.000000, -2038.000000)">
            <g id="icono/placeholder" transform="translate(585.000000, 2038.000000)">
                <mask id="mask-2" fill="white">
                    <use xlink:href="#path-1"></use>
                </mask>
                <use id="Mask" fill="#007AFF" fill-rule="nonzero" transform="translate(11.000000, 12.000000) scale(-1, 1) translate(-11.000000, -12.000000) " xlink:href="#path-1"></use>
            </g>
        </g>
    </g>
</svg>