<?xml version="1.0" encoding="UTF-8"?>
<svg width="62px" height="62px" viewBox="0 0 62 62" version="1.1" xmlns="http://www.w3.org/2000/svg" xmlns:xlink="http://www.w3.org/1999/xlink">
    <!-- Generator: Sketch 53.2 (72643) - https://sketchapp.com -->
    <title>Ico_catalogo_grande</title>
    <desc>Created with Sketch.</desc>
    <g id="07-Panel-de-administración" stroke="none" stroke-width="1" fill="none" fill-rule="evenodd">
        <g id="Panel-reportes" transform="translate(-689.000000, -548.000000)" fill="#7FBDFF">
            <g id="Group-4" transform="translate(620.000000, 500.000000)">
                <g id="Ico_catalogo_grande" transform="translate(69.000000, 48.000000)">
                    <g>
                        <path d="M59.9957688,12 L28.0042312,12 C26.8973249,12 26,11.1045695 26,10 C26,8.8954305 26.8973249,8 28.0042312,8 L59.9957688,8 C61.1026751,8 62,8.8954305 62,10 C62,11.1045695 61.1026751,12 59.9957688,12 L59.9957688,12 Z" id="Path" fill-rule="nonzero"></path>
                        <path d="M10.0204553,12 L1.9795447,12 C0.886272353,12 0,11.1045695 0,10 C0,8.8954305 0.886272353,8 1.9795447,8 L10.0204553,8 C11.1137276,8 12,8.8954305 12,10 C12,11.1045695 11.1137276,12 10.0204553,12 Z" id="Path" fill-rule="nonzero"></path>
                        <path d="M60.0042133,54 L27.9957867,54 C26.8935441,54 26,53.1045695 26,52 C26,50.8954305 26.8935441,50 27.9957867,50 L60.0042133,50 C61.1064559,50 62,50.8954305 62,52 C62,53.1045695 61.1064559,54 60.0042133,54 Z" id="Path" fill-rule="nonzero"></path>
                        <path d="M10.0204553,54 L1.9795447,54 C0.886272353,54 0,53.1045695 0,52 C0,50.8954305 0.886272353,50 1.9795447,50 L10.0204553,50 C11.1137276,50 12,50.8954305 12,52 C12,53.1045695 11.1137276,54 10.0204553,54 Z" id="Path" fill-rule="nonzero"></path>
                        <path d="M60.0449658,33 L51.9550342,33 C50.8752986,33 50,32.1045695 50,31 C50,29.8954305 50.8752986,29 51.9550342,29 L60.0449658,29 C61.1247014,29 62,29.8954305 62,31 C62,32.1045695 61.1247014,33 60.0449658,33 Z" id="Path" fill-rule="nonzero"></path>
                        <path d="M34.0042133,33 L1.99578667,33 C0.893544129,33 0,32.1045695 0,31 C0,29.8954305 0.893544129,29 1.99578667,29 L34.0042133,29 C35.1064559,29 36,29.8954305 36,31 C36,32.1045695 35.1064559,33 34.0042133,33 Z" id="Path" fill-rule="nonzero"></path>
                        <path d="M26.9207921,21 L10.0792079,21 C8.93089309,21 8,20.0691069 8,18.9207921 L8,2.07920792 C8,0.930893094 8.93089309,0 10.0792079,0 L26.9207921,0 C28.0691069,1.47736608e-15 29,0.930893094 29,2.07920792 L29,18.9207921 C29,20.0691069 28.0691069,21 26.9207921,21 Z M12.1584158,16.8415842 L24.8415842,16.8415842 L24.8415842,4.15841584 L12.1584158,4.15841584 L12.1584158,16.8415842 Z" id="Shape" fill-rule="nonzero"></path>
                        <path d="M26.9207921,62 L10.0792079,62 C8.93089309,62 8,61.0691069 8,59.9207921 L8,43.0792079 C8,41.9308931 8.93089309,41 10.0792079,41 L26.9207921,41 C28.0691069,41 29,41.9308931 29,43.0792079 L29,59.9207921 C29,61.0691069 28.0691069,62 26.9207921,62 L26.9207921,62 Z M12.1584158,57.8415842 L24.8415842,57.8415842 L24.8415842,45.1584158 L12.1584158,45.1584158 L12.1584158,57.8415842 Z" id="Shape" fill-rule="nonzero"></path>
                        <path d="M51.9207921,41 L35.0792079,41 C33.9308931,41 33,40.0691069 33,38.9207921 L33,22.0792079 C33,20.9308931 33.9308931,20 35.0792079,20 L51.9207921,20 C53.0691069,20 54,20.9308931 54,22.0792079 L54,38.9207921 C54,40.0691069 53.0691069,41 51.9207921,41 Z M37.1584158,36.8415842 L49.8415842,36.8415842 L49.8415842,24.1584158 L37.1584158,24.1584158 L37.1584158,36.8415842 Z" id="Shape" fill-rule="nonzero"></path>
                    </g>
                </g>
            </g>
        </g>
    </g>
</svg>