<svg width="44" height="44" viewBox="0 0 44 44" fill="none" xmlns="http://www.w3.org/2000/svg">
<path d="M34.8333 23.833H9.16667C7.15 23.833 5.5 25.483 5.5 27.4997V34.833C5.5 36.8497 7.15 38.4997 9.16667 38.4997H34.8333C36.85 38.4997 38.5 36.8497 38.5 34.833V27.4997C38.5 25.483 36.85 23.833 34.8333 23.833ZM34.8333 34.833H9.16667V27.4997H34.8333V34.833Z" fill="#7FBDFF"/>
<path d="M34.8333 5.5H9.16667C7.15 5.5 5.5 7.15 5.5 9.16667V16.5C5.5 18.5167 7.15 20.1667 9.16667 20.1667H34.8333C36.85 20.1667 38.5 18.5167 38.5 16.5V9.16667C38.5 7.15 36.85 5.5 34.8333 5.5ZM34.8333 16.5H9.16667V9.16667H34.8333V16.5Z" fill="#7FBDFF"/>
</svg>
