<svg width="20" height="25" fill="none" xmlns="http://www.w3.org/2000/svg">
    <path fill-rule="evenodd" clip-rule="evenodd" d="M14.116.61A2.07 2.07 0 0 0 12.643 0H2.083A2.086 2.086 0 0 0 0 2.083v20.834A2.086 2.086 0 0 0 2.083 25h15.834A2.086 2.086 0 0 0 20 22.917V7.357a2.07 2.07 0 0 0-.61-1.473L14.116.61zm5.05 22.307c0 .69-.56 1.249-1.25 1.25H2.084c-.69-.001-1.249-.56-1.25-1.25V2.083c.001-.69.56-1.249 1.25-1.25h10.56c.092 0 .184.01.274.03V5A2.086 2.086 0 0 0 15 7.083h2.5V6.25H15c-.69 0-1.25-.56-1.25-1.25V1.423l5.05 5.05c.236.234.368.552.367.884v15.56zM9.49 3.646H3.163v.833h6.326v-.833zM3.163 5.208h6.326v.834H3.163v-.834zM3.333 10c0-.23.187-.417.417-.417h12.5c.23 0 .417.187.417.417v11.667c0 .23-.187.416-.417.416H3.75a.417.417 0 0 1-.417-.416V10zm9.167 2.083h3.333v-1.666H12.5v1.666zm-.833 0H8.333v-1.666h3.334v1.666zm-4.167 0v-1.666H4.167v1.666H7.5zm-3.333.834H7.5v8.333H4.167v-8.333zm7.5 0H8.333v8.333h3.334v-8.333zm.833 8.333v-8.333h3.333v8.333H12.5z" fill="#1C284E"/>
</svg>
