<svg xmlns="http://www.w3.org/2000/svg" xmlns:xlink="http://www.w3.org/1999/xlink" width="24" height="24" viewBox="0 0 24 24">
    <defs>
        <path id="prefix__calendar" d="M22 2.25c1.105 0 2 .895 2 2V22c0 1.105-.895 2-2 2H2c-1.105 0-2-.895-2-2V4.25c0-1.105.895-2 2-2h3.25V.75C5.25.335 5.586 0 6 0s.75.335.75.75v1.5h4.5V.75c0-.415.336-.75.75-.75s.75.335.75.75v1.5h4.5V.75c0-.415.335-.75.75-.75s.75.335.75.75v1.5H22zM22.5 22V4.25c0-.276-.224-.5-.5-.5h-3.25v1.5c0 .415-.335.75-.75.75s-.75-.335-.75-.75v-1.5h-4.5v1.5c0 .415-.336.75-.75.75s-.75-.335-.75-.75v-1.5h-4.5v1.5c0 .415-.336.75-.75.75s-.75-.335-.75-.75v-1.5H2c-.276 0-.5.224-.5.5V22c0 .276.224.5.5.5h20c.276 0 .5-.224.5-.5zM5.25 9h3v2.25h-3V9zm0 3.75h3V15h-3v-2.25zm0 3.75h3v2.25h-3V16.5zm5.25 0h3v2.25h-3V16.5zm0-3.75h3V15h-3v-2.25zm0-3.75h3v2.25h-3V9zm5.25 7.5h3v2.25h-3V16.5zm0-3.75h3V15h-3v-2.25zm0-3.75h3v2.25h-3V9z"/>
    </defs>
    <g fill="none" fill-rule="evenodd">
        <mask id="prefix__bcalendar" fill="#fff">
            <use xlink:href="#prefix__calendar"/>
        </mask>
        <use fill="#010002" fill-rule="nonzero" xlink:href="#prefix__calendar"/>
        <g fill="#007AFF" mask="url(#prefix__bcalendar)">
            <path d="M0 0H24V24H0z"/>
        </g>
    </g>
</svg>
