<?xml version="1.0" encoding="UTF-8"?>
<svg width="86px" height="86px" viewBox="0 0 86 86" version="1.1" xmlns="http://www.w3.org/2000/svg" xmlns:xlink="http://www.w3.org/1999/xlink">
    <title>camara</title>
    <g id="05-Cotización" stroke="none" stroke-width="1" fill="none" fill-rule="evenodd">
        <g id="09.02.02-Elegir-tomar-más-fotos" transform="translate(-677.000000, -866.000000)">
            <g id="camara" transform="translate(677.000000, 866.000000)">
                <g id="continue" fill="#CF703E">
                    <circle id="Oval" cx="43" cy="43" r="43"></circle>
                </g>
                <g id="toma-de-fotografias" transform="translate(19.000000, 25.000000)" fill="#FFFFFF" fill-rule="nonzero">
                    <path d="M23.5595257,11 C19.3910246,11 16,14.3912089 16,18.5595908 C16,19.3550557 16.6449388,20 17.4403968,20 C18.2358549,20 18.8807937,19.3550557 18.8807937,18.5595908 C18.8807937,15.9796584 20.9796156,13.880741 23.5596032,13.880741 C24.3550612,13.880741 25,13.2357967 25,12.4403317 C25,11.6449443 24.3549837,11 23.5595257,11 Z" id="Path"></path>
                    <path d="M46.5423553,7.02019807 L38.16982,7.02019807 L30.2455192,0.343179436 C29.9824608,0.12164213 29.6493633,0 29.3048933,0 L18.6950283,0 C18.3507935,0 18.0175392,0.12164213 17.7544024,0.343179436 L9.83025845,7.0202763 L1.45756625,7.0202763 C0.652626385,7.02019807 0,7.67104213 0,8.47395841 L0,33.5462397 C0,34.3490777 0.652626385,35 1.45756625,35 L46.5424338,35 C47.3473736,35 48,34.3490777 48,33.5462397 L48,8.47395841 C48,7.67112036 47.3472168,7.02019807 46.5423553,7.02019807 Z M45.0848675,32.0925575 L2.91505406,32.0925575 L2.91505406,16.1632273 L11.2977855,16.1632273 C11.1770798,16.868517 11.1133936,17.5929721 11.1133936,18.3320556 C11.1133936,25.4192155 16.8942469,31.1850525 23.9998824,31.1850525 C31.1055178,31.1850525 36.8866848,25.4192155 36.8866848,18.3320556 C36.8866848,17.5928157 36.8229202,16.868517 36.7020577,16.1632273 L45.0848675,16.1632273 L45.0848675,32.0925575 L45.0848675,32.0925575 Z M23.9999608,28.27761 C18.5016953,28.27761 14.0285261,23.8161209 14.0285261,18.3320556 C14.0285261,12.8481468 18.5016953,8.3866577 23.9999608,8.3866577 C29.49854,8.3866577 33.9716308,12.8481468 33.9716308,18.3320556 C33.9716308,23.8161209 29.4983832,28.27761 23.9999608,28.27761 Z M2.91505406,9.92771876 L10.3635125,9.92771876 C10.7077472,9.92771876 11.0410016,9.80607663 11.3041384,9.58438287 L19.2282823,2.90744246 L28.7714824,2.90744246 L36.6958616,9.58438287 C36.95892,9.80607663 37.2920175,9.92771876 37.6364875,9.92771876 L45.0847106,9.92771876 L45.0847106,13.2557848 L35.8376669,13.2557848 C33.8604153,8.68603032 29.2986972,5.47929346 23.9997255,5.47929346 C18.6990283,5.47929346 14.1362122,8.68814243 12.1598233,13.2600873 C12.1316665,13.2585228 12.1035881,13.2558631 12.0749607,13.2558631 L2.91505406,13.2558631 L2.91505406,9.92771876 Z" id="Shape"></path>
                </g>
            </g>
        </g>
    </g>
</svg>