<svg width="90" height="90" viewBox="0 0 90 90" fill="none" xmlns="http://www.w3.org/2000/svg">
<path d="M45 7.5C24.2625 7.5 7.5 24.2625 7.5 45C7.5 65.7375 24.2625 82.5 45 82.5C65.7375 82.5 82.5 65.7375 82.5 45C82.5 24.2625 65.7375 7.5 45 7.5ZM61.125 61.125C59.6625 62.5875 57.3 62.5875 55.8375 61.125L45 50.2875L34.1625 61.125C32.7 62.5875 30.3375 62.5875 28.875 61.125C27.4125 59.6625 27.4125 57.3 28.875 55.8375L39.7125 45L28.875 34.1625C27.4125 32.7 27.4125 30.3375 28.875 28.875C30.3375 27.4125 32.7 27.4125 34.1625 28.875L45 39.7125L55.8375 28.875C57.3 27.4125 59.6625 27.4125 61.125 28.875C62.5875 30.3375 62.5875 32.7 61.125 34.1625L50.2875 45L61.125 55.8375C62.55 57.2625 62.55 59.6625 61.125 61.125Z" fill="#E23B4F"/>
</svg>
