<?xml version="1.0" encoding="UTF-8"?>
<svg width="274px" height="60px" viewBox="0 0 274 60" version="1.1" xmlns="http://www.w3.org/2000/svg" xmlns:xlink="http://www.w3.org/1999/xlink">
    <!-- Generator: Sketch 59 (86127) - https://sketch.com -->
    <title>logo_calado_blanco_azul</title>
    <desc>Created with Sketch.</desc>
    <defs>
        <polygon id="path-1" points="0 58.66936 272.9456 58.66936 272.9456 -0.00024 0 -0.00024"></polygon>
    </defs>
    <g id="App" stroke="none" stroke-width="1" fill="none" fill-rule="evenodd">
        <g id="01.06-Añadir-nuevo" transform="translate(-46.000000, -30.000000)">
            <g id="logo_calado_blanco_azul" transform="translate(23.000000, 20.000000)">
                <g transform="translate(23.200000, 10.400000)">
                    <path d="M195.16168,51.68776 L195.16168,53.51976 C194.99528,54.35576 194.58568,55.10456 193.94488,55.74696 C193.06968,56.62216 192.04248,57.04696 190.80488,57.04696 C189.56728,57.04696 188.54088,56.62376 187.66568,55.75096 C186.79048,54.88056 186.36568,53.85576 186.36568,52.61816 C186.36568,51.38056 186.79128,50.35416 187.66568,49.47896 C188.54088,48.60456 189.56728,48.17816 190.80488,48.17816 C192.04248,48.17816 193.06968,48.60456 193.94488,49.47896 C194.59368,50.13016 195.00488,50.89256 195.16168,51.68776 L195.16168,51.68776 Z M195.16168,46.88776 L195.16168,48.40456 C195.13848,48.37976 195.11448,48.35576 195.09128,48.33176 C193.91448,47.15416 192.47208,46.55736 190.80488,46.55736 C189.14488,46.55736 187.70728,47.15416 186.52888,48.33176 C185.35128,49.50856 184.75368,50.95096 184.75368,52.61816 C184.75368,54.27896 185.35128,55.71736 186.52888,56.89496 C187.70648,58.07176 189.14488,58.66936 190.80488,58.66936 C192.47288,58.66936 193.91448,58.07176 195.09448,56.89176 C195.11688,56.86936 195.13928,56.84536 195.16168,56.82216 L195.16168,58.37576 L196.71928,58.37576 L196.71928,46.88776 L195.16168,46.88776 Z" id="Fill-1" fill="#F2A000"></path>
                    <mask id="mask-2" fill="white">
                        <use xlink:href="#path-1"></use>
                    </mask>
                    <g id="Clip-4"></g>
                    <polygon id="Fill-3" fill="#F2A000" mask="url(#mask-2)" points="233.6552 29.25176 266.3856 29.25176 266.3856 26.56136 233.6552 26.56136"></polygon>
                    <polygon id="Fill-5" fill="#F2A000" mask="url(#mask-2)" points="233.6552 39.70216 259.8584 39.70216 259.8584 37.01176 233.6552 37.01176"></polygon>
                    <polygon id="Fill-6" fill="#F2A000" mask="url(#mask-2)" points="233.6552 34.47736 272.9448 34.47736 272.9448 31.78616 233.6552 31.78616"></polygon>
                    <path d="M155.28512,46.68776 C154.29232,46.73576 153.32112,47.22856 152.39632,48.15336 C152.33232,48.21816 152.26832,48.28376 152.20672,48.35016 L152.20672,46.94056 L150.59952,46.94056 L150.59952,58.36776 L152.20672,58.36776 L152.20672,52.48696 C152.24192,51.25176 152.69152,50.22216 153.58032,49.33816 C154.18992,48.73016 154.77312,48.40776 155.31392,48.38296 L155.60832,48.36936 L155.60832,46.67176 L155.28512,46.68776 Z" id="Fill-7" fill="#FFFFFF" mask="url(#mask-2)"></path>
                    <path d="M157.67728,54.97608 C157.23008,54.28328 157.00368,53.48888 157.00368,52.60808 C157.00368,51.37048 157.42928,50.34648 158.30448,49.47448 C159.17888,48.60248 160.20208,48.17848 161.43248,48.17848 C162.31328,48.17848 163.10848,48.40488 163.80048,48.85288 L157.67728,54.97608 Z M165.02528,55.23608 L164.88768,55.40168 C164.78928,55.52088 164.68448,55.63528 164.57168,55.74728 C163.69728,56.62248 162.67088,57.04728 161.43248,57.04728 C160.39328,57.04728 159.50448,56.74568 158.72768,56.12568 L166.10288,48.75128 L165.90928,48.53288 C165.85088,48.46648 165.78768,48.40008 165.71968,48.33128 C165.54528,48.15768 165.37168,47.99848 165.19248,47.84888 C164.12288,46.99208 162.85808,46.55768 161.43248,46.55768 C159.77328,46.55768 158.33408,47.15448 157.15728,48.33128 C155.97968,49.50888 155.38288,50.94808 155.38288,52.60808 C155.38288,54.27528 155.97968,55.71768 157.15728,56.89448 C158.33408,58.07208 159.77248,58.66888 161.43248,58.66888 C163.10048,58.66888 164.54208,58.07208 165.71968,56.89448 C165.96288,56.65208 166.18208,56.39528 166.36848,56.13448 L166.60768,55.80168 L165.02528,55.23608 Z" id="Fill-8" fill="#FFFFFF" mask="url(#mask-2)"></path>
                    <path d="M174.89688,47.83464 C174.05848,46.98664 172.96088,46.55704 171.63448,46.55704 C170.61368,46.55704 169.68488,46.87704 168.86808,47.50904 L168.86808,47.19944 L167.28248,47.19944 L167.28248,58.49464 L168.86808,58.49464 L168.86808,49.95544 C169.01688,49.63544 169.24728,49.31784 169.54808,49.01224 C170.14008,48.43464 170.82168,48.15304 171.63448,48.15304 C172.44648,48.15304 173.13048,48.43944 173.72408,49.02584 C174.31608,49.61384 174.60488,50.30104 174.60488,51.12904 L174.60488,58.49464 L176.18968,58.49464 L176.18968,51.03624 C176.16728,49.75624 175.73208,48.67944 174.89688,47.83464" id="Fill-9" fill="#FFFFFF" mask="url(#mask-2)"></path>
                    <polygon id="Fill-10" fill="#FFFFFF" mask="url(#mask-2)" points="181.0476 46.48776 181.0476 41.63976 179.3308 41.63976 179.3308 46.48776 176.8908 46.48776 176.8908 48.14936 179.3308 48.14936 179.3308 58.49496 181.0476 58.49496 181.0476 48.14936 183.4884 48.14936 183.4884 46.48776"></polygon>
                    <path d="M208.51872,55.39168 C208.41872,55.51088 208.31392,55.62608 208.20192,55.73888 C207.32272,56.61728 206.29232,57.04368 205.04992,57.04368 C203.81552,57.04368 202.78832,56.61728 201.90912,55.73968 C201.03072,54.85888 200.60352,53.82848 200.60352,52.58688 C200.60352,51.34608 201.03072,50.31728 201.90832,49.44208 C202.78752,48.56688 203.81472,48.14128 205.04992,48.14128 C206.29312,48.14128 207.32352,48.56528 208.19552,49.43088 C208.30992,49.55168 208.41712,49.67248 208.51872,49.79328 L208.65792,49.96128 L210.24592,49.37488 L210.00032,49.04368 C209.81232,48.79088 209.59392,48.53968 209.35152,48.29648 C208.16912,47.11488 206.72272,46.51568 205.04992,46.51568 C203.38432,46.51568 201.94112,47.11488 200.75952,48.29648 C199.57792,49.47728 198.97872,50.92208 198.97872,52.58688 C198.97872,54.25968 199.57792,55.70768 200.75952,56.88928 C201.94032,58.07008 203.38432,58.66928 205.04992,58.66928 C206.72272,58.66928 208.17072,58.07008 209.35232,56.88848 C209.59472,56.64448 209.81312,56.38848 210.00192,56.12688 L210.24272,55.79408 L208.65552,55.22608 L208.51872,55.39168 Z" id="Fill-11" fill="#FFFFFF" mask="url(#mask-2)"></path>
                    <path d="M221.7656,51.67368 L221.7656,53.50968 C221.6,54.34808 221.1896,55.09848 220.5464,55.74248 C219.6696,56.61928 218.6408,57.04568 217.4008,57.04568 C216.1608,57.04568 215.1312,56.62088 214.2536,55.74728 C213.3776,54.87288 212.9512,53.84568 212.9512,52.60648 C212.9512,51.36648 213.3776,50.33768 214.2536,49.46008 C215.1312,48.58328 216.1608,48.15688 217.4008,48.15688 C218.6408,48.15688 219.6696,48.58328 220.5464,49.46008 C221.1968,50.11128 221.6096,50.87528 221.7656,51.67368 L221.7656,51.67368 Z M221.7656,46.88808 L221.7656,48.38488 C221.7424,48.36008 221.7184,48.33528 221.6952,48.31128 C220.516,47.13128 219.072,46.53368 217.4008,46.53368 C215.7384,46.53368 214.296,47.13128 213.1152,48.31128 C211.9352,49.49128 211.3376,50.93688 211.3376,52.60648 C211.3376,54.26888 211.9352,55.71048 213.1152,56.89128 C214.296,58.07128 215.7384,58.66888 217.4008,58.66888 C219.0712,58.66888 220.516,58.07048 221.6992,56.88808 C221.7208,56.86488 221.744,56.84168 221.7656,56.81848 L221.7656,58.37528 L223.3256,58.37528 L223.3256,46.88808 L221.7656,46.88808 Z" id="Fill-12" fill="#FFFFFF" mask="url(#mask-2)"></path>
                    <path d="M230.0148,46.64712 C229.018,46.69512 228.0428,47.18952 227.1148,48.11832 C227.0492,48.18392 226.9852,48.25032 226.9236,48.31752 L226.9236,46.89992 L225.3116,46.89992 L225.3116,58.36712 L226.9236,58.36712 L226.9236,52.46632 C226.9588,51.22712 227.4092,50.19352 228.302,49.30552 C228.9132,48.69512 229.4996,48.37192 230.0436,48.34632 L230.338,48.33192 L230.338,46.63112 L230.0148,46.64712 Z" id="Fill-13" fill="#FFFFFF" mask="url(#mask-2)"></path>
                    <path d="M142.77344,13.08464 C139.51104,13.08464 136.75104,14.21344 134.56944,16.43984 C132.40384,18.65024 131.30544,21.45504 131.30544,24.77584 L131.30544,39.46304 L135.05664,39.46304 L135.05664,24.41824 C135.05664,22.29504 135.80304,20.51664 137.33824,18.98224 C138.85104,17.46864 140.67984,16.70224 142.77344,16.70224 C144.83504,16.70224 146.58464,17.44784 148.11984,18.98224 C149.68384,20.54624 150.44464,22.32464 150.44464,24.41824 L150.44464,39.46304 L154.19664,39.46304 L154.19664,24.77584 C154.19664,21.45504 153.09824,18.65024 150.93264,16.43984 C148.75104,14.21344 146.00544,13.08464 142.77344,13.08464" id="Fill-14" fill="#FFFFFF" mask="url(#mask-2)"></path>
                    <path d="M176.16016,33.52448 C174.23616,35.57968 171.93936,36.51168 169.12576,36.38208 L169.12416,36.38208 C166.52176,36.29328 164.37776,35.28608 162.57056,33.30208 C160.80176,31.36128 159.92736,29.02048 159.97216,26.34288 C160.01696,23.63248 160.95296,21.39968 162.83376,19.51888 C164.72816,17.62368 166.90176,16.70128 169.47696,16.70128 C169.53536,16.70128 169.59536,16.70128 169.65536,16.70288 C172.22816,16.70288 174.35616,17.62288 176.16176,19.51568 C177.97616,21.41888 178.94016,23.70208 179.02576,26.29888 C179.07056,29.10128 178.13376,31.46448 176.16016,33.52448 M169.83936,13.04048 C166.16176,12.90848 162.91696,14.21408 160.24576,16.93168 C157.57536,19.60208 156.22016,22.85808 156.22016,26.60848 C156.22016,30.22688 157.46896,33.37648 159.92896,35.97248 C162.40576,38.58288 165.48096,39.95328 169.06896,40.04448 C169.24256,40.05088 169.41376,40.05408 169.58576,40.05408 C173.05056,40.05408 176.10256,38.75808 178.66256,36.19808 C181.36336,33.49808 182.73296,30.25728 182.73296,26.56528 C182.73296,22.97808 181.46976,19.82848 178.97936,17.20368 C176.53376,14.57808 173.45856,13.17728 169.83936,13.04048" id="Fill-15" fill="#FFFFFF" mask="url(#mask-2)"></path>
                    <polygon id="Fill-16" fill="#FFFFFF" mask="url(#mask-2)" points="201.82968 13.66592 193.30248 34.43152 184.77128 13.76112 184.73128 13.66592 180.82008 13.66592 191.37208 39.36672 191.41128 39.46272 195.15048 39.46272 205.92088 13.66592"></polygon>
                    <path d="M223.94448,33.52296 C221.97648,35.57816 219.67968,36.50776 216.90848,36.38216 C214.32528,36.24776 212.11968,35.19656 210.35248,33.25656 C208.58448,31.31656 207.71008,28.97496 207.75488,26.29896 C207.79888,23.58776 208.73488,21.35576 210.61488,19.47416 C212.51088,17.57896 214.74288,16.65736 217.43808,16.65736 C220.00368,16.65736 222.20768,17.60456 223.98848,19.47256 C225.81648,21.38936 226.76528,23.67096 226.80768,26.25336 C226.85248,29.08536 225.91568,31.46376 223.94448,33.52296 L223.94448,33.52296 Z M226.94208,13.08456 L226.94208,17.25176 C226.92688,17.23496 226.91088,17.21816 226.89488,17.20216 C224.40208,14.57656 221.29808,13.17656 217.66688,13.03976 C213.90688,12.90136 210.67008,14.19976 208.02768,16.88616 C205.35648,19.55656 204.00208,22.81256 204.00208,26.56536 C204.00208,30.15016 205.26528,33.30056 207.75568,35.92696 C210.21808,38.52296 213.27808,39.90776 216.85088,40.04456 C217.01328,40.05016 217.17408,40.05256 217.33488,40.05256 C221.05328,40.05256 224.26608,38.60136 226.89728,35.73256 L226.89728,39.46296 L230.52368,39.46296 L230.52368,13.08456 L226.94208,13.08456 Z" id="Fill-17" fill="#FFFFFF" mask="url(#mask-2)"></path>
                    <path d="M121.55856,33.52296 C119.59216,35.57736 117.28576,36.51016 114.52336,36.38216 C111.94016,36.24776 109.73376,35.19656 107.96656,33.25656 C106.19856,31.31656 105.32416,28.97496 105.36896,26.29896 C105.41296,23.58696 106.34896,21.35496 108.22976,19.47416 C110.12576,17.57896 112.35776,16.65736 115.05216,16.65736 C117.61776,16.65736 119.82176,17.60456 121.60256,19.47256 C123.43056,21.38856 124.37936,23.67096 124.42256,26.25336 C124.46736,29.08616 123.53056,31.46456 121.55856,33.52296 L121.55856,33.52296 Z M124.55696,17.25176 C124.54176,17.23576 124.52576,17.21816 124.50896,17.20216 C122.01696,14.57656 118.91216,13.17656 115.28096,13.03976 C111.52576,12.91096 108.28416,14.19896 105.64176,16.88616 C102.97136,19.55656 101.61616,22.81256 101.61616,26.56536 C101.61616,30.15016 102.87936,33.29976 105.37136,35.92696 C107.83296,38.52296 110.89216,39.90776 114.46576,40.04456 C114.62816,40.05016 114.78896,40.05256 114.94976,40.05256 C118.66816,40.05256 121.88096,38.60136 124.51136,35.73256 L124.51136,39.46296 L124.55696,39.46296 L124.55696,39.78936 L128.13936,39.78936 L128.13936,13.01496 L124.55696,13.01496 L124.55696,17.25176 Z" id="Fill-18" fill="#FFFFFF" mask="url(#mask-2)"></path>
                    <path d="M68.92184,33.52296 C66.95624,35.57736 64.64744,36.51016 61.88584,36.38216 C59.30264,36.24776 57.09704,35.19656 55.32984,33.25656 C53.56184,31.31656 52.68664,28.97496 52.73224,26.29896 C52.77624,23.58776 53.71224,21.35496 55.59224,19.47416 C57.48824,17.57896 59.72024,16.65736 62.41544,16.65736 C64.98024,16.65736 67.18504,17.60456 68.96664,19.47256 C70.79384,21.38856 71.74184,23.67096 71.78504,26.25336 C71.82984,29.08616 70.89304,31.46456 68.92184,33.52296 L68.92184,33.52296 Z M71.92104,17.25176 C71.90504,17.23576 71.88904,17.21816 71.87224,17.20216 C69.38024,14.57656 66.27544,13.17656 62.64344,13.03976 C58.89544,12.90936 55.64664,14.19976 53.00504,16.88616 C50.33384,19.55656 48.97944,22.81256 48.97944,26.56536 C48.97944,30.15016 50.24264,33.30056 52.73384,35.92696 C55.19544,38.52296 58.25544,39.90776 61.82904,40.04456 C61.99144,40.05016 62.15224,40.05256 62.31304,40.05256 C66.03144,40.05256 69.24424,38.60136 71.87384,35.73256 L71.87384,39.46296 L75.50264,39.46296 L75.50264,13.08456 L71.92104,13.08456 L71.92104,17.25176 Z" id="Fill-19" fill="#FFFFFF" mask="url(#mask-2)"></path>
                    <path d="M97.55704,15.79168 C95.49784,14.18208 93.00104,13.29888 90.13224,13.16688 C86.95544,13.03168 84.11144,13.80768 81.66904,15.47408 C79.30904,17.12528 78.10504,19.46448 78.36264,21.88928 C78.64744,25.05008 80.75864,26.97728 85.00584,27.95328 L85.04024,27.80368 L85.01304,27.95568 C87.01704,28.30048 88.34184,28.32928 89.42744,28.32928 C90.67144,28.32928 91.75864,28.41248 92.66024,28.57808 C93.22024,28.68128 93.49784,28.74288 93.94024,28.88368 C94.43944,29.04128 94.89864,29.27488 95.47784,29.66528 C96.34984,30.25168 96.76744,31.11248 96.75224,32.29728 C96.74024,33.43408 95.52504,34.70608 94.38984,35.32448 C93.13064,36.01168 91.19224,36.46688 89.33144,36.50928 C87.88104,36.55488 85.79464,36.22608 84.65384,35.40288 C83.61064,34.64928 82.94664,33.70848 82.68024,32.60608 L82.44664,31.63888 L78.32824,31.63888 L78.32824,31.79248 C78.32824,34.02128 79.32664,35.95648 81.29864,37.54448 C83.35544,39.15328 85.85384,40.03728 88.72264,40.16928 C88.95784,40.17888 89.19064,40.18368 89.42184,40.18368 C92.31464,40.18368 94.92424,39.40528 97.18584,37.86208 C99.54504,36.21008 100.74984,33.87168 100.49224,31.44608 C100.18504,28.04448 98.00264,26.02448 93.62504,25.08928 L93.62424,25.08928 C93.24504,25.00688 92.75544,24.94368 92.12744,24.89808 C91.19144,24.83008 90.23704,24.83088 89.42504,24.83968 C89.40264,24.84048 89.37784,24.84048 89.35384,24.84048 C88.20184,24.84048 86.01464,24.53248 84.92424,24.26848 C82.97864,23.79728 82.08184,22.77088 82.10264,21.03808 C82.11464,19.90288 83.32904,18.63088 84.46584,18.01088 C85.72264,17.32368 87.66024,16.87008 89.52264,16.82688 C90.97304,16.78048 93.06184,17.10928 94.20104,17.93248 C95.24344,18.68528 95.90744,19.62688 96.17384,20.73008 L96.40744,21.69808 L100.52744,21.69808 L100.52744,21.54288 C100.52744,19.31408 99.52824,17.37888 97.55704,15.79168" id="Fill-20" fill="#FFFFFF" mask="url(#mask-2)"></path>
                    <path d="M43.1,37.2432 C39.5448,43.2696 33.2632,46.7224 25.8584,46.7224 L25.8088,46.7224 C14.7336,46.6984 5.724,37.508 5.724,26.2352 C5.724,15.1928 15.0792,5.8624 26.1512,5.8624 C33.004,5.8624 39.2768,9.5488 42.9328,15.7224 L42.9904,15.8208 L49.4648,15.8208 L49.3616,15.5496 C45.884,6.3936 36.3352,-1.42108547e-14 26.1408,-1.42108547e-14 C11.7264,-1.42108547e-14 0,11.8096 0,26.324 C0,40.7928 11.7984,52.564 26.3,52.564 C36.4344,52.564 45.3184,46.7624 49.4856,37.4264 L49.612,37.144 L43.1576,37.144 L43.1,37.2432 Z" id="Fill-21" fill="#FFFFFF" mask="url(#mask-2)"></path>
                    <path d="M235.97576,15.3268 L235.97576,16.5092 L236.50296,16.5092 C236.66696,16.5092 236.80696,16.5052 236.92296,16.4964 C237.03816,16.4884 237.14216,16.4748 237.23336,16.4532 C237.41976,16.4108 237.56216,16.3444 237.66296,16.2532 C237.76296,16.1612 237.81336,16.042 237.81336,15.894 C237.81176,15.7556 237.76296,15.6436 237.66936,15.5596 C237.57576,15.4756 237.44616,15.4148 237.27976,15.3772 C237.20056,15.3596 237.10696,15.3468 236.99736,15.3396 C236.88936,15.3308 236.75016,15.3268 236.58216,15.3268 L235.97576,15.3268 Z M235.97576,16.8636 L235.97576,18.1996 L235.44216,18.1996 L235.44216,14.9732 L236.57736,14.9732 C236.76936,14.9732 236.93176,14.9772 237.06616,14.9876 C237.20056,14.9988 237.32376,15.0148 237.43496,15.038 C237.73976,15.0988 237.97336,15.2028 238.13496,15.3492 C238.29576,15.4972 238.37736,15.6804 238.37736,15.9012 C238.37736,16.0316 238.34936,16.1476 238.29256,16.2508 C238.23496,16.3532 238.15576,16.4436 238.05336,16.518 C237.95016,16.594 237.82696,16.6556 237.68456,16.7044 C237.54136,16.7524 237.38216,16.7876 237.20776,16.81 L237.20776,16.8196 L238.50536,18.1996 L237.97096,18.1996 L236.62136,16.8636 L235.97576,16.8636 Z" id="Fill-22" fill="#FFFFFF" mask="url(#mask-2)"></path>
                    <path d="M236.97496,13.59008 C235.22776,13.59008 233.80696,15.01088 233.80696,16.75888 C233.80696,18.50608 235.22776,19.92688 236.97496,19.92688 C238.72216,19.92688 240.14296,18.50608 240.14296,16.75888 C240.14296,15.01088 238.72216,13.59008 236.97496,13.59008 M236.97496,20.48608 C234.91976,20.48608 233.24776,18.81328 233.24776,16.75888 C233.24776,14.70368 234.91976,13.03088 236.97496,13.03088 C239.03016,13.03088 240.70216,14.70368 240.70216,16.75888 C240.70216,18.81328 239.03016,20.48608 236.97496,20.48608" id="Fill-23" fill="#FFFFFF" mask="url(#mask-2)"></path>
                </g>
            </g>
        </g>
    </g>
</svg>