<?xml version="1.0" encoding="UTF-8" standalone="no"?>
<svg
   width="36"
   height="36"
   viewBox="0 0 36 36"
   version="1.1"
   >
  <path
  class="main-icon"
     d="M 18 0 A 18 18 0 0 0 0 18 A 18 18 0 0 0 18 36 A 18 18 0 0 0 36 18 A 18 18 0 0 0 18 0 z M 25.208984 11.455078 C 25.273234 11.455078 25.337219 11.478844 25.386719 11.527344 L 26.925781 13.054688 C 27.023781 13.151687 27.023781 13.30825 26.925781 13.40625 L 15.765625 24.472656 C 15.667625 24.569656 15.508156 24.569656 15.410156 24.472656 L 9.0742188 18.1875 C 8.9752187 18.0905 8.9752187 17.933937 9.0742188 17.835938 L 10.615234 16.308594 C 10.713234 16.211594 10.87075 16.211594 10.96875 16.308594 L 15.589844 20.888672 L 25.03125 11.527344 C 25.08075 11.478844 25.144734 11.455078 25.208984 11.455078 z "
   />
</svg>
