<?xml version="1.0" encoding="UTF-8" standalone="no"?>
<svg
   width="24"
   height="24"
   viewBox="0 0 24 24"
  >
  <path
     d="M13 11L16 11 16 13 13 13 13 16 11 16 11 13 8 13 8 11 11 11 11 8 13 8z"
  />
  <path
     d="M 12,0 C 5.3844276,0 0,5.3844276 0,12 0,18.615572 5.3844276,24 12,24 18.615572,24 24,18.615572 24,12 24,5.3844276 18.615572,0 12,0 Z m 0,2 C 17.534692,2 22,6.4653079 22,12 22,17.534692 17.534692,22 12,22 6.4653079,22 2,17.534692 2,12 2,6.4653079 6.4653079,2 12,2 Z"
     />
</svg>
