<svg width="11" height="19" viewBox="0 0 11 19" fill="none" xmlns="http://www.w3.org/2000/svg">
<path d="M9.5 4.31818V14.25C9.5 16.1586 7.71 17.7045 5.5 17.7045C3.29 17.7045 1.5 16.1586 1.5 14.25V3.45455C1.5 2.26273 2.62 1.29545 4 1.29545C5.38 1.29545 6.5 2.26273 6.5 3.45455V12.5227C6.5 12.9977 6.05 13.3864 5.5 13.3864C4.95 13.3864 4.5 12.9977 4.5 12.5227V4.31818H3V12.5227C3 13.7145 4.12 14.6818 5.5 14.6818C6.88 14.6818 8 13.7145 8 12.5227V3.45455C8 1.54591 6.21 0 4 0C1.79 0 0 1.54591 0 3.45455V14.25C0 16.8755 2.46 19 5.5 19C8.54 19 11 16.8755 11 14.25V4.31818H9.5Z" fill="#007AFF"/>
</svg>
