<svg xmlns="http://www.w3.org/2000/svg" width="24" height="24" viewBox="0 0 24 24">
    <g fill="none" fill-rule="evenodd">
        <g>
            <g>
                <g>
                    <g>
                        <path d="M0 0L24 0 24 24 0 24z" transform="translate(-453 -1330) translate(453 1330)"/>
                        <path fill="#FFF" fill-rule="nonzero" d="M11.989 1C5.917 1 1 5.928 1 12s4.917 11 10.989 11C18.072 23 23 18.072 23 12S18.072 1 11.989 1zM12 21c-4.973 0-9-4.027-9-9s4.027-9 9-9 9 4.027 9 9-4.027 9-9 9zm-.22-14h-.06c-.4 0-.72.32-.72.72v4.72c0 .35.18.68.49.86l4.15 2.49c.34.2.78.1.98-.24.21-.34.1-.79-.25-.99l-3.87-2.3V7.72c0-.4-.32-.72-.72-.72z" transform="translate(-453 -1330) translate(453 1330)"/>
                    </g>
                </g>
            </g>
        </g>
    </g>
</svg>
