<svg xmlns="http://www.w3.org/2000/svg" xmlns:xlink="http://www.w3.org/1999/xlink" width="20" height="20" viewBox="0 0 20 20">
    <defs>
        <path id="prefix__coments" d="M17.25 0C18.766 0 20 1.34 20 2.989v9.645c0 1.648-1.234 2.989-2.75 2.989H8.527L2.74 20v-4.377C1.228 15.617 0 14.279 0 12.634V2.99C0 1.34 1.234 0 2.75 0h14.5zm1.578 12.634V2.99c0-.946-.708-1.715-1.578-1.715H2.75c-.87 0-1.578.769-1.578 1.715v9.645c0 .946.708 1.715 1.578 1.715h1.162v3.213l4.247-3.213h9.091c.87 0 1.578-.77 1.578-1.715zM5.353 4.501h9.294v1.273H5.353V4.501zm0 2.717h9.294v1.274H5.353V7.218zm0 2.717h9.294v1.274H5.353V9.935z"/>
    </defs>
    <g fill="none" fill-rule="evenodd">
        <mask id="prefix__b" fill="#fff">
            <use xlink:href="#prefix__coments"/>
        </mask>
        <use fill="#000" fill-rule="nonzero" xlink:href="#prefix__coments"/>
        <g mask="url(#prefix__b)">
            <path d="M0 0H20V20H0z"/>
        </g>
    </g>
</svg>
