<svg xmlns="http://www.w3.org/2000/svg" xmlns:xlink="http://www.w3.org/1999/xlink" width="20" height="20" viewBox="0 0 20 20">
  <path class="main-icon"
  d="M17.25 0C18.766 0 20 1.34 20 2.989v9.645c0 1.648-1.234 2.989-2.75 2.989H8.527L2.74 20v-4.377C1.228 15.617 0 14.279 0 12.634V2.99C0 1.34 1.234 0 2.75 0zm0 1.274H2.75c-.87 0-1.578.769-1.578 1.715v9.645c0 .946.708 1.715 1.578 1.715h1.162v3.213l4.247-3.213h9.091c.87 0 1.578-.77 1.578-1.715V2.99c0-.946-.708-1.715-1.578-1.715zm-2.603 8.661v1.274H5.353V9.935h9.294zm0-2.717v1.274H5.353V7.218h9.294zm0-2.717v1.273H5.353V4.501h9.294z"/>
</svg>
