<?xml version="1.0" encoding="UTF-8"?>
<svg width="20px" height="28px" viewBox="0 0 20 28" version="1.1" xmlns="http://www.w3.org/2000/svg" xmlns:xlink="http://www.w3.org/1999/xlink">
    <!-- Generator: Sketch 53.2 (72643) - https://sketchapp.com -->
    <title>ico/cotizarblanca</title>
    <desc>Created with Sketch.</desc>
    <g id="05-Cotización" stroke="none" stroke-width="1" fill="none" fill-rule="evenodd">
        <g id="ico/cotizarblanca" transform="translate(0.000000, 1.000000)" fill="#FFFFFF">
            <g>
                <path d="M18.7865566,15.693517 L17.2482547,11.3946061 C16.9935226,10.6913936 16.3447643,10.2260514 15.620566,10.2270955 C15.0295492,10.2270955 14.5921844,10.2270955 14.3084717,10.2270955 C13.5,10.2270955 11.2994632,12 10,12 C8.45647272,12 6,10.2270955 6,10.2270955 C5.70020964,10.2270955 5.25052411,10.2270955 4.6509434,10.2270955 C3.92686161,10.2261802 3.27826336,10.691502 3.02358491,11.3946061 L1.50382075,15.6449787 L0.857169811,16.2559634 C0.317002472,16.7295327 0.00378164805,17.4246707 0,18.1582996 L0,25.8225434 C0.00963866473,26.0457439 0.184745649,26.2228011 0.40009434,26.2270938 L4.24915094,26.2270938 C4.45920678,26.2205442 4.62541346,26.0405156 4.62264151,25.8225434 L4.62264151,23.4870329 L15.3773585,23.4870329 L15.3773585,25.8225434 C15.3745865,26.0405156 15.5407932,26.2205442 15.7508491,26.2270938 L19.5999057,26.2270938 C19.8152544,26.2228011 19.9903613,26.0457439 20,25.8225434 L20,17.9971253 C19.9946152,17.3110264 19.7204695,16.6567019 19.240566,16.1845261 L18.7865566,15.693517 Z M3.73113208,11.6613706 C3.87601481,11.2658855 4.24310091,11.0059191 4.6509434,11.0099701 C5.53345823,11.0099701 6.17282068,11.0099701 6.56903076,11.0099701 C8.23209146,11.0099701 7.5,12 10,12 C12,12 12.1342277,11.0099701 13.2810059,11.0099701 C13.7465733,11.0099701 14.5264267,11.0099701 15.620566,11.0099701 C16.0284085,11.0059191 16.3954946,11.2658855 16.5403774,11.6613706 L17.9029245,15.462569 L2.36877358,15.462569 L3.73113208,11.6613706 Z M3.86792453,25.4442193 L0.754716981,25.4442193 L0.754716981,23.4870329 L3.86792453,23.4870329 L3.86792453,25.4442193 Z M16.1320755,25.4442193 L16.1320755,23.4870329 L19.245283,23.4870329 L19.245283,25.4442193 L16.1320755,25.4442193 Z M19.245283,22.7041584 L0.754716981,22.7041584 L0.754716981,18.1582996 C0.758677223,17.650855 0.977100884,17.1707718 1.35221698,16.8450275 C1.35660377,16.841211 1.36636792,16.8320122 1.37075472,16.828 L1.97485849,16.2454435 L18.260283,16.2454435 L18.6857547,16.7223609 C18.6910849,16.7282324 18.7079245,16.7365994 18.7135849,16.7419327 C19.0483166,17.0676834 19.2403615,17.5210484 19.245283,17.9971253 L19.245283,22.7041584 Z" id="Shape" fill-rule="nonzero"></path>
                <path d="M3.83462264,18.1537002 L3.50198113,18.1537002 C2.68136936,18.1537002 2.01613208,18.8437566 2.01613208,19.6949844 C2.01613208,20.5462122 2.68136936,21.2362686 3.50198113,21.2362686 L3.83462264,21.2362686 C4.65523442,21.2362686 5.3204717,20.5462122 5.3204717,19.6949844 C5.3204717,18.8437566 4.65523442,18.1537002 3.83462264,18.1537002 L3.83462264,18.1537002 Z M3.83462264,20.4533941 L3.50198113,20.4533941 C3.09818804,20.4533941 2.77084906,20.1138425 2.77084906,19.6949844 C2.77084906,19.2761263 3.09818804,18.9365747 3.50198113,18.9365747 L3.83462264,18.9365747 C4.23841574,18.9365747 4.56575472,19.2761263 4.56575472,19.6949844 C4.56575472,20.1138425 4.23841574,20.4533941 3.83462264,20.4533941 L3.83462264,20.4533941 Z" id="Shape" fill-rule="nonzero"></path>
                <path d="M16.4980189,18.1537002 L16.1653774,18.1537002 C15.3447656,18.1537002 14.6795283,18.8437566 14.6795283,19.6949844 C14.6795283,20.5462122 15.3447656,21.2362686 16.1653774,21.2362686 L16.4980189,21.2362686 C17.3186306,21.2362686 17.9838679,20.5462122 17.9838679,19.6949844 C17.9838679,18.8437566 17.3186306,18.1537002 16.4980189,18.1537002 L16.4980189,18.1537002 Z M16.4980189,20.4533941 L16.1653774,20.4533941 C15.7615843,20.4533941 15.4342453,20.1138425 15.4342453,19.6949844 C15.4342453,19.2761263 15.7615843,18.9365747 16.1653774,18.9365747 L16.4980189,18.9365747 C16.901812,18.9365747 17.2291509,19.2761263 17.2291509,19.6949844 C17.2291509,20.1138425 16.901812,20.4533941 16.4980189,20.4533941 Z" id="Shape" fill-rule="nonzero"></path>
                <path d="M13.3018868,18.5451374 C13.3018868,18.3289526 13.1329376,18.1537002 12.9245283,18.1537002 L7.0754717,18.1537002 C6.86706236,18.1537002 6.69811321,18.3289526 6.69811321,18.5451374 L6.69811321,20.7959017 C6.69811321,21.0120865 6.86706236,21.187339 7.0754717,21.187339 L12.9245283,21.187339 C13.1329376,21.187339 13.3018868,21.0120865 13.3018868,20.7959017 L13.3018868,18.5451374 Z M12.5471698,20.4044645 L7.45283019,20.4044645 L7.45283019,18.9365747 L12.5471698,18.9365747 L12.5471698,20.4044645 Z" id="Shape" fill-rule="nonzero"></path>
                <path d="M10,12.4 C6.4653776,12.4 3.6,9.5346224 3.6,6 C3.6,2.4653776 6.4653776,-0.4 10,-0.4 C13.5346224,-0.4 16.4,2.4653776 16.4,6 C16.4,9.5346224 13.5346224,12.4 10,12.4 Z M10,11.6 C13.0927946,11.6 15.6,9.0927946 15.6,6 C15.6,2.9072054 13.0927946,0.4 10,0.4 C6.9072054,0.4 4.4,2.9072054 4.4,6 C4.4,9.0927946 6.9072054,11.6 10,11.6 Z" id="Oval" fill-rule="nonzero"></path>
                <path d="M12,7.2839211 C12,7.71747577 11.8497253,8.0753124 11.5491713,8.35744172 C11.2486173,8.63957105 10.828732,8.81729392 10.2895028,8.89061566 L10.2895028,10 L9.71933702,10 L9.71933702,8.93365212 C9.38931695,8.93365212 9.06961481,8.9057584 8.76022099,8.84997011 C8.45082718,8.79418183 8.19742272,8.71687637 8,8.6180514 L8,7.87208607 C8.24456844,7.99003845 8.5267019,8.08647103 8.84640884,8.16138673 C9.16611578,8.23630243 9.45708893,8.27375971 9.71933702,8.27375971 L9.71933702,6.16975493 C9.11528243,5.9625413 8.69171392,5.72185831 8.44861878,5.44769874 C8.20552365,5.17353918 8.0839779,4.81968736 8.0839779,4.3861327 C8.0839779,3.96851754 8.233516,3.62582322 8.53259669,3.35803945 C8.83167737,3.09025568 9.22725352,2.92767512 9.71933702,2.87029289 L9.71933702,2 L10.2895028,2 L10.2895028,2.86072923 C10.8316786,2.87666874 11.3546936,2.99461934 11.8585635,3.21458458 L11.6287293,3.84100418 C11.1896847,3.65291797 10.7432804,3.54134307 10.2895028,3.50627615 L10.2895028,5.58158996 C10.7521202,5.74098506 11.0983414,5.89639295 11.3281768,6.04781829 C11.5580122,6.19924363 11.7274396,6.37298169 11.8364641,6.56903766 C11.9454886,6.76509363 12,7.00338573 12,7.2839211 Z M11.2486188,7.34608488 C11.2486188,7.11655594 11.1830577,6.93086343 11.0519337,6.78900179 C10.9208097,6.64714016 10.6666686,6.50607761 10.2895028,6.36580992 L10.2895028,8.22594142 C10.9289166,8.13030436 11.2486188,7.83702178 11.2486188,7.34608488 Z M8.83093923,4.37656904 C8.83093923,4.61884959 8.89723691,4.81330869 9.02983425,4.95995218 C9.1624316,5.10659567 9.39226356,5.24526733 9.71933702,5.37597131 L9.71933702,3.52540347 C9.42762285,3.5764099 9.20663059,3.67603034 9.05635359,3.82426778 C8.9060766,3.97250522 8.83093923,4.1566038 8.83093923,4.37656904 Z" id="$" fill-rule="nonzero"></path>
            </g>
        </g>
    </g>
</svg>