<svg width="44" height="44" viewBox="0 0 44 44" fill="none" xmlns="http://www.w3.org/2000/svg">
<path fill-rule="evenodd" clip-rule="evenodd" d="M0 4C0 1.79086 1.79086 0 4 0H26.4444C28.6536 0 30.4444 1.79086 30.4444 4V9.93176C30.4444 10.6681 29.8475 11.2651 29.1111 11.2651C28.3747 11.2651 27.7778 10.6681 27.7778 9.93176V4C27.7778 3.26362 27.1808 2.66667 26.4444 2.66667H4C3.26362 2.66667 2.66667 3.26362 2.66667 4V26.6667C2.66667 27.403 3.26362 28 4 28H32.1144L25.9052 21.7909C25.3845 21.2702 25.3845 20.4259 25.9052 19.9052C26.4259 19.3845 27.2702 19.3845 27.7909 19.9052L36.2761 28.3905C36.7968 28.9112 36.7968 29.7554 36.2761 30.2761L27.7909 38.7614C27.2702 39.2821 26.4259 39.2821 25.9052 38.7614C25.3845 38.2407 25.3845 37.3965 25.9052 36.8758L32.1144 30.6667H4C1.79086 30.6667 0 28.8758 0 26.6667V4Z" fill="#7FBDFF"/>
<path fill-rule="evenodd" clip-rule="evenodd" d="M44 40C44 42.2091 42.2091 44 40 44L17.5556 44C15.3464 44 13.5556 42.2091 13.5556 40L13.5556 34.0682C13.5556 33.3319 14.1525 32.7349 14.8889 32.7349C15.6253 32.7349 16.2222 33.3319 16.2222 34.0682L16.2222 40C16.2222 40.7364 16.8192 41.3333 17.5556 41.3333L40 41.3333C40.7364 41.3333 41.3333 40.7364 41.3333 40L41.3333 17.3333C41.3333 16.597 40.7364 16 40 16L11.8856 16L18.0948 22.2091C18.6155 22.7298 18.6155 23.5741 18.0948 24.0948C17.5741 24.6155 16.7298 24.6155 16.2091 24.0948L7.72386 15.6095C7.20316 15.0888 7.20316 14.2446 7.72386 13.7239L16.2091 5.23858C16.7298 4.71789 17.5741 4.71789 18.0948 5.23858C18.6155 5.75928 18.6155 6.6035 18.0948 7.1242L11.8856 13.3333L40 13.3333C42.2091 13.3333 44 15.1242 44 17.3333L44 40Z" fill="#7FBDFF"/>
</svg>
