<svg xmlns="http://www.w3.org/2000/svg" xmlns:xlink="http://www.w3.org/1999/xlink" width="24" height="24" viewBox="0 0 24 24">
    <defs>
        <path id="prefix__a" d="M23.312 11.7c.382 0 .688.336.688.742v6.75C24 21.84 22.003 24 19.543 24H4.457C2.002 24 0 21.846 0 19.191v-6.859c0-.412.306-.741.688-.741.382 0 .687.33.687.741v6.86c0 1.83 1.38 3.324 3.082 3.324h15.086c1.696 0 3.082-1.49 3.082-3.325v-6.749c0-.412.305-.742.687-.742zm-7.426.643c.265-.285.703-.285.968 0 .27.292.27.759 0 1.05l-4.37 4.716c-.127.142-.3.22-.484.22-.178 0-.357-.083-.484-.22l-4.37-4.716c-.27-.291-.27-.758 0-1.05.132-.148.306-.22.484-.22.173 0 .351.078.484.22l3.198 3.452V.742C11.312.33 11.618 0 12 0c.382 0 .688.33.688.742v15.053l3.198-3.452z"/>
    </defs>
    <g fill="none" fill-rule="evenodd">
        <mask id="prefix__b" fill="#fff">
            <use xlink:href="#prefix__a"/>
        </mask>
        <use fill="#000" fill-rule="nonzero" xlink:href="#prefix__a"/>
        <g fill="#007AFF" mask="url(#prefix__b)">
            <path d="M0 0H24V24H0z"/>
        </g>
    </g>
</svg>
