<svg xmlns="http://www.w3.org/2000/svg" xmlns:xlink="http://www.w3.org/1999/xlink" width="24" height="24" viewBox="0 0 24 24">
  <path 
    class="main-icon"
    d="M22.151 15.061c.33 0 .598.27.598.601v5.334c-.002 1.658-1.34 3.002-2.989 3.004H2.99C1.339 23.998.002 22.654 0 20.996V5.341C.002 3.683 1.339 2.34 2.989 2.338h5.307c.33 0 .597.269.597.6 0 .332-.267.601-.597.601H2.989c-.99.001-1.792.808-1.794 1.802v15.655c.002.995.804 1.801 1.794 1.802H19.76c.99 0 1.792-.807 1.793-1.802v-5.334c0-.332.268-.6.598-.6zm.361-14.27l.701.706c1.05 1.056 1.05 2.766 0 3.823L12.55 16.038c-.073.073-.164.126-.263.154l-5.063 1.41c-.208.057-.43-.002-.582-.155-.152-.153-.211-.376-.153-.585l1.402-5.088c.027-.1.08-.191.153-.265L18.708.792c1.05-1.056 2.754-1.056 3.804 0zM9.347 11.9l2.814 2.829 8.728-8.772-2.815-2.829L9.347 11.9zm-.563 1.134l-.861 3.126 3.11-.866-2.249-2.26zM22.368 4.47c.583-.586.583-1.537 0-2.124l-.701-.705c-.584-.586-1.53-.586-2.114 0l-.634.637 2.815 2.83.634-.638z"/>
</svg>
