<svg width="44" height="44" viewBox="0 0 44 44" fill="none" xmlns="http://www.w3.org/2000/svg">
<path d="M4.28693 38H6.71555C7.86308 37.9966 8.96237 37.5496 9.77224 36.757C10.5821 35.9643 11.0364 34.8909 11.0355 33.7721V32.4828H32.8232V33.7721C32.8232 36.0993 34.8305 38 37.2177 38H39.6463C40.7974 37.998 41.901 37.5524 42.7165 36.7605C43.532 35.9685 43.9934 34.8943 44 33.7721V20.835C43.9964 20.0666 43.8328 19.3068 43.5191 18.6018C43.2054 17.8969 42.7481 17.2613 42.1749 16.7338L41.4042 16.0303C41.3991 16.0177 41.3926 16.0046 41.387 15.992L38.1286 8.59614C37.7897 7.82528 37.2261 7.16837 36.5078 6.70687C35.7895 6.24537 34.948 5.99959 34.0877 6H10.428C9.56792 5.9997 8.72672 6.24553 8.00866 6.707C7.29061 7.16848 6.7273 7.8253 6.38859 8.596L3.18 15.8826L2.02143 16.8588C1.38357 17.3891 0.872207 18.0488 0.523075 18.7918C0.173943 19.5349 -0.00453283 20.3433 0.000122209 21.1606V33.7721C-0.0041466 34.3244 0.103458 34.8721 0.316764 35.3838C0.530071 35.8954 0.844883 36.361 1.24315 36.7538C1.64141 37.1466 2.11529 37.4589 2.63761 37.6727C3.15993 37.8866 3.72042 37.9978 4.28693 38ZM8.20589 33.7721C8.20784 34.1596 8.05193 34.5321 7.7724 34.8076C7.49287 35.083 7.1126 35.2391 6.71513 35.2414H4.28693C4.09186 35.2396 3.8991 35.2 3.71986 35.125C3.54063 35.0499 3.37849 34.9408 3.24289 34.8041C3.10729 34.6674 3.00092 34.5057 2.92999 34.3286C2.85905 34.1514 2.82496 33.9623 2.8297 33.7721V32.1909C3.29178 32.3783 3.78649 32.4774 4.28693 32.4828H8.20589V33.7721ZM39.6463 35.2414H37.2177C36.3909 35.2414 35.6528 34.5782 35.6528 33.7721V32.4828H39.6463C40.1684 32.4771 40.6849 32.3782 41.1704 32.1909V33.7721C41.1646 34.1629 41.0017 34.5359 40.7166 34.8107C40.4315 35.0855 40.0472 35.2402 39.6463 35.2414ZM8.98855 9.65807C9.11072 9.38644 9.31257 9.15612 9.56869 8.99607C9.82482 8.83602 10.1238 8.75341 10.428 8.75862H34.0877C34.3918 8.75345 34.6907 8.83607 34.9468 8.99609C35.2029 9.15611 35.4047 9.38638 35.5268 9.65793L37.9362 15.1034H37.0264C36.3733 12.2069 33.637 9.84731 30.3691 9.84731C27.1012 9.84731 24.3649 12.2069 23.712 15.1034H6.57888L8.98855 9.65807ZM34.0848 15.1034H26.6536C27.2252 13.7241 28.6747 12.6059 30.3691 12.6059C32.0634 12.6059 33.513 13.7241 34.0848 15.1034ZM2.8297 21.1606C2.8252 20.7398 2.91427 20.3231 3.09077 19.9391C3.26728 19.5551 3.52704 19.2129 3.85216 18.9361L5.09717 17.8621H39.3237L40.2316 18.713C40.5258 18.9874 40.7605 19.3166 40.9218 19.6812C41.083 20.0457 41.1676 20.4381 41.1704 20.835V28.2319C41.1655 28.6251 41.0036 29.0009 40.719 29.2796C40.4344 29.5582 40.0496 29.7177 39.6463 29.7241H4.28693C4.09066 29.7197 3.89723 29.6775 3.7177 29.6001C3.53817 29.5226 3.37609 29.4114 3.24072 29.2728C3.10535 29.1342 2.99937 28.9709 2.92884 28.7922C2.85831 28.6136 2.82462 28.4232 2.8297 28.2319V21.1606Z" fill="#7FBDFF"/>
<path d="M14 22.2963C14 21.9525 13.8473 21.6228 13.5755 21.3797C13.3037 21.1366 12.9351 21 12.5507 21H5.44928C5.0649 21 4.69627 21.1366 4.42448 21.3797C4.15269 21.6228 4 21.9525 4 22.2963V26.7037C4 27.0475 4.15269 27.3772 4.42448 27.6203C4.69627 27.8634 5.0649 28 5.44928 28H12.5507C12.9351 28 13.3037 27.8634 13.5755 27.6203C13.8473 27.3772 14 27.0475 14 26.7037V22.2963ZM6.89855 23.5926H11.1014V25.2778H6.89855V23.5926Z" fill="#7FBDFF"/>
<path d="M39 22.2963C39 21.9525 38.8473 21.6228 38.5755 21.3797C38.3037 21.1366 37.9351 21 37.5507 21H30.4493C30.0649 21 29.6963 21.1366 29.4245 21.3797C29.1527 21.6228 29 21.9525 29 22.2963V26.7037C29 27.0475 29.1527 27.3772 29.4245 27.6203C29.6963 27.8634 30.0649 28 30.4493 28H37.5507C37.9351 28 38.3037 27.8634 38.5755 27.6203C38.8473 27.3772 39 27.0475 39 26.7037V22.2963ZM31.8986 23.5926H36.1014V25.2778H31.8986V23.5926Z" fill="#7FBDFF"/>
<path d="M16.4488 28H25.5512C25.9354 28 26.3039 27.842 26.5757 27.5607C26.8474 27.2794 27 26.8978 27 26.5C27 26.1022 26.8474 25.7206 26.5757 25.4393C26.3039 25.158 25.9354 25 25.5512 25H16.4488C16.0646 25 15.6961 25.158 15.4244 25.4393C15.1526 25.7206 15 26.1022 15 26.5C15 26.8978 15.1526 27.2794 15.4244 27.5607C15.6961 27.842 16.0646 28 16.4488 28Z" fill="url(#paint0_linear)"/>
<path d="M16.4488 24H25.5512C25.9354 24 26.3039 23.842 26.5757 23.5607C26.8474 23.2794 27 22.8978 27 22.5C27 22.1022 26.8474 21.7206 26.5757 21.4393C26.3039 21.158 25.9354 21 25.5512 21H16.4488C16.0646 21 15.6961 21.158 15.4244 21.4393C15.1526 21.7206 15 22.1022 15 22.5C15 22.8978 15.1526 23.2794 15.4244 23.5607C15.6961 23.842 16.0646 24 16.4488 24Z" fill="url(#paint1_linear)"/>
<defs>
<linearGradient id="paint0_linear" x1="3366.14" y1="61" x2="3366.14" y2="1491.47" gradientUnits="userSpaceOnUse">
<stop stop-color="#7FBDFF"/>
<stop offset="1" stop-color="#00ACEA"/>
</linearGradient>
<linearGradient id="paint1_linear" x1="3366.14" y1="57" x2="3366.14" y2="1487.47" gradientUnits="userSpaceOnUse">
<stop stop-color="#7FBDFF"/>
<stop offset="1" stop-color="#00ACEA"/>
</linearGradient>
</defs>
</svg>
