<?xml version="1.0" encoding="UTF-8"?>
<svg width="24px" height="27px" viewBox="0 0 24 27" version="1.1" xmlns="http://www.w3.org/2000/svg" xmlns:xlink="http://www.w3.org/1999/xlink">
    <!-- Generator: Sketch 53.2 (72643) - https://sketchapp.com -->
    <title>ico_pdf</title>
    <desc>Created with Sketch.</desc>
    <g id="01-Vehiculos" stroke="none" stroke-width="1" fill-rule="evenodd">
        <g id="04.03-Archivos-cargados" transform="translate(-754.000000, -611.000000)" fill="fill" fill-rule="nonzero">
            <g id="card" transform="translate(96.000000, 148.000000)">
                <g id="File-PDF" transform="translate(634.000000, 411.000000)">
                    <g id="textarea" transform="translate(2.000000, 39.000000)">
                        <path d="M45.8631022,20.3067168 L39.3744336,13.1591523 C39.2820574,13.0574805 39.1546111,13 39.0214939,13 L29.3505976,13 C28.2682989,13 27.3877653,13.933082 27.3877653,15.0799492 L27.3877653,22.346166 L23.4685177,22.346166 C22.6587711,22.346166 22,23.0443164 22,23.9025156 L22,31.6937031 C22,32.5518496 22.6587711,33.25 23.4685177,33.25 L27.3877653,33.25 L27.3877653,37.9236895 C27.3877653,39.0685527 28.2682989,40 29.3505976,40 L44.0371677,40 C45.1194664,40 46,39.0690801 46,37.9248496 L46,20.6667871 C46,20.5325254 45.9509018,20.4034844 45.8631022,20.3067168 Z M39.1428714,14.4017324 L44.4695002,20.2692227 L39.1428714,20.2692227 L39.1428714,14.4017324 Z M23.4685177,32.2115547 C23.1989006,32.2115547 22.9796253,31.9792598 22.9796253,31.6937031 L22.9796253,23.9025156 C22.9796253,23.616959 23.1989504,23.3846113 23.4685177,23.3846113 L36.694778,23.3846113 C36.9643951,23.3846113 37.1836704,23.616959 37.1836704,23.9025156 L37.1836704,31.6937031 C37.1836704,31.9792598 36.9643454,32.2115547 36.694778,32.2115547 L23.4685177,32.2115547 Z M45.0203747,37.9248496 C45.0203747,38.4964902 44.5792871,38.9615547 44.0371179,38.9615547 L29.3505976,38.9615547 C28.8084284,38.9615547 28.3673408,38.4960156 28.3673408,37.9237422 L28.3673408,33.25 L36.694778,33.25 C37.5045247,33.25 38.1632958,32.5518496 38.1632958,31.6937031 L38.1632958,23.9025156 C38.1632958,23.0443164 37.5045247,22.346166 36.694778,22.346166 L28.3673408,22.346166 L28.3673408,15.0799492 C28.3673408,14.5056191 28.8084284,14.0384453 29.3505976,14.0384453 L38.163246,14.0384453 L38.163246,20.7884453 C38.163246,21.0752148 38.3825711,21.307668 38.6530338,21.307668 L45.0203747,21.307668 L45.0203747,37.9248496 Z M27.8555658,26.1780039 C28.0181817,26.402125 28.0995146,26.6916367 28.0995643,27.0465918 C28.0995643,27.3203887 28.0527047,27.550627 27.9589356,27.7372012 C27.8651666,27.9237754 27.7460774,28.0703242 27.6016184,28.1767949 C27.4571593,28.2833184 27.3103125,28.3537715 27.161078,28.3882598 C26.9582682,28.4308691 26.6645746,28.4521738 26.2799972,28.4521738 L25.7260883,28.4521738 L25.7260883,30.1346113 L24.8765955,30.1346113 L24.8765955,25.6744961 L26.2398033,25.6744961 C26.7564036,25.6744961 27.0931265,25.6968027 27.2500218,25.741416 C27.4910853,25.8083359 27.6929499,25.9538828 27.8555658,26.1780039 Z M27.1280474,27.4056074 C27.1921188,27.3062031 27.2242042,27.1906094 27.2241544,27.0587734 C27.2241544,26.8965625 27.1791851,26.7626699 27.0892464,26.6572012 C26.9993575,26.5517324 26.8854915,26.4858145 26.747748,26.4594473 C26.646368,26.4391445 26.4426131,26.4290195 26.1364833,26.4290195 L25.7260883,26.4290195 L25.7260883,27.6946445 L26.1910036,27.6946445 C26.5258362,27.6946445 26.7496383,27.6713359 26.8625591,27.624666 C26.9754799,27.5779961 27.063976,27.5050117 27.1280474,27.4056074 Z M32.1833678,26.8929766 C32.2751968,27.1779531 32.3211113,27.5293223 32.3211113,27.9471367 C32.3211113,28.3142207 32.278082,28.630627 32.1919737,28.8963555 C32.0867136,29.2208828 31.9365339,29.4835 31.7413848,29.6843125 C31.5940903,29.8364512 31.3951109,29.9551035 31.1444466,30.0402695 C30.9569583,30.1031816 30.7063437,30.1346113 30.3925532,30.1346113 L28.7940024,30.1346113 L28.7940024,25.6744961 L30.3466387,25.6744961 C30.696743,25.6744961 30.9636738,25.7028672 31.1473318,25.7596621 C31.394116,25.8367598 31.6055814,25.9736582 31.7815787,26.1704102 C31.9575759,26.3671621 32.0915388,26.608 32.1833678,26.8929766 Z M31.3568074,28.7244941 C31.4142129,28.5246836 31.4429157,28.252416 31.4429157,27.9076387 C31.4429157,27.5628086 31.4142129,27.2981348 31.3568074,27.1135645 C31.2994018,26.9289941 31.2190639,26.7850293 31.1157438,26.6815645 C31.0124238,26.5780996 30.8813461,26.5081211 30.7225605,26.4716289 C30.6039688,26.4432051 30.3714614,26.4290195 30.0251875,26.4290195 L29.6434952,26.4290195 L29.6434952,29.3831465 L30.2777421,29.3831465 C30.5149753,29.3831465 30.6862468,29.3689609 30.7914572,29.3405371 C30.9292006,29.3040449 31.0435143,29.2421875 31.1343981,29.1549648 C31.225282,29.0677949 31.2994018,28.9243047 31.3568074,28.7244941 Z M35.9314433,26.4290195 L33.8966799,26.4290195 L33.8966799,27.484709 L35.6530711,27.484709 L35.6530711,28.2392324 L33.8966799,28.2392324 L33.8966799,30.1346113 L33.0471871,30.1346113 L33.0471871,25.6744961 L35.9314433,25.6744961 L35.9314433,26.4290195 Z" id="ico_pdf"></path>
                    </g>
                </g>
            </g>
        </g>
    </g>
</svg>