<?xml version="1.0" encoding="UTF-8"?>
<svg width="24px" height="27px" viewBox="0 0 24 27" version="1.1" xmlns="http://www.w3.org/2000/svg" xmlns:xlink="http://www.w3.org/1999/xlink">
    <!-- Generator: Sketch 53.2 (72643) - https://sketchapp.com -->
    <title>ico_xml</title>
    <desc>Created with Sketch.</desc>
    <g id="01-Vehiculos" stroke="none" stroke-width="1" fill-rule="evenodd">
        <g id="04.03-Archivos-cargados" transform="translate(-168.000000, -760.000000)" fill="fill" fill-rule="nonzero">
            <g id="card" transform="translate(96.000000, 148.000000)">
                <g id="File-XML" transform="translate(48.000000, 411.000000)">
                    <g id="textarea" transform="translate(2.000000, 39.000000)">
                        <path d="M45.8631022,169.306717 L39.3744336,162.159152 C39.2820574,162.05748 39.1546111,162 39.0214939,162 L29.3505976,162 C28.2682989,162 27.3877653,162.933082 27.3877653,164.079949 L27.3877653,171.346166 L23.4685177,171.346166 C22.6587711,171.346166 22,172.044316 22,172.902516 L22,180.693703 C22,181.55185 22.6587711,182.25 23.4685177,182.25 L27.3877653,182.25 L27.3877653,186.923689 C27.3877653,188.068553 28.2682989,189 29.3505976,189 L44.0371677,189 C45.1194664,189 46,188.06908 46,186.92485 L46,169.666787 C46,169.532525 45.9509018,169.403484 45.8631022,169.306717 Z M39.1428714,163.401732 L44.4695002,169.269223 L39.1428714,169.269223 L39.1428714,163.401732 Z M23.4685177,181.211555 C23.1989006,181.211555 22.9796253,180.97926 22.9796253,180.693703 L22.9796253,172.902516 C22.9796253,172.616959 23.1989504,172.384611 23.4685177,172.384611 L36.6947283,172.384611 C36.9642956,172.384611 37.1836704,172.616959 37.1836704,172.902516 L37.1836704,180.693703 C37.1836704,180.97926 36.9642956,181.211555 36.6947283,181.211555 L23.4685177,181.211555 Z M45.0203747,186.92485 C45.0203747,187.49649 44.5792871,187.961555 44.0371179,187.961555 L29.3505976,187.961555 C28.8084284,187.961555 28.3673408,187.496016 28.3673408,186.923742 L28.3673408,182.25 L36.6946785,182.25 C37.504475,182.25 38.163246,181.55185 38.163246,180.693703 L38.163246,172.902516 C38.163246,172.044316 37.504475,171.346166 36.6946785,171.346166 L28.3673408,171.346166 L28.3673408,164.079949 C28.3673408,163.505619 28.8084284,163.038445 29.3505976,163.038445 L38.163246,163.038445 L38.163246,169.788445 C38.163246,170.075215 38.3825711,170.307668 38.6530338,170.307668 L45.0203747,170.307668 L45.0203747,186.92485 Z M35.9274699,176.173658 C36.0933481,176.271111 36.1918744,176.428523 36.1918744,176.596219 C36.1918744,176.763914 36.0933481,176.921221 35.9274057,177.018727 L31.5063598,179.614893 C31.3950688,179.68023 31.2668435,179.71166 31.1397728,179.71166 C30.9427203,179.71166 30.7486184,179.636039 30.6253322,179.494184 C30.4225708,179.260781 30.4883833,178.936518 30.7721595,178.769824 L34.4737583,176.596166 L30.7721595,174.422508 C30.4883191,174.255814 30.4225708,173.931551 30.6253322,173.698148 C30.8279654,173.464799 31.2223912,173.410746 31.506424,173.577492 L35.9274699,176.173658 Z M29.8306184,178.769824 C30.1143946,178.936518 30.180143,179.260781 29.9773815,179.494078 C29.8540954,179.635934 29.6599935,179.711555 29.462941,179.711555 C29.3358703,179.711555 29.2077092,179.680125 29.0963539,179.614787 L24.6753081,177.018621 C24.5093657,176.921115 24.4108394,176.763809 24.4108394,176.596113 C24.4108394,176.428418 24.5093657,176.271111 24.6753081,176.173605 L29.0963539,173.577439 C29.3803226,173.410693 29.7746201,173.464746 29.9774457,173.698148 C30.1802071,173.931551 30.1143946,174.255814 29.8306184,174.422508 L26.1290196,176.596166 L29.8306184,178.769824 Z" id="ico_xml"></path>
                    </g>
                </g>
            </g>
        </g>
    </g>
</svg>