<?xml version="1.0" encoding="UTF-8"?>
<svg width="38px" height="48px" viewBox="0 0 38 48" version="1.1" xmlns="http://www.w3.org/2000/svg" xmlns:xlink="http://www.w3.org/1999/xlink">
    <!-- Generator: Sketch 53.2 (72643) - https://sketchapp.com -->
    <title>Combined Shape</title>
    <desc>Created with Sketch.</desc>
    <g id="01-Vehiculos" stroke="none" stroke-width="1" fill-rule="evenodd">
        <g id="04.03-Archivos-cargados" transform="translate(-555.000000, -463.000000)"  fill-rule="nonzero">
            <g id="card" transform="translate(96.000000, 148.000000)">
                <g id="File-XLS" transform="translate(48.000000, 252.000000)">
                    <g id="textarea" transform="translate(411.000000, 63.000000)">
                        <path d="M26.8206835,1.1716103 L36.8405942,11.2969952 C37.5853408,12.0455434 38.0028141,13.0640462 37.9999713,14.1255085 L37.9999713,44.0000024 C37.9974715,46.2080929 36.2267301,47.9974739 34.041641,48 L3.95833034,48 C1.77324116,47.9974739 0.00249981748,46.2080929 5.40012479e-13,44.0000024 L5.40012479e-13,4.00002659 C0.00249981748,1.79193613 1.77324116,0.00255513713 3.95833034,2.90054027e-05 L24.0216344,2.90054027e-05 C25.0720396,-0.00284375709 26.0799328,0.419024065 26.8206835,1.1716103 Z M36.4166392,44.0000024 L36.4166392,14.1255085 C36.4183446,13.4886273 36.1678283,12.8775287 35.7209359,12.4284395 L26.1249803,2.73147235 L26.1249803,9.6000232 C26.1264799,10.9248776 27.1889249,11.9985063 28.4999785,12.0000218 L33.2499749,12.0000218 L33.2499749,13.6000208 L28.4999785,13.6000208 C26.3148893,13.5974947 24.5441479,11.8081137 24.5416481,9.6000232 L24.5416481,1.658128 C24.3709315,1.61961982 24.1965523,1.60013683 24.0216344,1.60002804 L3.95833034,1.60002804 C2.64727674,1.6015435 1.58483181,2.67517222 1.58333214,4.00002659 L1.58333214,44.0000024 C1.58483181,45.3248568 2.64727674,46.3984855 3.95833034,46.400001 L34.041641,46.400001 C35.3526946,46.3984855 36.4151395,45.3248568 36.4166392,44.0000024 Z M14.2499892,5.60002562 L21.3749839,5.60002562 L21.3749839,7.20002465 L14.2499892,7.20002465 L14.2499892,5.60002562 Z M8.70832676,5.60002562 L11.874991,5.60002562 L11.874991,7.20002465 L8.70832676,7.20002465 L8.70832676,5.60002562 Z M16.6249874,10.4000227 L21.3749839,10.4000227 L21.3749839,12.0000218 L16.6249874,12.0000218 L16.6249874,10.4000227 Z M5.54166248,10.4000227 L14.2499892,10.4000227 L14.2499892,12.0000218 L5.54166248,12.0000218 L5.54166248,10.4000227 Z M30.8749767,18.4000179 C31.3121929,18.4000394 31.6666214,18.7581988 31.6666427,19.2000174 L31.6666427,41.6000039 C31.6666214,42.0418225 31.3121929,42.3999818 30.8749767,42.4000034 L7.12499462,42.4000034 C6.68777835,42.3999818 6.33334986,42.0418225 6.33332855,41.6000039 L6.33332855,19.2000174 C6.33334986,18.7581988 6.68777835,18.4000394 7.12499462,18.4000179 L30.8749767,18.4000179 Z M30.0833106,23.200015 L30.0833106,20.0000169 L23.7499821,20.0000169 L23.7499821,23.200015 L30.0833106,23.200015 Z M22.1666499,23.200015 L22.1666499,20.0000169 L15.8333214,20.0000169 L15.8333214,23.200015 L22.1666499,23.200015 Z M14.2499892,20.0000169 L7.91666069,20.0000169 L7.91666069,23.200015 L14.2499892,23.200015 L14.2499892,20.0000169 Z M7.91666069,24.800014 L7.91666069,40.8000044 L14.2499892,40.8000044 L14.2499892,24.800014 L7.91666069,24.800014 Z M15.8333214,24.800014 L15.8333214,40.8000044 L22.1666499,40.8000044 L22.1666499,24.800014 L15.8333214,24.800014 Z M23.7499821,40.8000044 L30.0833106,40.8000044 L30.0833106,24.800014 L23.7499821,24.800014 L23.7499821,40.8000044 Z" id="Combined-Shape"></path>
                    </g>
                </g>
            </g>
        </g>
    </g>
</svg>