<?xml version="1.0" encoding="UTF-8"?>
<svg width="20px" height="24px" viewBox="0 0 20 24" version="1.1" xmlns="http://www.w3.org/2000/svg" xmlns:xlink="http://www.w3.org/1999/xlink">
    <!-- Generator: Sketch 53.2 (72643) - https://sketchapp.com -->
    <title>proteger</title>
    <desc>Created with Sketch.</desc>
    <g id="05-Cotización" stroke="none" stroke-width="1" fill="none" fill-rule="evenodd">
        <g id="01.03-Cotizar_Detalle_Descuento-dinero" transform="translate(-207.000000, -585.000000)" fill="#F2A000" fill-rule="nonzero">
            <g id="proteger" transform="translate(207.000000, 585.000000)">
                <path d="M17.6841653,3.055875 C15.4184534,2.6484375 13.3319787,1.4068125 12.2899091,0.702984375 C11.6090698,0.24309375 10.8172408,0 9.99995329,0 C9.18266581,0 8.39083681,0.24309375 7.71004419,0.702984375 C6.66797463,1.4068125 4.58149986,2.64848437 2.31583471,3.05592187 C0.973962275,3.2971875 0,4.46226562 0,5.82609375 L0,11.4843281 C0,13.3535625 0.521128208,15.1757344 1.54895036,16.9002187 C2.35301812,18.2493281 3.46716556,19.5387187 4.86032867,20.7325781 C7.2028364,22.74 9.52240814,23.7868125 9.61999122,23.8303594 L9.99995329,24 L10.3800088,23.8303594 C10.4775919,23.7868125 12.7971636,22.74 15.1396713,20.7325781 C16.5327877,19.5387187 17.6469352,18.2493281 18.4510496,16.9002187 C19.4788718,15.1756875 20,13.3535625 20,11.4843281 L20,5.82604687 C20,4.46221875 19.0260377,3.29714062 17.6841653,3.055875 Z M18.1307398,11.4842812 C18.1307398,14.271 16.7278137,16.8924844 13.9608266,19.2760312 C12.3524108,20.6615625 10.7194241,21.5646562 10,21.9311719 C8.3463195,21.0880312 1.86912002,17.4060469 1.86912002,11.4843281 L1.86912002,5.82604687 C1.86912002,5.37159375 2.19564263,4.983 2.64553379,4.90209375 C5.24827863,4.43404687 7.58975868,3.04514062 8.7537487,2.25895312 C9.12497548,2.00821875 9.55594794,1.87565625 9.99995329,1.87565625 C10.4439586,1.87565625 10.8748844,2.00821875 11.2461112,2.259 C12.4101479,3.0451875 14.7515812,4.43409375 17.3543261,4.9021875 C17.8041705,4.98309375 18.1307398,5.37164062 18.1307398,5.82614062 L18.1307398,11.4842812 Z" id="Shape"></path>
                <polygon id="Path" points="8.51045417 14.1667343 5.28856657 10.9973067 4 12.4434466 8.63196994 17 16 8.31850722 14.5928861 7"></polygon>
            </g>
        </g>
    </g>
</svg>