<svg xmlns="http://www.w3.org/2000/svg" xmlns:xlink="http://www.w3.org/1999/xlink" width="24" height="24" viewBox="0 0 24 24" >
  <path class="main-icon" d="M12 24c-3.205 0-6.219-1.248-8.485-3.515C1.248 18.22 0 15.205 0 12c0-3.205 1.248-6.219 3.515-8.485C5.78 1.248 8.795 0 12 0c3.205 0 6.219 1.248 8.485 3.515C22.752 5.78 24 8.795 24 12c0 3.205-1.248 6.219-3.515 8.485C18.22 22.752 15.205 24 12 24zm0-22.125C6.417 1.875 1.875 6.417 1.875 12S6.417 22.125 12 22.125 22.125 17.583 22.125 12 17.583 1.875 12 1.875zm2.92 15.281L9.763 12l5.157-5.156-1.326-1.326L7.112 12l6.482 6.482 1.326-1.326z"/>
</svg>
