<?xml version="1.0" encoding="UTF-8"?>
<svg width="58px" height="72px" viewBox="0 0 58 72" version="1.1" xmlns="http://www.w3.org/2000/svg" xmlns:xlink="http://www.w3.org/1999/xlink">
    <title>Ic_user_gris_grande</title>
    <g id="07-Panel-de-administración" stroke="none" stroke-width="1" fill="none" fill-rule="evenodd">
        <g id="Nuevo-usuario-" transform="translate(-691.000000, -945.000000)" stroke="#9EA3B1">
            <g id="Group-2" transform="translate(135.000000, 878.000000)">
                <g id="Ic_user_gris_grande" transform="translate(558.000000, 69.000000)">
                    <g>
                        <path d="M27.4916761,31.5362319 C36.1675444,31.5362319 43.2,24.4770082 43.2,15.7681159 C43.2,7.05922368 36.1675444,0 27.4916761,0 C18.8158082,0 11.7818182,7.05922368 11.7818182,15.7681159 C11.7925595,24.4723872 18.8188773,31.5269902 27.4916761,31.5362319 L27.4916761,31.5362319 Z" id="Shape" stroke-width="4" fill-rule="nonzero"></path>
                        <path d="M36.7248394,34.7462675 C34.4386493,37.782418 30.8340993,39.5737925 27.0015513,39.5737925 C23.169003,39.5753239 19.5629024,37.7870114 17.275161,34.7523919 C16.6733688,33.9562253 15.7210478,33.4938365 14.7159926,33.5076162 C6.66159247,33.5076162 0,39.8999149 0,47.8478005 L0,65.005189 C0,66.7368513 1.53395021,68 3.28814338,68 L50.7103057,68 C52.4644993,68 54,66.7368513 54,65.005189 L54,47.8478005 C54,39.8999149 47.3353057,33.5076162 39.2840074,33.5076162 C38.2789522,33.4923055 37.3281825,33.9531633 36.7248394,34.7462675 Z" id="Path" stroke-width="4" fill-rule="nonzero"></path>
                    </g>
                </g>
            </g>
        </g>
    </g>
</svg>