<svg xmlns="http://www.w3.org/2000/svg" width="124" height="99" viewBox="0 0 124 99">
    <g fill="none" fill-rule="evenodd" stroke-linecap="round" stroke-linejoin="round" stroke-width="4">
        <path stroke="#8E8E93" d="M84.214 31L78 50 107 50zM74 80.5C74 72.492 80.492 66 88.5 66S103 72.492 103 80.5 96.508 95 88.5 95 74 88.508 74 80.5zM16 80.5C16 72.492 22.492 66 30.5 66S45 72.492 45 80.5 38.508 95 30.5 95 16 88.508 16 80.5zM45 83L46.625 83 72.371 83 74 83M0 25C0 11.196 11.196 0 25 0s25 11.196 25 25-11.196 25-25 25S0 38.804 0 25z" transform="translate(2 2)"/>
        <path stroke="#8E8E93" d="M11.192 45l-.613 1.072-9.224 17.902C.462 65.703 0 67.608 0 69.546 0 76.424 5.75 82 12.845 82H17M103.17 83h3.116c1.986 0 3.801-1.112 4.695-2.877l5.089-10.04c2.58-5.08 3.922-10.684 3.93-16.364.004-4.352-1.953-8.49-5.322-11.263L92.697 24.393C90.03 22.203 86.673 21 83.212 21H49" transform="translate(2 2)"/>
        <path stroke="#27CB8A" d="M12 24.5L20.333 33 37 16" transform="translate(2 2)"/>
    </g>
</svg>
