<svg xmlns="http://www.w3.org/2000/svg" width="76" height="76" viewBox="0 0 76 76">
    <g fill="none" fill-rule="evenodd">
        <g fill="#9EA3B1" fill-rule="nonzero" stroke="#9EA3B1" stroke-width=".6">
            <g>
                <g>
                    <path d="M75.696 32.897c-.25-2.044-1.33-3.818-2.967-4.876-1.612-1.04-3.543-1.227-5.345-.508-1.457.59-3.129-.22-3.8-1.828-.773-1.844-1.72-3.611-2.822-5.252-.981-1.458-.798-3.37.425-4.449 1.456-1.281 2.27-3.177 2.232-5.194-.038-2.052-.943-3.94-2.476-5.188C58.416 3.55 55.66 1.848 52.75.536c-1.79-.807-3.775-.695-5.453.295-1.65.977-2.771 2.672-3.082 4.662-.262 1.679-1.713 2.801-3.404 2.615-1.85-.21-3.774-.21-5.62 0-1.676.19-3.142-.936-3.405-2.615-.31-1.99-1.431-3.689-3.08-4.662-1.682-.993-3.671-1.102-5.454-.295-2.913 1.312-5.668 3.014-8.195 5.066-1.533 1.248-2.436 3.136-2.474 5.184-.038 2.021.776 3.913 2.236 5.205 1.22 1.075 1.403 2.987.424 4.445-1.105 1.641-2.052 3.408-2.824 5.252-.668 1.611-2.344 2.418-3.835 1.814-1.76-.701-3.696-.515-5.31.523C1.633 29.079.554 30.855.306 32.9.105 34.582 0 36.301 0 38c0 1.699.105 3.418.304 5.103.25 2.045 1.33 3.818 2.967 4.876 1.612 1.038 3.54 1.227 5.346.509 1.453-.594 3.125.217 3.8 1.827.772 1.845 1.72 3.611 2.821 5.252.982 1.458.798 3.37-.424 4.449-1.457 1.282-2.27 3.177-2.233 5.195.038 2.051.944 3.94 2.477 5.187 2.527 2.052 5.282 3.754 8.192 5.066 1.789.807 3.771.695 5.453-.295 1.65-.976 2.77-2.672 3.08-4.662.264-1.678 1.727-2.8 3.405-2.614 1.846.21 3.772.21 5.62 0 1.695-.18 3.142.936 3.405 2.614.31 1.99 1.431 3.69 3.081 4.662.938.553 1.964.831 3.002.831.83 0 1.66-.18 2.448-.536 2.91-1.312 5.665-3.018 8.192-5.066 1.536-1.244 2.439-3.136 2.477-5.184.038-2.02-.776-3.916-2.233-5.201-1.219-1.075-1.403-2.988-.424-4.446 1.105-1.64 2.052-3.407 2.824-5.252.672-1.61 2.35-2.414 3.8-1.827l.035.013c1.767.709 3.699.516 5.31-.522 1.641-1.058 2.72-2.831 2.968-4.88.202-1.698.307-3.41.307-5.099 0-1.688-.104-3.4-.304-5.103zm-3.144 9.772c-.12 1.007-.653 1.885-1.457 2.404-.776.505-1.713.593-2.6.237l-.019-.006c-3.02-1.197-6.431.393-7.783 3.628-.684 1.634-1.527 3.204-2.505 4.659-1.967 2.93-1.542 6.818.985 9.043.703.62 1.095 1.536 1.076 2.512-.019 1.007-.462 1.936-1.222 2.553-2.312 1.879-4.839 3.442-7.508 4.642-.884.4-1.872.346-2.695-.139-.795-.471-1.337-1.288-1.485-2.248-.504-3.225-3.081-5.47-6.144-5.47-.234 0-.475.011-.715.031-1.631.183-3.328.183-4.96 0-3.369-.41-6.317 1.957-6.858 5.429-.15.96-.69 1.78-1.486 2.248-.826.488-1.81.54-2.698.139-2.669-1.204-5.196-2.763-7.508-4.642-.76-.613-1.203-1.546-1.222-2.55-.02-.976.374-1.892 1.08-2.512 2.527-2.225 2.948-6.114.981-9.043-.978-1.458-1.817-3.025-2.501-4.66-1.356-3.24-4.779-4.824-7.84-3.603-.846.339-1.787.254-2.563-.251-.804-.516-1.336-1.394-1.456-2.404-.187-1.54-.282-3.113-.282-4.666 0-1.553.095-3.126.285-4.67.12-1.006.652-1.884 1.456-2.403.773-.502 1.714-.593 2.597-.237 3.024 1.207 6.447-.377 7.803-3.622.684-1.634 1.526-3.2 2.505-4.655 1.966-2.93 1.542-6.819-.985-9.043-.703-.62-1.096-1.536-1.077-2.513.02-1.007.462-1.936 1.222-2.553 2.312-1.878 4.84-3.438 7.509-4.642.883-.4 1.868-.349 2.694.14.795.467 1.337 1.288 1.486 2.25.541 3.473 3.49 5.816 6.859 5.43 1.627-.184 3.325-.184 4.959 0 3.35.382 6.317-1.957 6.859-5.43.149-.959.69-1.78 1.485-2.247.826-.492 1.808-.543 2.698-.14 2.67 1.204 5.196 2.764 7.508 4.642.76.614 1.203 1.547 1.222 2.55.02.977-.373 1.892-1.08 2.513-2.527 2.224-2.948 6.113-.981 9.043.978 1.458 1.817 3.024 2.501 4.659 1.356 3.241 4.782 4.828 7.841 3.604.849-.343 1.783-.251 2.562.25.804.52 1.336 1.398 1.457 2.405.187 1.556.282 3.126.282 4.669 0 1.543-.095 3.113-.282 4.67z" transform="translate(-916 -1243) translate(916 1243)"/>
                    <path d="M37.506 23c-8.707 0-15.792 7.178-15.792 16S28.8 55 37.506 55C46.214 55 53.3 47.822 53.3 39s-7.085-16-15.793-16zm0 29.09c-6.967 0-12.633-5.87-12.633-13.09s5.666-13.09 12.633-13.09c6.968 0 12.634 5.87 12.634 13.09s-5.666 13.09-12.634 13.09z" transform="translate(-916 -1243) translate(916 1243)"/>
                </g>
            </g>
        </g>
    </g>
</svg>
