<svg xmlns="http://www.w3.org/2000/svg" width="26" height="26" viewBox="0 0 26 26">
    <g fill="none" fill-rule="evenodd">
        <g fill="#FFF" fill-rule="nonzero">
            <g>
                <path d="M13 11.556c1.105 0 2-.863 2-1.926 0-1.064-.895-1.926-2-1.926-1.104 0-2 .862-2 1.926.001 1.063.896 1.924 2 1.926zm0-3.082c.663 0 1.2.517 1.2 1.156 0 .638-.537 1.155-1.2 1.155-.663 0-1.2-.517-1.2-1.155.001-.638.538-1.155 1.2-1.156z" transform="translate(-11 -359) translate(11 359)"/>
                <g>
                    <path d="M14.747 12.319c-.145-.002-.282.064-.368.18-.33.439-.848.698-1.4.698-.551 0-1.07-.258-1.4-.698-.086-.115-.223-.182-.368-.18-1.159 0-2.118.926-2.118 2.077v2.485c0 .25.221.433.474.433h6.824c.253 0 .474-.183.474-.433v-2.485c0-1.151-.96-2.077-2.118-2.077zm1.203 4.087h-5.942v-2.01c.004-.575.422-1.065.992-1.163.915 1.005 2.446 1.161 3.547.36.148-.106.285-.227.409-.36.571.098.99.587.994 1.163v2.01z" transform="translate(-11 -359) translate(11 359)"/>
                    <path d="M12.979 5.596c-4.116 0-7.452 3.315-7.452 7.404s3.336 7.404 7.452 7.404 7.452-3.315 7.452-7.404c-.004-4.087-3.338-7.399-7.452-7.404zm0 13.9c-3.61 0-6.538-2.909-6.538-6.496 0-3.587 2.927-6.495 6.538-6.495S19.517 9.413 19.517 13c-.004 3.586-2.929 6.491-6.538 6.495z" transform="translate(-11 -359) translate(11 359)"/>
                    <path d="M25.54 10.715l-2.408-.23c-.26-1.017-.672-1.988-1.222-2.883l1.535-1.84c.151-.181.138-.446-.028-.611l-2.603-2.587c-.167-.165-.433-.178-.615-.028l-1.852 1.523c-.898-.551-1.877-.96-2.902-1.215L15.213.46c-.023-.232-.221-.407-.455-.403H11.2c-.233-.004-.431.171-.454.403l-.233 2.388c-1.024.254-2.003.663-2.902 1.213L5.759 2.537c-.182-.15-.448-.138-.615.028L2.541 5.15c-.167.166-.18.43-.029.611l1.535 1.84c-.55.896-.963 1.867-1.222 2.883l-2.407.23c-.234.023-.412.22-.41.453v3.666c-.002.234.176.43.41.452l2.407.23c.255 1.019.667 1.991 1.221 2.884l-1.534 1.84c-.15.18-.138.445.029.61l2.603 2.586c.167.166.433.179.615.029l1.853-1.525c.9.547 1.878.956 2.9 1.215l.233 2.394c.023.232.22.41.455.41h3.557c.236 0 .433-.178.456-.41l.232-2.394c1.022-.259 2-.668 2.9-1.215l1.854 1.525c.182.15.448.137.615-.029l2.603-2.585c.166-.166.179-.43.028-.611l-1.533-1.84c.554-.893.967-1.866 1.223-2.884l2.405-.23c.233-.023.412-.219.41-.452v-3.666c.002-.234-.176-.43-.41-.452zm-.504 3.706l-2.319.222c-.197.019-.36.163-.4.356-.247 1.136-.705 2.216-1.352 3.184-.11.167-.099.387.03.54l1.48 1.777-2.014 2.001-1.788-1.471c-.154-.127-.374-.14-.542-.03-.978.638-2.066 1.093-3.209 1.344-.193.043-.337.204-.356.4l-.224 2.306h-2.727l-.223-2.306c-.02-.196-.163-.357-.357-.4-1.143-.25-2.23-.706-3.209-1.344-.168-.11-.387-.097-.542.03L5.496 22.5 3.482 20.5l1.48-1.777c.13-.154.14-.373.03-.54-.647-.968-1.105-2.048-1.352-3.184-.04-.193-.202-.337-.4-.356L.922 14.42v-2.842l2.318-.222c.197-.019.36-.162.401-.353.253-1.136.71-2.217 1.353-3.19.11-.166.097-.384-.031-.538L3.482 5.5 5.496 3.5 7.285 4.97c.155.128.376.14.544.03.974-.643 2.061-1.099 3.204-1.344.194-.038.34-.197.359-.392l.224-2.299h2.726l.224 2.299c.02.196.165.356.359.396 1.143.244 2.23.699 3.205 1.34.168.11.389.099.544-.029l1.788-1.472 2.014 2.002-1.48 1.776c-.129.154-.14.372-.031.539.642.972 1.1 2.052 1.353 3.188.041.192.203.335.4.354l2.318.221v2.842z" transform="translate(-11 -359) translate(11 359)"/>
                </g>
            </g>
        </g>
    </g>
</svg>
