<?xml version="1.0" encoding="UTF-8"?>
<svg width="112px" height="92px" viewBox="0 0 112 92" version="1.1" xmlns="http://www.w3.org/2000/svg" xmlns:xlink="http://www.w3.org/1999/xlink">
    <!-- Generator: Sketch 53.2 (72643) - https://sketchapp.com -->
    <title>ico-clientes-warning</title>
    <desc>Created with Sketch.</desc>
    <defs>
        <path d="M96.968162,31.240885 C100.24794,28.9398567 102.419686,25.1121845 102.419686,20.7977563 C102.419686,13.7397943 96.7022341,8.03147398 89.632982,8.03147398 C82.5637299,8.03147398 76.8462784,13.7397943 76.8462784,20.7977563 C76.8462784,25.1121845 78.9958629,28.9398567 82.2978019,31.240885 C79.4833975,32.214397 76.9127604,33.7189156 74.7410152,35.6659395 C71.7493255,33.1215332 68.2257798,31.1745092 64.3698241,30.023995 C69.0457244,27.1919601 72.1925388,22.0367716 72.1925388,16.1735743 C72.1925388,7.23496416 64.9460014,0 55.9930928,0 C47.0401842,0 39.7936468,7.25708944 39.7936468,16.1735743 C39.7936468,22.0367716 42.9183005,27.1919601 47.6163615,30.023995 C43.8047271,31.1745092 40.3255028,33.0994079 37.3559737,35.5995637 C35.1842285,33.6967903 32.6579127,32.214397 29.8878296,31.2630103 C33.167608,28.9619819 35.3393532,25.1343098 35.3393532,20.8198816 C35.3393532,13.7619196 29.6219016,8.05359925 22.5526496,8.05359925 C15.4833975,8.05359925 9.76594597,13.7619196 9.76594597,20.8198816 C9.76594597,25.1343098 11.9155305,28.9619819 15.2174695,31.2630103 C6.41968558,34.2941726 0.103896104,42.6354004 0.103896104,52.4368962 L0.103896104,53.8971642 C0.103896104,53.9414148 0.148217434,53.9856653 0.192538763,53.9856653 L27.2950318,53.9856653 C27.1399072,55.2025553 27.0512645,56.4636959 27.0512645,57.7248364 L27.0512645,59.2293549 C27.0512645,65.7341851 32.3255028,71 38.8407382,71 L73.1897687,71 C79.7050041,71 84.9792424,65.7341851 84.9792424,59.2293549 L84.9792424,57.7248364 C84.9792424,56.4636959 84.8905997,55.2025553 84.7354751,53.9856653 L112.015253,53.9856653 C112.059575,53.9856653 112.103896,53.9414148 112.103896,53.8971642 L112.103896,52.4368962 C112.059575,42.6132752 105.765946,34.2720474 96.968162,31.240885 Z M80.3919847,20.775631 C80.3919847,15.6868183 84.5360291,11.5493923 89.632982,11.5493923 C94.7299349,11.5493923 98.8739792,15.6868183 98.8739792,20.775631 C98.8739792,25.7980679 94.8185775,29.8912434 89.8102673,30.0018697 C89.7437853,30.0018697 89.699464,30.0018697 89.632982,30.0018697 C89.5665,30.0018697 89.5221787,30.0018697 89.4556967,30.0018697 C84.4252257,29.9133687 80.3919847,25.8201932 80.3919847,20.775631 Z M43.2950318,16.1735743 C43.2950318,9.20411343 48.968162,3.54004363 55.9487715,3.54004363 C62.9293809,3.54004363 68.6025111,9.20411343 68.6025111,16.1735743 C68.6025111,22.8996572 63.3061122,28.4088501 56.6800734,28.7849797 C56.4363061,28.7849797 56.1925388,28.7849797 55.9487715,28.7849797 C55.7050041,28.7849797 55.4612368,28.7849797 55.2174695,28.7849797 C48.5914307,28.4088501 43.2950318,22.8996572 43.2950318,16.1735743 Z M13.2451703,20.775631 C13.2451703,15.6868183 17.3892147,11.5493923 22.4861676,11.5493923 C27.5831205,11.5493923 31.7271648,15.6868183 31.7271648,20.775631 C31.7271648,25.7980679 27.6717631,29.8912434 22.6634529,30.0018697 C22.5969709,30.0018697 22.5526496,30.0018697 22.4861676,30.0018697 C22.4196856,30.0018697 22.3753642,30.0018697 22.3088823,30.0018697 C17.300572,29.9133687 13.2451703,25.8201932 13.2451703,20.775631 Z M27.9155305,50.4234964 L3.6939238,50.4234964 C4.69115372,40.9981303 12.6689931,33.6082892 22.3532036,33.5419134 C22.3975249,33.5419134 22.4418462,33.5419134 22.4861676,33.5419134 C22.5304889,33.5419134 22.5748102,33.5419134 22.6191316,33.5419134 C27.2285498,33.5640386 31.4390762,35.2676846 34.6966939,38.0333437 C31.5055582,41.4848863 29.134367,45.7329386 27.9155305,50.4234964 Z M81.3892147,59.2293549 C81.3892147,63.7650358 77.6883836,67.4599564 73.1454474,67.4599564 L38.7964169,67.4599564 C34.2534806,67.4599564 30.5526496,63.7650358 30.5526496,59.2293549 L30.5526496,57.7248364 C30.5526496,43.9850421 41.5443393,32.7454036 55.2174695,32.3471486 C55.4612368,32.3692739 55.7271648,32.3692739 55.9709321,32.3692739 C56.2146994,32.3692739 56.4806274,32.3692739 56.7243947,32.3471486 C70.3975249,32.7454036 81.3892147,43.9850421 81.3892147,57.7248364 L81.3892147,59.2293549 L81.3892147,59.2293549 Z M84.0263338,50.4234964 C82.8074972,45.7550639 80.4806274,41.5733873 77.3116523,38.1218448 C80.5914307,35.2898099 84.8462784,33.5861639 89.500018,33.5419134 C89.5443393,33.5419134 89.5886606,33.5419134 89.632982,33.5419134 C89.6773033,33.5419134 89.7216246,33.5419134 89.765946,33.5419134 C99.4501565,33.6082892 107.427996,40.9981303 108.425226,50.4234964 L84.0263338,50.4234964 Z" id="path-1"></path>
    </defs>
    <g id="02-Clientes" stroke="none" stroke-width="1" fill="none" fill-rule="evenodd">
        <g id="02.02-Salir-sin-guardar-cambios" transform="translate(-664.000000, -307.000000)">
            <g id="modal">
                <g id="content" transform="translate(435.000000, 230.000000)">
                    <g id="ico-clientes-warning" transform="translate(228.896104, 77.000000)">
                        <g>
                            <g id="icono/renta">
                                <mask id="mask-2" fill="white">
                                    <use xlink:href="#path-1"></use>
                                </mask>
                                <use id="Mask" fill="#000000" fill-rule="nonzero" xlink:href="#path-1"></use>
                                <g id="color/gris-tab" mask="url(#mask-2)" fill="#8E8E93">
                                    <g transform="translate(0.103896, -19.000000)" id="Rectangle">
                                        <rect x="0" y="0" width="112" height="112"></rect>
                                    </g>
                                </g>
                            </g>
                            <g id="Group" transform="translate(31.103896, 40.000000)">
                                <path d="M-6.39488462e-14,24.8275862 C-6.39488462e-14,11.1186207 11.0267313,1.84741111e-13 24.6223995,1.84741111e-13 C38.2180678,1.84741111e-13 49.2447991,11.1186207 49.2447991,24.8275862 C49.2447991,38.5365517 38.2180678,49.6551724 24.6223995,49.6551724 C11.0267313,49.6551724 -6.39488462e-14,38.5365517 -6.39488462e-14,24.8275862 Z" id="Stroke-8494" stroke="#8E8E93" stroke-width="4" fill="#FBFBFB" stroke-linecap="round" stroke-linejoin="round"></path>
                                <path d="M26.6742662,41.3793103 C26.6742662,42.5213793 25.7550299,43.4482759 24.6223995,43.4482759 C23.4897692,43.4482759 22.5705329,42.5213793 22.5705329,41.3793103 C22.5705329,40.2372414 23.4897692,39.3103448 24.6223995,39.3103448 C25.7550299,39.3103448 26.6742662,40.2372414 26.6742662,41.3793103" id="Fill-8500" fill="#F2A000"></path>
                                <path d="M24.6223995,33.1034483 L24.6223995,8.27586207" id="Stroke-8502" stroke="#F2A000" stroke-width="4" stroke-linecap="round" stroke-linejoin="round"></path>
                            </g>
                        </g>
                    </g>
                </g>
            </g>
        </g>
    </g>
</svg>