<svg xmlns="http://www.w3.org/2000/svg" width="123" height="100" viewBox="0 0 123 100">
    <g fill="none" fill-rule="evenodd" stroke-linecap="round" stroke-linejoin="round" stroke-width="4">
        <path stroke="#8E8E93" d="M84.127 31.034L77.971 49.655 106.697 49.655zM73.867 80.69c0-7.999 6.43-14.483 14.363-14.483s14.363 6.484 14.363 14.483c0 7.998-6.43 14.482-14.363 14.482-7.932 0-14.363-6.484-14.363-14.482zM16.415 80.69c0-7.999 6.43-14.483 14.363-14.483S45.141 72.69 45.141 80.69c0 7.998-6.43 14.482-14.363 14.482S16.415 88.688 16.415 80.69zM44.933 82.759L46.566 82.759 72.44 82.759 74.077 82.759M0 24.828C0 11.118 11.027 0 24.622 0c13.596 0 24.623 11.119 24.623 24.828S38.218 49.655 24.622 49.655C11.027 49.655 0 38.537 0 24.828z" transform="translate(2 2)"/>
        <path stroke="#8E8E93" d="M10.945 45.47l-.6 1.08-9.02 18.042C.452 66.334 0 68.254 0 70.207c0 6.931 5.622 12.55 12.562 12.55h4.062M102.385 82.759h3.078c1.961 0 3.755-1.113 4.637-2.88l5.027-10.051c2.548-5.086 3.874-10.697 3.882-16.382.004-4.358-1.929-8.5-5.257-11.276L92.04 24.087c-2.634-2.193-5.95-3.397-9.368-3.397H48.876" transform="translate(2 2)"/>
        <path stroke="#E23B4F" d="M16.415 16.552L32.83 33.103M16.415 33.103L32.83 16.552" transform="translate(2 2)"/>
    </g>
</svg>
