<?xml version="1.0" encoding="UTF-8"?>
<svg width="94px" height="90px" viewBox="0 0 94 90" version="1.1" xmlns="http://www.w3.org/2000/svg" xmlns:xlink="http://www.w3.org/1999/xlink">
    <title>Ico_user_positivo</title>
    <g id="07-Panel-de-administración" stroke="none" stroke-width="1" fill="none" fill-rule="evenodd">
        <g id="Nuevo-usuario-MENSAJE-2" transform="translate(-658.000000, -301.000000)">
            <g id="Ico_user_positivo" transform="translate(660.000000, 303.000000)">
                <g>
                    <g id="Group-2" transform="translate(31.000000, 12.000000)" fill-rule="nonzero" stroke="#8E8E93" stroke-width="4">
                        <path d="M29.7213716,34 C39.1101874,34 46.7205416,26.3892745 46.7205416,17 C46.7205416,7.61072553 39.1101874,0 29.7213716,0 C20.3325562,0 12.7205416,7.61072553 12.7205416,17 C12.7321656,26.3842924 20.3358775,33.9900364 29.7213716,34 L29.7213716,34 Z" id="Shape"></path>
                        <path d="M39.549827,37.7183776 C37.0877762,40.9752232 33.2059531,42.896811 29.0785937,42.896811 C24.951234,42.8984537 21.0677411,40.9801504 18.6040196,37.7249472 C17.9559356,36.870908 16.9303592,36.3749086 15.8479921,36.3896899 C7.17402266,36.3896899 -2.09610107e-13,43.2466389 -2.09610107e-13,51.7722489 L-2.09610107e-13,70.1767922 C-2.09610107e-13,72.0343274 1.65194638,73.3892932 3.54107749,73.3892932 L54.6110985,73.3892932 C56.50023,73.3892932 58.1538462,72.0343274 58.1538462,70.1767922 L58.1538462,51.7722489 C58.1538462,43.2466389 50.9764831,36.3896899 42.3058541,36.3896899 C41.223487,36.3732663 40.1995812,36.8676235 39.549827,37.7183776 Z" id="Path"></path>
                    </g>
                    <g id="ico-car-warning" fill="#FFFFFF" stroke="#8E8E93" stroke-linecap="round" stroke-linejoin="round" stroke-width="4">
                        <g id="Stroke-8494">
                            <path d="M0,24.8275862 C0,11.1186207 11.0267313,0 24.6223995,0 C38.2180678,0 49.2447991,11.1186207 49.2447991,24.8275862 C49.2447991,38.5365517 38.2180678,49.6551724 24.6223995,49.6551724 C11.0267313,49.6551724 0,38.5365517 0,24.8275862 Z"></path>
                        </g>
                    </g>
                    <polyline id="Stroke-8466" stroke="#27CB8A" stroke-width="4" stroke-linecap="round" stroke-linejoin="round" points="14 25.5 21.3333333 32 36 19"></polyline>
                </g>
            </g>
        </g>
    </g>
</svg>