<svg xmlns="http://www.w3.org/2000/svg" xmlns:xlink="http://www.w3.org/1999/xlink" width="24" height="24" viewBox="0 0 24 24">
    <defs>
        <path id="kt9msmhkea" d="M20.732 6.71c.702-.494 1.167-1.315 1.167-2.24 0-1.513-1.224-2.736-2.737-2.736-1.513 0-2.737 1.223-2.737 2.736 0 .925.46 1.746 1.167 2.24-.602.208-1.152.53-1.617.948-.64-.546-1.395-.963-2.22-1.21 1-.607 1.674-1.712 1.674-2.969 0-1.916-1.55-3.467-3.467-3.467-1.916 0-3.467 1.556-3.467 3.467 0 1.257.669 2.362 1.674 2.97-.816.246-1.56.659-2.196 1.194-.465-.407-1.005-.725-1.598-.93.702-.492 1.167-1.313 1.167-2.238 0-1.513-1.224-2.737-2.737-2.737-1.513 0-2.737 1.224-2.737 2.737 0 .925.46 1.746 1.167 2.239C1.352 7.364 0 9.152 0 11.253v.313c0 .01.01.019.019.019h5.8c-.032.26-.051.531-.051.802v.322c0 1.395 1.128 2.523 2.523 2.523h7.352c1.394 0 2.523-1.128 2.523-2.523v-.322c0-.27-.019-.541-.052-.802h5.839c.01 0 .019-.01.019-.019v-.313c-.01-2.106-1.357-3.894-3.24-4.544zm-3.548-2.244c0-1.091.887-1.978 1.978-1.978s1.978.887 1.978 1.978c0 1.076-.868 1.954-1.94 1.977h-.076c-1.077-.018-1.94-.896-1.94-1.977zm-7.94-.987c0-1.494 1.214-2.708 2.709-2.708 1.494 0 2.708 1.214 2.708 2.708 0 1.442-1.134 2.623-2.552 2.704h-.313c-1.418-.081-2.552-1.262-2.552-2.704zm-6.431.987c0-1.091.887-1.978 1.978-1.978 1.09 0 1.977.887 1.977 1.978 0 1.076-.868 1.954-1.94 1.977h-.075c-1.072-.018-1.94-.896-1.94-1.977zm3.14 6.355H.768c.214-2.02 1.921-3.604 3.994-3.619h.057c.987.005 1.888.37 2.585.963-.683.74-1.19 1.65-1.451 2.656zm11.445 1.888c0 .972-.792 1.765-1.765 1.765H8.281c-.972 0-1.764-.793-1.764-1.765v-.322c0-2.946 2.353-5.355 5.279-5.44.052.004.11.004.161.004.052 0 .11 0 .162-.005 2.926.086 5.279 2.495 5.279 5.44v.323zm.564-1.888c-.26-1-.759-1.897-1.437-2.637.702-.607 1.613-.972 2.609-.982h.057c2.072.015 3.78 1.599 3.993 3.62h-5.222z"/>
    </defs>
    <g fill="none" fill-rule="evenodd">
        <g>
            <g>
                <g>
                    <g>
                        <g transform="translate(-12 -220) translate(-1) translate(13 168) translate(0 52)">
                            <mask id="vpb2034teb" fill="#fff">
                                <use xlink:href="#kt9msmhkea"/>
                            </mask>
                            <use fill="#000" fill-rule="nonzero" xlink:href="#kt9msmhkea"/>
                            <g fill="#001A70" mask="url(#vpb2034teb)">
                                <path d="M0 0H24V24H0z" transform="translate(0 -4)"/>
                            </g>
                        </g>
                    </g>
                </g>
            </g>
        </g>
    </g>
</svg>
