<svg xmlns="http://www.w3.org/2000/svg" xmlns:xlink="http://www.w3.org/1999/xlink" width="24" height="24" viewBox="0 0 24 24">
  <path 
  class="main-icon"
  d="M23.953 10.658c0-.507-.281-.962-.734-1.189l-1.783-.891 1.783-.892c.453-.227.734-.682.734-1.188 0-.506-.281-.962-.734-1.188L13.15.275c-.735-.367-1.612-.367-2.347 0L.734 5.31C.281 5.536 0 5.992 0 6.498c0 .506.281.961.734 1.188l1.784.892-1.784.892C.281 9.696 0 10.15 0 10.658c0 .506.281.961.734 1.188l1.784.892-1.784.891C.282 13.855 0 14.31 0 14.817c0 .506.281.962.734 1.189l10.069 5.034c.367.184.77.275 1.174.275.403 0 .806-.092 1.174-.275l10.068-5.034c.453-.227.734-.683.734-1.19 0-.505-.281-.96-.734-1.187l-1.783-.891 1.783-.892c.453-.227.734-.682.734-1.188zM1.227 6.7c-.11-.055-.126-.15-.126-.203 0-.053.017-.149.126-.203L11.295 1.26c.213-.107.448-.16.682-.16.234 0 .468.053.681.16l10.068 5.034c.11.054.126.15.126.203 0 .052-.016.148-.126.203l-10.068 5.034c-.427.213-.936.213-1.363 0L1.227 6.701zm21.5 7.913c.109.055.125.15.125.203 0 .053-.016.15-.125.204l-10.069 5.034c-.427.213-.936.213-1.363 0L1.227 15.02c-.11-.055-.126-.151-.126-.204 0-.052.016-.148.126-.203l2.522-1.26 7.054 3.526c.367.184.77.275 1.174.275.403 0 .806-.091 1.174-.275l7.053-3.527 2.523 1.261zm0-3.753l-10.069 5.034c-.427.213-.936.213-1.363 0L1.227 10.861c-.11-.055-.126-.15-.126-.203 0-.053.016-.149.126-.204l2.522-1.26 7.054 3.526c.367.184.77.276 1.174.276.403 0 .806-.092 1.174-.276l7.053-3.527 2.522 1.261c.11.055.126.151.126.204 0 .052-.016.148-.126.203z"
  />
</svg>
