<svg
   xmlns="http://www.w3.org/2000/svg"
   width="24"
   height="24"
   viewBox="0 0 24 24"
  >
  <path
     class="main-icon"
     d="M 15.414,0 21,5.834 V 24 H 3 V 0 Z M 14.872,0.8 H 3.766 V 23.2 H 20.234 V 6.4 h -5.362 z m -5.6,15.288 c 0.164,-0.138 0.406,-0.11 0.537,0.062 0.132,0.172 0.106,0.424 -0.06,0.562 l -1.914,1.6 C 7.765,18.372 7.68,18.4 7.595,18.4 7.497,18.4 7.399,18.36 7.325,18.283 l -0.766,-0.8 c -0.15,-0.157 -0.15,-0.41 0,-0.566 0.15,-0.156 0.392,-0.156 0.542,0 l 0.523,0.547 z m 7.515,1.112 c 0.212,0 0.383,0.179 0.383,0.4 0,0.221 -0.171,0.4 -0.383,0.4 H 10.66 c -0.212,0 -0.383,-0.179 -0.383,-0.4 0,-0.221 0.171,-0.4 0.383,-0.4 z M 9.271,11.688 c 0.165,-0.138 0.407,-0.11 0.538,0.062 0.132,0.172 0.106,0.424 -0.06,0.562 l -1.914,1.6 C 7.765,13.972 7.68,14 7.595,14 7.497,14 7.399,13.96 7.325,13.883 l -0.766,-0.8 c -0.15,-0.157 -0.15,-0.41 0,-0.566 0.15,-0.156 0.392,-0.156 0.542,0 l 0.523,0.547 z m 7.516,1.112 c 0.212,0 0.383,0.179 0.383,0.4 0,0.221 -0.171,0.4 -0.383,0.4 H 10.66 c -0.212,0 -0.383,-0.179 -0.383,-0.4 0,-0.221 0.171,-0.4 0.383,-0.4 z M 9.271,7.288 C 9.436,7.15 9.678,7.178 9.809,7.35 9.941,7.522 9.915,7.774 9.749,7.912 l -1.914,1.6 C 7.765,9.572 7.68,9.6 7.595,9.6 7.497,9.6 7.399,9.56 7.325,9.483 l -0.766,-0.8 c -0.15,-0.157 -0.15,-0.41 0,-0.566 0.15,-0.156 0.392,-0.156 0.542,0 L 7.624,8.664 Z M 16.787,8.4 c 0.212,0 0.383,0.179 0.383,0.4 0,0.221 -0.171,0.4 -0.383,0.4 H 10.66 c -0.212,0 -0.383,-0.179 -0.383,-0.4 0,-0.221 0.171,-0.4 0.383,-0.4 z M 15.638,1.366 V 5.6 h 4.055 z"
     />
</svg>
