<svg width="24" height="24" viewBox="0 0 24 24" fill="none" xmlns="http://www.w3.org/2000/svg">
<path d="M19 16H17C17 14.8 16.25 13.72 15.13 13.3L8.97 11H1V22H7V20.56L14 22.5L22 20V19C22 17.34 20.66 16 19 16ZM3 20V13H5V20H3ZM13.97 20.41L7 18.48V13H8.61L14.43 15.17C14.77 15.3 15 15.63 15 16C15 16 13.01 15.95 12.7 15.85L10.32 15.06L9.69 16.96L12.07 17.75C12.58 17.92 13.11 18.01 13.65 18.01H19C19.39 18.01 19.74 18.24 19.9 18.57L13.97 20.41Z" fill="white"/>
<path d="M13.83 5C13.41 3.83 12.3 3 11 3C9.34 3 8 4.34 8 6C8 7.65 9.34 9 11 9C12.3 9 13.41 8.16 13.83 7H19V9H21V7H22V5H13.83ZM11 7C10.45 7 10 6.55 10 6C10 5.45 10.45 5 11 5C11.55 5 12 5.45 12 6C12 6.55 11.55 7 11 7Z" fill="white"/>
</svg>
