<svg width="24" height="24" viewBox="0 0 24 24" fill="white"  xmlns="http://www.w3.org/2000/svg">
<path d="M7.23285 12H8.03751C8.41771 11.9988 8.78193 11.8469 9.05026 11.5776C9.31858 11.3082 9.4691 10.9434 9.46879 10.5632V10.125H16.6875V10.5632C16.6875 11.3541 17.3526 12 18.1435 12H18.9482C19.3296 11.9993 19.6952 11.8479 19.9654 11.5788C20.2356 11.3096 20.3885 10.9446 20.3907 10.5632V6.16659C20.3895 5.90544 20.3353 5.64724 20.2313 5.40766C20.1274 5.16807 19.9759 4.95209 19.786 4.77281L19.5306 4.53375C19.5289 4.52944 19.5268 4.52499 19.5249 4.52072L18.4454 2.00728C18.3331 1.74531 18.1463 1.52206 17.9083 1.36523C17.6703 1.20839 17.3915 1.12486 17.1065 1.125H9.26751C8.98256 1.1249 8.70385 1.20844 8.46595 1.36527C8.22804 1.5221 8.0414 1.74532 7.92918 2.00723L6.8661 4.48355L6.48224 4.81528C6.27091 4.99551 6.10148 5.21971 5.98581 5.47223C5.87013 5.72474 5.811 5.99948 5.81254 6.27722V10.5632C5.81113 10.7509 5.84678 10.937 5.91745 11.1109C5.98812 11.2848 6.09243 11.443 6.22438 11.5765C6.35634 11.71 6.51334 11.8161 6.6864 11.8888C6.85946 11.9614 7.04516 11.9992 7.23285 12ZM8.53129 10.5632C8.53194 10.6949 8.48028 10.8214 8.38767 10.9151C8.29505 11.0087 8.16906 11.0617 8.03737 11.0625H7.23285C7.16822 11.0619 7.10436 11.0485 7.04497 11.0229C6.98559 10.9974 6.93187 10.9604 6.88694 10.9139C6.84201 10.8674 6.80677 10.8125 6.78327 10.7523C6.75977 10.6921 6.74847 10.6278 6.75004 10.5632V10.0258C6.90314 10.0895 7.06705 10.1232 7.23285 10.125H8.53129V10.5632ZM18.9482 11.0625H18.1435C17.8696 11.0625 17.625 10.8371 17.625 10.5632V10.125H18.9482C19.1212 10.1231 19.2923 10.0895 19.4532 10.0258V10.5632C19.4512 10.696 19.3973 10.8227 19.3028 10.9161C19.2084 11.0095 19.081 11.0621 18.9482 11.0625ZM8.7906 2.36817C8.83108 2.27586 8.89796 2.19759 8.98282 2.1432C9.06768 2.08881 9.16673 2.06073 9.26751 2.0625H17.1065C17.2073 2.06074 17.3063 2.08882 17.3911 2.1432C17.476 2.19758 17.5428 2.27584 17.5833 2.36813L18.3816 4.21875H18.0801C17.8638 3.23438 16.9572 2.43248 15.8744 2.43248C14.7917 2.43248 13.8851 3.23438 13.6688 4.21875H7.99223L8.7906 2.36817ZM17.1055 4.21875H14.6434C14.8328 3.75 15.3131 3.36998 15.8744 3.36998C16.4358 3.36998 16.9161 3.75 17.1055 4.21875ZM6.75004 6.27722C6.74855 6.13422 6.77806 5.9926 6.83654 5.8621C6.89502 5.7316 6.98109 5.61532 7.08881 5.52127L7.50131 5.15625H18.8413L19.1421 5.44542C19.2396 5.53869 19.3173 5.65058 19.3708 5.77446C19.4242 5.89834 19.4522 6.03169 19.4532 6.16659V8.68036C19.4515 8.81399 19.3979 8.94172 19.3036 9.03642C19.2093 9.13111 19.0818 9.18532 18.9482 9.1875H7.23285C7.16783 9.18599 7.10374 9.17166 7.04426 9.14534C6.98477 9.11902 6.93107 9.08122 6.88622 9.03411C6.84137 8.987 6.80626 8.9315 6.78289 8.8708C6.75952 8.8101 6.74836 8.74538 6.75004 8.68036V6.27722Z" fill="white"/>
<path d="M10.4531 6.5625C10.4531 6.43818 10.4037 6.31895 10.3158 6.23104C10.2279 6.14314 10.1087 6.09375 9.98438 6.09375H7.6875C7.56318 6.09375 7.44395 6.14314 7.35604 6.23104C7.26814 6.31895 7.21875 6.43818 7.21875 6.5625V8.15625C7.21875 8.28057 7.26814 8.3998 7.35604 8.48771C7.44395 8.57561 7.56318 8.625 7.6875 8.625H9.98438C10.1087 8.625 10.2279 8.57561 10.3158 8.48771C10.4037 8.3998 10.4531 8.28057 10.4531 8.15625V6.5625ZM8.15625 7.03125H9.51562V7.64062H8.15625V7.03125Z" fill="white"/>
<path d="M18.9844 6.5625C18.9844 6.43818 18.935 6.31895 18.8471 6.23104C18.7592 6.14314 18.6399 6.09375 18.5156 6.09375H16.2188C16.0944 6.09375 15.9752 6.14314 15.8873 6.23104C15.7994 6.31895 15.75 6.43818 15.75 6.5625V8.15625C15.75 8.28057 15.7994 8.3998 15.8873 8.48771C15.9752 8.57561 16.0944 8.625 16.2188 8.625H18.5156C18.6399 8.625 18.7592 8.57561 18.8471 8.48771C18.935 8.3998 18.9844 8.28057 18.9844 8.15625V6.5625ZM16.6875 7.03125H18.0469V7.64062H16.6875V7.03125Z" fill="white"/>
<path d="M11.6179 8.53125H14.5629C14.6872 8.53125 14.8064 8.48186 14.8943 8.39396C14.9823 8.30605 15.0316 8.18682 15.0316 8.0625C15.0316 7.93818 14.9823 7.81895 14.8943 7.73104C14.8064 7.64314 14.6872 7.59375 14.5629 7.59375H11.6179C11.4936 7.59375 11.3744 7.64314 11.2865 7.73104C11.1986 7.81895 11.1492 7.93818 11.1492 8.0625C11.1492 8.18682 11.1986 8.30605 11.2865 8.39396C11.3744 8.48186 11.4936 8.53125 11.6179 8.53125Z" fill="white"/>
<path d="M11.6179 7.3125H14.5629C14.6872 7.3125 14.8064 7.26311 14.8943 7.17521C14.9823 7.0873 15.0316 6.96807 15.0316 6.84375C15.0316 6.71943 14.9823 6.6002 14.8943 6.51229C14.8064 6.42439 14.6872 6.375 14.5629 6.375H11.6179C11.4936 6.375 11.3744 6.42439 11.2865 6.51229C11.1986 6.6002 11.1492 6.71943 11.1492 6.84375C11.1492 6.96807 11.1986 7.0873 11.2865 7.17521C11.3744 7.26311 11.4936 7.3125 11.6179 7.3125Z" fill="white"/>
<path d="M21.1302 12.6809C20.7983 12.3595 20.3506 12.1809 19.8853 12.1843C19.42 12.1877 18.9751 12.3728 18.6481 12.6991C17.4797 13.8692 15.4786 15.8601 14.9713 16.3647L11.3251 16.8886L10.7533 16.1391L13.4119 15.3346C14.2727 15.0799 14.7908 14.1942 14.5912 13.3182C14.4943 12.8944 14.2355 12.5237 13.8686 12.283C13.5017 12.0423 13.0547 11.9502 12.6207 12.0258L6.86997 12.9231C6.46257 12.9824 6.07969 13.1514 5.76353 13.4115L0 18.9306L4.32742 24L7.20045 20.8669L15.0314 20.605C15.5564 20.5855 16.0545 20.3715 16.4264 20.0059L21.2029 15.1056L21.2094 15.0989C21.5166 14.7757 21.6843 14.3475 21.6772 13.9047C21.6701 13.462 21.4887 13.0392 21.1714 12.7258L21.1302 12.6809ZM20.4667 14.4155L15.7081 19.2976C15.518 19.4838 15.2641 19.5932 14.9963 19.6042L6.73556 19.8804L4.3548 22.4766L1.38617 18.9989L6.4287 14.1688C6.59772 14.0342 6.80004 13.9463 7.01489 13.9142L12.7834 13.0142L12.792 13.0127C12.9691 12.983 13.151 13.0206 13.301 13.118C13.451 13.2154 13.5579 13.3654 13.6 13.5375C13.6416 13.7116 13.615 13.8948 13.5254 14.0504C13.4357 14.206 13.2898 14.3224 13.1167 14.3764L9.07137 15.6007L10.8754 17.9651L15.4538 17.3072L15.5733 17.1884C15.5978 17.1641 18.0319 14.7438 19.3731 13.4004C19.5099 13.2681 19.6929 13.1924 19.8845 13.1889C20.0762 13.1854 20.2619 13.2543 20.4036 13.3815L20.4413 13.4222C20.5783 13.5506 20.6579 13.7274 20.6627 13.9137C20.6674 14.0999 20.5969 14.2804 20.4667 14.4155Z" fill="white"/>
</svg>
