<svg xmlns="http://www.w3.org/2000/svg" width="72" height="72" viewBox="0 0 72 72">
    <g fill="none" fill-rule="evenodd">
        <circle cx="36" cy="36" r="36" fill="#F5F5F5"/>
        <g>
            <path fill="#001A70" d="M31.275 25.507C28.695 29.634 24.137 32 18.764 32h-.036c-8.037-.016-14.574-6.31-14.574-14.031 0-7.563 6.788-13.953 14.822-13.953 4.973 0 9.524 2.525 12.177 6.753l.042.067h4.698l-.075-.185C33.295 4.379 26.366 0 18.968 0 8.51 0 0 8.088 0 18.029 0 27.939 8.561 36 19.084 36c7.354 0 13.8-3.973 16.824-10.367l.092-.194h-4.684l-.041.068z" transform="translate(18 18)"/>
            <path fill="#F2A000" d="M18 15.478L42 15.478 42 13.5 18 13.5zM18 23.162L39 23.162 39 21.184 18 21.184zM18 19.321L48 19.321 48 17.342 18 17.342z" transform="translate(18 18)"/>
        </g>
    </g>
</svg>
