<svg xmlns="http://www.w3.org/2000/svg" xmlns:xlink="http://www.w3.org/1999/xlink" width="24" height="24" viewBox="0 0 24 24">
  <path class="main-icon"
    d="M12.07 0c2.01 0 3.9.798 5.32 2.247 2.63 2.68 2.957 7.724.699 10.793l-1.196 1.76h2.81L24 24H0l4.297-9.2h2.948l-1.204-1.772c-2.249-3.056-1.922-8.1.708-10.781C8.17.798 10.059 0 12.069 0zM7.787 15.6H4.793l-3.55 7.6h21.514l-3.55-7.6H16.35l-4.28 6.303L7.787 15.6zM12.07.8c-1.8 0-3.493.714-4.766 2.012-2.374 2.42-2.666 6.975-.626 9.748L8.2 14.8l3.87 5.697 5.383-7.925c2.049-2.785 1.756-7.34-.618-9.76C15.562 1.514 13.87.8 12.07.8zm.069 4c1.514 0 2.746 1.256 2.746 2.8 0 1.543-1.232 2.8-2.746 2.8-1.515 0-2.747-1.257-2.747-2.8 0-1.544 1.233-2.8 2.747-2.8zm0 .8c-1.082 0-1.962.897-1.962 2s.88 2 1.962 2c1.082 0 1.962-.897 1.962-2s-.88-2-1.962-2z"
  />
</svg>
