<?xml version="1.0" encoding="UTF-8"?>
<svg width="70px" height="70px" viewBox="0 0 70 70" version="1.1" xmlns="http://www.w3.org/2000/svg" xmlns:xlink="http://www.w3.org/1999/xlink">
    <title>M치sfotos</title>
    <g id="05-Cotizaci칩n" stroke="none" stroke-width="1" fill="none" fill-rule="evenodd">
        <g id="09.02.02-Elegir-tomar-m치s-fotos" transform="translate(-135.000000, -874.000000)">
            <g id="M치sfotos" transform="translate(135.000000, 874.000000)">
                <rect id="Rectangle" stroke="#FBFBFB" stroke-width="2" x="1" y="9" width="60" height="60" rx="4"></rect>
                <path d="M66,0 C68.209139,-4.33003142e-15 70,1.790861 70,4 L70,58 C70,60.209139 68.209139,62 66,62 L12,62 C9.790861,62 8,60.209139 8,58 L8,4 C8,1.790861 9.790861,4.05812251e-16 12,0 L66,0 Z M39.0333333,16.5333333 L38.9666667,16.5333333 C38.4143819,16.5333333 37.9666667,16.9810486 37.9666667,17.5333333 L37.9666667,17.5333333 L37.9663333,29.9663333 L25.5333333,29.9666667 C24.9810486,29.9666667 24.5333333,30.4143819 24.5333333,30.9666667 L24.5333333,30.9666667 L24.5333333,31.0333333 C24.5333333,31.5856181 24.9810486,32.0333333 25.5333333,32.0333333 L25.5333333,32.0333333 L37.9663333,32.0323333 L37.9666667,44.4666667 C37.9666667,45.0189514 38.4143819,45.4666667 38.9666667,45.4666667 L38.9666667,45.4666667 L39.0333333,45.4666667 C39.5856181,45.4666667 40.0333333,45.0189514 40.0333333,44.4666667 L40.0333333,44.4666667 L40.0323333,32.0333333 L52.4666667,32.0333333 C53.0189514,32.0333333 53.4666667,31.5856181 53.4666667,31.0333333 L53.4666667,31.0333333 L53.4666667,30.9666667 C53.4666667,30.4143819 53.0189514,29.9666667 52.4666667,29.9666667 L52.4666667,29.9666667 L40.0323333,29.9663333 L40.0333333,17.5333333 C40.0333333,16.9810486 39.5856181,16.5333333 39.0333333,16.5333333 L39.0333333,16.5333333 Z" id="Combined-Shape" fill="#FBFBFB"></path>
            </g>
        </g>
    </g>
</svg>