<svg width="24" height="24" viewBox="0 0 24 24" fill="none" xmlns="http://www.w3.org/2000/svg">
<path d="M9.1875 2.8125C8.92875 2.8125 8.71875 3.0225 8.71875 3.28125C8.71875 3.54 8.92875 3.75 9.1875 3.75C9.44625 3.75 9.65625 3.54 9.65625 3.28125C9.65625 3.0225 9.44625 2.8125 9.1875 2.8125Z" fill="#1C284E"/>
<path d="M11.9999 6.5625C11.7415 6.5625 11.5312 6.35222 11.5312 6.09375C11.5312 5.83528 11.7415 5.625 11.9999 5.625C12.166 5.625 12.3413 5.7097 12.5069 5.87002C12.693 6.05006 12.9897 6.04514 13.1698 5.85914C13.3498 5.67309 13.3449 5.37633 13.1589 5.19628C12.921 4.96608 12.683 4.83586 12.4687 4.7648V4.21875C12.4687 3.95986 12.2588 3.75 11.9999 3.75C11.7411 3.75 11.5312 3.95986 11.5312 4.21875V4.76813C10.9856 4.96163 10.5937 5.48264 10.5937 6.09375C10.5937 6.86916 11.2245 7.5 11.9999 7.5C12.2584 7.5 12.4687 7.71028 12.4687 7.96875C12.4687 8.22722 12.2584 8.4375 11.9999 8.4375C11.7997 8.4375 11.5835 8.31155 11.3913 8.08289C11.2247 7.8847 10.929 7.85916 10.7308 8.02575C10.5327 8.19234 10.5071 8.48803 10.6737 8.68617C10.9243 8.98425 11.2189 9.19195 11.5312 9.29667V9.84375C11.5312 10.1026 11.7411 10.3125 11.9999 10.3125C12.2588 10.3125 12.4687 10.1026 12.4687 9.84375V9.29437C13.0143 9.10087 13.4062 8.57986 13.4062 7.96875C13.4062 7.19334 12.7753 6.5625 11.9999 6.5625Z" fill="#1C284E"/>
<path d="M22.125 6.84375C21.0911 6.84375 20.25 7.68488 20.25 8.71875V12.0595C19.6273 11.8992 18.9402 12.0648 18.4556 12.5493L15.3119 15.693C14.8689 16.1354 14.625 16.7241 14.625 17.3508V20.1094H14.1562C13.8974 20.1094 13.6875 20.3192 13.6875 20.5781V23.5312C13.6875 23.7901 13.8974 24 14.1562 24H20.7188C20.9776 24 21.1875 23.7901 21.1875 23.5312V20.5781C21.1875 20.3192 20.9776 20.1094 20.7188 20.1094H20.25V19.8881C20.25 19.7649 20.3001 19.6441 20.3874 19.5568L23.3134 16.6308C23.7562 16.188 24 15.5993 24 14.9733V8.71875C24 7.68488 23.1589 6.84375 22.125 6.84375ZM20.25 23.0625H14.625V21.0469H20.25V23.0625ZM23.0625 14.9733C23.0625 15.3489 22.9162 15.7022 22.6504 15.9679L19.7245 18.8939C19.4626 19.1557 19.3125 19.5181 19.3125 19.8881V20.1094H15.5625V17.3508C15.5625 16.9747 15.7087 16.6216 15.9746 16.3561L19.1185 13.2122C19.4703 12.8603 20.0355 12.8445 20.4052 13.1762C20.4079 13.1786 20.4105 13.181 20.4133 13.1833C20.424 13.1924 20.434 13.2023 20.4441 13.2124C20.6212 13.3893 20.7188 13.6246 20.7188 13.875C20.7188 14.1254 20.6212 14.3607 20.444 14.5378L18.1148 16.867C17.9318 17.05 17.9318 17.3468 18.1148 17.5299C18.2979 17.713 18.5946 17.713 18.7778 17.5299L21.1069 15.2009C21.4611 14.8468 21.6562 14.376 21.6562 13.875C21.6562 13.4138 21.4904 12.9782 21.1875 12.6356V8.71875C21.1875 8.20181 21.6081 7.78125 22.125 7.78125C22.6419 7.78125 23.0625 8.20181 23.0625 8.71875V14.9733Z" fill="#1C284E"/>
<path d="M9.84375 20.1094H9.375V17.3508C9.375 16.7241 9.13106 16.1354 8.68838 15.6932L5.54447 12.5493C5.05983 12.0647 4.37269 11.8991 3.75 12.0595V8.71875C3.75 7.68488 2.90887 6.84375 1.875 6.84375C0.841125 6.84375 0 7.68488 0 8.71875V14.9733C0 15.5993 0.243844 16.188 0.686625 16.6308L3.61256 19.5567C3.69994 19.6441 3.75 19.7648 3.75 19.8881V20.1094H3.28125C3.02241 20.1094 2.8125 20.3192 2.8125 20.5781V23.5312C2.8125 23.7901 3.02241 24 3.28125 24H9.84375C10.1026 24 10.3125 23.7901 10.3125 23.5312V20.5781C10.3125 20.3192 10.1026 20.1094 9.84375 20.1094ZM1.34958 15.968C1.08384 15.7022 0.9375 15.3489 0.9375 14.9733V8.71875C0.9375 8.20181 1.35806 7.78125 1.875 7.78125C2.39194 7.78125 2.8125 8.20181 2.8125 8.71875V12.6356C2.50959 12.9781 2.34375 13.4137 2.34375 13.875C2.34375 14.376 2.53889 14.8468 2.89308 15.2007L5.23683 17.5444C5.41992 17.7275 5.71664 17.7275 5.89978 17.5444C6.08283 17.3614 6.08283 17.0646 5.89978 16.8815L3.55589 14.5376C3.3788 14.3607 3.28125 14.1254 3.28125 13.875C3.28125 13.6246 3.3788 13.3893 3.55575 13.2124C3.56597 13.2022 3.57605 13.1924 3.58669 13.1833L3.59475 13.1762C3.96436 12.8445 4.52962 12.8604 4.88147 13.2122L8.02561 16.3563C8.2912 16.6216 8.43745 16.9747 8.43745 17.3507V20.1094H4.68745V19.8881C4.6875 19.5181 4.53736 19.1557 4.27552 18.8939L1.34958 15.968ZM9.375 23.0625H3.75V21.0469H9.375V23.0625Z" fill="#1C284E"/>
<path d="M12 0C8.12297 0 4.96875 3.15422 4.96875 7.03125C4.96875 10.9083 8.12297 14.0625 12 14.0625C15.877 14.0625 19.0312 10.9083 19.0312 7.03125C19.0312 3.15422 15.877 0 12 0ZM12 13.125C8.63986 13.125 5.90625 10.3913 5.90625 7.03125C5.90625 3.67116 8.63986 0.9375 12 0.9375C15.3601 0.9375 18.0938 3.67116 18.0938 7.03125C18.0938 10.3913 15.3601 13.125 12 13.125Z" fill="#1C284E"/>
<path d="M15.0138 2.796C13.794 1.81115 12.1977 1.43972 10.6347 1.7767C10.3816 1.83126 10.2207 2.08064 10.2752 2.33372C10.3298 2.58675 10.5792 2.74753 10.8322 2.69311C12.117 2.41608 13.4265 2.7194 14.4249 3.52537C15.4231 4.33139 15.9956 5.52853 15.9956 6.80995C15.9956 9.13618 14.1031 11.0287 11.7769 11.0287C9.45064 11.0287 7.55811 9.13618 7.55811 6.80995C7.55811 6.11508 7.73061 5.4263 8.05695 4.81814C8.17934 4.59005 8.09365 4.30589 7.86556 4.18345C7.63742 4.06101 7.35321 4.14675 7.23087 4.37484C6.83164 5.11889 6.62061 5.96091 6.62061 6.80995C6.62061 9.65311 8.9337 11.9662 11.7769 11.9662C14.62 11.9662 16.9331 9.65311 16.9331 6.80995C16.9331 5.24381 16.2335 3.7808 15.0138 2.796Z" fill="#1C284E"/>
</svg>
