<?xml version="1.0" encoding="UTF-8"?>
<svg width="87px" height="103px" viewBox="0 0 87 103" version="1.1" xmlns="http://www.w3.org/2000/svg" xmlns:xlink="http://www.w3.org/1999/xlink">
    <!-- Generator: Sketch 53.2 (72643) - https://sketchapp.com -->
    <title>ico/cotizar</title>
    <desc>Created with Sketch.</desc>
    <g id="05-Cotización" stroke="none" stroke-width="1" fill="none" fill-rule="evenodd">
        <g id="Group-2-Copy" transform="translate(-242.000000, -69.000000)">
            <g id="ico/cotizar" transform="translate(242.000000, 71.000000)">
                <g id="Group" transform="translate(0.000000, 31.000000)" fill="#8E8E93" fill-rule="nonzero">
                    <path d="M81.7215212,23.9156014 L75.029908,5.10786644 C73.9218234,2.03131166 71.0997248,-0.00456030952 67.9494623,7.67123332e-06 C65.3785389,7.67123332e-06 63.4760021,7.67123332e-06 62.2418518,7.67123332e-06 C58.725,7.67123402e-06 49.152665,7.7564647 43.5,7.7564647 C36.7856563,7.7564647 26.1,7.67123402e-06 26.1,7.67123332e-06 C24.7959119,7.67123332e-06 22.8397799,7.67123332e-06 20.2316038,7.67123332e-06 C17.081848,-0.00399685513 14.2604456,2.03178585 13.1525943,5.10786644 L6.54162028,23.7032467 L3.72868868,26.3763045 C1.37896075,28.4481702 0.016450169,31.4893989 0,34.6990253 L0,68.2300919 C0.0419281916,69.2065941 0.803643573,69.9812196 1.74041038,70 L18.4838066,70 C19.3975495,69.9713455 20.1205486,69.1837204 20.1084906,68.2300919 L20.1084906,58.0122337 L66.8915094,58.0122337 L66.8915094,68.2300919 C66.8794514,69.1837204 67.6024505,69.9713455 68.5161934,70 L85.2595896,70 C86.1963564,69.9812196 86.9580718,69.2065941 87,68.2300919 L87,33.9938877 C86.9765759,30.9922051 85.7840423,28.1295356 83.6964623,26.0637663 L81.7215212,23.9156014 Z M16.2304245,6.27496111 C16.8606644,4.54471385 18.4574889,3.40736064 20.2316038,3.42508375 C24.0705433,3.42508375 26.85177,3.42508375 28.5752838,3.42508375 C35.8095979,3.42508375 32.625,7.7564647 43.5,7.7564647 C52.2,7.7564647 52.7838905,3.42508375 57.7723755,3.42508375 C59.7975938,3.42508375 63.1899561,3.42508375 67.9494623,3.42508375 C69.7235771,3.40736064 71.3204016,4.54471385 71.9506415,6.27496111 L77.8777217,22.9052039 L10.3041651,22.9052039 L16.2304245,6.27496111 Z M16.8254717,66.5749239 L3.28301887,66.5749239 L3.28301887,58.0122337 L16.8254717,58.0122337 L16.8254717,66.5749239 Z M70.1745283,66.5749239 L70.1745283,58.0122337 L83.7169811,58.0122337 L83.7169811,66.5749239 L70.1745283,66.5749239 Z M83.7169811,54.5871577 L3.28301887,54.5871577 L3.28301887,34.6990253 C3.30024592,32.4789552 4.25038885,30.3785914 5.88214387,28.9534602 C5.90122642,28.9367629 5.94370047,28.8965183 5.96278302,28.8789648 L8.59063443,26.33028 L79.4322311,26.33028 L81.283033,28.4167935 C81.3062193,28.4424816 81.3794717,28.4790871 81.4040943,28.5024204 C82.860177,29.9275794 83.6955724,31.9110514 83.7169811,33.9938877 L83.7169811,54.5871577 Z" id="Shape"></path>
                    <path d="M16.7046765,35 L15.2953235,35 C11.8185123,35 9,37.9101491 9,41.5 C9,45.0898509 11.8185123,48 15.2953235,48 L16.7046765,48 C20.1814877,48 23,45.0898509 23,41.5 C23,37.9101491 20.1814877,35 16.7046765,35 L16.7046765,35 Z M16.7046765,44.6984127 L15.2953235,44.6984127 C13.5845116,44.6984127 12.1976246,43.2664346 12.1976246,41.5 C12.1976246,39.7335654 13.5845116,38.3015873 15.2953235,38.3015873 L16.7046765,38.3015873 C18.4154884,38.3015873 19.8023754,39.7335654 19.8023754,41.5 C19.8023754,43.2664346 18.4154884,44.6984127 16.7046765,44.6984127 L16.7046765,44.6984127 Z" id="Shape"></path>
                    <path d="M72.7046765,35 L71.2953235,35 C67.8185123,35 65,37.9101491 65,41.5 C65,45.0898509 67.8185123,48 71.2953235,48 L72.7046765,48 C76.1814877,48 79,45.0898509 79,41.5 C79,37.9101491 76.1814877,35 72.7046765,35 L72.7046765,35 Z M72.7046765,44.6984127 L71.2953235,44.6984127 C69.5845116,44.6984127 68.1976246,43.2664346 68.1976246,41.5 C68.1976246,39.7335654 69.5845116,38.3015873 71.2953235,38.3015873 L72.7046765,38.3015873 C74.4154884,38.3015873 75.8023754,39.7335654 75.8023754,41.5 C75.8023754,43.2664346 74.4154884,44.6984127 72.7046765,44.6984127 Z" id="Shape"></path>
                    <path d="M58,36.6774194 C58,35.7510062 57.2580719,35 56.3428571,35 L30.6571429,35 C29.7419281,35 29,35.7510062 29,36.6774194 L29,46.3225806 C29,47.2489938 29.7419281,48 30.6571429,48 L56.3428571,48 C57.2580719,48 58,47.2489938 58,46.3225806 L58,36.6774194 Z M54.6857143,44.6451613 L32.3142857,44.6451613 L32.3142857,38.3548387 L54.6857143,38.3548387 L54.6857143,44.6451613 Z" id="Shape"></path>
                </g>
                <path d="M18,24.8275862 C18,11.1186207 29.0267313,0 42.6223995,0 C56.2180678,0 67.2447991,11.1186207 67.2447991,24.8275862 C67.2447991,38.5365517 56.2180678,49.6551724 42.6223995,49.6551724 C29.0267313,49.6551724 18,38.5365517 18,24.8275862 Z" id="Stroke-8494" stroke="#8E8E93" stroke-width="4" fill="#FAFAFA" stroke-linecap="round" stroke-linejoin="round"></path>
                <path d="M44.6742662,41.3793103 C44.6742662,42.5213793 43.7550299,43.4482759 42.6223995,43.4482759 C41.4897692,43.4482759 40.5705329,42.5213793 40.5705329,41.3793103 C40.5705329,40.2372414 41.4897692,39.3103448 42.6223995,39.3103448 C43.7550299,39.3103448 44.6742662,40.2372414 44.6742662,41.3793103" id="Fill-8500" fill="#F2A000"></path>
                <path d="M42.6223995,33.1034483 L42.6223995,8.27586207" id="Stroke-8502" stroke="#F2A000" stroke-width="4" stroke-linecap="round" stroke-linejoin="round"></path>
            </g>
        </g>
    </g>
</svg>