<?xml version="1.0" encoding="UTF-8" standalone="no"?>
<svg
   width="32"
   height="32"
   viewBox="0 0 32 32"
>
  <path
     class="main-icon"
     d="m 22.045295,27.361644 c 1.744984,-0.620297 2.930442,-1.386936 4.365116,-2.822967 2.136482,-2.138496 3.088489,-4.046024 3.492709,-6.99829 C 30.626208,12.259289 27.228925,6.7720923 22.140508,5.0025554 14.787116,2.4452505 7.0495518,7.3152871 6.3344234,14.950881 l -0.119244,1.273474 -1.3258587,-1.079319 c -1.458505,-1.187302 -1.8766343,-1.299365 -2.5046636,-0.671321 -0.7780461,0.778055 -0.5712757,1.076524 2.468278,3.562887 1.887444,1.543937 2.5729446,2.012902 2.9424238,2.012902 0.4106835,0 0.7112095,-0.275907 2.03824,-1.869923 3.0143181,-3.62128 3.1481061,-3.877155 2.3962031,-4.583548 -0.764466,-0.718148 -1.424967,-0.331843 -2.9919741,1.750527 -0.291137,0.38691 -0.5908843,0.705789 -0.6660294,0.708586 -0.2085162,0.0076 0.049928,-1.782767 0.4191354,-2.903624 1.002504,-3.043655 3.7466821,-5.5905283 6.7988131,-6.3099993 1.371545,-0.32315 3.473285,-0.3239057 4.711326,-0.00125 2.247792,0.5854494 4.735127,2.4197302 5.826991,4.2970613 1.260057,2.166464 1.709299,4.893431 1.177609,7.148337 -0.640452,2.716082 -2.696118,5.317872 -5.124504,6.48586 -0.682778,0.328441 -1.367868,0.597127 -1.522412,0.597127 -0.393434,0 -1.096963,0.746193 -1.096963,1.163491 0,0.431547 0.712547,1.167722 1.114406,1.151358 0.164144,-0.0076 0.690243,-0.15156 1.169124,-0.321638 z"
  />
</svg>
