<?xml version="1.0" encoding="UTF-8"?>
<svg width="35px" height="25px" viewBox="0 0 35 25" version="1.1" xmlns="http://www.w3.org/2000/svg" xmlns:xlink="http://www.w3.org/1999/xlink">
    <!-- Generator: Sketch 53.2 (72643) - https://sketchapp.com -->
    <title>ico/devolucionmini</title>
    <desc>Created with Sketch.</desc>
    <g id="05-Cotización" stroke="none" stroke-width="1" fill="none" fill-rule="evenodd">
        <g id="01.02-Cotizar_Elegir-plan" transform="translate(-635.000000, -455.000000)">
            <g id="Group-26" transform="translate(135.000000, 446.000000)">
                <g id="ico/devolucionmini" transform="translate(500.000000, 9.000000)">
                    <g transform="translate(17.500000, 12.500000) scale(-1, 1) translate(-17.500000, -12.500000) ">
                        <g id="Group-2" transform="translate(26.501032, 5.000000) scale(-1, 1) translate(-26.501032, -5.000000) translate(21.001032, 0.000000)" stroke="#FFFFFF" stroke-linecap="round" stroke-linejoin="round" stroke-width="2">
                            <g id="Group" transform="translate(5.001032, 4.847826) rotate(-180.000000) translate(-5.001032, -4.847826) translate(0.001032, 0.347826)">
                                <path d="M9.54414419,3.9713182 L1.70714482,4.03876093" id="Path-2-Copy"></path>
                                <polyline id="Path-3-Copy" points="4.17835825 8.07752186 7.10542736e-15 4.03876093 4.17835825 1.59872116e-14"></polyline>
                            </g>
                        </g>
                        <path d="M5.13547347,17.711989 L3.21565367,17.711989 C2.75005265,17.711989 2.37268259,18.101595 2.37268259,18.5822927 C2.37268259,19.0629905 2.75005265,19.4525965 3.21565367,19.4525965 L5.13547347,19.4525965 C5.60107449,19.4525965 5.97844455,19.0629905 5.97844455,18.5822927 C5.97844455,18.101595 5.60107449,17.711989 5.13547347,17.711989 Z M5.13547347,14.5861482 L0.842971078,14.5861482 C0.377370052,14.5861482 3.55271368e-15,14.9757542 3.55271368e-15,15.4564519 C3.55271368e-15,15.9371497 0.377370052,16.3267556 0.842971078,16.3267556 L5.13547347,16.3267556 C5.60107449,16.3267556 5.97844455,15.9371497 5.97844455,15.4564519 C5.97844455,14.9757542 5.60107449,14.5861482 5.13547347,14.5861482 Z M23.5039069,20.5967557 C23.5039069,21.0774535 23.1265369,21.4670594 22.6609358,21.4670594 L17.7938082,21.4670594 C17.4062288,23.3143274 15.8107655,24.7022684 13.9071495,24.7022684 C11.9549222,24.7022684 10.3266767,23.2423823 9.99304747,21.324523 C9.31754665,21.1035626 8.76043643,20.6381435 8.4611817,20.0172302 C8.31113285,19.7058548 8.23517179,19.3754295 8.23517179,19.0350441 L8.23517179,13.2317622 C8.23517179,12.7510645 8.61254184,12.3614585 9.07814286,12.3614585 C9.54374389,12.3614585 9.92111394,12.7510645 9.92111394,13.2317622 L9.92111394,19.0350441 C9.92111394,19.1040882 9.93778604,19.1737125 9.97066191,19.2418863 C9.99922926,19.3012603 10.0419398,19.3615047 10.0974822,19.4184612 C10.5891217,17.727171 12.1110591,16.4913397 13.9072432,16.4913397 C15.8106719,16.4913397 17.4061351,17.8793774 17.7939018,19.726452 L22.6610295,19.726452 C23.1265369,19.726452 23.5039069,20.1161547 23.5039069,20.5967557 Z M16.1978766,20.5968524 C16.1978766,19.2928474 15.1702948,18.2319471 13.9072432,18.2319471 C12.6525276,18.2319471 11.6300036,19.2790192 11.6167034,20.5711301 C11.6169844,20.586022 11.6169844,20.6011072 11.6166098,20.6160958 C11.6266318,21.9113011 12.6503733,22.961661 13.9072432,22.961661 C15.1702948,22.9617577 16.1978766,21.9008575 16.1978766,20.5968524 Z M12.4753163,13.4095943 C12.4753163,13.890292 12.8526864,14.279898 13.3182874,14.279898 L14.2666298,14.279898 C14.7322309,14.279898 15.1096009,13.890292 15.1096009,13.4095943 C15.1096009,12.9288965 14.7322309,12.5392906 14.2666298,12.5392906 L13.3182874,12.5392906 C12.85278,12.5392906 12.4753163,12.9289932 12.4753163,13.4095943 Z M29.3293054,19.7265487 L29.3271511,19.7265487 C28.8615501,19.7265487 28.485304,20.1161547 28.485304,20.5968524 C28.485304,21.0775502 28.863798,21.4671561 29.329399,21.4671561 C29.7950001,21.4671561 30.1723701,21.0775502 30.1723701,20.5968524 C30.1723701,20.1161547 29.7948127,19.7265487 29.3293054,19.7265487 Z M34.996038,17.2254893 L34.993509,17.8133311 C34.9919168,18.160969 34.9901372,18.5560869 34.9901372,19.0351408 C34.9901372,20.0758306 34.265182,20.9769818 33.2432201,21.319688 C32.9113705,23.2398681 31.282001,24.7022684 29.3279004,24.7022684 C27.1353327,24.7022684 25.3516059,22.8606091 25.3516059,20.5968524 C25.3516059,18.3330958 27.1353327,16.4913397 29.3279004,16.4913397 C31.1215556,16.4913397 32.6417134,17.7233997 33.1357881,19.4108219 C33.2413468,19.3001966 33.304195,19.1698444 33.304195,19.0350441 C33.304195,18.5527991 33.3060683,18.1549736 33.3075669,17.8050148 L33.3101895,17.2170763 C33.313374,16.5082623 33.3178699,15.5375836 33.3077542,15.0848322 C33.3007295,14.7666879 33.2924871,14.5057902 33.2707571,14.2799947 L20.3024901,14.2799947 C19.9999571,14.2799947 19.2913931,14.2799947 17.1233652,12.0678761 C16.4627568,11.3938742 15.1496889,9.95961368 14.9083182,9.35542951 C14.7307323,8.91109111 14.9356679,8.40235025 15.3660515,8.21900626 C15.7901596,8.03788639 16.274306,8.24095726 16.4584483,8.67137079 C16.5730924,8.8834348 17.2585215,9.7517078 18.2520098,10.7720905 C19.5032598,12.057239 20.1681767,12.4733409 20.3494155,12.5393873 L32.323445,12.5393873 C32.0521956,12.2709469 31.7044232,11.9528026 31.2573676,11.5439532 C31.0253632,11.3317925 30.7706923,11.0987445 30.4909195,10.8395874 C30.2874825,10.6511183 30.0849821,10.4511419 29.8890382,10.2579345 C29.601866,9.97460225 29.3048592,9.6816 28.9955825,9.41402996 C28.7233028,9.17846775 28.4653537,8.9543162 28.2201428,8.74118849 C25.0917834,6.0217795 24.2509666,5.29082108 21.6129355,5.29082108 L15.7929695,5.29082108 C15.3273685,5.29082108 14.9499984,4.90121512 14.9499984,4.42051737 C14.9499984,3.93981962 15.3273685,3.55021366 15.7929695,3.55021366 L21.6129355,3.55021366 C24.8661482,3.55021366 26.1659159,4.68006128 29.3060768,7.40962381 C29.5502575,7.62188122 29.8070827,7.84516247 30.078332,8.07975767 C30.429851,8.38388047 30.7470891,8.696803 31.0538369,8.99947529 C31.2490315,9.19200581 31.4334549,9.37389929 31.6172225,9.54428541 C31.8937171,9.80044481 32.1458591,10.0310753 32.3754282,10.2410119 C34.3963109,12.0893436 34.9394652,12.5861903 34.9933217,15.044895 C35.0039057,15.5215313 34.9995972,16.4662943 34.996038,17.2254893 Z M31.6189085,20.5878593 C31.6141317,19.2881091 30.5882359,18.2320438 29.3278068,18.2320438 C28.0649424,18.2320438 27.0374543,19.2929441 27.0374543,20.5969491 C27.0374543,21.9008575 28.0649424,22.9617577 29.3278068,22.9617577 C30.5905774,22.9617577 31.6179719,21.9019212 31.6189085,20.598593 C31.6189085,20.5950151 31.6189085,20.5914372 31.6189085,20.5878593 Z M13.9081798,19.7265487 L13.9061192,19.7265487 C13.4405182,19.7265487 13.0642721,20.1161547 13.0642721,20.5968524 C13.0642721,21.0775502 13.4426724,21.4671561 13.9082735,21.4671561 C14.3738745,21.4671561 14.7512446,21.0775502 14.7512446,20.5968524 C14.7512446,20.1161547 14.3737808,19.7265487 13.9081798,19.7265487 Z" id="Mask" fill="#FFFFFF" fill-rule="nonzero" transform="translate(17.500000, 14.126241) scale(-1, 1) translate(-17.500000, -14.126241) "></path>
                    </g>
                </g>
            </g>
        </g>
    </g>
</svg>