<svg xmlns="http://www.w3.org/2000/svg" xmlns:xlink="http://www.w3.org/1999/xlink" width="24" height="24" viewBox="0 0 24 24">
  <path class="main-icon" d="M16.028 2.746c-3.662-3.661-9.621-3.661-13.283 0-3.66 3.662-3.66 9.62 0 13.282 3.261 3.26 8.34 3.609 11.998 1.063.077.365.253.712.537.996l5.332 5.331c.777.776 2.033.776 2.806 0 .776-.776.776-2.031 0-2.805l-5.332-5.334c-.282-.28-.63-.458-.995-.535 2.547-3.66 2.198-8.736-1.063-11.998zm-1.684 11.598c-2.734 2.734-7.182 2.734-9.915 0-2.732-2.733-2.732-7.18 0-9.914 2.733-2.733 7.181-2.733 9.915 0 2.734 2.733 2.734 7.181 0 9.914z"/>
</svg>
