<?xml version="1.0" encoding="UTF-8" standalone="no"?>
<svg
   width="24"
   height="24"
   viewBox="0 0 24 24"
  >
    <path
       class="main-icon"
       d="M14.032 0c.337 0 .63.235.7.565l.402 1.844c.49.16.97.36 1.431.594l1.589-1.021c.283-.183.656-.143.894.096l2.874 2.874c.239.238.279.61.096.894l-1.02 1.589c.234.461.432.94.593 1.431l1.844.401c.33.072.565.364.565.701v4.064c0 .337-.235.629-.565.7l-1.844.402c-.16.49-.36.97-.594 1.431l1.021 1.589c.183.283.143.656-.096.894l-2.874 2.874c-.238.239-.61.279-.894.096l-1.589-1.02c-.461.234-.94.432-1.431.593l-.401 1.844c-.072.33-.364.565-.701.565H9.968c-.337 0-.63-.235-.7-.565l-.402-1.844c-.49-.16-.97-.36-1.431-.594l-1.589 1.021c-.283.183-.656.143-.894-.096l-2.874-2.874c-.239-.238-.279-.61-.096-.894l1.02-1.589c-.234-.461-.432-.94-.593-1.431l-1.844-.401C.235 14.66 0 14.369 0 14.032V9.968c0-.337.235-.629.565-.7l1.844-.402c.16-.49.36-.97.594-1.431L1.982 5.846c-.183-.283-.143-.656.096-.894l2.874-2.874c.238-.239.61-.279.894-.096l1.589 1.02c.461-.234.94-.432 1.431-.593L9.267.565C9.34.235 9.631 0 9.968 0zm-.578 1.434h-2.908l-.368 1.692c-.056.26-.252.467-.508.538-.666.186-1.311.453-1.916.795-.231.13-.516.122-.74-.022l-1.457-.936L3.5 5.557l.936 1.457c.144.224.152.509.022.74-.342.605-.609 1.25-.795 1.916-.071.256-.279.452-.538.508l-1.692.368v2.908l1.692.368c.26.056.467.252.538.508.186.666.453 1.311.795 1.916.13.231.122.516-.022.74l-.936 1.457 2.056 2.056 1.457-.936c.224-.144.509-.152.74-.022.605.342 1.25.609 1.916.795.256.071.452.279.508.538l.368 1.692h2.908l.368-1.692c.056-.26.252-.467.508-.538.666-.186 1.311-.453 1.916-.795.231-.13.516-.122.74.022l1.457.936 2.056-2.056-.936-1.457c-.144-.224-.152-.509-.022-.74.342-.605.609-1.25.795-1.916.071-.256.279-.452.538-.508l1.692-.368v-2.908l-1.692-.368c-.26-.056-.467-.252-.538-.508-.186-.666-.453-1.311-.795-1.916-.13-.231-.122-.516.022-.74l.936-1.457-2.056-2.056-1.457.936c-.224.144-.509.152-.74.022-.605-.342-1.25-.609-1.916-.795-.256-.071-.452-.279-.508-.538l-.368-1.692zM12 6.263c3.163 0 5.737 2.574 5.737 5.737 0 3.163-2.574 5.737-5.737 5.737-3.163 0-5.737-2.574-5.737-5.737 0-3.163 2.574-5.737 5.737-5.737zm0 1.434c-2.372 0-4.303 1.93-4.303 4.303 0 2.372 1.93 4.303 4.303 4.303 2.372 0 4.303-1.93 4.303-4.303 0-2.372-1.93-4.303-4.303-4.303z"
     />
</svg>
