<?xml version="1.0" encoding="UTF-8"?>
<svg width="84px" height="50px" viewBox="0 0 84 50" version="1.1" xmlns="http://www.w3.org/2000/svg" xmlns:xlink="http://www.w3.org/1999/xlink">
    <title>Auto/compacto/LateralI</title>
    <defs>
        <polygon id="path-1" points="2.22355243e-05 0.000190271301 83.3205816 0.000190271301 83.3205816 22.3956504 2.22355243e-05 22.3956504"></polygon>
    </defs>
    <g id="Auto/compacto/LateralI" stroke="none" stroke-width="1" fill="none" fill-rule="evenodd">
        <g id="Group-3" transform="translate(42.000000, 24.500000) scale(-1, 1) translate(-42.000000, -24.500000) translate(0.000000, 13.000000)">
            <mask id="mask-2" fill="white">
                <use xlink:href="#path-1"></use>
            </mask>
            <g id="Clip-2"></g>
            <path d="M82.5623436,18.742489 C82.9471048,18.5457484 82.8301541,18.6062547 83.1036556,18.4625047 C83.2319409,18.3962903 83.3092441,18.2638615 83.3092441,18.1219667 C83.3092441,17.3822394 83.3469946,17.1665669 83.2847253,16.6803762 C83.2168597,16.1676901 83.07392,15.8475111 82.604315,15.6507706 C82.5778042,15.5489754 82.5571268,15.4842832 82.5571268,15.4842832 C82.1968371,15.2042514 81.8550432,14.5387775 81.2137113,13.4358224 C81.1533863,13.331744 81.1401547,13.1293429 81.2212993,13.0328278 C77.57828,9.43489261 68.5532517,8.34111803 63.5193442,7.84726887 L61.9778808,7.96618844 C56.2695859,4.8853631 51.8349915,2.83766337 48.0808548,1.64195095 C44.8913159,0.624094623 42.0921818,0.1701073 39.1553722,0.0811554665 C31.4444506,-0.175948628 26.0464119,0.146989337 21.041576,1.51608648 L21.0308105,1.51832217 C17.5658731,2.46596838 14.2592412,3.93172335 10.5355989,6.03493473 L4.37591041,6.97135494 C3.8779451,7.01107407 3.0291751,7.36483599 2.71038246,8.00429026 C2.29351436,8.84995106 2.58589113,8.01941683 0.948676069,13.4074244 C0.754422176,13.4698809 0.595974359,13.5379505 0.469586023,13.6136785 C0.139506165,13.8047109 -0.0396664932,14.1774523 0.00747422206,14.5539041 L0.222500382,16.3171483 L0.597823944,16.5762978 L2.09171985,19.0565317 L1.98610378,19.2457565 L2.28976777,19.7508793 C2.38219961,19.9040952 2.51987516,20.0233002 2.68021999,20.0951752 C2.82733317,20.1292338 2.97254933,20.1519236 3.11022488,20.1670502 C12.1149552,20.93137 11.3604666,20.8708637 11.7433782,20.8897481 L11.7433782,20.4167813 L24.9335305,21.1413819 L24.9335305,21.6143488 L59.7884459,22.3654448 L59.7884459,21.8924303 L73.0691331,21.922731 L73.0691331,22.3956504 L82.9622334,21.6805632 C83.2771846,21.6010774 83.2470696,21.1962276 83.0376396,21.0921492 C82.8679046,21.0070504 82.6453378,20.9635258 82.483096,20.887893 C82.3548581,20.8291943 82.2643232,20.7516588 82.2643232,20.6192299 C82.3680423,19.4311284 82.3360302,19.7905984 82.4057928,18.9978806 C82.4057928,18.8900443 82.4680622,18.7935768 82.5623436,18.742489" id="Fill-1" fill="#DFDFDC" mask="url(#mask-2)"></path>
        </g>
        <path d="M59,31.356351 L59,32.3036184 L72,33 L72,31.356351 C72,27.7418227 69.1984503,25 65.5009115,25 C61.8033726,25 59,27.7418227 59,31.356351" id="Fill-4" fill="#000000" transform="translate(65.500000, 29.000000) scale(-1, 1) translate(-65.500000, -29.000000) "></path>
        <path d="M17.9994751,25 C21.9547936,25 25,28.2081519 25,32.0152962 L25,34 L11,33.9694343 L11,31.4627542 C11,27.655658 14.0452064,25 17.9994751,25" id="Fill-6" fill="#000000" transform="translate(18.000000, 29.500000) scale(-1, 1) translate(-18.000000, -29.500000) "></path>
        <path d="M11,32 C11,35.3136839 13.6862557,38 17.000074,38 C20.3136949,38 23,35.3136839 23,32 C23,28.6863161 20.3136949,26 17.000074,26 C13.6862557,26 11,28.6863161 11,32" id="Fill-8" fill="#3E3E3E" transform="translate(17.000000, 32.000000) scale(-1, 1) translate(-17.000000, -32.000000) "></path>
        <path d="M20.7700892,31.253918 C20.0824828,29.4480845 18.0609533,28.5421263 16.2549935,29.2303759 C14.4489846,29.9185274 13.5422778,31.9403035 14.2299823,33.7460879 C14.9175397,35.5518723 16.9390201,36.4578796 18.7450781,35.76963 C20.5509889,35.0814785 21.4576466,33.0597024 20.7700892,31.253918" id="Fill-10" fill="#131313" transform="translate(17.500000, 32.500000) scale(-1, 1) translate(-17.500000, -32.500000) "></path>
        <path d="M19.8357784,31.6099538 C19.3445831,30.3201146 17.9006627,29.6729513 16.6106984,30.1645363 C15.3207341,30.6561214 14.6730858,32.1002265 15.1642388,33.3900657 C15.6553918,34.6799049 17.0993122,35.3270682 18.3893189,34.8354409 C19.6792832,34.3439405 20.3268891,32.899793 19.8357784,31.6099538" id="Fill-12" fill="#4C4C4C" transform="translate(17.500000, 32.500000) scale(-1, 1) translate(-17.500000, -32.500000) "></path>
        <path d="M17.0323692,35.4946839 C15.0753237,35.5107981 13.5229169,33.928274 13.5090578,32.0287753 C13.4914403,30.1011825 15.0443639,28.5211953 16.9749127,28.505316 C18.9320521,28.4892489 20.484412,30.071679 20.4982711,31.9712247 C20.5159356,33.8987705 18.9630589,35.4788047 17.0323692,35.4946839 M16.967114,28.0001392 C14.7574101,28.0183205 12.9799691,29.8267248 13.0001705,32.0329565 C13.0160497,34.2071008 14.79288,36.018277 17.032933,35.9998608 C19.2425899,35.9816795 21.0200309,34.1733221 20.9998295,31.9671374 C20.9839033,29.7929462 19.207167,27.981723 16.967114,28.0001392" id="Fill-14" fill="#E7E7E7" transform="translate(17.000000, 32.000000) scale(-1, 1) translate(-17.000000, -32.000000) "></path>
        <path d="M20.132951,33.9938446 C19.9168025,34.3754689 19.4142125,34.9879687 19.3165364,34.5240535 L19.2357983,34.140406 C19.1463559,33.7155425 19.3870175,33.2906319 19.7973421,33.1488696 L20.1679093,33.020846 C20.6158741,32.8661448 20.3483468,33.6134906 20.132951,33.9938446 M18.3387396,29.9113438 L18.0469344,30.1731313 C17.7237938,30.4630547 17.235507,30.467054 16.9076143,30.1825413 L16.6115276,29.9255059 C16.2536169,29.6148804 17.0344146,29.4729299 17.4715107,29.469307 C17.9100184,29.4656841 18.6916159,29.5947899 18.3387396,29.9113438 M17.5212898,35.5307401 C17.0842407,35.5343159 16.3012317,35.4052101 16.6540139,35.0887032 L16.9458661,34.8269158 C17.2690068,34.5370394 17.7572935,34.5329931 18.0851862,34.8175057 L18.3812259,35.074447 C18.7392307,35.3851667 17.9597975,35.5271172 17.5212898,35.5307401 M15.1952702,31.8512715 L14.8247501,31.9792952 C14.3766912,32.1340434 14.6435128,31.387968 14.8596142,31.0062495 C15.075057,30.6258955 15.5783527,30.0122195 15.6760289,30.4760406 L15.756767,30.8597352 C15.8462565,31.2845987 15.6055477,31.7095563 15.1952702,31.8512715 M15.783962,34.1686832 L15.7095757,34.5536951 C15.6195687,35.0190218 15.1062042,34.4136266 14.8845508,34.0368955 C14.6621917,33.658847 14.3831371,32.9172884 14.8336896,33.0646497 L15.2062799,33.1865098 C15.6188629,33.3214498 15.866488,33.7424552 15.783962,34.1686832 M19.2085562,30.8312698 L19.2830366,30.4463049 C19.3729966,29.980837 19.8856553,30.5849148 20.1080615,30.9630104 C20.3297149,31.3397886 20.6093811,32.0825704 20.1590168,31.9353032 L19.7863324,31.8133961 C19.3737494,31.6785031 19.1261714,31.2574507 19.2085562,30.8312698 M17.4712284,29.0001222 C15.5377484,29.0160251 13.9825048,30.5983241 14.0001487,32.5287947 C14.0140285,34.4311764 15.5687545,36.0160161 17.5287237,35.9998778 C19.4622978,35.9839749 21.0175414,34.4016288 20.9998506,32.4712053 C20.9859708,30.5688236 19.4312447,28.9839839 17.4712284,29.0001222" id="Fill-16" fill="#CDCDCD" transform="translate(17.500000, 32.500000) scale(-1, 1) translate(-17.500000, -32.500000) "></path>
        <path d="M16.5857733,31.5857813 C15.8047422,32.366823 15.8047422,33.633177 16.5857733,34.4142187 C17.3668043,35.1952604 18.6331409,35.1952604 19.4142267,34.4142187 C20.1952578,33.633177 20.1952578,32.366823 19.4142267,31.5857813 C18.6331409,30.8047396 17.3668043,30.8047396 16.5857733,31.5857813" id="Fill-18" fill="#B4B4B4" transform="translate(18.000000, 33.000000) scale(-1, 1) translate(-18.000000, -33.000000) "></path>
        <path d="M17.0000457,32.9993448 C17.0019657,33.2607708 17.1035957,33.5011524 17.2700698,33.6807342 C17.2942882,33.663432 17.322783,33.651501 17.3540705,33.6461298 C17.4104492,33.6367083 17.4654315,33.6513249 17.50837,33.6828915 C17.5502176,33.7137537 17.5808506,33.7604652 17.590058,33.8162901 C17.595338,33.848385 17.5930253,33.8801277 17.5843852,33.9093609 C17.7128954,33.9685758 17.8561984,34.001199 18.0082288,33.9999663 C18.1572482,33.9986895 18.2982821,33.9646135 18.4248286,33.9046942 C18.4159704,33.8762094 18.4131776,33.844995 18.417934,33.8132523 C18.4264432,33.7561506 18.457338,33.7080303 18.5001456,33.6764637 C18.5422114,33.6457776 18.5957101,33.6309849 18.6512596,33.6393939 C18.6830708,33.6441927 18.7120456,33.6561237 18.7367876,33.6732498 C18.9022145,33.4915548 19.0022735,33.2486637 18.9999608,32.982791 C18.9996117,32.9431677 18.997168,32.9042928 18.9921934,32.8657701 C18.9625204,32.8654179 18.9326293,32.8582857 18.9041781,32.8440213 C18.8529486,32.818178 18.8170792,32.7737559 18.8008027,32.7227738 C18.7846571,32.6729805 18.787319,32.6170235 18.8122792,32.5665258 C18.8265484,32.5374687 18.8468831,32.5133865 18.8707524,32.4948515 C18.7293694,32.2425389 18.4829528,32.0563532 18.1886667,32 C18.1791538,32.0283527 18.1630519,32.0550764 18.1407972,32.0779259 C18.100695,32.1191342 18.0476327,32.1398264 17.9946141,32.1398264 C17.9426864,32.1398264 17.8906714,32.1200147 17.8507438,32.0804354 C17.8277472,32.057762 17.8113398,32.0308622 17.8012161,32.0021573 C17.5088937,32.0615042 17.2632189,32.2490988 17.1239304,32.5037888 C17.1477997,32.5216193 17.1681344,32.5451732 17.1827964,32.573702 C17.2091529,32.6248601 17.2122948,32.6820939 17.1958437,32.7331199 C17.1797854,32.7828692 17.1451379,32.8267191 17.0954793,32.8527384 C17.0668536,32.8677512 17.0364388,32.8752357 17.0064167,32.8759401 C17.0017912,32.9164439 16.999653,32.9576082 17.0000457,32.9993448" id="Fill-20" fill="#818181" transform="translate(18.000000, 33.000000) scale(-1, 1) translate(-18.000000, -33.000000) "></path>
        <polygon id="Fill-22" fill="#131313" transform="translate(18.000000, 31.000000) scale(-1, 1) translate(-18.000000, -31.000000) " points="17.9057012 30.8268516 17.8196403 31.0053113 17.9139155 31.1784597 18.0942516 31.1732015 18.1803597 30.9946887 18.0860845 30.8215403"></polygon>
        <polygon id="Fill-24" fill="#131313" transform="translate(17.000000, 32.000000) scale(-1, 1) translate(-17.000000, -32.000000) " points="17.1191761 31.8560138 16.9387444 31.8215403 16.8196403 31.965477 16.8807759 32.1439367 17.0612076 32.1784597 17.1803597 32.034523"></polygon>
        <polygon id="Fill-26" fill="#131313" transform="translate(17.000000, 33.000000) scale(-1, 1) translate(-17.000000, -33.000000) " points="17.1803597 33.0689027 17.1548749 32.8904195 16.9744897 32.8215403 16.8196403 32.9310502 16.8451251 33.1095334 17.0255103 33.1784597"></polygon>
        <polygon id="Fill-28" fill="#131313" transform="translate(19.000000, 33.000000) scale(-1, 1) translate(-19.000000, -33.000000) " points="18.9842927 33.1784597 19.1646263 33.1013917 19.1803597 32.9229554 19.0157596 32.8215403 18.8353215 32.8986551 18.8196403 33.0770914"></polygon>
        <polygon id="Fill-30" fill="#131313" transform="translate(19.000000, 32.000000) scale(-1, 1) translate(-19.000000, -32.000000) " points="18.8196403 32.0434644 18.9473354 32.1784597 19.1276709 32.1350683 19.1803597 31.9565843 19.0526646 31.8215403 18.8722806 31.8649317"></polygon>
        <path d="M17.5000687,27.7117778 C20.0311065,27.7117778 22.1863229,29.0823548 23,31 C22.5804113,28.7333906 20.2778696,27 17.5000687,27 C14.7221304,27 12.4195887,28.7333906 12,31 C12.8136771,29.0823548 14.9689392,27.7117778 17.5000687,27.7117778" id="Fill-32" fill="#585858" transform="translate(17.500000, 29.000000) scale(-1, 1) translate(-17.500000, -29.000000) "></path>
        <path d="M17.4999313,37.2882222 C14.9688935,37.2882222 12.8136771,35.9176452 12,34 C12.4195887,36.2666094 14.7221304,38 17.4999313,38 C20.2778696,38 22.5804113,36.2666094 23,34 C22.1863229,35.9176452 20.0311065,37.2882222 17.4999313,37.2882222" id="Fill-34" fill="#212121" transform="translate(17.500000, 36.000000) scale(-1, 1) translate(-17.500000, -36.000000) "></path>
        <path d="M17.4671967,28.38811 C18.9775475,28.3716504 20.2816157,29.4317448 21,30.9991055 C20.3992662,29.2329771 19.055906,27.9829411 17.4693145,28.000176 C15.9212037,28.0170531 14.5953267,29.2470513 14,31 C14.7111297,29.4486815 15.9951464,28.4041522 17.4671967,28.38811" id="Fill-36" fill="#CDCDCD" transform="translate(17.500000, 29.500000) scale(-1, 1) translate(-17.500000, -29.500000) "></path>
        <path d="M17.5328033,35.61189 C16.0224525,35.6283496 14.7183843,34.5682552 14,33.0008945 C14.6007789,34.7670229 15.944094,36.0170589 17.5306855,35.999824 C19.0787963,35.9829469 20.4046733,34.7529487 21,33 C20.2888703,34.5513185 19.0048986,35.5958478 17.5328033,35.61189" id="Fill-38" fill="#FAFAFA" transform="translate(17.500000, 34.500000) scale(-1, 1) translate(-17.500000, -34.500000) "></path>
        <path d="M17.5925608,28.5997242 C19.2449392,28.6514938 20.5980676,30.0944595 21,31.998803 C20.8211689,29.7686401 19.3272365,27.9808829 17.4712432,28.0001544 C15.6582905,28.0190069 14.17675,29.7716326 14,32 C14.4421351,29.8956402 16.0001554,28.51803 17.5925608,28.5997242" id="Fill-40" fill="#B4B4B4" transform="translate(17.500000, 30.000000) scale(-1, 1) translate(-17.500000, -30.000000) "></path>
        <path d="M17.4074392,35.400275 C15.7551081,35.3485054 14.4019324,33.9055401 14,32.001197 C14.1788311,34.2313594 15.6728108,36.019176 17.5288041,35.9998447 C19.3417095,35.9809922 20.82325,34.2283669 21,32 C20.5579122,34.1043593 18.9998919,35.4819692 17.4074392,35.400275" id="Fill-42" fill="#F5F5F5" transform="translate(17.500000, 34.000000) scale(-1, 1) translate(-17.500000, -34.000000) "></path>
        <path d="M19.5371077,31.2494987 C19.7402118,31.4718449 19.8941236,31.7273591 20,32 C19.9592359,31.5052541 19.7661025,31.0226899 19.420214,30.6439717 C18.6358916,29.7853428 17.3642185,29.7853428 16.5798411,30.6439717 C16.2338975,31.0226899 16.0407641,31.5052541 16,31.9999397 C16.1059865,31.7273591 16.2598984,31.4718449 16.4629474,31.2494987 C17.3118312,30.3201918 18.6882239,30.3201918 19.5371077,31.2494987" id="Fill-44" fill="#9A9A9A" transform="translate(18.000000, 31.000000) scale(-1, 1) translate(-18.000000, -31.000000) "></path>
        <path d="M16.4629474,32.7504636 C16.2598433,32.5281107 16.1059865,32.2725888 16,32 C16.0407641,32.4947005 16.2338975,32.9772792 16.5798411,33.3560089 C17.3641634,34.2146637 18.6358366,34.2146637 19.420214,33.3560089 C19.7661025,32.9772792 19.9592359,32.4947005 20,32 C19.8941236,32.2725888 19.7401567,32.5281107 19.5371077,32.7504636 C18.6881688,33.6797986 17.3118312,33.6797986 16.4629474,32.7504636" id="Fill-46" fill="#E7E7E7" transform="translate(18.000000, 33.000000) scale(-1, 1) translate(-18.000000, -33.000000) "></path>
        <path d="M19,33 C18.9508796,32.8348254 18.86525,32.6805431 18.7431806,32.5499105 C18.6441038,32.4437481 18.5280265,32.3611608 18.4026128,32.3058042 C18.2762933,32.2495524 18.1398014,32.2205312 17.9999652,32.2205312 C17.7186204,32.2205312 17.4551123,32.3375858 17.2559833,32.5499105 C17.13475,32.6805431 17.04919,32.8348254 17,33 C17.0160948,32.7495524 17.112733,32.5045509 17.2906811,32.3139361 C17.4797074,32.1116085 17.7322069,32 17.9999652,32 C18.1338791,32 18.2636126,32.0281259 18.3839401,32.0807968 C18.5042675,32.1342883 18.6144922,32.2123247 18.7093189,32.3139361 C18.8873367,32.5045509 18.9839749,32.7495524 19,33" id="Fill-48" fill="#CDCDCD" transform="translate(18.000000, 32.500000) scale(-1, 1) translate(-18.000000, -32.500000) "></path>
        <path d="M19,32 C18.9508796,32.1651 18.86525,32.3193823 18.7431806,32.4500895 C18.6441038,32.5562519 18.5280265,32.6388392 18.4026128,32.6941958 C18.2762933,32.7504476 18.1398014,32.7794688 17.9999652,32.7794688 C17.7186204,32.7794688 17.4551123,32.6624142 17.2559833,32.4500895 C17.13475,32.3193823 17.04919,32.1651 17,32 C17.0160948,32.2504476 17.112733,32.4954491 17.2906811,32.6859893 C17.4797074,32.8883915 17.7322069,33 17.9999652,33 C18.1338791,33 18.2636126,32.9717995 18.3839401,32.9192032 C18.5042675,32.8657117 18.6144922,32.7876007 18.7093189,32.6859893 C18.8873367,32.4954491 18.9839749,32.2504476 19,32" id="Fill-50" fill="#4C4C4C" transform="translate(18.000000, 32.500000) scale(-1, 1) translate(-18.000000, -32.500000) "></path>
        <path d="M59,32 C59,35.3136839 61.6862668,38 65.0000493,38 C68.3137332,38 71,35.3136839 71,32 C71,28.6863161 68.3137332,26 65.0000493,26 C61.6862668,26 59,28.6863161 59,32" id="Fill-52" fill="#3E3E3E" transform="translate(65.000000, 32.000000) scale(-1, 1) translate(-65.000000, -32.000000) "></path>
        <path d="M68.7700886,31.2539048 C68.0824802,29.4481262 66.060945,28.5421219 64.25498,29.2303693 C62.4489659,29.9185185 61.5423056,31.9403371 62.229963,33.7460667 C62.9175223,35.5518943 64.9390576,36.4578496 66.7450716,35.7696513 C68.5509876,35.081453 69.4576479,33.0596834 68.7700886,31.2539048" id="Fill-54" fill="#131313" transform="translate(65.500000, 32.500000) scale(-1, 1) translate(-65.500000, -32.500000) "></path>
        <path d="M67.8357545,31.6099573 C67.3446405,30.320077 65.9006679,29.6729567 64.6106948,30.1645412 C63.3206794,30.6560834 62.6730691,32.1002294 63.1642677,33.3900673 C63.6553818,34.6799053 65.099312,35.3270679 66.3893274,34.835441 C67.6793005,34.3438988 68.3269109,32.8997952 67.8357545,31.6099573" id="Fill-56" fill="#4C4C4C" transform="translate(65.500000, 32.500000) scale(-1, 1) translate(-65.500000, -32.500000) "></path>
        <path d="M65.0324158,35.494684 C63.0753231,35.5107982 61.5228692,33.9282742 61.509057,32.0287756 C61.4914395,30.101136 63.0443633,28.521196 64.9749123,28.5053167 C66.9320519,28.4892495 68.4844589,30.0716795 68.4982711,31.9712251 C68.5159355,33.8987707 66.9630118,35.4788047 65.0324158,35.494684 M64.9671136,28.0001399 C62.7574095,28.0183212 60.9800153,29.8267254 61.0001697,32.0329099 C61.016049,34.207101 62.7928794,36.018277 65.0329326,35.9998608 C67.2425897,35.9816795 69.0200309,34.1733223 68.9998295,31.9671378 C68.9839503,29.7929467 67.2071668,27.9816767 64.9671136,28.0001399" id="Fill-58" fill="#E7E7E7" transform="translate(65.000000, 32.000000) scale(-1, 1) translate(-65.000000, -32.000000) "></path>
        <path d="M68.1329981,33.9938578 C67.9168025,34.3754797 67.4142125,34.9879754 67.3165834,34.5240633 L67.2357512,34.1403713 C67.1463559,33.7155576 67.3870646,33.2906028 67.7973421,33.1488885 L68.1679093,33.0208186 C68.6158741,32.8661185 68.3483938,33.6134593 68.1329981,33.9938578 M66.3387396,29.9113371 L66.0469814,30.1731228 C65.7237938,30.4630914 65.235507,30.4670906 64.9076614,30.1825328 L64.6115276,29.9254991 C64.2536169,29.6149226 65.0344146,29.4729731 65.4714637,29.4693502 C65.9099713,29.4657274 66.6916159,29.5948323 66.3387396,29.9113371 M65.5213369,35.5307432 C65.0842407,35.534319 64.3012317,35.405167 64.6540139,35.0887093 L64.9458661,34.8268765 C65.2690068,34.537002 65.7572935,34.5330028 66.0851862,34.8175136 L66.3812259,35.0744531 C66.7392307,35.3851237 65.9598445,35.5271203 65.5213369,35.5307432 M63.1952702,31.851252 L62.8247501,31.9792748 C62.3766912,32.134069 62.6435128,31.3879515 62.8596142,31.0062826 C63.075057,30.6259311 63.5783998,30.0122591 63.6760289,30.4760301 L63.756767,30.8597692 C63.8462565,31.2846299 63.6055948,31.7095847 63.1952702,31.851252 M63.783962,34.1686953 L63.7095757,34.5537047 C63.6195687,35.0190283 63.1062513,34.4136371 62.8845979,34.0369085 C62.6621917,33.6588625 62.3831371,32.9173088 62.8336896,33.0646692 L63.2062799,33.1865284 C63.6188629,33.3214205 63.866488,33.7424702 63.783962,34.1686953 M67.2085562,30.8312569 L67.2830366,30.4463416 C67.3730436,29.9808769 67.8856553,30.5849507 68.1080615,30.9630437 C68.3296678,31.3398194 68.6093811,32.0825964 68.1590168,31.9353301 L67.7863324,31.8133768 C67.3737494,31.6784847 67.1261714,31.2574821 67.2085562,30.8312569 M65.4711814,29.0001215 C63.5377484,29.0160243 61.9825048,30.5983599 62.0001487,32.5288177 C62.0140285,34.4311397 63.5687545,36.016016 65.5287708,35.9998778 C67.4622978,35.983975 69.0175414,34.4016394 68.9998506,32.4712286 C68.9859708,30.5688596 67.4312447,28.9840304 65.4711814,29.0001215" id="Fill-60" fill="#CDCDCD" transform="translate(65.500000, 32.500000) scale(-1, 1) translate(-65.500000, -32.500000) "></path>
        <path d="M64.5857813,31.5857813 C63.8047396,32.366823 63.8047396,33.633177 64.5857813,34.4142187 C65.366823,35.1952604 66.633177,35.1952604 67.4142187,34.4142187 C68.1952604,33.633177 68.1952604,32.366823 67.4142187,31.5857813 C66.633177,30.8047396 65.366823,30.8047396 64.5857813,31.5857813" id="Fill-62" fill="#B4B4B4" transform="translate(66.000000, 33.000000) scale(-1, 1) translate(-66.000000, -33.000000) "></path>
        <path d="M65.0000368,32.9993448 C65.0019567,33.2607708 65.1036286,33.5011524 65.2701,33.6807342 C65.294318,33.663432 65.3227687,33.651501 65.3540557,33.6461298 C65.4104334,33.6367083 65.4654148,33.6513249 65.5083526,33.6828475 C65.5502432,33.7137096 65.580832,33.7604652 65.5900392,33.8162461 C65.5953192,33.848341 65.5930064,33.8800837 65.5843665,33.9093609 C65.7128746,33.9685758 65.8562188,34.001199 66.008203,33.9999663 C66.15722,33.9986895 66.2982516,33.9646135 66.424796,33.9046942 C66.4159379,33.8761654 66.4131452,33.844995 66.4179015,33.8132083 C66.4264105,33.7561506 66.4573048,33.7080303 66.5001117,33.6764637 C66.5421769,33.6457776 66.5957182,33.6309849 66.6512232,33.6393498 C66.6830339,33.6441487 66.7120082,33.6561237 66.7367498,33.6732498 C66.9022175,33.4915107 67.0022313,33.2486637 66.9999622,32.982747 C66.9995695,32.9431677 66.9971259,32.9042928 66.9921514,32.8657701 C66.9624789,32.8654179 66.9325882,32.8582857 66.9041375,32.8440213 C66.8528652,32.818178 66.8169964,32.7737559 66.8007638,32.7227738 C66.7846621,32.6729805 66.7873239,32.6169795 66.8122401,32.5665258 C66.8265527,32.5374687 66.8468871,32.5133865 66.870756,32.4948515 C66.7293317,32.2425389 66.4829628,32.0563532 66.1886816,32 C66.1791253,32.0283527 66.1630236,32.0550764 66.1407692,32.0779259 C66.1006677,32.1191342 66.0476064,32.1398264 65.9945886,32.1398264 C65.9426618,32.1398264 65.8906913,32.1200147 65.8507207,32.0803914 C65.8277682,32.057762 65.8113174,32.0308182 65.8012375,32.0021573 C65.5088762,32.0615042 65.2632055,32.2490988 65.1239194,32.5037888 C65.1477883,32.5215753 65.1681227,32.5451292 65.1827844,32.573702 C65.2091405,32.6248601 65.2123259,32.6820939 65.1958752,32.7331199 C65.1797735,32.7828692 65.1451265,32.8267191 65.0954687,32.8527384 C65.0668435,32.8677512 65.0364292,32.8752357 65.0064076,32.8759401 C65.0018258,32.9163999 64.9996877,32.9576082 65.0000368,32.9993448" id="Fill-64" fill="#818181" transform="translate(66.000000, 33.000000) scale(-1, 1) translate(-66.000000, -33.000000) "></path>
        <polygon id="Fill-66" fill="#131313" transform="translate(66.000000, 31.000000) scale(-1, 1) translate(-66.000000, -31.000000) " points="65.9057371 30.826904 65.8196403 31.0053371 65.9139031 31.1784597 66.0942629 31.1732022 66.1803597 30.994716 66.0860969 30.8215403"></polygon>
        <polygon id="Fill-68" fill="#131313" transform="translate(65.000000, 32.000000) scale(-1, 1) translate(-65.000000, -32.000000) " points="65.1191363 31.8560138 64.9387765 31.8215403 64.8196403 31.965477 64.8808158 32.1439367 65.0611755 32.1784597 65.1803597 32.0344735"></polygon>
        <polygon id="Fill-70" fill="#131313" transform="translate(65.000000, 33.000000) scale(-1, 1) translate(-65.000000, -33.000000) " points="65.1803597 33.0688883 65.1548275 32.8904286 64.9745188 32.8215403 64.8196403 32.9310647 64.8451725 33.1095243 65.0254812 33.1784597"></polygon>
        <polygon id="Fill-72" fill="#131313" transform="translate(67.000000, 33.000000) scale(-1, 1) translate(-67.000000, -33.000000) " points="66.9842927 33.1784597 67.1646263 33.1013917 67.1803597 32.9229554 67.0157596 32.8215403 66.8353215 32.8986083 66.8196403 33.0770914"></polygon>
        <polygon id="Fill-74" fill="#131313" transform="translate(67.000000, 32.000000) scale(-1, 1) translate(-67.000000, -32.000000) " points="66.8196403 32.0434341 66.9473183 32.1784597 67.1276295 32.1350255 67.1803597 31.9566146 67.0526332 31.8215403 66.8722735 31.8649745"></polygon>
        <path d="M65.5000458,27.7117778 C68.0310942,27.7117778 70.1863196,29.0823548 71,31 C70.5804095,28.7333515 68.2778582,27 65.5000458,27 C62.722096,27 60.4195447,28.7333515 60,31 C60.8136347,29.0823548 62.9689058,27.7117778 65.5000458,27.7117778" id="Fill-76" fill="#585858" transform="translate(65.500000, 29.000000) scale(-1, 1) translate(-65.500000, -29.000000) "></path>
        <path d="M65.4999542,37.2882222 C62.96886,37.2882222 60.8136347,35.9176452 60,34 C60.4195905,36.2666094 62.7221418,38 65.4999542,38 C68.2778582,38 70.5804095,36.2666094 71,34 C70.1863653,35.9176452 68.0310942,37.2882222 65.4999542,37.2882222" id="Fill-78" fill="#212121" transform="translate(65.500000, 36.000000) scale(-1, 1) translate(-65.500000, -36.000000) "></path>
        <path d="M65.4672194,28.38811 C66.9775154,28.3716504 68.2815753,29.4317448 69,30.9991055 C68.39927,29.2329175 67.0558735,27.9829412 65.4692921,28.000176 C63.9212364,28.0170531 62.5953228,29.2470513 62,31 C62.7111251,29.4486816 63.9951336,28.4041522 65.4672194,28.38811" id="Fill-80" fill="#CDCDCD" transform="translate(65.500000, 29.500000) scale(-1, 1) translate(-65.500000, -29.500000) "></path>
        <path d="M65.5328033,35.61189 C64.0224976,35.62829 62.7183843,34.5682552 62,33.0008945 C62.6007338,34.7670229 63.944094,36.0170589 65.5306855,35.999824 C67.0787963,35.9829469 68.4046733,34.7529487 69,33 C68.2888703,34.5513185 67.0048986,35.5957882 65.5328033,35.61189" id="Fill-82" fill="#FAFAFA" transform="translate(65.500000, 34.500000) scale(-1, 1) translate(-65.500000, -34.500000) "></path>
        <path d="M65.5925851,28.599725 C67.2449273,28.6514946 68.5980649,30.0944001 69,31.998803 C68.8211677,29.7686406 67.3272252,27.980824 65.4712194,28.0001553 C63.6583017,28.0190078 62.1767512,29.7716331 62,32 C62.4420435,29.8956407 64.0001689,28.5180308 65.5925851,28.599725" id="Fill-84" fill="#B4B4B4" transform="translate(65.500000, 30.000000) scale(-1, 1) translate(-65.500000, -30.000000) "></path>
        <path d="M65.4074149,35.400275 C63.7550727,35.3485054 62.4019351,33.9055999 62,32.0012568 C62.1788323,34.2313594 63.6727748,36.019176 65.5287806,35.9998447 C67.3416983,35.9809922 68.8232961,34.2283669 69,32 C68.5579092,34.1043593 66.9998311,35.4819692 65.4074149,35.400275" id="Fill-86" fill="#F5F5F5" transform="translate(65.500000, 34.000000) scale(-1, 1) translate(-65.500000, -34.000000) "></path>
        <path d="M67.5370526,31.2495364 C67.7401567,31.4718893 67.8940686,31.7274112 68,32 C67.9592359,31.5052995 67.7661025,31.0227208 67.4201038,30.6439911 C66.6358366,29.7853363 65.3641634,29.7853363 64.5798411,30.6439911 C64.2338975,31.0227208 64.0407641,31.5052995 64,32 C64.1058764,31.7274112 64.2598433,31.4718893 64.4628923,31.2495364 C65.3117761,30.3201411 66.6881688,30.3201411 67.5370526,31.2495364" id="Fill-88" fill="#9A9A9A" transform="translate(66.000000, 31.000000) scale(-1, 1) translate(-66.000000, -31.000000) "></path>
        <path d="M64.4629474,32.7504636 C64.2598433,32.528171 64.1059314,32.2725888 64,32 C64.0407641,32.4947608 64.2338975,32.9772792 64.5798962,33.3560089 C65.3641634,34.2146637 66.6358366,34.2146637 67.4201589,33.3560089 C67.7661025,32.9772792 67.9592359,32.4947608 68,32 C67.8941236,32.2725888 67.7401567,32.528171 67.5371077,32.7504636 C66.6882239,33.6798589 65.3118312,33.6798589 64.4629474,32.7504636" id="Fill-90" fill="#E7E7E7" transform="translate(66.000000, 33.000000) scale(-1, 1) translate(-66.000000, -33.000000) "></path>
        <path d="M67,33 C66.9508117,32.8349 66.8652547,32.6806177 66.7431896,32.5499105 C66.6440465,32.4437481 66.5279732,32.3611608 66.4025639,32.3058042 C66.2763185,32.2495524 66.1398314,32.2205312 66,32.2205312 C65.7186651,32.2205312 65.4551662,32.3375858 65.2559744,32.5499105 C65.134815,32.6806177 65.0491883,32.8349 65,33 C65.0161639,32.7495524 65.1127987,32.5045509 65.2907406,32.3140107 C65.4796907,32.1116085 65.7322511,32 66,32 C66.1339093,32 66.2635686,32.0281259 66.3838919,32.0807968 C66.5042151,32.1342883 66.6143663,32.2123247 66.7093291,32.3140107 C66.887271,32.5045509 66.9839058,32.7495524 67,33" id="Fill-92" fill="#CDCDCD" transform="translate(66.000000, 32.500000) scale(-1, 1) translate(-66.000000, -32.500000) "></path>
        <path d="M67,32 C66.9508117,32.1651746 66.8652547,32.3194569 66.7431896,32.4500895 C66.6440465,32.5562519 66.5279732,32.6388392 66.4025639,32.6941958 C66.2763185,32.7504476 66.1398314,32.7794688 66,32.7794688 C65.7186651,32.7794688 65.4551662,32.6624142 65.2559744,32.4500895 C65.134815,32.3194569 65.0491883,32.1651746 65,32 C65.0161639,32.2504476 65.1127987,32.4954491 65.2907406,32.6860639 C65.4796907,32.8883915 65.7322511,33 66,33 C66.1339093,33 66.2635686,32.9718741 66.3838919,32.9192032 C66.5042151,32.8657117 66.6143663,32.7876753 66.7093291,32.6860639 C66.887271,32.4954491 66.9839058,32.2504476 67,32" id="Fill-94" fill="#4C4C4C" transform="translate(66.000000, 32.500000) scale(-1, 1) translate(-66.000000, -32.500000) "></path>
        <path d="M79,29 L80.6594047,32 L82.5399755,32 C82.742022,32 82.8955584,31.930476 82.9620294,31.8096571 C83.0257088,31.6902758 83.0091174,31.5135042 82.913572,31.3231613 C82.7821574,31.0617992 82.6410514,30.8125132 82.4818265,30.5601794 C82.0777861,29.9241695 81.4633771,29.4935115 80.7521059,29.34555 L79,29 Z" id="Fill-96" fill="#131313" transform="translate(81.000000, 30.500000) scale(-1, 1) translate(-81.000000, -30.500000) "></path>
        <path d="M83.9023431,31.1421401 C83.7814355,30.9065612 83.6545601,30.6889163 83.5193022,30.4789714 C83.1422748,29.8964083 82.5606066,29.5020549 81.9095099,29.3701327 L80,29 L80.3605359,29.2655501 L81.8760257,29.5583911 C82.4911781,29.683783 83.0225972,30.04875 83.3721084,30.5877938 C83.5097808,30.8015887 83.6318273,31.0128982 83.7455368,31.2343443 C83.8130519,31.3662178 83.8587908,31.542439 83.7753309,31.6642246 C83.7128727,31.7554541 83.5865439,31.8079891 83.422403,31.8079891 L81.7958003,31.8079891 L81.6940722,32 L83.422403,32 C83.6418042,32 83.8072662,31.9250962 83.9036642,31.8015075 C84.0271685,31.6433178 84.0374187,31.4052535 83.9023431,31.1421401" id="Fill-98" fill="#B4B4B4" transform="translate(82.000000, 30.500000) scale(-1, 1) translate(-82.000000, -30.500000) "></path>
        <path d="M82.1670001,30.0007653 L81,30.0007653 L81,31 L82.9999651,31 C83.0044785,30.4887074 82.570434,29.9774982 82.1670001,30.0007653" id="Fill-100" fill="#E7E7E7" transform="translate(82.000000, 30.500000) scale(-1, 1) translate(-82.000000, -30.500000) "></path>
        <path d="M81,30 L81,31 L82.1670465,31 C82.5612459,31 82.9955311,30.5000834 83,30.0001668 C83,30 81,30 81,30" id="Fill-102" fill="#818181" transform="translate(82.000000, 30.500000) scale(-1, 1) translate(-82.000000, -30.500000) "></path>
        <path d="M81.875092,31.6666667 C81.7494438,31.8738739 81.5343008,32 81.2486289,32 L79,32 L79.1327604,31.6773137 L81.2486289,31.6773137 C81.2830044,31.6773137 81.3161945,31.6748567 81.3481992,31.6707617 C81.3553114,31.6691237 81.3630162,31.6683047 81.3695357,31.6674857 C81.5953469,31.6339066 81.7678168,31.5159705 81.875092,31.3390663 C81.9337673,31.2424242 81.9722915,31.1277641 81.9888866,31 C82.0220767,31.2620803 81.9799964,31.4930385 81.875092,31.6666667" id="Fill-104" fill="#F2F2F2" transform="translate(80.500000, 31.500000) scale(-1, 1) translate(-80.500000, -31.500000) "></path>
        <path d="M2,33.5411479 C2,33.8175132 2.37683225,33.8991718 2.747557,34 L3,31 L2.86970684,31.0590722 L2.42080619,31.2572537 C2.28664495,31.3180634 2.20039359,31.4362657 2.20039359,31.5683674 L2,33.5411479 Z" id="Fill-106" fill="#131313" transform="translate(2.500000, 32.500000) scale(-1, 1) translate(-2.500000, -32.500000) "></path>
        <path d="M3,33.9534519 L6.25527243,33.9998879 C6.5418929,34.0048853 6.79171189,33.8423151 6.84785347,33.6133635 C6.96306528,33.1413968 7.01815697,32.7672554 6.99467255,32.2960848 C6.9865497,32.131038 6.81829073,32 6.61533006,32 L4.56947774,32 C4.27473443,32.1169303 4.02894923,32.3102367 3.87500193,32.5565686 L3,33.9534519 Z" id="Fill-108" fill="#131313" transform="translate(5.000000, 33.000000) scale(-1, 1) translate(-5.000000, -33.000000) "></path>
        <path d="M2.21493844,32.0617837 L2.86567057,32.0617837 C2.95541864,32.0617837 3.00011693,32 3,31.9382163 L2,31.9382163 C2.00831869,31.998599 2.1290568,32.0617837 2.21493844,32.0617837" id="Fill-110" fill="#2F302F" transform="translate(2.500000, 32.000000) scale(-1, 1) translate(-2.500000, -32.000000) "></path>
        <path d="M2.86589075,31.9382163 L2.21622412,31.9382163 C2.12603813,31.9382163 2,31.9940224 2,32.0553392 C2,32.0574874 2.00134519,32.0596355 2.00163762,32.0617837 L3,32.0617837 C2.99994151,32 2.95514095,31.9382163 2.86589075,31.9382163" id="Fill-112" fill="#666666" transform="translate(2.500000, 32.000000) scale(-1, 1) translate(-2.500000, -32.000000) "></path>
        <path d="M2.86583226,32.9382163 L2.21616563,32.9382163 C2.12597965,32.9382163 2,32.9940224 2,33.0552925 C2,33.0574407 2.0012867,33.0596355 2.00157913,33.0617837 L3,33.0617837 C2.99988303,33 2.95508247,32.9382163 2.86583226,32.9382163" id="Fill-114" fill="#666666" transform="translate(2.500000, 33.000000) scale(-1, 1) translate(-2.500000, -33.000000) "></path>
        <path d="M2.21492589,33.0617837 L2.86562001,33.0617837 C2.95542142,33.0617837 3.00005852,33 3,32.9382163 L2,32.9382163 C2.0083182,32.998599 2.12910784,33.0617837 2.21492589,33.0617837" id="Fill-116" fill="#2F302F" transform="translate(2.500000, 33.000000) scale(-1, 1) translate(-2.500000, -33.000000) "></path>
        <path d="M2.86589075,32.9382163 L2.21622412,32.9382163 C2.12603813,32.9382163 2,32.9940224 2,33.0552925 C2,33.0574407 2.00134519,33.0596355 2.00163762,33.0617837 L3,33.0617837 C2.99994151,33 2.95514095,32.9382163 2.86589075,32.9382163" id="Fill-118" fill="#666666" transform="translate(2.500000, 33.000000) scale(-1, 1) translate(-2.500000, -33.000000) "></path>
        <path d="M2.21493844,33.0617837 L2.86567057,33.0617837 C2.95541864,33.0617837 3.00011693,33 3,32.9382163 L2,32.9382163 C2.00831869,32.998599 2.1290568,33.0617837 2.21493844,33.0617837" id="Fill-120" fill="#2F302F" transform="translate(2.500000, 33.000000) scale(-1, 1) translate(-2.500000, -33.000000) "></path>
        <path d="M5.97247865,31 L4.08927788,31 C3.87608626,31 3.66918075,31.0586185 3.484837,31.1684643 L5.28894977,31.1684643 C5.46793327,31.1684643 5.61631464,31.3369854 5.6235266,31.5491719 C5.64784263,32.3262793 5.56456389,32.7822642 5.49405229,33.2426839 C5.44546896,33.5316829 5.22730693,33.7460867 4.97147699,33.7396052 L2.1007239,33.6799064 L2,33.9144941 L5.23676046,33.9998349 C5.53323082,34.0073399 5.78969424,33.7580833 5.84656159,33.4196766 C6.0130216,32.4424929 6.02461923,31.6965425 5.97247865,31" id="Fill-122" fill="#B4B4B4" transform="translate(4.000000, 32.500000) scale(-1, 1) translate(-4.000000, -32.500000) "></path>
        <path d="M7,33 C6.99244523,33.0659195 6.98433644,33.131839 6.97582473,33.1993279 C6.91689751,33.6662576 6.65197683,34.0099806 6.34525308,33.9997788 L3,33.8820654 L3.10425585,33.5579613 L5.28154117,33.6183875 L6.39561823,33.6576253 C6.66955427,33.6670423 6.91035004,33.3931626 7,33" id="Fill-124" fill="#F2F2F2" transform="translate(5.000000, 33.500000) scale(-1, 1) translate(-5.000000, -33.500000) "></path>
        <path d="M2,31.9384731 C2.01545346,31.9778877 2.02775184,32.0190768 2.03618686,32.0615269 L3.50143266,32.0615269 L3.99703809,32.0133795 C3.9987766,31.9888154 3.99890538,31.9634108 4,31.9384731 L2,31.9384731 Z" id="Fill-126" fill="#2F302F" transform="translate(3.000000, 32.000000) scale(-1, 1) translate(-3.000000, -32.000000) "></path>
        <path d="M4,31.9840053 L3.52156032,31.9384731 L2,31.9384731 C2.02473829,31.9765801 2.04517697,32.0180027 2.06162762,32.0615269 L3.99707129,32.0615269 C3.9980683,32.0357019 4,32.0102973 4,31.9840053" id="Fill-128" fill="#666666" transform="translate(3.000000, 32.000000) scale(-1, 1) translate(-3.000000, -32.000000) "></path>
        <path d="M4,32.9840053 L3.52792557,32.9375858 L2.08537913,32.9375858 C2.0603628,32.9815303 2.03155045,33.0231397 2,33.0624142 L3.98294906,33.0624142 C3.98848751,33.036309 3.99471048,33.0095501 4,32.9840053" id="Fill-130" fill="#666666" transform="translate(3.000000, 33.000000) scale(-1, 1) translate(-3.000000, -33.000000) "></path>
        <path d="M2.10912975,32.9375858 C2.0757796,32.9812501 2.03916565,33.0220189 2,33.0589117 L3.51025131,33.0624142 L3.98451176,33.0124922 C3.99038661,32.9868073 3.9948966,32.9625235 4,32.9375858 L2.10912975,32.9375858 Z" id="Fill-132" fill="#2F302F" transform="translate(3.000000, 33.000000) scale(-1, 1) translate(-3.000000, -33.000000) "></path>
        <path d="M5.36087247,32.8898699 C5.43400846,32.4548826 5.63850434,32.1247278 5.86530158,32.0298428 C5.90963721,32.0099476 5.95486312,32 6,32 L5.52926775,32 C5.29841976,32.1026547 5.09058535,32.4405203 5.01584687,32.8854553 C5.00934787,32.9238331 5.00418429,32.9620343 5,33 L5.34547073,33 C5.34961051,32.9634469 5.35459604,32.9267761 5.36087247,32.8898699" id="Fill-134" fill="#666666" transform="translate(5.500000, 32.500000) scale(-1, 1) translate(-5.500000, -32.500000) "></path>
        <path d="M5.42527885,32 L5.01469573,32 C4.9458773,32.4655536 5.12398003,32.8877067 5.43961382,33 L6,33 C5.93726468,33 5.87638073,32.9870958 5.84480149,32.9743495 C5.53324073,32.8692194 5.35704228,32.4561256 5.42527885,32" id="Fill-136" fill="#2F302F" transform="translate(5.500000, 32.500000) scale(-1, 1) translate(-5.500000, -32.500000) "></path>
        <path d="M4.62325604,32.0142923 C4.38213182,31.9318458 4.12747384,32.2135378 4,32.6673 C4.12267288,32.5032046 4.26930919,32.4258497 4.41110315,32.4743728 C4.69568436,32.5716032 4.85287451,33.1381771 4.76219426,33.7397784 C4.74837079,33.8316105 4.72908417,33.9182897 4.70611404,34 C4.82961468,33.8348004 4.92890356,33.5815721 4.97434715,33.2797592 C5.06498602,32.6781579 4.90779587,32.1115226 4.62325604,32.0142923" id="Fill-138" fill="#0A0A0A" transform="translate(4.500000, 33.000000) scale(-1, 1) translate(-4.500000, -33.000000) "></path>
        <path d="M4.56675997,32.0163673 C4.40371109,31.960894 4.23509399,32.0493704 4.09403244,32.2372072 C4.06766669,32.3308096 4.0454414,32.4299593 4.02949821,32.5350777 C3.92527257,33.2237189 4.10602553,33.8722648 4.43321789,33.9836327 C4.59626677,34.039106 4.76488387,33.9506296 4.90599302,33.7627928 C4.93240636,33.6692607 4.95458406,33.5700407 4.97047966,33.4649223 C5.07475289,32.7762811 4.89399993,32.127665 4.56675997,32.0163673" id="Fill-140" fill="#000000" transform="translate(4.500000, 33.000000) scale(-1, 1) translate(-4.500000, -33.000000) "></path>
        <path d="M5.38494022,32.0103171 C5.3461239,32.004778 5.30730758,32.0008034 5.26856132,32 C5.16283238,32.06926 5.07069616,32.1553066 5,32.2536575 C5.43482691,32.3142918 5.69988495,32.5942495 5.59520699,32.8797463 C5.57930211,32.9224101 5.55526962,32.9624524 5.52570195,33 C5.74360586,32.9309937 5.91575696,32.8008879 5.9771344,32.6360677 C6.08188242,32.3505285 5.81682438,32.0705708 5.38494022,32.0103171" id="Fill-142" fill="#F2F2F2" transform="translate(5.500000, 32.500000) scale(-1, 1) translate(-5.500000, -32.500000) "></path>
        <path d="M4.89036003,32 C4.86849188,32.0751309 4.85184301,32.1564963 4.84001702,32.2425111 C4.8021937,32.5140285 4.81864437,32.7776206 4.87595744,32.978815 C4.88021876,32.9817738 4.88514074,32.9837815 4.88996363,32.9857364 C4.97598279,33.0174372 5.06206802,32.9948768 5.13682276,32.932162 C5.15076289,32.885192 5.1621264,32.8352104 5.16959196,32.7819002 C5.21894397,32.4251077 5.09397835,32.0752894 4.89036003,32" id="Fill-144" fill="#6C8187" transform="translate(5.000000, 32.500000) scale(-1, 1) translate(-5.000000, -32.500000) "></path>
        <path d="M2.22811004,33.4301001 L2.24418158,33.1771743 C2.24418158,33.1771743 2.33768528,31.7051532 2.33768528,31.7051014 C2.33768528,31.5868066 2.3859379,31.4809584 2.46109041,31.4264525 L2.8280383,31.1683406 C2.92355569,31.1036182 2.94680813,31.0841185 3,31 L2.47917564,31.1148201 C2.33293601,31.1470776 2.2015141,31.2819679 2.1459286,31.4722976 C2.12601965,31.5402873 2.11484936,31.6134631 2.11340558,31.6890245 C2.11207578,31.7102356 2.00105676,33.4503259 2.00105676,33.4716407 C1.9961935,33.5376597 2.00835164,33.5960032 2.03266792,33.6476567 C2.15877064,33.9152592 2.69707232,33.9978218 2.8613592,34 C2.83708091,33.9800854 2.81641207,33.9682092 2.77024913,33.9421232 C2.73765012,33.9236607 2.64399444,33.8825868 2.64399444,33.8825868 C2.49745085,33.8134562 2.37256395,33.7745086 2.29068647,33.6718239 C2.25561783,33.6277421 2.22096713,33.5432088 2.22548844,33.4716407 L2.22811004,33.4301001 Z" id="Fill-146" fill="#B4B4B4" transform="translate(2.500000, 32.500000) scale(-1, 1) translate(-2.500000, -32.500000) "></path>
        <path d="M3,34 C2.80899189,33.9967871 2.18435568,33.8690763 2.03785731,33.4538153 C2.00966928,33.3742972 1.9955532,33.2835341 2.00124374,33.1815261 C2.00124374,33.1767068 2.00437575,33.1100402 2.00922815,33 C2.01015452,33.0811245 2.02422648,33.1542169 2.04760622,33.2208835 C2.11112855,33.4016064 2.26552309,33.5277108 2.43487185,33.6120482 C2.52578818,33.6915663 2.63915789,33.7493976 2.7476752,33.8176707 C2.7476752,33.8176707 2.85619251,33.8819277 2.89412945,33.9100402 C2.94794698,33.951004 2.97172374,33.9686747 3,34" id="Fill-148" fill="#F2F2F2" transform="translate(2.500000, 33.500000) scale(-1, 1) translate(-2.500000, -33.500000) "></path>
        <path d="M76,25.9844743 C78.511307,26.1285486 80.5334526,25.2685671 82.7195914,23.4599187 C83.1731358,23.0848156 83.0653619,22.6675788 82.4768814,22.5340722 C81.1313111,22.228387 80.0312203,22.0957458 78.3988684,22 C77.1897404,23.257404 76.5473729,24.2528963 76,25.9844743" id="Fill-150" fill="#891214" transform="translate(79.500000, 24.000000) scale(-1, 1) translate(-79.500000, -24.000000) "></path>
        <path d="M77,25 L80.7922039,25 C81.1899681,24.716306 81.5913582,24.3844494 82,24 L77.4158936,24 C77.2651604,24.3176577 77.1280361,24.6473562 77,25" id="Fill-152" fill="#E2272C" transform="translate(79.500000, 24.500000) scale(-1, 1) translate(-79.500000, -24.500000) "></path>
        <path d="M76,23 L80.7483456,23 C81.0345126,22.7497266 81.1167702,22.6458612 80.7818056,22.5620695 C79.5872443,22.2580908 78.6004269,22.1139824 77.0123803,22.00959 C77.0123803,22.00959 76.7885227,21.999146 76.7321931,22.0000562 C76.4003325,22.395492 76.2508811,22.6091634 76,23" id="Fill-154" fill="#E2272C" transform="translate(78.500000, 22.500000) scale(-1, 1) translate(-78.500000, -22.500000) "></path>
        <path d="M81.8196403,23.8215403 L81.8196403,24.1784597 C81.9404436,24.1762561 82.0606834,24.1732655 82.1803597,24.169299 L82.1803597,23.8215403 L81.8196403,23.8215403 Z" id="Fill-156" fill="#F2F2F2" transform="translate(82.000000, 24.000000) scale(-1, 1) translate(-82.000000, -24.000000) "></path>
        <path d="M80.8196403,23.8215403 L80.8196403,24.1784597 C80.9403027,24.1743564 81.0606834,24.1696069 81.1803597,24.1636297 L81.1803597,23.8215403 L80.8196403,23.8215403 Z" id="Fill-158" fill="#6C8187" transform="translate(81.000000, 24.000000) scale(-1, 1) translate(-81.000000, -24.000000) "></path>
        <path d="M80.8196403,23.8215403 L80.8196403,24.1784597 C80.9403732,24.1721896 81.0605425,24.1646723 81.1803597,24.1563797 L81.1803597,23.8215403 L80.8196403,23.8215403 Z" id="Fill-160" fill="#F2F2F2" transform="translate(81.000000, 24.000000) scale(-1, 1) translate(-81.000000, -24.000000) "></path>
        <path d="M82.09541,23.8215403 C81.9989786,23.9340448 81.9079007,24.0507612 81.8196403,24.1729062 C81.9406549,24.1756517 82.0607539,24.1773365 82.1803597,24.1784597 L82.1803597,23.8215403 L82.09541,23.8215403 Z" id="Fill-162" fill="#6C8187" transform="translate(82.000000, 24.000000) scale(-1, 1) translate(-82.000000, -24.000000) "></path>
        <path d="M81.8196403,24 L81.8196403,24.9968758 C81.940514,25.0001871 82.0606834,25.0006228 82.1803597,24.9993157 L82.1803597,24 L81.8196403,24 Z" id="Fill-164" fill="#F2F2F2" transform="translate(82.000000, 24.500000) scale(-1, 1) translate(-82.000000, -24.500000) "></path>
        <path d="M81.8196403,24 L81.8196403,25 C81.940514,24.9986048 82.0606834,24.9948552 82.1803597,24.9886641 L82.1803597,24 L81.8196403,24 Z" id="Fill-166" fill="#6C8187" transform="translate(82.000000, 24.500000) scale(-1, 1) translate(-82.000000, -24.500000) "></path>
        <path d="M79.8196403,23.8215403 L79.8196403,24.1784597 C79.9401618,24.1556035 80.0603312,24.1308254 80.1803597,24.1046447 L80.1803597,23.8215403 L79.8196403,23.8215403 Z" id="Fill-168" fill="#F2F2F2" transform="translate(80.000000, 24.000000) scale(-1, 1) translate(-80.000000, -24.000000) "></path>
        <path d="M78.8196403,23.8215403 L78.8196403,24.1784597 C78.940021,24.1249544 79.0602608,24.0687459 79.1803597,24.0090884 L79.1803597,23.8215403 L78.8196403,23.8215403 Z" id="Fill-170" fill="#F2F2F2" transform="translate(79.000000, 24.000000) scale(-1, 1) translate(-79.000000, -24.000000) "></path>
        <path d="M80.8196403,23.8215403 L80.8196403,24.1784597 C80.9403027,24.1695843 81.0604721,24.1594513 81.1803597,24.148384 L81.1803597,23.8215403 L80.8196403,23.8215403 Z" id="Fill-172" fill="#6C8187" transform="translate(81.000000, 24.000000) scale(-1, 1) translate(-81.000000, -24.000000) "></path>
        <path d="M78.8196403,23.95 L78.8196403,24.05 C78.9399505,24.0181412 79.0602608,23.9852386 79.1803597,23.95 L78.8196403,23.95 Z" id="Fill-174" fill="#6C8187" transform="translate(79.000000, 24.000000) scale(-1, 1) translate(-79.000000, -24.000000) "></path>
        <path d="M79.8196403,23.8215403 L79.8196403,24.1784597 C79.9400914,24.1453218 80.0603312,24.1096954 80.1803597,24.0723007 L80.1803597,23.8215403 L79.8196403,23.8215403 Z" id="Fill-176" fill="#6C8187" transform="translate(80.000000, 24.000000) scale(-1, 1) translate(-80.000000, -24.000000) "></path>
        <path d="M79.8196403,23.8215403 L79.8196403,24.1784597 C79.9401618,24.1619749 80.0604721,24.1444737 80.1803597,24.1252046 L80.1803597,23.8215403 L79.8196403,23.8215403 Z" id="Fill-178" fill="#6C8187" transform="translate(80.000000, 24.000000) scale(-1, 1) translate(-80.000000, -24.000000) "></path>
        <path d="M79.8196403,23.8215403 L79.8196403,24.1784597 C79.9402323,24.1663348 80.0604721,24.1530327 80.1803597,24.1384357 L80.1803597,23.8215403 L79.8196403,23.8215403 Z" id="Fill-180" fill="#F2F2F2" transform="translate(80.000000, 24.000000) scale(-1, 1) translate(-80.000000, -24.000000) "></path>
        <path d="M12,28 L8.70759311,27.7664222 C7.27562903,27.6647964 5.91563092,27.0701292 4.83844895,26.0745599 L3.20428791,24.5641505 C2.86503352,24.2506446 2.95824796,23.9980435 3.41018653,24 C6.36728105,24.0126768 8.72956268,24.7566037 11.0104079,26.3590515 L12,28 Z" id="Fill-182" fill="#AFCDD7" transform="translate(7.500000, 26.000000) scale(-1, 1) translate(-7.500000, -26.000000) "></path>
        <path d="M7.93514429,26.8215403 L4,26.8215403 L4,27.1784597 L8,27.1784597 C7.99508925,27.0674655 7.97121287,26.9567664 7.93514429,26.8215403" id="Fill-184" fill="#F2F2F2" transform="translate(6.000000, 27.000000) scale(-1, 1) translate(-6.000000, -27.000000) "></path>
        <path d="M10.880151,25 L7,25 C7.72000915,25.4961314 8.16057383,25.8010158 8.45084436,26 L11,26 C10.9896822,25.685474 10.9442433,25.3742015 10.880151,25" id="Fill-186" fill="#F2F2F2" transform="translate(9.000000, 25.500000) scale(-1, 1) translate(-9.000000, -25.500000) "></path>
        <path d="M8.87133675,26 L5,26 L5,26.7481136 C5.11006067,26.8356543 5.22223148,26.9192688 5.33595713,27 L9,27 C8.98867186,26.7132078 8.94807935,26.4015091 8.87133675,26" id="Fill-188" fill="#F2F2F2" transform="translate(7.000000, 26.500000) scale(-1, 1) translate(-7.000000, -26.500000) "></path>
        <path d="M5,27 C5.43086367,27.2157798 5.88505165,27.3999245 6.35735383,27.54894 C6.450954,27.5777421 6.54455416,27.6065442 6.63815432,27.6334105 C7.34987906,27.8330422 8.09601474,27.9577884 8.86196093,28 C8.9628916,27.6026725 9.01220586,27.3205534 8.9974237,27 L5,27 Z" id="Fill-190" fill="#6C8187" transform="translate(7.000000, 27.500000) scale(-1, 1) translate(-7.000000, -27.500000) "></path>
        <path d="M4,27 L4,27.0607128 C4.08718752,27.1106923 4.17437504,27.1605899 4.26156255,27.2072921 C4.92452628,27.5536256 5.61954341,27.7700942 6.33301382,27.8433429 C6.33989853,27.8467022 6.34678324,27.8467022 6.35361152,27.8467022 L7.93653053,28 C7.98692435,27.6109791 8.00447472,27.3050389 7.99905724,27 L4,27 Z" id="Fill-192" fill="#6C8187" transform="translate(6.000000, 27.500000) scale(-1, 1) translate(-6.000000, -27.500000) "></path>
        <path d="M7,26 C7.54395888,26.5382286 7.63774489,26.6187239 7.88821926,26.82077 C8.52255918,27.3355095 9.17177344,27.7122089 9.8648939,28 C9.9109506,27.6743842 9.94506003,27.376161 9.96686379,27.0971194 C9.99840456,26.7085745 10.0056924,26.3529412 9.99601511,26 L7,26 Z" id="Fill-194" fill="#6C8187" transform="translate(8.500000, 27.000000) scale(-1, 1) translate(-8.500000, -27.000000) "></path>
        <path d="M3.80039519,24.4318801 C3.68155685,24.3220809 3.71482389,24.23297 3.87308271,24.2369058 C6.566319,24.3036129 8.74242584,25.0058533 10.87767,26.4912706 L11.479217,27.4888485 L8.84011172,27.3015945 C7.48111459,27.205167 6.19043027,26.6407811 5.16814175,25.695933 L3.80039519,24.4318801 Z M3.20428056,24.5641841 L4.8384519,26.0745787 C5.91559258,27.0701383 7.27559926,27.6647997 8.70757236,27.766374 L12,28 L11.0104497,26.3590675 C8.72954207,24.7566354 6.36729363,24.0127157 3.40498851,24 C2.95756602,24 2.86632202,24.2518922 3.20428056,24.5641841 L3.20428056,24.5641841 Z" id="Fill-196" fill="#839AA3" transform="translate(7.500000, 26.000000) scale(-1, 1) translate(-7.500000, -26.000000) "></path>
        <path d="M11,23.9786808 L11,24.1784597 L9.3773783,24.1784597 L9.10517735,24.0123552 C8.92979526,23.9049716 8.97909262,23.8180491 9.21321953,23.8216482 C9.78454319,23.8311146 10.3407367,23.8531533 10.8826524,23.8887014 C10.949353,23.8930401 11,23.9321873 11,23.9786808" id="Fill-198" fill="#FFA12F" transform="translate(10.000000, 24.000000) scale(-1, 1) translate(-10.000000, -24.000000) "></path>
        <path d="M10,24 L10,24.897816 C10,24.9855917 9.91892483,25.032357 9.86735543,24.9743613 L9,24 L10,24 Z" id="Fill-200" fill="#D76D00" transform="translate(9.500000, 24.500000) scale(-1, 1) translate(-9.500000, -24.500000) "></path>
        <path d="M1.08157317,25.4628592 C2.07426542,26.8930658 2.44392906,27.6375685 3,28 C2.63320086,27.0130128 1.97823308,25.7983613 1.10484723,25.0612085 C1.07863706,25.039159 1.0524985,25.0171697 1.02628834,25 C0.982604721,25.1665763 0.988405332,25.3281523 1.08157317,25.4628592" id="Fill-202" fill="#131313" transform="translate(2.000000, 26.500000) scale(-1, 1) translate(-2.000000, -26.500000) "></path>
        <path d="M2.03947649,26.0669207 C2.13441154,26.0669207 2.18101418,26 2.18035279,25.9330793 L1.81964027,25.9330793 L1.89865107,26.0669207 L2.03947649,26.0669207 Z" id="Fill-204" fill="#818181" transform="translate(2.000000, 26.000000) scale(-1, 1) translate(-2.000000, -26.000000) "></path>
        <path d="M3.06284631,25.9330793 L2.81964027,25.9330793 L2.88453138,26.0669207 L3.18035973,26.0669207 C3.17981723,26 3.14034007,25.9330793 3.06284631,25.9330793" id="Fill-206" fill="#E7E7E7" transform="translate(3.000000, 26.000000) scale(-1, 1) translate(-3.000000, -26.000000) "></path>
        <path d="M2.060514,27.0669207 C2.14315051,27.0669207 2.18260635,27 2.18026107,26.9330793 L1.81964027,26.9330793 L1.89179202,27.0669207 L2.060514,27.0669207 Z" id="Fill-208" fill="#818181" transform="translate(2.000000, 27.000000) scale(-1, 1) translate(-2.000000, -27.000000) "></path>
        <path d="M2.07041256,26.9330793 L1.81964027,26.939664 L1.87726109,27.0669207 L2.18035973,27.0669207 C2.17838879,27 2.14136616,26.9330793 2.07041256,26.9330793" id="Fill-210" fill="#E7E7E7" transform="translate(2.000000, 27.000000) scale(-1, 1) translate(-2.000000, -27.000000) "></path>
        <path d="M2.03479621,27.0669207 C2.13516879,27.0669207 2.18303708,27 2.1802443,26.9330793 L1.81964027,26.9330793 L1.91582369,27.0669207 L2.03479621,27.0669207 Z" id="Fill-212" fill="#818181" transform="translate(2.000000, 27.000000) scale(-1, 1) translate(-2.000000, -27.000000) "></path>
        <path d="M2.05484224,26.9330793 L1.81964027,26.9330793 L1.89562996,27.0669207 L2.18035973,27.0669207 C2.17811047,27 2.13581557,26.9330793 2.05484224,26.9330793" id="Fill-214" fill="#E7E7E7" transform="translate(2.000000, 27.000000) scale(-1, 1) translate(-2.000000, -27.000000) "></path>
        <path d="M1.95668515,27.9330793 L1.81964027,27.9330793 L1.87612228,28.0669207 L2.1802931,28.0669207 C2.18293319,28 2.1070905,27.9330793 1.95668515,27.9330793" id="Fill-216" fill="#E7E7E7" transform="translate(2.000000, 28.000000) scale(-1, 1) translate(-2.000000, -28.000000) "></path>
        <path d="M1.94355246,28.0669207 C2.04021179,28.0669207 2.08811668,28 2.08972138,27.9330793 L1.91027862,27.9330793 L1.94355246,28.0669207 Z" id="Fill-218" fill="#818181" transform="translate(2.000000, 28.000000) scale(-1, 1) translate(-2.000000, -28.000000) "></path>
        <path d="M2.94641547,27.8261687 C2.84438465,27.7935996 2.75042822,27.7503848 2.66648611,27.6964271 C2.20404427,27.4 1.92479651,26.7874099 1.22148645,25.7401442 C1.06896453,25.5117719 1.00604727,25.2529693 1.02597107,25 C0.961638176,25.2991979 1.01590431,25.6172567 1.19904596,25.8915661 C1.90240846,26.9388803 2.18160378,27.5514219 2.64404562,27.847849 C2.7485407,27.9150288 2.86787376,27.9664101 3,28 C2.96744032,27.8843069 2.98752141,27.9534311 2.94887973,27.8280645 C2.9479884,27.8274812 2.94725437,27.826752 2.94641547,27.8261687" id="Fill-220" fill="#818181" transform="translate(2.000000, 26.500000) scale(-1, 1) translate(-2.000000, -26.500000) "></path>
        <path d="M1.20694382,25.8281125 C1.93803156,26.9184848 2.22830839,27.5562898 2.70906915,27.8649181 C2.79627211,27.9210968 2.89393941,27.9660904 3,28 C2.57575764,27.6925863 2.21010477,27.0223394 1.45836083,25.8252783 C1.38750843,25.7121112 1.3719209,25.4920021 1.46719013,25.3891597 C1.49046242,25.269565 1.13925253,24.970654 1.01526083,25.0023367 C1.01046467,25.0205568 1.00768508,25.0391312 1.00370644,25.0575032 C0.983050245,25.3208849 1.04845246,25.5903401 1.20694382,25.8281125" id="Fill-222" fill="#F2F2F2" transform="translate(2.000000, 26.500000) scale(-1, 1) translate(-2.000000, -26.500000) "></path>
        <path d="M40,23.9100822 C40.5915304,24.2360224 42.2388451,24.2764329 43,23.9686615 C42.5809483,23.8762238 41.9937284,23.8215403 41.3444721,23.8215403 C40.8406081,23.8215403 40.3803153,23.8518571 40,23.9100822" id="Fill-224" fill="#CDCDCA" transform="translate(41.500000, 24.000000) scale(-1, 1) translate(-41.500000, -24.000000) "></path>
        <path d="M40,25.0909171 C40.3742313,25.1490689 40.8354719,25.1784597 41.3445448,25.1784597 C41.9986523,25.1784597 42.5886417,25.1233231 43,25.0322019 C42.2578012,24.7302761 40.6043391,24.755558 40,25.0909171" id="Fill-226" fill="#F2F2F2" transform="translate(41.500000, 25.000000) scale(-1, 1) translate(-41.500000, -25.000000) "></path>
        <path d="M43.4311006,24.1439763 C42.9567739,24.6971623 41.9244931,24.8477542 41.2236457,24.380484 C41.0657722,24.2776811 40.9317058,24.1491121 40.8334006,24 C40.3034399,24.2416435 40.0044891,24.615773 40,25 L44,25 C43.9988903,24.6719185 43.7817512,24.3644673 43.4311006,24.1439763" id="Fill-228" fill="#F2F2F2" transform="translate(42.000000, 24.500000) scale(-1, 1) translate(-42.000000, -24.500000) "></path>
        <path d="M40.0000503,25 C39.9959145,25.3575905 40.2467845,25.7237987 40.8066272,26 C41.3318201,25.1259575 42.8168154,25.0567549 43.463812,25.8457521 C43.7944217,25.6246518 44,25.3316504 44,25.0026114 C43.9998991,25 40.0000503,25 40.0000503,25" id="Fill-230" fill="#CDCDCA" transform="translate(42.000000, 25.500000) scale(-1, 1) translate(-42.000000, -25.500000) "></path>
        <path d="M56,23.9100822 C56.5915304,24.2360224 58.2388451,24.2764329 59,23.9686615 C58.5809483,23.8762238 57.9937284,23.8215403 57.3444721,23.8215403 C56.8406664,23.8215403 56.3803153,23.8518571 56,23.9100822" id="Fill-232" fill="#CDCDCA" transform="translate(57.500000, 24.000000) scale(-1, 1) translate(-57.500000, -24.000000) "></path>
        <path d="M56,25.0909171 C56.3742313,25.1490689 56.8354719,25.1784597 57.3445448,25.1784597 C57.9986523,25.1784597 58.5886417,25.1233231 59,25.0322019 C58.2578012,24.7302761 56.6043391,24.755558 56,25.0909171" id="Fill-234" fill="#F2F2F2" transform="translate(57.500000, 25.000000) scale(-1, 1) translate(-57.500000, -25.000000) "></path>
        <path d="M58.4311006,24.1439763 C57.9567235,24.6971623 56.9244931,24.8477542 56.2236457,24.380484 C56.0657722,24.2776811 55.9317058,24.1491121 55.8334006,24 C55.3034399,24.2416435 55.0044891,24.615773 55,25 L59,25 C58.9988903,24.6719185 58.7817512,24.3644673 58.4311006,24.1439763" id="Fill-236" fill="#F2F2F2" transform="translate(57.000000, 24.500000) scale(-1, 1) translate(-57.000000, -24.500000) "></path>
        <path d="M55.0000503,24 C54.9959145,24.3575905 55.2467845,24.7237987 55.8066272,25 C56.3318201,24.1259575 57.8168154,24.0567549 58.463812,24.8457521 C58.7944217,24.6246518 59,24.3316504 59,24.0026114 C58.9998991,24 55.0000503,24 55.0000503,24" id="Fill-238" fill="#CDCDCA" transform="translate(57.000000, 24.500000) scale(-1, 1) translate(-57.000000, -24.500000) "></path>
        <path d="M24.5616734,15 C28.2213881,16.1132871 32.4156358,17.9589513 38,20.8427578 C33.6819468,21.665133 34.6295011,19.1730029 23.4177918,15.4404106 C23.27917,15.3932583 23.1405024,15.3478198 23,15.3023813 L24.5616734,15 Z" id="Fill-240" fill="#AFCDD7" transform="translate(30.500000, 18.000000) scale(-1, 1) translate(-30.500000, -18.000000) "></path>
        <path d="M62,18.8038833 L62.8299821,18.9320947 C63.8497281,19.090242 64.9026022,18.9704577 65.8338944,18.5904787 L74,15.25871 L72.6421845,15 C69.1187208,15.8006887 65.7878137,17.0251369 62,18.8038833" id="Fill-242" fill="#AFCDD7" transform="translate(68.000000, 17.000000) scale(-1, 1) translate(-68.000000, -17.000000) "></path>
        <path d="M31.5489326,18.6368577 C33.7076235,16.7862244 36.018792,15.8404154 39.7899337,15.2651844 C42.257447,15.0613439 44.6249279,14.942452 47.0916866,15.0281227 C49.6149465,15.1161407 52.1395268,15.4907811 54.5953909,16.1416172 C57.030692,16.7870368 59.4008612,17.7045899 61.6401063,18.8687736 C62.1161681,19.1161717 62.569639,19.3596879 63,19.5981037 L63,22 L31.0953202,20.3354682 C30.8729474,19.7437621 31.0458936,19.0681906 31.5489326,18.6368577" id="Fill-244" fill="#AFCDD7" transform="translate(47.000000, 18.500000) scale(-1, 1) translate(-47.000000, -18.500000) "></path>
        <path d="M33,19.7819315 L33,22 L31,21.871076 L31.960681,19.2005751 C32.0207134,19.0337886 32.1856506,18.9551881 32.3267126,19.0261203 C32.46818,19.0975318 32.534698,19.292116 32.4746656,19.4593817 L32.0803,20.5545171 L32.6903121,20.661874 L33,19.7819315 Z" id="Fill-246" fill="#354C53" transform="translate(32.000000, 20.500000) scale(-1, 1) translate(-32.000000, -20.500000) "></path>
        <path d="M59.9787659,17.9883668 C57.772694,16.7881953 55.4376376,15.842232 53.0384142,15.1769074 C50.6189325,14.5059523 48.131706,14.1197309 45.6458269,14.0289921 C43.2156584,13.940673 40.883204,14.0632402 38.4522921,14.2733819 C35.6784282,14.7161405 33.7063963,15.3720655 32,16.4700047 L60,18 C59.9928445,17.9961378 59.9858749,17.992229 59.9787659,17.9883668" id="Fill-248" fill="#CCE2E9" transform="translate(46.000000, 16.000000) scale(-1, 1) translate(-46.000000, -16.000000) "></path>
        <path d="M62.9764323,18.367571 C62.9075811,18.9306884 62.7041778,19.393602 62.4571238,19.6302337 C62.3999729,19.6852752 62.3405719,19.7276149 62.2798209,19.7567822 L62.3644223,20 L61.1777529,19.932727 L61.1408523,19.6876274 C61.121952,19.5667242 61.1408523,19.4425278 61.1939532,19.3333856 C61.1980032,19.3239768 61.2025033,19.3150384 61.2074534,19.3061 C61.2034033,19.2995139 61.1998033,19.2929277 61.1962032,19.2863415 C61.0886514,19.1028697 61.0256504,18.8779991 61,18.636663 C61.0868514,18.4555434 61.2065534,18.2890074 61.3577558,18.1478752 C61.8140633,17.7211855 62.2766708,17.340599 62.7608788,17 C62.8225298,17.095029 62.8742806,17.2107574 62.9134312,17.3434217 C62.9966826,17.622393 63.0245831,17.9756939 62.9764323,18.367571" id="Fill-250" fill="#354C53" transform="translate(62.000000, 18.500000) scale(-1, 1) translate(-62.000000, -18.500000) "></path>
        <path d="M58.9288583,19.3746054 C59.9976002,18.598853 61.0730302,18.0063131 62.2740559,17.5346552 L62.5316614,20.6251278 L58.453064,20.4449384 C58.3811384,20.0540168 58.5562925,19.6447784 58.9288583,19.3746054 M58.1106499,20.7839772 L63,21 L62.666467,17 C61.1583322,17.5290535 59.8767739,18.2120215 58.6381408,19.1110123 C58.0529231,19.535411 57.8526059,20.2013515 58.1106499,20.7839772" id="Fill-252" fill="#2B3D44" transform="translate(60.500000, 19.000000) scale(-1, 1) translate(-60.500000, -19.000000) "></path>
        <path d="M44.0889531,19.7272283 L44.3721031,21.8305193 L45.913633,22 L45.2847335,20.224403 C45.6056845,20.0712859 45.8925431,19.5329683 45.9767687,18.8441052 C46.0729691,18.0573873 45.8609082,17.4260307 45.515963,17.2455629 C45.515963,17.2455629 45.0464443,17.0033808 44.9326838,17.0001548 C44.2238035,16.9802379 43.6774317,18.887352 44.2200055,19.7767401 L44.0889531,19.7272283 Z" id="Fill-254" fill="#354C53" transform="translate(45.000000, 19.500000) scale(-1, 1) translate(-45.000000, -19.500000) "></path>
        <path d="M45.9951222,18 L44,17.8619247 C44.085692,16.9073793 44.4719595,15.9847852 44.9232286,16.0001903 C45.0381307,16.0041842 45.5114425,16.2997338 45.5114425,16.2997338 C45.8288319,16.5005706 46.0347902,17.1584253 45.9951222,18" id="Fill-256" fill="#617E8C" transform="translate(45.000000, 17.000000) scale(-1, 1) translate(-45.000000, -17.000000) "></path>
        <path d="M26.9062079,19.0101111 C29.0548234,17.1465691 31.3552047,16.1941628 35.108745,15.6149194 C37.5647415,15.4096571 39.9211724,15.2899359 42.3764178,15.3762042 C44.8879005,15.4648361 47.4006977,15.8420897 49.8450992,16.4974656 C52.2690338,17.1473873 54.6281405,18.0713405 56.8569341,19.2436448 C57.330774,19.4927685 57.7821283,19.7379834 58.2104807,19.9780621 L58.2104807,22.3967124 L26.4547128,20.72057 C26.2333778,20.1247365 26.4055168,19.4444528 26.9062079,19.0101111 M57.0284159,18.9380239 C52.5220551,16.5676894 47.5145807,15.2094854 42.3894209,15.0286309 C39.9095775,14.9414535 37.5397679,15.0623565 35.0649944,15.2694824 C31.2644644,15.85468 28.9062027,16.8085408 26.6665184,18.7510788 C25.9929372,19.3354128 25.807044,20.2805922 26.2138966,21.0561893 C30.2327103,21.2685422 59.2177777,22.7995556 63,23 C62.1449383,21.7078382 58.4227087,19.6710777 57.0284159,18.9380239" id="Fill-258" fill="#131313" transform="translate(44.500000, 19.000000) scale(-1, 1) translate(-44.500000, -19.000000) "></path>
        <path d="M61,17 L60.5906882,16.9805518 L60.5574316,16.5436454 C60.26989,16.6666667 59.990023,16.797829 59.7162957,16.9380371 L59,16.9036635 C59.6467127,16.5337404 60.4518291,16.1711895 60.9237657,16 L61,17 Z" id="Fill-260" fill="#617E8C" transform="translate(60.000000, 16.500000) scale(-1, 1) translate(-60.000000, -16.500000) "></path>
        <path d="M44,15 L44.7633463,21.849632 L48,22 L45.7739439,15.0494447 C45.5592395,15.0381005 45.3458053,15.0298747 45.1311538,15.0236829 C44.7549317,15.0123386 44.3786566,15.0041129 44,15" id="Fill-262" fill="#131313" transform="translate(46.000000, 18.500000) scale(-1, 1) translate(-46.000000, -18.500000) "></path>
        <path d="M58,17.1630066 L58.3873432,20.9772766 L59,21 L58.593175,17 C58.3921818,17.0518908 58.1949449,17.1062405 58,17.1630066" id="Fill-264" fill="#131313" transform="translate(58.500000, 19.000000) scale(-1, 1) translate(-58.500000, -19.000000) "></path>
        <path d="M62,18.8036682 L62.8292732,18.9313722 C63.1222779,18.9776458 63.4172087,19 63.7121395,19 C64.4436642,19 65.169507,18.861139 65.8340523,18.589758 L74,15.2585785 L72.6422108,15 C72.5100818,15.0286953 72.3798307,15.0606413 72.2495797,15.0925874 C72.6816473,15.1708472 72.5463884,15.1453626 73.1113073,15.2525184 C73.2169527,15.272585 73.2344319,15.3923426 73.1371649,15.4320745 L65.7497863,18.4477265 C65.1197178,18.7046996 64.4149175,18.8403901 63.7121395,18.8403901 C63.4286689,18.8403901 63.1433203,18.8180359 62.8656279,18.7749328 L62.2623801,18.6823454 C62.1743101,18.7222378 62.0881181,18.7621704 62,18.8036682" id="Fill-266" fill="#2B3D44" transform="translate(68.000000, 17.000000) scale(-1, 1) translate(-68.000000, -17.000000) "></path>
        <path d="M23,15.3023796 C23.1405024,15.3478178 23.27917,15.393256 23.4177918,15.440452 C33.1800278,18.6912192 33.7236434,21 36.5514442,21 C36.9710249,21 37.4417517,20.9493324 38,20.842724 L37.7369765,20.7071124 C37.3921653,20.7612955 36.8834574,20.8374946 36.5514442,20.8252342 C35.3254537,20.7745666 34.5537683,20.3760812 33.1526429,19.5633345 C31.5016131,18.6038583 29.038715,17.1741799 24.0636076,15.4736299 C23.9596642,15.4369365 23.9687467,15.2918769 24.0782404,15.2709156 L24.8947875,15.1028732 L24.5616734,15 L23,15.3023796 Z" id="Fill-268" fill="#2B3D44" transform="translate(30.500000, 18.000000) scale(-1, 1) translate(-30.500000, -18.000000) "></path>
        <path d="M58.6425709,33.6601681 L25.3741266,33.0000889 C25.1721649,32.9958862 25.0046268,33.1411742 25,33.324665 L59,34 C59.004529,33.8165093 58.8445327,33.6643708 58.6425709,33.6601681" id="Fill-270" fill="#F2F2F2" transform="translate(42.000000, 33.500000) scale(-1, 1) translate(-42.000000, -33.500000) "></path>
        <path d="M25,34 C24.995471,34.1834907 25.1554673,34.3356292 25.3574753,34.3398319 L58.6258734,34.9999111 C58.8278351,35.0041138 58.9953732,34.8587838 59,34.675335 L25,34 Z" id="Fill-272" fill="#CDCDCA" transform="translate(42.000000, 34.500000) scale(-1, 1) translate(-42.000000, -34.500000) "></path>
        <path d="M12,33.3127793 L2.00085278,34 C1.9994933,33.9892761 2,33.9789991 2.00085278,33.9682752 C2.01726019,33.7783735 2.17575582,33.6251117 2.37822331,33.6103664 L11.4792287,33 C11.6048157,33.0397676 11.7412316,33.0759607 11.8542553,33.12958 C11.9273386,33.1639857 11.978436,33.2336908 12,33.3127793" id="Fill-274" fill="#F2F2F2" transform="translate(7.000000, 33.500000) scale(-1, 1) translate(-7.000000, -33.500000) "></path>
        <path d="M11.7682257,34.3545064 L2.7158468,34.9527897 L2.00135781,35 C2,35 2,34.6600858 2,34.6600858 C2.00135781,34.6600858 11.9882845,34 11.9882845,34 C12.0281292,34.1390558 11.9691347,34.3081545 11.7682257,34.3545064" id="Fill-276" fill="#CDCDCA" transform="translate(7.000000, 34.500000) scale(-1, 1) translate(-7.000000, -34.500000) "></path>
        <path d="M81,34 L72.7299489,33.3759643 C72.620006,33.363378 72.5051066,33.3459196 72.3893061,33.3219651 C72.2370081,33.2602517 72.1063382,33.1587495 72.018474,33.0280146 L72,33 L80.9972965,33.6788469 L81,34 Z" id="Fill-278" fill="#CDCDCA" transform="translate(76.500000, 33.500000) scale(-1, 1) translate(-76.500000, -33.500000) "></path>
        <path d="M82,33 L72.2452369,32.3320016 L72,32 L81.6116268,32.6584099 C81.8295066,32.6731922 81.9980459,32.8214143 82,33" id="Fill-280" fill="#F2F2F2" transform="translate(77.000000, 32.500000) scale(-1, 1) translate(-77.000000, -32.500000) "></path>
        <path d="M82.2446391,21.1884654 C82.1356688,21.2752297 82.0421975,21.3715105 81.9718684,21.4770293 C81.5053079,22.1850002 81.8322718,21.4897712 80,26 L80.0662951,25.9977304 L80.3678344,25.4664336 C80.9443206,24.0079259 81.6154989,23.1773143 82.6341295,22.2849842 C82.7208599,22.2089709 82.9998408,21.9709764 83,21.9707773 L83,21.4184962 C83,20.9713756 82.6533439,20.8630297 82.2446391,21.1884654" id="Fill-282" fill="#CDCDCA" transform="translate(81.500000, 23.500000) scale(-1, 1) translate(-81.500000, -23.500000) "></path>
        <path d="M56,33 C55.8186008,32.8465629 55.6927407,32.7280668 55.57707,32.6107355 C55.4614471,32.4934549 55.3559657,32.3772883 55.2153239,32.228358 C52.1573211,32.1251044 48.1504644,31.9457906 46.0622683,31.8246613 C41.8007255,31.5773389 32.993247,31.214255 27.9483676,31 L26,32.2361058 C31.0468407,32.3460438 41.0235121,32.6011141 46.0703528,32.7111027 C48.6043931,32.7663502 53.4659119,32.9447525 56,33" id="Fill-284" fill="#F2F2F2" transform="translate(41.000000, 32.000000) scale(-1, 1) translate(-41.000000, -32.000000) "></path>
        <path d="M8.93629512,28.4538397 C9.01429458,28.7385739 9.11312247,29.0558477 8.60801166,28.9916261 C7.1957071,28.8120781 6.13298584,28.671628 5.29869158,28.3806886 C4.37529794,28.0586222 3.72528813,27.6391891 3.16317771,27.1543237 C2.95793626,26.9772981 2.76439474,26.7915449 2.5735532,26.5986784 C2.38271165,26.4057614 2.19452723,26.2056806 2,26 C2.92210794,26.7768642 3.99880053,27.1909497 5.12512135,27.2790841 C6.06252918,27.352437 6.9998513,27.4257898 7.93721628,27.4991427 C8.06852966,27.6672892 8.22885713,27.7893758 8.41687012,27.850066 C8.56185484,27.9169109 8.71292523,28.0320355 8.82396732,28.2031586 C8.84775287,28.2396836 8.91563812,28.3784689 8.93629512,28.4538397" id="Fill-286" fill="#F2F2F2" transform="translate(5.500000, 27.500000) scale(-1, 1) translate(-5.500000, -27.500000) "></path>
        <path d="M78.4359133,25.7800362 C78.4349239,25.7795916 78.4344999,25.7795916 78.4335106,25.779147 C77.8699042,25.6062756 77.2841549,25.4721759 76.6458281,25.383517 C76.0354862,25.298771 75.8605105,25.5940928 76.2587521,26.0387652 C76.4677901,26.272106 76.6807856,26.5721854 76.9513996,27.0636771 C76.9523418,27.065011 76.9528129,27.0659002 76.9537552,27.0681234 C77.1153509,27.3620224 77.2543327,27.6674818 77.3716427,27.9809445 C77.4865972,28.408232 77.6816428,29.2178995 77.5289984,29.633182 C76.4331625,26.8876044 73.721369,24.9085655 70.4333902,24.9085655 C66.8137396,24.9085655 63.8927668,26.938292 63.0560494,30 C62.8590722,29.7790199 62.7267333,28.6861244 63.4734659,27.2273002 C63.765092,26.6768508 64.12032,26.2015435 64.5240738,25.7858164 C64.8703504,25.4296694 65.4909629,24.8544987 64.1273398,24.8103027 L27.0070054,23.6911742 C26.2767622,23.6689428 26.1844217,23.95306 26.8076725,24.3123194 C27.3735403,24.6382317 27.9063823,25.047734 28.4123702,25.5617239 C29.0450906,26.2024328 29.4921878,26.9711945 29.7998322,27.7910884 C29.9110176,28.1952552 30.1625511,29.2374631 29.8982973,29.5749357 C28.9193003,26.6684029 26.1062151,24.6671325 22.6217772,24.6671325 C19.0676129,24.6671325 16.210242,26.7502144 15.2873088,29.7541208 C15.1902571,29.5571506 15.1389046,29.0778417 15.2331295,28.5505129 C15.4757587,27.1583829 16.338859,25.900975 17.4912299,24.9645886 C17.6853332,24.8063011 17.8959259,24.6533491 18.123008,24.5079557 C19.0360476,23.92327 18.8867011,23.4163941 17.7847405,23.3679297 C15.6241629,23.2732239 13.2025823,23.2714454 10.9119743,23.9868518 C11.3345731,23.7054023 11.7585853,23.3848255 12.1887221,23.0264554 C12.6282814,22.6605266 12.5241628,22.2532474 11.9536309,22.1229715 C10.6486156,21.8246261 9.58203654,21.6947948 8,21.6014229 C9.40131313,21.0491505 15.1736736,20.9251883 17.6754396,21.0380793 L74.2145894,23.4168388 C76.3605622,23.4973164 78.1645455,23.9486138 80,24.5257408 C79.899038,24.5101789 79.6441596,24.4673612 79.1887234,24.4190301 C78.643161,24.363007 78.0778115,24.3341062 77.4884817,24.3318831 C77.3666959,24.3318831 77.1829102,24.351091 77.1167643,24.4483756 C77.0309725,24.5697145 77.1746655,24.7320037 77.2915516,24.8289771 C78.3578008,25.7143647 77.70812,25.1756535 78.4359133,25.7800362" id="Fill-288" fill="#F2F2F2" transform="translate(44.000000, 25.500000) scale(-1, 1) translate(-44.000000, -25.500000) "></path>
        <path d="M76.0406171,26.8485565 C75.8796925,27.4144907 76.2179197,28.0106074 76.6856987,27.9998567 L81.7529919,27.8833239 C81.811587,27.8833239 81.8683524,27.8810243 81.9251624,27.8764826 C82.7824448,27.7986982 83.5598451,27.1859669 84,26.2256493 L76.8792901,26 C76.6964537,26.0777269 76.5473553,26.1600529 76.4284693,26.25152 C76.2468379,26.3865646 76.1137605,26.5966916 76.0434286,26.8388406 C76.0424914,26.8421176 76.0415542,26.845337 76.0406171,26.8485565" id="Fill-290" fill="#F2F2F2" transform="translate(80.000000, 27.000000) scale(-1, 1) translate(-80.000000, -27.000000) "></path>
        <path d="M49.5899953,14.0045557 C45.3649733,14.0643243 40.9897751,14.7375324 38,15.7817989 L38.0746658,15.8040339 C44.258972,13.6438691 55.3374762,13.2084393 61.9211575,16 L62,15.9786077 C58.8623951,14.6482035 54.3918819,13.9357763 49.5899953,14.0045557" id="Fill-292" fill="#9A9A9A" transform="translate(50.000000, 15.000000) scale(-1, 1) translate(-50.000000, -15.000000) "></path>
        <path d="M78.9701343,26 L79,25.9765149 L78.1219668,25.4899916 C78.1122695,25.4899009 71.8061006,25.3010224 71.7964034,25.3007957 C70.9440018,25.2775372 70.7994537,25.0716569 70.5598452,24.730669 C70.493649,24.6368191 70.1065331,24.0938952 70.0395629,24 L70,24.0174098 C70.0507626,24.088636 70.476713,24.6846054 70.5257455,24.7544715 C70.7643524,25.0940539 70.9218757,25.3184775 71.7953107,25.342144 L78.104621,25.5150182 L78.9701343,26 Z" id="Fill-294" fill="#9A9A9A" transform="translate(74.500000, 25.000000) scale(-1, 1) translate(-74.500000, -25.000000) "></path>
        <path d="M45.0583796,22.0026822 L45,22 C46.2095867,25.9882812 46.1149418,29.3481069 45.5088594,33.9950187 L45.5633432,34 C46.1696548,29.351316 46.2664194,25.9914903 45.0583796,22.0026822" id="Fill-296" fill="#9A9A9A" transform="translate(45.500000, 28.000000) scale(-1, 1) translate(-45.500000, -28.000000) "></path>
        <path d="M71.0438263,21 C71.5501301,20.4196429 71.9869922,20.0379767 73.4493196,19.9184308 C77.7672103,19.4951519 78.4931459,19.4733759 80,19.0051309 L79.904993,19 C78.3685711,19.477416 77.6176206,19.4725679 73.4442666,19.8816661 C71.9630278,20.0028281 71.5135581,20.4097447 71,20.9984244 L71.0438263,21 Z" id="Fill-298" fill="#9A9A9A" transform="translate(75.500000, 20.000000) scale(-1, 1) translate(-75.500000, -20.000000) "></path>
        <path d="M23.9073364,24.9802116 L24,25 C22.0674876,23.5127627 19.1686258,23.0504811 15.8457859,22.5543209 C13.5325508,22.208853 10.9988435,21.8208037 8.24615528,21.0118109 L8,21 C10.7552052,21.8097181 13.5256523,22.2556302 15.8400527,22.6013054 C19.1574857,23.0966368 21.9717942,23.5469521 23.9073364,24.9802116" id="Fill-300" fill="#9A9A9A" transform="translate(16.000000, 23.000000) scale(-1, 1) translate(-16.000000, -23.000000) "></path>
        <path d="M9.03733442,27 L10.1168325,26.6369611 L12.978637,26.6622037 C13.2706697,26.6622037 13.5539264,26.530893 13.7766238,26.2926545 L14,26.0337182 L13.9594655,26 L13.7473866,26.2504606 C13.5333682,26.4794865 13.2601967,26.6058838 12.9787339,26.6058838 L10.1020927,26.596794 L9,26.954981 L9.03733442,27 Z" id="Fill-302" fill="#9A9A9A" transform="translate(11.500000, 26.500000) scale(-1, 1) translate(-11.500000, -26.500000) "></path>
        <path d="M63,32.956344 L61.2220516,32.9032452 C62.1884343,27.9959365 62.2109514,24.0734197 61.3257537,22.1368176 C61.3002439,22.0810273 61.2667532,22.022135 61.2257569,21.9605057 L61.1718394,21.9605057 C61.2184887,22.0286127 61.2562072,22.0933897 61.2840923,22.1543803 C62.1661547,24.0839574 62.1419749,28.0000877 61.1760673,32.9018766 L31.3199107,32.02716 C30.7333734,32.0112851 30.2559064,31.5918317 30.1846497,31.0297777 C30.0269825,29.7862888 29.6611034,28.5327639 29.1265835,27.4047786 C28.5035153,26.0899438 27.6943723,25.02523 26.721529,24.2402431 C26.3575025,23.946466 26.0538067,23.5852206 25.8188973,23.1665883 L24.0418514,20 L24,20.0216227 L25.7770459,23.1882566 C26.0148531,23.6119525 26.3223017,23.9776685 26.6910312,24.2751862 C28.4971972,25.7326671 29.78566,28.2597885 30.1375253,31.0352975 C30.2116323,31.6199321 30.7083386,32.056264 31.3186281,32.0727775 L62.9986224,33 L63,32.956344 Z" id="Fill-304" fill="#9A9A9A" transform="translate(43.500000, 26.500000) scale(-1, 1) translate(-43.500000, -26.500000) "></path>
        <path d="M70,25.993454 L71.9580624,26.05 C71.9720637,26.0373955 71.9859323,26.0245822 72,26.0120474 C71.9763106,26.011351 71.1635036,25.9857939 70.0282681,25.95 C70.0189117,25.9644847 70.0093563,25.9789694 70,25.993454" id="Fill-306" fill="#CDCDCD" transform="translate(71.000000, 26.000000) scale(-1, 1) translate(-71.000000, -26.000000) "></path>
        <polygon id="Fill-308" fill="#4C4C4C" transform="translate(47.000000, 18.500000) scale(-1, 1) translate(-47.000000, -18.500000) " points="46.0681368 15.0008245 46.025728 15 46 15.0028398 47.9293186 21.9974808 48 22"></polygon>
        <path d="M11,26.95895 C11.0083326,26.98105 11.0170758,27.00255 11.0256137,27.02455 L12,27.04105 C11.9947459,27.01575 11.9898202,26.99015 11.9845251,26.96495 L11,26.95895 Z" id="Fill-310" fill="#CDCDCD" transform="translate(11.500000, 27.000000) scale(-1, 1) translate(-11.500000, -27.000000) "></path>
        <path d="M73.5,22.0532295 C73.1135717,22.0532295 72.7502021,22.2037393 72.4769712,22.4769688 C72.2036804,22.7502583 72.0532297,23.1135661 72.0532297,23.4999925 C72.0532297,23.8864788 72.2036804,24.2497866 72.4769712,24.5230162 C73.0411014,25.0871436 73.9588986,25.0871436 74.5230288,24.5230162 C74.7963196,24.2497267 74.9467703,23.8864189 74.9467703,23.4999925 C74.9467703,23.1135661 74.7963196,22.7502583 74.5230288,22.4769688 C74.2497979,22.2037393 73.8864283,22.0532295 73.5,22.0532295 M73.5,25 C73.115668,25 72.7313958,24.8536826 72.4388195,24.5611677 C71.8537268,23.976018 71.8537268,23.023967 72.4388195,22.4388173 C73.0239721,21.8537276 73.9760279,21.8537276 74.5611805,22.4388173 C75.1462732,23.023967 75.1462732,23.976018 74.5611805,24.5611677 C74.2686042,24.8536826 73.8842722,25 73.5,25" id="Fill-312" fill="#9A9A9A" transform="translate(73.500000, 23.500000) scale(-1, 1) translate(-73.500000, -23.500000) "></path>
        <path d="M72.2876521,23.3371058 C72.1239447,23.5231063 72.0281821,23.7574126 72,24 C72.012188,23.9988039 72.0244164,23.9975157 72.0366044,23.9963656 C72.0657988,23.7586548 72.1614399,23.5390702 72.3134452,23.3664113 C72.4981678,23.1564879 72.7438301,23.040922 73.0050817,23.040922 C73.2663333,23.040922 73.5119551,23.1564879 73.6967182,23.3664113 C73.8339846,23.5223702 73.925374,23.7166517 73.9632741,23.9279553 C73.9755431,23.9281393 73.9877311,23.9283693 74,23.9285534 C73.9625048,23.7117291 73.8700626,23.5047961 73.7225113,23.3371058 C73.3269087,22.8876314 72.6832547,22.8876314 72.2876521,23.3371058" id="Fill-314" fill="#CDCDCD" transform="translate(73.000000, 23.500000) scale(-1, 1) translate(-73.000000, -23.500000) "></path>
        <path d="M45.1803597,24 C45.1015505,23.3436935 44.9950253,22.6816817 44.8574926,22.0019159 L44.8196403,22 C44.9574348,22.6799361 45.0641844,23.3421607 45.143218,23.9986376 L45.1803597,24 Z" id="Fill-316" fill="#CDCDCD" transform="translate(45.000000, 23.000000) scale(-1, 1) translate(-45.000000, -23.000000) "></path>
        <path d="M25.8196403,23 C25.9706772,23.5406726 26.0801466,24.2124174 26.1475702,24.9985149 L26.1803597,25 C26.1134485,24.2159145 26.005038,23.5444572 25.8554697,23.0022037 L25.8196403,23 Z" id="Fill-318" fill="#CDCDCD" transform="translate(26.000000, 24.000000) scale(-1, 1) translate(-26.000000, -24.000000) "></path>
        <path d="M61.0795711,21.002985 L61,21 L62.9235708,24 C62.9483642,23.9991389 62.9738406,23.9985075 63,23.9981631 L61.0795711,21.002985 Z" id="Fill-320" fill="#CDCDCD" transform="translate(62.000000, 22.500000) scale(-1, 1) translate(-62.000000, -22.500000) "></path>
        <path d="M30.9606948,22.8536552 C30.5507486,22.9459893 30.2914185,23.0731247 29.7844261,22.9472634 C29.7235407,22.9325784 29.6699245,22.8843662 29.6322821,22.8150318 L29,21.4468513 C29.3172523,21.4237846 29.6504319,21.3671235 30.006762,21.2832383 C30.1473308,21.249644 30.2690553,21.1447037 30.3559154,21 L30.9940313,22.7550851 C31.0099125,22.7949825 30.9925034,22.8452734 30.9606948,22.8536552" id="Fill-322" fill="#B4B4B4" transform="translate(30.000000, 22.000000) scale(-1, 1) translate(-30.000000, -22.000000) "></path>
        <path d="M31,22.0051516 L31.5800943,22.8823117 C31.6150121,22.9267994 31.6640754,22.9581343 31.7196381,22.9673327 C31.8229897,22.9856436 31.9160189,22.9960885 32,23 L31.5876131,22.2648567 C31.5249565,22.1531861 31.2835054,21.9877004 31.0784589,22.0007244 C31.0522068,22.0024437 31.0260822,22.0039051 31,22.0051516" id="Fill-324" fill="#131313" transform="translate(31.500000, 22.500000) scale(-1, 1) translate(-31.500000, -22.500000) "></path>
        <path d="M32.986475,21.2537569 C33.0623527,21.551133 32.8106298,21.8401723 32.4403149,21.8879588 C31.2984354,22.0354006 30.3647155,22.0633763 29.4277588,21.8112082 C29.125044,21.7297306 28.9493049,21.4752419 29.0129785,21.2220425 C29.1396889,20.7177492 29.5036895,20.3682033 30.2304173,20.1060224 C30.5604587,19.9869431 30.9341164,19.9669174 31.2797578,20.0523056 C31.8833834,20.2013375 32.249984,20.4259596 32.708646,20.831414 C32.8441646,20.9513098 32.945724,21.0938957 32.986475,21.2537569" id="Fill-326" fill="#DFDFDC" transform="translate(31.000000, 21.000000) scale(-1, 1) translate(-31.000000, -21.000000) "></path>
        <path d="M30.4967924,20.8087432 C30.1796318,20.9713257 30.0858611,21.0347725 30.0285862,20.9816097 C29.9979768,20.9532852 29.9963874,20.8972027 30.00351,20.8608603 C30.1029906,20.3588199 31.2043995,19.9323406 32.0844199,20.0089474 C32.8374113,20.0581448 33.1006522,20.4692418 32.9664417,20.5860258 C32.9311821,20.616529 32.8722001,20.5984014 32.8263448,20.5770491 C32.2688416,20.2760253 31.0929106,20.5438441 30.4967924,20.8087432" id="Fill-328" fill="#F2F2F2" transform="translate(31.500000, 20.500000) scale(-1, 1) translate(-31.500000, -20.500000) "></path>
    </g>
</svg>