<?xml version="1.0" encoding="UTF-8"?>
<svg width="84px" height="50px" viewBox="0 0 84 50" version="1.1" xmlns="http://www.w3.org/2000/svg" xmlns:xlink="http://www.w3.org/1999/xlink">
    <title>Auto/compacto/LateralD</title>
    <defs>
        <polygon id="path-1" points="2.22355243e-05 0.000190271301 83.3205816 0.000190271301 83.3205816 22.3956504 2.22355243e-05 22.3956504"></polygon>
    </defs>
    <g id="Auto/compacto/LateralD" stroke="none" stroke-width="1" fill="none" fill-rule="evenodd">
        <g id="Group-3" transform="translate(0.000000, 13.000000)">
            <mask id="mask-2" fill="white">
                <use xlink:href="#path-1"></use>
            </mask>
            <g id="Clip-2"></g>
            <path d="M82.5623436,18.742489 C82.9471048,18.5457484 82.8301541,18.6062547 83.1036556,18.4625047 C83.2319409,18.3962903 83.3092441,18.2638615 83.3092441,18.1219667 C83.3092441,17.3822394 83.3469946,17.1665669 83.2847253,16.6803762 C83.2168597,16.1676901 83.07392,15.8475111 82.604315,15.6507706 C82.5778042,15.5489754 82.5571268,15.4842832 82.5571268,15.4842832 C82.1968371,15.2042514 81.8550432,14.5387775 81.2137113,13.4358224 C81.1533863,13.331744 81.1401547,13.1293429 81.2212993,13.0328278 C77.57828,9.43489261 68.5532517,8.34111803 63.5193442,7.84726887 L61.9778808,7.96618844 C56.2695859,4.8853631 51.8349915,2.83766337 48.0808548,1.64195095 C44.8913159,0.624094623 42.0921818,0.1701073 39.1553722,0.0811554665 C31.4444506,-0.175948628 26.0464119,0.146989337 21.041576,1.51608648 L21.0308105,1.51832217 C17.5658731,2.46596838 14.2592412,3.93172335 10.5355989,6.03493473 L4.37591041,6.97135494 C3.8779451,7.01107407 3.0291751,7.36483599 2.71038246,8.00429026 C2.29351436,8.84995106 2.58589113,8.01941683 0.948676069,13.4074244 C0.754422176,13.4698809 0.595974359,13.5379505 0.469586023,13.6136785 C0.139506165,13.8047109 -0.0396664932,14.1774523 0.00747422206,14.5539041 L0.222500382,16.3171483 L0.597823944,16.5762978 L2.09171985,19.0565317 L1.98610378,19.2457565 L2.28976777,19.7508793 C2.38219961,19.9040952 2.51987516,20.0233002 2.68021999,20.0951752 C2.82733317,20.1292338 2.97254933,20.1519236 3.11022488,20.1670502 C12.1149552,20.93137 11.3604666,20.8708637 11.7433782,20.8897481 L11.7433782,20.4167813 L24.9335305,21.1413819 L24.9335305,21.6143488 L59.7884459,22.3654448 L59.7884459,21.8924303 L73.0691331,21.922731 L73.0691331,22.3956504 L82.9622334,21.6805632 C83.2771846,21.6010774 83.2470696,21.1962276 83.0376396,21.0921492 C82.8679046,21.0070504 82.6453378,20.9635258 82.483096,20.887893 C82.3548581,20.8291943 82.2643232,20.7516588 82.2643232,20.6192299 C82.3680423,19.4311284 82.3360302,19.7905984 82.4057928,18.9978806 C82.4057928,18.8900443 82.4680622,18.7935768 82.5623436,18.742489" id="Fill-1" fill="#DFDFDC" mask="url(#mask-2)"></path>
        </g>
        <path d="M12,31.356351 L12,32.3036184 L25,33 L25,31.356351 C25,27.7418227 22.1984503,25 18.5009115,25 C14.8033726,25 12,27.7418227 12,31.356351" id="Fill-4" fill="#000000"></path>
        <path d="M65.9994751,25 C69.9547936,25 73,28.2081519 73,32.0152962 L73,34 L59,33.9694343 L59,31.4627542 C59,27.655658 62.0452064,25 65.9994751,25" id="Fill-6" fill="#000000"></path>
        <path d="M61,32 C61,35.3136839 63.6862557,38 67.000074,38 C70.3136949,38 73,35.3136839 73,32 C73,28.6863161 70.3136949,26 67.000074,26 C63.6862557,26 61,28.6863161 61,32" id="Fill-8" fill="#3E3E3E"></path>
        <path d="M69.7700892,31.253918 C69.0824828,29.4480845 67.0609533,28.5421263 65.2549935,29.2303759 C63.4489846,29.9185274 62.5422778,31.9403035 63.2299823,33.7460879 C63.9175397,35.5518723 65.9390201,36.4578796 67.7450781,35.76963 C69.5509889,35.0814785 70.4576466,33.0597024 69.7700892,31.253918" id="Fill-10" fill="#131313"></path>
        <path d="M68.8357784,31.6099538 C68.3445831,30.3201146 66.9006627,29.6729513 65.6106984,30.1645363 C64.3207341,30.6561214 63.6730858,32.1002265 64.1642388,33.3900657 C64.6553918,34.6799049 66.0993122,35.3270682 67.3893189,34.8354409 C68.6792832,34.3439405 69.3268891,32.899793 68.8357784,31.6099538" id="Fill-12" fill="#4C4C4C"></path>
        <path d="M67.0323692,35.4946839 C65.0753237,35.5107981 63.5229169,33.928274 63.5090578,32.0287753 C63.4914403,30.1011825 65.0443639,28.5211953 66.9749127,28.505316 C68.9320521,28.4892489 70.484412,30.071679 70.4982711,31.9712247 C70.5159356,33.8987705 68.9630589,35.4788047 67.0323692,35.4946839 M66.967114,28.0001392 C64.7574101,28.0183205 62.9799691,29.8267248 63.0001705,32.0329565 C63.0160497,34.2071008 64.79288,36.018277 67.032933,35.9998608 C69.2425899,35.9816795 71.0200309,34.1733221 70.9998295,31.9671374 C70.9839033,29.7929462 69.207167,27.981723 66.967114,28.0001392" id="Fill-14" fill="#E7E7E7"></path>
        <path d="M69.132951,33.9938446 C68.9168025,34.3754689 68.4142125,34.9879687 68.3165364,34.5240535 L68.2357983,34.140406 C68.1463559,33.7155425 68.3870175,33.2906319 68.7973421,33.1488696 L69.1679093,33.020846 C69.6158741,32.8661448 69.3483468,33.6134906 69.132951,33.9938446 M67.3387396,29.9113438 L67.0469344,30.1731313 C66.7237938,30.4630547 66.235507,30.467054 65.9076143,30.1825413 L65.6115276,29.9255059 C65.2536169,29.6148804 66.0344146,29.4729299 66.4715107,29.469307 C66.9100184,29.4656841 67.6916159,29.5947899 67.3387396,29.9113438 M66.5212898,35.5307401 C66.0842407,35.5343159 65.3012317,35.4052101 65.6540139,35.0887032 L65.9458661,34.8269158 C66.2690068,34.5370394 66.7572935,34.5329931 67.0851862,34.8175057 L67.3812259,35.074447 C67.7392307,35.3851667 66.9597975,35.5271172 66.5212898,35.5307401 M64.1952702,31.8512715 L63.8247501,31.9792952 C63.3766912,32.1340434 63.6435128,31.387968 63.8596142,31.0062495 C64.075057,30.6258955 64.5783527,30.0122195 64.6760289,30.4760406 L64.756767,30.8597352 C64.8462565,31.2845987 64.6055477,31.7095563 64.1952702,31.8512715 M64.783962,34.1686832 L64.7095757,34.5536951 C64.6195687,35.0190218 64.1062042,34.4136266 63.8845508,34.0368955 C63.6621917,33.658847 63.3831371,32.9172884 63.8336896,33.0646497 L64.2062799,33.1865098 C64.6188629,33.3214498 64.866488,33.7424552 64.783962,34.1686832 M68.2085562,30.8312698 L68.2830366,30.4463049 C68.3729966,29.980837 68.8856553,30.5849148 69.1080615,30.9630104 C69.3297149,31.3397886 69.6093811,32.0825704 69.1590168,31.9353032 L68.7863324,31.8133961 C68.3737494,31.6785031 68.1261714,31.2574507 68.2085562,30.8312698 M66.4712284,29.0001222 C64.5377484,29.0160251 62.9825048,30.5983241 63.0001487,32.5287947 C63.0140285,34.4311764 64.5687545,36.0160161 66.5287237,35.9998778 C68.4622978,35.9839749 70.0175414,34.4016288 69.9998506,32.4712053 C69.9859708,30.5688236 68.4312447,28.9839839 66.4712284,29.0001222" id="Fill-16" fill="#CDCDCD"></path>
        <path d="M64.5857733,31.5857813 C63.8047422,32.366823 63.8047422,33.633177 64.5857733,34.4142187 C65.3668043,35.1952604 66.6331409,35.1952604 67.4142267,34.4142187 C68.1952578,33.633177 68.1952578,32.366823 67.4142267,31.5857813 C66.6331409,30.8047396 65.3668043,30.8047396 64.5857733,31.5857813" id="Fill-18" fill="#B4B4B4"></path>
        <path d="M65.0000457,32.9993448 C65.0019657,33.2607708 65.1035957,33.5011524 65.2700698,33.6807342 C65.2942882,33.663432 65.322783,33.651501 65.3540705,33.6461298 C65.4104492,33.6367083 65.4654315,33.6513249 65.50837,33.6828915 C65.5502176,33.7137537 65.5808506,33.7604652 65.590058,33.8162901 C65.595338,33.848385 65.5930253,33.8801277 65.5843852,33.9093609 C65.7128954,33.9685758 65.8561984,34.001199 66.0082288,33.9999663 C66.1572482,33.9986895 66.2982821,33.9646135 66.4248286,33.9046942 C66.4159704,33.8762094 66.4131776,33.844995 66.417934,33.8132523 C66.4264432,33.7561506 66.457338,33.7080303 66.5001456,33.6764637 C66.5422114,33.6457776 66.5957101,33.6309849 66.6512596,33.6393939 C66.6830708,33.6441927 66.7120456,33.6561237 66.7367876,33.6732498 C66.9022145,33.4915548 67.0022735,33.2486637 66.9999608,32.982791 C66.9996117,32.9431677 66.997168,32.9042928 66.9921934,32.8657701 C66.9625204,32.8654179 66.9326293,32.8582857 66.9041781,32.8440213 C66.8529486,32.818178 66.8170792,32.7737559 66.8008027,32.7227738 C66.7846571,32.6729805 66.787319,32.6170235 66.8122792,32.5665258 C66.8265484,32.5374687 66.8468831,32.5133865 66.8707524,32.4948515 C66.7293694,32.2425389 66.4829528,32.0563532 66.1886667,32 C66.1791538,32.0283527 66.1630519,32.0550764 66.1407972,32.0779259 C66.100695,32.1191342 66.0476327,32.1398264 65.9946141,32.1398264 C65.9426864,32.1398264 65.8906714,32.1200147 65.8507438,32.0804354 C65.8277472,32.057762 65.8113398,32.0308622 65.8012161,32.0021573 C65.5088937,32.0615042 65.2632189,32.2490988 65.1239304,32.5037888 C65.1477997,32.5216193 65.1681344,32.5451732 65.1827964,32.573702 C65.2091529,32.6248601 65.2122948,32.6820939 65.1958437,32.7331199 C65.1797854,32.7828692 65.1451379,32.8267191 65.0954793,32.8527384 C65.0668536,32.8677512 65.0364388,32.8752357 65.0064167,32.8759401 C65.0017912,32.9164439 64.999653,32.9576082 65.0000457,32.9993448" id="Fill-20" fill="#818181"></path>
        <polygon id="Fill-22" fill="#131313" points="65.9057012 30.8268516 65.8196403 31.0053113 65.9139155 31.1784597 66.0942516 31.1732015 66.1803597 30.9946887 66.0860845 30.8215403"></polygon>
        <polygon id="Fill-24" fill="#131313" points="67.1191761 31.8560138 66.9387444 31.8215403 66.8196403 31.965477 66.8807759 32.1439367 67.0612076 32.1784597 67.1803597 32.034523"></polygon>
        <polygon id="Fill-26" fill="#131313" points="67.1803597 33.0689027 67.1548749 32.8904195 66.9744897 32.8215403 66.8196403 32.9310502 66.8451251 33.1095334 67.0255103 33.1784597"></polygon>
        <polygon id="Fill-28" fill="#131313" points="64.9842927 33.1784597 65.1646263 33.1013917 65.1803597 32.9229554 65.0157596 32.8215403 64.8353215 32.8986551 64.8196403 33.0770914"></polygon>
        <polygon id="Fill-30" fill="#131313" points="64.8196403 32.0434644 64.9473354 32.1784597 65.1276709 32.1350683 65.1803597 31.9565843 65.0526646 31.8215403 64.8722806 31.8649317"></polygon>
        <path d="M66.5000687,27.7117778 C69.0311065,27.7117778 71.1863229,29.0823548 72,31 C71.5804113,28.7333906 69.2778696,27 66.5000687,27 C63.7221304,27 61.4195887,28.7333906 61,31 C61.8136771,29.0823548 63.9689392,27.7117778 66.5000687,27.7117778" id="Fill-32" fill="#585858"></path>
        <path d="M66.4999313,37.2882222 C63.9688935,37.2882222 61.8136771,35.9176452 61,34 C61.4195887,36.2666094 63.7221304,38 66.4999313,38 C69.2778696,38 71.5804113,36.2666094 72,34 C71.1863229,35.9176452 69.0311065,37.2882222 66.4999313,37.2882222" id="Fill-34" fill="#212121"></path>
        <path d="M66.4671967,28.38811 C67.9775475,28.3716504 69.2816157,29.4317448 70,30.9991055 C69.3992662,29.2329771 68.055906,27.9829411 66.4693145,28.000176 C64.9212037,28.0170531 63.5953267,29.2470513 63,31 C63.7111297,29.4486815 64.9951464,28.4041522 66.4671967,28.38811" id="Fill-36" fill="#CDCDCD"></path>
        <path d="M66.5328033,35.61189 C65.0224525,35.6283496 63.7183843,34.5682552 63,33.0008945 C63.6007789,34.7670229 64.944094,36.0170589 66.5306855,35.999824 C68.0787963,35.9829469 69.4046733,34.7529487 70,33 C69.2888703,34.5513185 68.0048986,35.5958478 66.5328033,35.61189" id="Fill-38" fill="#FAFAFA"></path>
        <path d="M66.5925608,28.5997242 C68.2449392,28.6514938 69.5980676,30.0944595 70,31.998803 C69.8211689,29.7686401 68.3272365,27.9808829 66.4712432,28.0001544 C64.6582905,28.0190069 63.17675,29.7716326 63,32 C63.4421351,29.8956402 65.0001554,28.51803 66.5925608,28.5997242" id="Fill-40" fill="#B4B4B4"></path>
        <path d="M66.4074392,35.400275 C64.7551081,35.3485054 63.4019324,33.9055401 63,32.001197 C63.1788311,34.2313594 64.6728108,36.019176 66.5288041,35.9998447 C68.3417095,35.9809922 69.82325,34.2283669 70,32 C69.5579122,34.1043593 67.9998919,35.4819692 66.4074392,35.400275" id="Fill-42" fill="#F5F5F5"></path>
        <path d="M67.5371077,31.2494987 C67.7402118,31.4718449 67.8941236,31.7273591 68,32 C67.9592359,31.5052541 67.7661025,31.0226899 67.420214,30.6439717 C66.6358916,29.7853428 65.3642185,29.7853428 64.5798411,30.6439717 C64.2338975,31.0226899 64.0407641,31.5052541 64,31.9999397 C64.1059865,31.7273591 64.2598984,31.4718449 64.4629474,31.2494987 C65.3118312,30.3201918 66.6882239,30.3201918 67.5371077,31.2494987" id="Fill-44" fill="#9A9A9A"></path>
        <path d="M64.4629474,32.7504636 C64.2598433,32.5281107 64.1059865,32.2725888 64,32 C64.0407641,32.4947005 64.2338975,32.9772792 64.5798411,33.3560089 C65.3641634,34.2146637 66.6358366,34.2146637 67.420214,33.3560089 C67.7661025,32.9772792 67.9592359,32.4947005 68,32 C67.8941236,32.2725888 67.7401567,32.5281107 67.5371077,32.7504636 C66.6881688,33.6797986 65.3118312,33.6797986 64.4629474,32.7504636" id="Fill-46" fill="#E7E7E7"></path>
        <path d="M67,33 C66.9508796,32.8348254 66.86525,32.6805431 66.7431806,32.5499105 C66.6441038,32.4437481 66.5280265,32.3611608 66.4026128,32.3058042 C66.2762933,32.2495524 66.1398014,32.2205312 65.9999652,32.2205312 C65.7186204,32.2205312 65.4551123,32.3375858 65.2559833,32.5499105 C65.13475,32.6805431 65.04919,32.8348254 65,33 C65.0160948,32.7495524 65.112733,32.5045509 65.2906811,32.3139361 C65.4797074,32.1116085 65.7322069,32 65.9999652,32 C66.1338791,32 66.2636126,32.0281259 66.3839401,32.0807968 C66.5042675,32.1342883 66.6144922,32.2123247 66.7093189,32.3139361 C66.8873367,32.5045509 66.9839749,32.7495524 67,33" id="Fill-48" fill="#CDCDCD"></path>
        <path d="M67,32 C66.9508796,32.1651 66.86525,32.3193823 66.7431806,32.4500895 C66.6441038,32.5562519 66.5280265,32.6388392 66.4026128,32.6941958 C66.2762933,32.7504476 66.1398014,32.7794688 65.9999652,32.7794688 C65.7186204,32.7794688 65.4551123,32.6624142 65.2559833,32.4500895 C65.13475,32.3193823 65.04919,32.1651 65,32 C65.0160948,32.2504476 65.112733,32.4954491 65.2906811,32.6859893 C65.4797074,32.8883915 65.7322069,33 65.9999652,33 C66.1338791,33 66.2636126,32.9717995 66.3839401,32.9192032 C66.5042675,32.8657117 66.6144922,32.7876007 66.7093189,32.6859893 C66.8873367,32.4954491 66.9839749,32.2504476 67,32" id="Fill-50" fill="#4C4C4C"></path>
        <path d="M13,32 C13,35.3136839 15.6862668,38 19.0000493,38 C22.3137332,38 25,35.3136839 25,32 C25,28.6863161 22.3137332,26 19.0000493,26 C15.6862668,26 13,28.6863161 13,32" id="Fill-52" fill="#3E3E3E"></path>
        <path d="M21.7700886,31.2539048 C21.0824802,29.4481262 19.060945,28.5421219 17.25498,29.2303693 C15.4489659,29.9185185 14.5423056,31.9403371 15.229963,33.7460667 C15.9175223,35.5518943 17.9390576,36.4578496 19.7450716,35.7696513 C21.5509876,35.081453 22.4576479,33.0596834 21.7700886,31.2539048" id="Fill-54" fill="#131313"></path>
        <path d="M20.8357545,31.6099573 C20.3446405,30.320077 18.9006679,29.6729567 17.6106948,30.1645412 C16.3206794,30.6560834 15.6730691,32.1002294 16.1642677,33.3900673 C16.6553818,34.6799053 18.099312,35.3270679 19.3893274,34.835441 C20.6793005,34.3438988 21.3269109,32.8997952 20.8357545,31.6099573" id="Fill-56" fill="#4C4C4C"></path>
        <path d="M19.0324158,35.494684 C17.0753231,35.5107982 15.5228692,33.9282742 15.509057,32.0287756 C15.4914395,30.101136 17.0443633,28.521196 18.9749123,28.5053167 C20.9320519,28.4892495 22.4844589,30.0716795 22.4982711,31.9712251 C22.5159355,33.8987707 20.9630118,35.4788047 19.0324158,35.494684 M18.9671136,28.0001399 C16.7574095,28.0183212 14.9800153,29.8267254 15.0001697,32.0329099 C15.016049,34.207101 16.7928794,36.018277 19.0329326,35.9998608 C21.2425897,35.9816795 23.0200309,34.1733223 22.9998295,31.9671378 C22.9839503,29.7929467 21.2071668,27.9816767 18.9671136,28.0001399" id="Fill-58" fill="#E7E7E7"></path>
        <path d="M21.1329981,33.9938578 C20.9168025,34.3754797 20.4142125,34.9879754 20.3165834,34.5240633 L20.2357512,34.1403713 C20.1463559,33.7155576 20.3870646,33.2906028 20.7973421,33.1488885 L21.1679093,33.0208186 C21.6158741,32.8661185 21.3483938,33.6134593 21.1329981,33.9938578 M19.3387396,29.9113371 L19.0469814,30.1731228 C18.7237938,30.4630914 18.235507,30.4670906 17.9076614,30.1825328 L17.6115276,29.9254991 C17.2536169,29.6149226 18.0344146,29.4729731 18.4714637,29.4693502 C18.9099713,29.4657274 19.6916159,29.5948323 19.3387396,29.9113371 M18.5213369,35.5307432 C18.0842407,35.534319 17.3012317,35.405167 17.6540139,35.0887093 L17.9458661,34.8268765 C18.2690068,34.537002 18.7572935,34.5330028 19.0851862,34.8175136 L19.3812259,35.0744531 C19.7392307,35.3851237 18.9598445,35.5271203 18.5213369,35.5307432 M16.1952702,31.851252 L15.8247501,31.9792748 C15.3766912,32.134069 15.6435128,31.3879515 15.8596142,31.0062826 C16.075057,30.6259311 16.5783998,30.0122591 16.6760289,30.4760301 L16.756767,30.8597692 C16.8462565,31.2846299 16.6055948,31.7095847 16.1952702,31.851252 M16.783962,34.1686953 L16.7095757,34.5537047 C16.6195687,35.0190283 16.1062513,34.4136371 15.8845979,34.0369085 C15.6621917,33.6588625 15.3831371,32.9173088 15.8336896,33.0646692 L16.2062799,33.1865284 C16.6188629,33.3214205 16.866488,33.7424702 16.783962,34.1686953 M20.2085562,30.8312569 L20.2830366,30.4463416 C20.3730436,29.9808769 20.8856553,30.5849507 21.1080615,30.9630437 C21.3296678,31.3398194 21.6093811,32.0825964 21.1590168,31.9353301 L20.7863324,31.8133768 C20.3737494,31.6784847 20.1261714,31.2574821 20.2085562,30.8312569 M18.4711814,29.0001215 C16.5377484,29.0160243 14.9825048,30.5983599 15.0001487,32.5288177 C15.0140285,34.4311397 16.5687545,36.016016 18.5287708,35.9998778 C20.4622978,35.983975 22.0175414,34.4016394 21.9998506,32.4712286 C21.9859708,30.5688596 20.4312447,28.9840304 18.4711814,29.0001215" id="Fill-60" fill="#CDCDCD"></path>
        <path d="M16.5857813,31.5857813 C15.8047396,32.366823 15.8047396,33.633177 16.5857813,34.4142187 C17.366823,35.1952604 18.633177,35.1952604 19.4142187,34.4142187 C20.1952604,33.633177 20.1952604,32.366823 19.4142187,31.5857813 C18.633177,30.8047396 17.366823,30.8047396 16.5857813,31.5857813" id="Fill-62" fill="#B4B4B4"></path>
        <path d="M17.0000368,32.9993448 C17.0019567,33.2607708 17.1036286,33.5011524 17.2701,33.6807342 C17.294318,33.663432 17.3227687,33.651501 17.3540557,33.6461298 C17.4104334,33.6367083 17.4654148,33.6513249 17.5083526,33.6828475 C17.5502432,33.7137096 17.580832,33.7604652 17.5900392,33.8162461 C17.5953192,33.848341 17.5930064,33.8800837 17.5843665,33.9093609 C17.7128746,33.9685758 17.8562188,34.001199 18.008203,33.9999663 C18.15722,33.9986895 18.2982516,33.9646135 18.424796,33.9046942 C18.4159379,33.8761654 18.4131452,33.844995 18.4179015,33.8132083 C18.4264105,33.7561506 18.4573048,33.7080303 18.5001117,33.6764637 C18.5421769,33.6457776 18.5957182,33.6309849 18.6512232,33.6393498 C18.6830339,33.6441487 18.7120082,33.6561237 18.7367498,33.6732498 C18.9022175,33.4915107 19.0022313,33.2486637 18.9999622,32.982747 C18.9995695,32.9431677 18.9971259,32.9042928 18.9921514,32.8657701 C18.9624789,32.8654179 18.9325882,32.8582857 18.9041375,32.8440213 C18.8528652,32.818178 18.8169964,32.7737559 18.8007638,32.7227738 C18.7846621,32.6729805 18.7873239,32.6169795 18.8122401,32.5665258 C18.8265527,32.5374687 18.8468871,32.5133865 18.870756,32.4948515 C18.7293317,32.2425389 18.4829628,32.0563532 18.1886816,32 C18.1791253,32.0283527 18.1630236,32.0550764 18.1407692,32.0779259 C18.1006677,32.1191342 18.0476064,32.1398264 17.9945886,32.1398264 C17.9426618,32.1398264 17.8906913,32.1200147 17.8507207,32.0803914 C17.8277682,32.057762 17.8113174,32.0308182 17.8012375,32.0021573 C17.5088762,32.0615042 17.2632055,32.2490988 17.1239194,32.5037888 C17.1477883,32.5215753 17.1681227,32.5451292 17.1827844,32.573702 C17.2091405,32.6248601 17.2123259,32.6820939 17.1958752,32.7331199 C17.1797735,32.7828692 17.1451265,32.8267191 17.0954687,32.8527384 C17.0668435,32.8677512 17.0364292,32.8752357 17.0064076,32.8759401 C17.0018258,32.9163999 16.9996877,32.9576082 17.0000368,32.9993448" id="Fill-64" fill="#818181"></path>
        <polygon id="Fill-66" fill="#131313" points="17.9057371 30.826904 17.8196403 31.0053371 17.9139031 31.1784597 18.0942629 31.1732022 18.1803597 30.994716 18.0860969 30.8215403"></polygon>
        <polygon id="Fill-68" fill="#131313" points="19.1191363 31.8560138 18.9387765 31.8215403 18.8196403 31.965477 18.8808158 32.1439367 19.0611755 32.1784597 19.1803597 32.0344735"></polygon>
        <polygon id="Fill-70" fill="#131313" points="19.1803597 33.0688883 19.1548275 32.8904286 18.9745188 32.8215403 18.8196403 32.9310647 18.8451725 33.1095243 19.0254812 33.1784597"></polygon>
        <polygon id="Fill-72" fill="#131313" points="16.9842927 33.1784597 17.1646263 33.1013917 17.1803597 32.9229554 17.0157596 32.8215403 16.8353215 32.8986083 16.8196403 33.0770914"></polygon>
        <polygon id="Fill-74" fill="#131313" points="16.8196403 32.0434341 16.9473183 32.1784597 17.1276295 32.1350255 17.1803597 31.9566146 17.0526332 31.8215403 16.8722735 31.8649745"></polygon>
        <path d="M18.5000458,27.7117778 C21.0310942,27.7117778 23.1863196,29.0823548 24,31 C23.5804095,28.7333515 21.2778582,27 18.5000458,27 C15.722096,27 13.4195447,28.7333515 13,31 C13.8136347,29.0823548 15.9689058,27.7117778 18.5000458,27.7117778" id="Fill-76" fill="#585858"></path>
        <path d="M18.4999542,37.2882222 C15.96886,37.2882222 13.8136347,35.9176452 13,34 C13.4195905,36.2666094 15.7221418,38 18.4999542,38 C21.2778582,38 23.5804095,36.2666094 24,34 C23.1863653,35.9176452 21.0310942,37.2882222 18.4999542,37.2882222" id="Fill-78" fill="#212121"></path>
        <path d="M18.4672194,28.38811 C19.9775154,28.3716504 21.2815753,29.4317448 22,30.9991055 C21.39927,29.2329175 20.0558735,27.9829412 18.4692921,28.000176 C16.9212364,28.0170531 15.5953228,29.2470513 15,31 C15.7111251,29.4486816 16.9951336,28.4041522 18.4672194,28.38811" id="Fill-80" fill="#CDCDCD"></path>
        <path d="M18.5328033,35.61189 C17.0224976,35.62829 15.7183843,34.5682552 15,33.0008945 C15.6007338,34.7670229 16.944094,36.0170589 18.5306855,35.999824 C20.0787963,35.9829469 21.4046733,34.7529487 22,33 C21.2888703,34.5513185 20.0048986,35.5957882 18.5328033,35.61189" id="Fill-82" fill="#FAFAFA"></path>
        <path d="M18.5925851,28.599725 C20.2449273,28.6514946 21.5980649,30.0944001 22,31.998803 C21.8211677,29.7686406 20.3272252,27.980824 18.4712194,28.0001553 C16.6583017,28.0190078 15.1767512,29.7716331 15,32 C15.4420435,29.8956407 17.0001689,28.5180308 18.5925851,28.599725" id="Fill-84" fill="#B4B4B4"></path>
        <path d="M18.4074149,35.400275 C16.7550727,35.3485054 15.4019351,33.9055999 15,32.0012568 C15.1788323,34.2313594 16.6727748,36.019176 18.5287806,35.9998447 C20.3416983,35.9809922 21.8232961,34.2283669 22,32 C21.5579092,34.1043593 19.9998311,35.4819692 18.4074149,35.400275" id="Fill-86" fill="#F5F5F5"></path>
        <path d="M19.5370526,31.2495364 C19.7401567,31.4718893 19.8940686,31.7274112 20,32 C19.9592359,31.5052995 19.7661025,31.0227208 19.4201038,30.6439911 C18.6358366,29.7853363 17.3641634,29.7853363 16.5798411,30.6439911 C16.2338975,31.0227208 16.0407641,31.5052995 16,32 C16.1058764,31.7274112 16.2598433,31.4718893 16.4628923,31.2495364 C17.3117761,30.3201411 18.6881688,30.3201411 19.5370526,31.2495364" id="Fill-88" fill="#9A9A9A"></path>
        <path d="M16.4629474,32.7504636 C16.2598433,32.528171 16.1059314,32.2725888 16,32 C16.0407641,32.4947608 16.2338975,32.9772792 16.5798962,33.3560089 C17.3641634,34.2146637 18.6358366,34.2146637 19.4201589,33.3560089 C19.7661025,32.9772792 19.9592359,32.4947608 20,32 C19.8941236,32.2725888 19.7401567,32.528171 19.5371077,32.7504636 C18.6882239,33.6798589 17.3118312,33.6798589 16.4629474,32.7504636" id="Fill-90" fill="#E7E7E7"></path>
        <path d="M19,33 C18.9508117,32.8349 18.8652547,32.6806177 18.7431896,32.5499105 C18.6440465,32.4437481 18.5279732,32.3611608 18.4025639,32.3058042 C18.2763185,32.2495524 18.1398314,32.2205312 18,32.2205312 C17.7186651,32.2205312 17.4551662,32.3375858 17.2559744,32.5499105 C17.134815,32.6806177 17.0491883,32.8349 17,33 C17.0161639,32.7495524 17.1127987,32.5045509 17.2907406,32.3140107 C17.4796907,32.1116085 17.7322511,32 18,32 C18.1339093,32 18.2635686,32.0281259 18.3838919,32.0807968 C18.5042151,32.1342883 18.6143663,32.2123247 18.7093291,32.3140107 C18.887271,32.5045509 18.9839058,32.7495524 19,33" id="Fill-92" fill="#CDCDCD"></path>
        <path d="M19,32 C18.9508117,32.1651746 18.8652547,32.3194569 18.7431896,32.4500895 C18.6440465,32.5562519 18.5279732,32.6388392 18.4025639,32.6941958 C18.2763185,32.7504476 18.1398314,32.7794688 18,32.7794688 C17.7186651,32.7794688 17.4551662,32.6624142 17.2559744,32.4500895 C17.134815,32.3194569 17.0491883,32.1651746 17,32 C17.0161639,32.2504476 17.1127987,32.4954491 17.2907406,32.6860639 C17.4796907,32.8883915 17.7322511,33 18,33 C18.1339093,33 18.2635686,32.9718741 18.3838919,32.9192032 C18.5042151,32.8657117 18.6143663,32.7876753 18.7093291,32.6860639 C18.887271,32.4954491 18.9839058,32.2504476 19,32" id="Fill-94" fill="#4C4C4C"></path>
        <path d="M1,29 L2.65940465,32 L4.53997547,32 C4.74202201,32 4.89555842,31.930476 4.96202942,31.8096571 C5.02570884,31.6902758 5.00911743,31.5135042 4.91357196,31.3231613 C4.78215743,31.0617992 4.64105141,30.8125132 4.48182652,30.5601794 C4.07778611,29.9241695 3.46337712,29.4935115 2.75210588,29.34555 L1,29 Z" id="Fill-96" fill="#131313"></path>
        <path d="M3.90234306,31.1421401 C3.78143553,30.9065612 3.65456006,30.6889163 3.51930216,30.4789714 C3.14227475,29.8964083 2.56060655,29.5020549 1.90950991,29.3701327 L0,29 L0.360535881,29.2655501 L1.87602572,29.5583911 C2.49117811,29.683783 3.02259725,30.04875 3.3721084,30.5877938 C3.50978081,30.8015887 3.63182726,31.0128982 3.74553683,31.2343443 C3.81305189,31.3662178 3.85879084,31.542439 3.77533093,31.6642246 C3.71287267,31.7554541 3.58654388,31.8079891 3.42240302,31.8079891 L1.79580034,31.8079891 L1.69407218,32 L3.42240302,32 C3.64180418,32 3.80726619,31.9250962 3.90366421,31.8015075 C4.02716848,31.6433178 4.03741874,31.4052535 3.90234306,31.1421401" id="Fill-98" fill="#B4B4B4"></path>
        <path d="M2.16700008,30.0007653 L1,30.0007653 L1,31 L2.9999651,31 C3.00447848,30.4887074 2.570434,29.9774982 2.16700008,30.0007653" id="Fill-100" fill="#E7E7E7"></path>
        <path d="M1,30 L1,31 L2.16704652,31 C2.56124592,31 2.99553113,30.5000834 3,30.0001668 C3,30 1,30 1,30" id="Fill-102" fill="#818181"></path>
        <path d="M4.87509197,31.6666667 C4.74944375,31.8738739 4.53430082,32 4.24862893,32 L2,32 L2.13276038,31.6773137 L4.24862893,31.6773137 C4.28300438,31.6773137 4.31619448,31.6748567 4.34819921,31.6707617 C4.35531137,31.6691237 4.36301622,31.6683047 4.3695357,31.6674857 C4.59534688,31.6339066 4.76781684,31.5159705 4.87509197,31.3390663 C4.93376731,31.2424242 4.97229153,31.1277641 4.98888658,31 C5.02207667,31.2620803 4.97999637,31.4930385 4.87509197,31.6666667" id="Fill-104" fill="#F2F2F2"></path>
        <path d="M81,33.5411479 C81,33.8175132 81.3768322,33.8991718 81.747557,34 L82,31 L81.8697068,31.0590722 L81.4208062,31.2572537 C81.286645,31.3180634 81.2003936,31.4362657 81.2003936,31.5683674 L81,33.5411479 Z" id="Fill-106" fill="#131313"></path>
        <path d="M77,33.9534519 L80.2552724,33.9998879 C80.5418929,34.0048853 80.7917119,33.8423151 80.8478535,33.6133635 C80.9630653,33.1413968 81.018157,32.7672554 80.9946726,32.2960848 C80.9865497,32.131038 80.8182907,32 80.6153301,32 L78.5694777,32 C78.2747344,32.1169303 78.0289492,32.3102367 77.8750019,32.5565686 L77,33.9534519 Z" id="Fill-108" fill="#131313"></path>
        <path d="M81.2149384,32.0617837 L81.8656706,32.0617837 C81.9554186,32.0617837 82.0001169,32 82,31.9382163 L81,31.9382163 C81.0083187,31.998599 81.1290568,32.0617837 81.2149384,32.0617837" id="Fill-110" fill="#2F302F"></path>
        <path d="M81.8658907,31.9382163 L81.2162241,31.9382163 C81.1260381,31.9382163 81,31.9940224 81,32.0553392 C81,32.0574874 81.0013452,32.0596355 81.0016376,32.0617837 L82,32.0617837 C81.9999415,32 81.955141,31.9382163 81.8658907,31.9382163" id="Fill-112" fill="#666666"></path>
        <path d="M81.8658323,32.9382163 L81.2161656,32.9382163 C81.1259796,32.9382163 81,32.9940224 81,33.0552925 C81,33.0574407 81.0012867,33.0596355 81.0015791,33.0617837 L82,33.0617837 C81.999883,33 81.9550825,32.9382163 81.8658323,32.9382163" id="Fill-114" fill="#666666"></path>
        <path d="M81.2149259,33.0617837 L81.86562,33.0617837 C81.9554214,33.0617837 82.0000585,33 82,32.9382163 L81,32.9382163 C81.0083182,32.998599 81.1291078,33.0617837 81.2149259,33.0617837" id="Fill-116" fill="#2F302F"></path>
        <path d="M81.8658907,32.9382163 L81.2162241,32.9382163 C81.1260381,32.9382163 81,32.9940224 81,33.0552925 C81,33.0574407 81.0013452,33.0596355 81.0016376,33.0617837 L82,33.0617837 C81.9999415,33 81.955141,32.9382163 81.8658907,32.9382163" id="Fill-118" fill="#666666"></path>
        <path d="M81.2149384,33.0617837 L81.8656706,33.0617837 C81.9554186,33.0617837 82.0001169,33 82,32.9382163 L81,32.9382163 C81.0083187,32.998599 81.1290568,33.0617837 81.2149384,33.0617837" id="Fill-120" fill="#2F302F"></path>
        <path d="M81.9724786,31 L80.0892779,31 C79.8760863,31 79.6691807,31.0586185 79.484837,31.1684643 L81.2889498,31.1684643 C81.4679333,31.1684643 81.6163146,31.3369854 81.6235266,31.5491719 C81.6478426,32.3262793 81.5645639,32.7822642 81.4940523,33.2426839 C81.445469,33.5316829 81.2273069,33.7460867 80.971477,33.7396052 L78.1007239,33.6799064 L78,33.9144941 L81.2367605,33.9998349 C81.5332308,34.0073399 81.7896942,33.7580833 81.8465616,33.4196766 C82.0130216,32.4424929 82.0246192,31.6965425 81.9724786,31" id="Fill-122" fill="#B4B4B4"></path>
        <path d="M81,33 C80.9924452,33.0659195 80.9843364,33.131839 80.9758247,33.1993279 C80.9168975,33.6662576 80.6519768,34.0099806 80.3452531,33.9997788 L77,33.8820654 L77.1042559,33.5579613 L79.2815412,33.6183875 L80.3956182,33.6576253 C80.6695543,33.6670423 80.91035,33.3931626 81,33" id="Fill-124" fill="#F2F2F2"></path>
        <path d="M80,31.9384731 C80.0154535,31.9778877 80.0277518,32.0190768 80.0361869,32.0615269 L81.5014327,32.0615269 L81.9970381,32.0133795 C81.9987766,31.9888154 81.9989054,31.9634108 82,31.9384731 L80,31.9384731 Z" id="Fill-126" fill="#2F302F"></path>
        <path d="M82,31.9840053 L81.5215603,31.9384731 L80,31.9384731 C80.0247383,31.9765801 80.045177,32.0180027 80.0616276,32.0615269 L81.9970713,32.0615269 C81.9980683,32.0357019 82,32.0102973 82,31.9840053" id="Fill-128" fill="#666666"></path>
        <path d="M82,32.9840053 L81.5279256,32.9375858 L80.0853791,32.9375858 C80.0603628,32.9815303 80.0315505,33.0231397 80,33.0624142 L81.9829491,33.0624142 C81.9884875,33.036309 81.9947105,33.0095501 82,32.9840053" id="Fill-130" fill="#666666"></path>
        <path d="M80.1091298,32.9375858 C80.0757796,32.9812501 80.0391657,33.0220189 80,33.0589117 L81.5102513,33.0624142 L81.9845118,33.0124922 C81.9903866,32.9868073 81.9948966,32.9625235 82,32.9375858 L80.1091298,32.9375858 Z" id="Fill-132" fill="#2F302F"></path>
        <path d="M78.3608725,32.8898699 C78.4340085,32.4548826 78.6385043,32.1247278 78.8653016,32.0298428 C78.9096372,32.0099476 78.9548631,32 79,32 L78.5292677,32 C78.2984198,32.1026547 78.0905854,32.4405203 78.0158469,32.8854553 C78.0093479,32.9238331 78.0041843,32.9620343 78,33 L78.3454707,33 C78.3496105,32.9634469 78.354596,32.9267761 78.3608725,32.8898699" id="Fill-134" fill="#666666"></path>
        <path d="M78.4252788,32 L78.0146957,32 C77.9458773,32.4655536 78.12398,32.8877067 78.4396138,33 L79,33 C78.9372647,33 78.8763807,32.9870958 78.8448015,32.9743495 C78.5332407,32.8692194 78.3570423,32.4561256 78.4252788,32" id="Fill-136" fill="#2F302F"></path>
        <path d="M79.623256,32.0142923 C79.3821318,31.9318458 79.1274738,32.2135378 79,32.6673 C79.1226729,32.5032046 79.2693092,32.4258497 79.4111031,32.4743728 C79.6956844,32.5716032 79.8528745,33.1381771 79.7621943,33.7397784 C79.7483708,33.8316105 79.7290842,33.9182897 79.706114,34 C79.8296147,33.8348004 79.9289036,33.5815721 79.9743472,33.2797592 C80.064986,32.6781579 79.9077959,32.1115226 79.623256,32.0142923" id="Fill-138" fill="#0A0A0A"></path>
        <path d="M79.56676,32.0163673 C79.4037111,31.960894 79.235094,32.0493704 79.0940324,32.2372072 C79.0676667,32.3308096 79.0454414,32.4299593 79.0294982,32.5350777 C78.9252726,33.2237189 79.1060255,33.8722648 79.4332179,33.9836327 C79.5962668,34.039106 79.7648839,33.9506296 79.905993,33.7627928 C79.9324064,33.6692607 79.9545841,33.5700407 79.9704797,33.4649223 C80.0747529,32.7762811 79.8939999,32.127665 79.56676,32.0163673" id="Fill-140" fill="#000000"></path>
        <path d="M78.3849402,32.0103171 C78.3461239,32.004778 78.3073076,32.0008034 78.2685613,32 C78.1628324,32.06926 78.0706962,32.1553066 78,32.2536575 C78.4348269,32.3142918 78.6998849,32.5942495 78.595207,32.8797463 C78.5793021,32.9224101 78.5552696,32.9624524 78.5257019,33 C78.7436059,32.9309937 78.915757,32.8008879 78.9771344,32.6360677 C79.0818824,32.3505285 78.8168244,32.0705708 78.3849402,32.0103171" id="Fill-142" fill="#F2F2F2"></path>
        <path d="M78.89036,32 C78.8684919,32.0751309 78.851843,32.1564963 78.840017,32.2425111 C78.8021937,32.5140285 78.8186444,32.7776206 78.8759574,32.978815 C78.8802188,32.9817738 78.8851407,32.9837815 78.8899636,32.9857364 C78.9759828,33.0174372 79.062068,32.9948768 79.1368228,32.932162 C79.1507629,32.885192 79.1621264,32.8352104 79.169592,32.7819002 C79.218944,32.4251077 79.0939783,32.0752894 78.89036,32" id="Fill-144" fill="#6C8187"></path>
        <path d="M81.22811,33.4301001 L81.2441816,33.1771743 C81.2441816,33.1771743 81.3376853,31.7051532 81.3376853,31.7051014 C81.3376853,31.5868066 81.3859379,31.4809584 81.4610904,31.4264525 L81.8280383,31.1683406 C81.9235557,31.1036182 81.9468081,31.0841185 82,31 L81.4791756,31.1148201 C81.332936,31.1470776 81.2015141,31.2819679 81.1459286,31.4722976 C81.1260196,31.5402873 81.1148494,31.6134631 81.1134056,31.6890245 C81.1120758,31.7102356 81.0010568,33.4503259 81.0010568,33.4716407 C80.9961935,33.5376597 81.0083516,33.5960032 81.0326679,33.6476567 C81.1587706,33.9152592 81.6970723,33.9978218 81.8613592,34 C81.8370809,33.9800854 81.8164121,33.9682092 81.7702491,33.9421232 C81.7376501,33.9236607 81.6439944,33.8825868 81.6439944,33.8825868 C81.4974508,33.8134562 81.3725639,33.7745086 81.2906865,33.6718239 C81.2556178,33.6277421 81.2209671,33.5432088 81.2254884,33.4716407 L81.22811,33.4301001 Z" id="Fill-146" fill="#B4B4B4"></path>
        <path d="M82,34 C81.8089919,33.9967871 81.1843557,33.8690763 81.0378573,33.4538153 C81.0096693,33.3742972 80.9955532,33.2835341 81.0012437,33.1815261 C81.0012437,33.1767068 81.0043757,33.1100402 81.0092281,33 C81.0101545,33.0811245 81.0242265,33.1542169 81.0476062,33.2208835 C81.1111285,33.4016064 81.2655231,33.5277108 81.4348719,33.6120482 C81.5257882,33.6915663 81.6391579,33.7493976 81.7476752,33.8176707 C81.7476752,33.8176707 81.8561925,33.8819277 81.8941295,33.9100402 C81.947947,33.951004 81.9717237,33.9686747 82,34" id="Fill-148" fill="#F2F2F2"></path>
        <path d="M1,25.9844743 C3.51130697,26.1285486 5.53345256,25.2685671 7.71959136,23.4599187 C8.17313584,23.0848156 8.06536193,22.6675788 7.47688142,22.5340722 C6.13131106,22.228387 5.03122032,22.0957458 3.39886836,22 C2.18974036,23.257404 1.54737289,24.2528963 1,25.9844743" id="Fill-150" fill="#891214"></path>
        <path d="M2,25 L5.79220388,25 C6.18996807,24.716306 6.59135815,24.3844494 7,24 L2.41589362,24 C2.26516043,24.3176577 2.12803609,24.6473562 2,25" id="Fill-152" fill="#E2272C"></path>
        <path d="M3,23 L7.7483456,23 C8.03451261,22.7497266 8.11677022,22.6458612 7.78180555,22.5620695 C6.5872443,22.2580908 5.60042688,22.1139824 4.01238028,22.00959 C4.01238028,22.00959 3.78852272,21.999146 3.73219315,22.0000562 C3.40033254,22.395492 3.25088114,22.6091634 3,23" id="Fill-154" fill="#E2272C"></path>
        <path d="M1.81964027,23.8215403 L1.81964027,24.1784597 C1.94044361,24.1762561 2.06068342,24.1732655 2.18035973,24.169299 L2.18035973,23.8215403 L1.81964027,23.8215403 Z" id="Fill-156" fill="#F2F2F2"></path>
        <path d="M2.81964027,23.8215403 L2.81964027,24.1784597 C2.94030273,24.1743564 3.06068342,24.1696069 3.18035973,24.1636297 L3.18035973,23.8215403 L2.81964027,23.8215403 Z" id="Fill-158" fill="#6C8187"></path>
        <path d="M2.81964027,23.8215403 L2.81964027,24.1784597 C2.94037317,24.1721896 3.06054254,24.1646723 3.18035973,24.1563797 L3.18035973,23.8215403 L2.81964027,23.8215403 Z" id="Fill-160" fill="#F2F2F2"></path>
        <path d="M2.09540998,23.8215403 C1.99897863,23.9340448 1.90790067,24.0507612 1.81964027,24.1729062 C1.94065492,24.1756517 2.06075386,24.1773365 2.18035973,24.1784597 L2.18035973,23.8215403 L2.09540998,23.8215403 Z" id="Fill-162" fill="#6C8187"></path>
        <path d="M1.81964027,24 L1.81964027,24.9968758 C1.94051404,25.0001871 2.06068342,25.0006228 2.18035973,24.9993157 L2.18035973,24 L1.81964027,24 Z" id="Fill-164" fill="#F2F2F2"></path>
        <path d="M1.81964027,24 L1.81964027,25 C1.94051404,24.9986048 2.06068342,24.9948552 2.18035973,24.9886641 L2.18035973,24 L1.81964027,24 Z" id="Fill-166" fill="#6C8187"></path>
        <path d="M3.81964027,23.8215403 L3.81964027,24.1784597 C3.94016185,24.1556035 4.06033123,24.1308254 4.18035973,24.1046447 L4.18035973,23.8215403 L3.81964027,23.8215403 Z" id="Fill-168" fill="#F2F2F2"></path>
        <path d="M4.81964027,23.8215403 L4.81964027,24.1784597 C4.94002097,24.1249544 5.06026079,24.0687459 5.18035973,24.0090884 L5.18035973,23.8215403 L4.81964027,23.8215403 Z" id="Fill-170" fill="#F2F2F2"></path>
        <path d="M2.81964027,23.8215403 L2.81964027,24.1784597 C2.94030273,24.1695843 3.06047211,24.1594513 3.18035973,24.148384 L3.18035973,23.8215403 L2.81964027,23.8215403 Z" id="Fill-172" fill="#6C8187"></path>
        <path d="M4.81964027,23.95 L4.81964027,24.05 C4.93995053,24.0181412 5.06026079,23.9852386 5.18035973,23.95 L4.81964027,23.95 Z" id="Fill-174" fill="#6C8187"></path>
        <path d="M3.81964027,23.8215403 L3.81964027,24.1784597 C3.94009141,24.1453218 4.06033123,24.1096954 4.18035973,24.0723007 L4.18035973,23.8215403 L3.81964027,23.8215403 Z" id="Fill-176" fill="#6C8187"></path>
        <path d="M3.81964027,23.8215403 L3.81964027,24.1784597 C3.94016185,24.1619749 4.06047211,24.1444737 4.18035973,24.1252046 L4.18035973,23.8215403 L3.81964027,23.8215403 Z" id="Fill-178" fill="#6C8187"></path>
        <path d="M3.81964027,23.8215403 L3.81964027,24.1784597 C3.94023229,24.1663348 4.06047211,24.1530327 4.18035973,24.1384357 L4.18035973,23.8215403 L3.81964027,23.8215403 Z" id="Fill-180" fill="#F2F2F2"></path>
        <path d="M81,28 L77.7075931,27.7664222 C76.275629,27.6647964 74.9156309,27.0701292 73.838449,26.0745599 L72.2042879,24.5641505 C71.8650335,24.2506446 71.958248,23.9980435 72.4101865,24 C75.3672811,24.0126768 77.7295627,24.7566037 80.0104079,26.3590515 L81,28 Z" id="Fill-182" fill="#AFCDD7"></path>
        <path d="M79.9351443,26.8215403 L76,26.8215403 L76,27.1784597 L80,27.1784597 C79.9950893,27.0674655 79.9712129,26.9567664 79.9351443,26.8215403" id="Fill-184" fill="#F2F2F2"></path>
        <path d="M76.880151,25 L73,25 C73.7200091,25.4961314 74.1605738,25.8010158 74.4508444,26 L77,26 C76.9896822,25.685474 76.9442433,25.3742015 76.880151,25" id="Fill-186" fill="#F2F2F2"></path>
        <path d="M78.8713367,26 L75,26 L75,26.7481136 C75.1100607,26.8356543 75.2222315,26.9192688 75.3359571,27 L79,27 C78.9886719,26.7132078 78.9480794,26.4015091 78.8713367,26" id="Fill-188" fill="#F2F2F2"></path>
        <path d="M75,27 C75.4308637,27.2157798 75.8850516,27.3999245 76.3573538,27.54894 C76.450954,27.5777421 76.5445542,27.6065442 76.6381543,27.6334105 C77.3498791,27.8330422 78.0960147,27.9577884 78.8619609,28 C78.9628916,27.6026725 79.0122059,27.3205534 78.9974237,27 L75,27 Z" id="Fill-190" fill="#6C8187"></path>
        <path d="M76,27 L76,27.0607128 C76.0871875,27.1106923 76.174375,27.1605899 76.2615626,27.2072921 C76.9245263,27.5536256 77.6195434,27.7700942 78.3330138,27.8433429 C78.3398985,27.8467022 78.3467832,27.8467022 78.3536115,27.8467022 L79.9365305,28 C79.9869243,27.6109791 80.0044747,27.3050389 79.9990572,27 L76,27 Z" id="Fill-192" fill="#6C8187"></path>
        <path d="M74,26 C74.5439589,26.5382286 74.6377449,26.6187239 74.8882193,26.82077 C75.5225592,27.3355095 76.1717734,27.7122089 76.8648939,28 C76.9109506,27.6743842 76.94506,27.376161 76.9668638,27.0971194 C76.9984046,26.7085745 77.0056924,26.3529412 76.9960151,26 L74,26 Z" id="Fill-194" fill="#6C8187"></path>
        <path d="M72.8003952,24.4318801 C72.6815569,24.3220809 72.7148239,24.23297 72.8730827,24.2369058 C75.566319,24.3036129 77.7424258,25.0058533 79.87767,26.4912706 L80.479217,27.4888485 L77.8401117,27.3015945 C76.4811146,27.205167 75.1904303,26.6407811 74.1681417,25.695933 L72.8003952,24.4318801 Z M72.2042806,24.5641841 L73.8384519,26.0745787 C74.9155926,27.0701383 76.2755993,27.6647997 77.7075724,27.766374 L81,28 L80.0104497,26.3590675 C77.7295421,24.7566354 75.3672936,24.0127157 72.4049885,24 C71.957566,24 71.866322,24.2518922 72.2042806,24.5641841 L72.2042806,24.5641841 Z" id="Fill-196" fill="#839AA3"></path>
        <path d="M75,23.9786808 L75,24.1784597 L73.3773783,24.1784597 L73.1051773,24.0123552 C72.9297953,23.9049716 72.9790926,23.8180491 73.2132195,23.8216482 C73.7845432,23.8311146 74.3407367,23.8531533 74.8826524,23.8887014 C74.949353,23.8930401 75,23.9321873 75,23.9786808" id="Fill-198" fill="#FFA12F"></path>
        <path d="M75,24 L75,24.897816 C75,24.9855917 74.9189248,25.032357 74.8673554,24.9743613 L74,24 L75,24 Z" id="Fill-200" fill="#D76D00"></path>
        <path d="M81.0815732,25.4628592 C82.0742654,26.8930658 82.4439291,27.6375685 83,28 C82.6332009,27.0130128 81.9782331,25.7983613 81.1048472,25.0612085 C81.0786371,25.039159 81.0524985,25.0171697 81.0262883,25 C80.9826047,25.1665763 80.9884053,25.3281523 81.0815732,25.4628592" id="Fill-202" fill="#131313"></path>
        <path d="M82.0394765,26.0669207 C82.1344115,26.0669207 82.1810142,26 82.1803528,25.9330793 L81.8196403,25.9330793 L81.8986511,26.0669207 L82.0394765,26.0669207 Z" id="Fill-204" fill="#818181"></path>
        <path d="M81.0628463,25.9330793 L80.8196403,25.9330793 L80.8845314,26.0669207 L81.1803597,26.0669207 C81.1798172,26 81.1403401,25.9330793 81.0628463,25.9330793" id="Fill-206" fill="#E7E7E7"></path>
        <path d="M82.060514,27.0669207 C82.1431505,27.0669207 82.1826063,27 82.1802611,26.9330793 L81.8196403,26.9330793 L81.891792,27.0669207 L82.060514,27.0669207 Z" id="Fill-208" fill="#818181"></path>
        <path d="M82.0704126,26.9330793 L81.8196403,26.939664 L81.8772611,27.0669207 L82.1803597,27.0669207 C82.1783888,27 82.1413662,26.9330793 82.0704126,26.9330793" id="Fill-210" fill="#E7E7E7"></path>
        <path d="M82.0347962,27.0669207 C82.1351688,27.0669207 82.1830371,27 82.1802443,26.9330793 L81.8196403,26.9330793 L81.9158237,27.0669207 L82.0347962,27.0669207 Z" id="Fill-212" fill="#818181"></path>
        <path d="M82.0548422,26.9330793 L81.8196403,26.9330793 L81.89563,27.0669207 L82.1803597,27.0669207 C82.1781105,27 82.1358156,26.9330793 82.0548422,26.9330793" id="Fill-214" fill="#E7E7E7"></path>
        <path d="M81.9566851,27.9330793 L81.8196403,27.9330793 L81.8761223,28.0669207 L82.1802931,28.0669207 C82.1829332,28 82.1070905,27.9330793 81.9566851,27.9330793" id="Fill-216" fill="#E7E7E7"></path>
        <path d="M81.9435525,28.0669207 C82.0402118,28.0669207 82.0881167,28 82.0897214,27.9330793 L81.9102786,27.9330793 L81.9435525,28.0669207 Z" id="Fill-218" fill="#818181"></path>
        <path d="M82.9464155,27.8261687 C82.8443847,27.7935996 82.7504282,27.7503848 82.6664861,27.6964271 C82.2040443,27.4 81.9247965,26.7874099 81.2214864,25.7401442 C81.0689645,25.5117719 81.0060473,25.2529693 81.0259711,25 C80.9616382,25.2991979 81.0159043,25.6172567 81.199046,25.8915661 C81.9024085,26.9388803 82.1816038,27.5514219 82.6440456,27.847849 C82.7485407,27.9150288 82.8678738,27.9664101 83,28 C82.9674403,27.8843069 82.9875214,27.9534311 82.9488797,27.8280645 C82.9479884,27.8274812 82.9472544,27.826752 82.9464155,27.8261687" id="Fill-220" fill="#818181"></path>
        <path d="M81.2069438,25.8281125 C81.9380316,26.9184848 82.2283084,27.5562898 82.7090692,27.8649181 C82.7962721,27.9210968 82.8939394,27.9660904 83,28 C82.5757576,27.6925863 82.2101048,27.0223394 81.4583608,25.8252783 C81.3875084,25.7121112 81.3719209,25.4920021 81.4671901,25.3891597 C81.4904624,25.269565 81.1392525,24.970654 81.0152608,25.0023367 C81.0104647,25.0205568 81.0076851,25.0391312 81.0037064,25.0575032 C80.9830502,25.3208849 81.0484525,25.5903401 81.2069438,25.8281125" id="Fill-222" fill="#F2F2F2"></path>
        <path d="M41,23.9100822 C41.5915304,24.2360224 43.2388451,24.2764329 44,23.9686615 C43.5809483,23.8762238 42.9937284,23.8215403 42.3444721,23.8215403 C41.8406081,23.8215403 41.3803153,23.8518571 41,23.9100822" id="Fill-224" fill="#CDCDCA"></path>
        <path d="M41,25.0909171 C41.3742313,25.1490689 41.8354719,25.1784597 42.3445448,25.1784597 C42.9986523,25.1784597 43.5886417,25.1233231 44,25.0322019 C43.2578012,24.7302761 41.6043391,24.755558 41,25.0909171" id="Fill-226" fill="#F2F2F2"></path>
        <path d="M43.4311006,24.1439763 C42.9567739,24.6971623 41.9244931,24.8477542 41.2236457,24.380484 C41.0657722,24.2776811 40.9317058,24.1491121 40.8334006,24 C40.3034399,24.2416435 40.0044891,24.615773 40,25 L44,25 C43.9988903,24.6719185 43.7817512,24.3644673 43.4311006,24.1439763" id="Fill-228" fill="#F2F2F2"></path>
        <path d="M40.0000503,25 C39.9959145,25.3575905 40.2467845,25.7237987 40.8066272,26 C41.3318201,25.1259575 42.8168154,25.0567549 43.463812,25.8457521 C43.7944217,25.6246518 44,25.3316504 44,25.0026114 C43.9998991,25 40.0000503,25 40.0000503,25" id="Fill-230" fill="#CDCDCA"></path>
        <path d="M25,23.9100822 C25.5915304,24.2360224 27.2388451,24.2764329 28,23.9686615 C27.5809483,23.8762238 26.9937284,23.8215403 26.3444721,23.8215403 C25.8406664,23.8215403 25.3803153,23.8518571 25,23.9100822" id="Fill-232" fill="#CDCDCA"></path>
        <path d="M25,25.0909171 C25.3742313,25.1490689 25.8354719,25.1784597 26.3445448,25.1784597 C26.9986523,25.1784597 27.5886417,25.1233231 28,25.0322019 C27.2578012,24.7302761 25.6043391,24.755558 25,25.0909171" id="Fill-234" fill="#F2F2F2"></path>
        <path d="M28.4311006,24.1439763 C27.9567235,24.6971623 26.9244931,24.8477542 26.2236457,24.380484 C26.0657722,24.2776811 25.9317058,24.1491121 25.8334006,24 C25.3034399,24.2416435 25.0044891,24.615773 25,25 L29,25 C28.9988903,24.6719185 28.7817512,24.3644673 28.4311006,24.1439763" id="Fill-236" fill="#F2F2F2"></path>
        <path d="M25.0000503,24 C24.9959145,24.3575905 25.2467845,24.7237987 25.8066272,25 C26.3318201,24.1259575 27.8168154,24.0567549 28.463812,24.8457521 C28.7944217,24.6246518 29,24.3316504 29,24.0026114 C28.9998991,24 25.0000503,24 25.0000503,24" id="Fill-238" fill="#CDCDCA"></path>
        <path d="M47.5616734,15 C51.2213881,16.1132871 55.4156358,17.9589513 61,20.8427578 C56.6819468,21.665133 57.6295011,19.1730029 46.4177918,15.4404106 C46.27917,15.3932583 46.1405024,15.3478198 46,15.3023813 L47.5616734,15 Z" id="Fill-240" fill="#AFCDD7"></path>
        <path d="M10,18.8038833 L10.8299821,18.9320947 C11.8497281,19.090242 12.9026022,18.9704577 13.8338944,18.5904787 L22,15.25871 L20.6421845,15 C17.1187208,15.8006887 13.7878137,17.0251369 10,18.8038833" id="Fill-242" fill="#AFCDD7"></path>
        <path d="M21.5489326,18.6368577 C23.7076235,16.7862244 26.018792,15.8404154 29.7899337,15.2651844 C32.257447,15.0613439 34.6249279,14.942452 37.0916866,15.0281227 C39.6149465,15.1161407 42.1395268,15.4907811 44.5953909,16.1416172 C47.030692,16.7870368 49.4008612,17.7045899 51.6401063,18.8687736 C52.1161681,19.1161717 52.569639,19.3596879 53,19.5981037 L53,22 L21.0953202,20.3354682 C20.8729474,19.7437621 21.0458936,19.0681906 21.5489326,18.6368577" id="Fill-244" fill="#AFCDD7"></path>
        <path d="M53,19.7819315 L53,22 L51,21.871076 L51.960681,19.2005751 C52.0207134,19.0337886 52.1856506,18.9551881 52.3267126,19.0261203 C52.46818,19.0975318 52.534698,19.292116 52.4746656,19.4593817 L52.0803,20.5545171 L52.6903121,20.661874 L53,19.7819315 Z" id="Fill-246" fill="#354C53"></path>
        <path d="M51.9787659,17.9883668 C49.772694,16.7881953 47.4376376,15.842232 45.0384142,15.1769074 C42.6189325,14.5059523 40.131706,14.1197309 37.6458269,14.0289921 C35.2156584,13.940673 32.883204,14.0632402 30.4522921,14.2733819 C27.6784282,14.7161405 25.7063963,15.3720655 24,16.4700047 L52,18 C51.9928445,17.9961378 51.9858749,17.992229 51.9787659,17.9883668" id="Fill-248" fill="#CCE2E9"></path>
        <path d="M22.9764323,18.367571 C22.9075811,18.9306884 22.7041778,19.393602 22.4571238,19.6302337 C22.3999729,19.6852752 22.3405719,19.7276149 22.2798209,19.7567822 L22.3644223,20 L21.1777529,19.932727 L21.1408523,19.6876274 C21.121952,19.5667242 21.1408523,19.4425278 21.1939532,19.3333856 C21.1980032,19.3239768 21.2025033,19.3150384 21.2074534,19.3061 C21.2034033,19.2995139 21.1998033,19.2929277 21.1962032,19.2863415 C21.0886514,19.1028697 21.0256504,18.8779991 21,18.636663 C21.0868514,18.4555434 21.2065534,18.2890074 21.3577558,18.1478752 C21.8140633,17.7211855 22.2766708,17.340599 22.7608788,17 C22.8225298,17.095029 22.8742806,17.2107574 22.9134312,17.3434217 C22.9966826,17.622393 23.0245831,17.9756939 22.9764323,18.367571" id="Fill-250" fill="#354C53"></path>
        <path d="M21.9288583,19.3746054 C22.9976002,18.598853 24.0730302,18.0063131 25.2740559,17.5346552 L25.5316614,20.6251278 L21.453064,20.4449384 C21.3811384,20.0540168 21.5562925,19.6447784 21.9288583,19.3746054 M21.1106499,20.7839772 L26,21 L25.666467,17 C24.1583322,17.5290535 22.8767739,18.2120215 21.6381408,19.1110123 C21.0529231,19.535411 20.8526059,20.2013515 21.1106499,20.7839772" id="Fill-252" fill="#2B3D44"></path>
        <path d="M38.0889531,19.7272283 L38.3721031,21.8305193 L39.913633,22 L39.2847335,20.224403 C39.6056845,20.0712859 39.8925431,19.5329683 39.9767687,18.8441052 C40.0729691,18.0573873 39.8609082,17.4260307 39.515963,17.2455629 C39.515963,17.2455629 39.0464443,17.0033808 38.9326838,17.0001548 C38.2238035,16.9802379 37.6774317,18.887352 38.2200055,19.7767401 L38.0889531,19.7272283 Z" id="Fill-254" fill="#354C53"></path>
        <path d="M39.9951222,18 L38,17.8619247 C38.085692,16.9073793 38.4719595,15.9847852 38.9232286,16.0001903 C39.0381307,16.0041842 39.5114425,16.2997338 39.5114425,16.2997338 C39.8288319,16.5005706 40.0347902,17.1584253 39.9951222,18" id="Fill-256" fill="#617E8C"></path>
        <path d="M21.9062079,19.0101111 C24.0548234,17.1465691 26.3552047,16.1941628 30.108745,15.6149194 C32.5647415,15.4096571 34.9211724,15.2899359 37.3764178,15.3762042 C39.8879005,15.4648361 42.4006977,15.8420897 44.8450992,16.4974656 C47.2690338,17.1473873 49.6281405,18.0713405 51.8569341,19.2436448 C52.330774,19.4927685 52.7821283,19.7379834 53.2104807,19.9780621 L53.2104807,22.3967124 L21.4547128,20.72057 C21.2333778,20.1247365 21.4055168,19.4444528 21.9062079,19.0101111 M52.0284159,18.9380239 C47.5220551,16.5676894 42.5145807,15.2094854 37.3894209,15.0286309 C34.9095775,14.9414535 32.5397679,15.0623565 30.0649944,15.2694824 C26.2644644,15.85468 23.9062027,16.8085408 21.6665184,18.7510788 C20.9929372,19.3354128 20.807044,20.2805922 21.2138966,21.0561893 C25.2327103,21.2685422 54.2177777,22.7995556 58,23 C57.1449383,21.7078382 53.4227087,19.6710777 52.0284159,18.9380239" id="Fill-258" fill="#131313"></path>
        <path d="M25,17 L24.5906882,16.9805518 L24.5574316,16.5436454 C24.26989,16.6666667 23.990023,16.797829 23.7162957,16.9380371 L23,16.9036635 C23.6467127,16.5337404 24.4518291,16.1711895 24.9237657,16 L25,17 Z" id="Fill-260" fill="#617E8C"></path>
        <path d="M36,15 L36.7633463,21.849632 L40,22 L37.7739439,15.0494447 C37.5592395,15.0381005 37.3458053,15.0298747 37.1311538,15.0236829 C36.7549317,15.0123386 36.3786566,15.0041129 36,15" id="Fill-262" fill="#131313"></path>
        <path d="M25,17.1630066 L25.3873432,20.9772766 L26,21 L25.593175,17 C25.3921818,17.0518908 25.1949449,17.1062405 25,17.1630066" id="Fill-264" fill="#131313"></path>
        <path d="M10,18.8036682 L10.8292732,18.9313722 C11.1222779,18.9776458 11.4172087,19 11.7121395,19 C12.4436642,19 13.169507,18.861139 13.8340523,18.589758 L22,15.2585785 L20.6422108,15 C20.5100818,15.0286953 20.3798307,15.0606413 20.2495797,15.0925874 C20.6816473,15.1708472 20.5463884,15.1453626 21.1113073,15.2525184 C21.2169527,15.272585 21.2344319,15.3923426 21.1371649,15.4320745 L13.7497863,18.4477265 C13.1197178,18.7046996 12.4149175,18.8403901 11.7121395,18.8403901 C11.4286689,18.8403901 11.1433203,18.8180359 10.8656279,18.7749328 L10.2623801,18.6823454 C10.1743101,18.7222378 10.0881181,18.7621704 10,18.8036682" id="Fill-266" fill="#2B3D44"></path>
        <path d="M46,15.3023796 C46.1405024,15.3478178 46.27917,15.393256 46.4177918,15.440452 C56.1800278,18.6912192 56.7236434,21 59.5514442,21 C59.9710249,21 60.4417517,20.9493324 61,20.842724 L60.7369765,20.7071124 C60.3921653,20.7612955 59.8834574,20.8374946 59.5514442,20.8252342 C58.3254537,20.7745666 57.5537683,20.3760812 56.1526429,19.5633345 C54.5016131,18.6038583 52.038715,17.1741799 47.0636076,15.4736299 C46.9596642,15.4369365 46.9687467,15.2918769 47.0782404,15.2709156 L47.8947875,15.1028732 L47.5616734,15 L46,15.3023796 Z" id="Fill-268" fill="#2B3D44"></path>
        <path d="M58.6425709,33.6601681 L25.3741266,33.0000889 C25.1721649,32.9958862 25.0046268,33.1411742 25,33.324665 L59,34 C59.004529,33.8165093 58.8445327,33.6643708 58.6425709,33.6601681" id="Fill-270" fill="#F2F2F2"></path>
        <path d="M25,34 C24.995471,34.1834907 25.1554673,34.3356292 25.3574753,34.3398319 L58.6258734,34.9999111 C58.8278351,35.0041138 58.9953732,34.8587838 59,34.675335 L25,34 Z" id="Fill-272" fill="#CDCDCA"></path>
        <path d="M82,33.3127793 L72.0008528,34 C71.9994933,33.9892761 72,33.9789991 72.0008528,33.9682752 C72.0172602,33.7783735 72.1757558,33.6251117 72.3782233,33.6103664 L81.4792287,33 C81.6048157,33.0397676 81.7412316,33.0759607 81.8542553,33.12958 C81.9273386,33.1639857 81.978436,33.2336908 82,33.3127793" id="Fill-274" fill="#F2F2F2"></path>
        <path d="M81.7682257,34.3545064 L72.7158468,34.9527897 L72.0013578,35 C72,35 72,34.6600858 72,34.6600858 C72.0013578,34.6600858 81.9882845,34 81.9882845,34 C82.0281292,34.1390558 81.9691347,34.3081545 81.7682257,34.3545064" id="Fill-276" fill="#CDCDCA"></path>
        <path d="M12,34 L3.72994893,33.3759643 C3.62000601,33.363378 3.50510664,33.3459196 3.3893061,33.3219651 C3.23700811,33.2602517 3.10633824,33.1587495 3.01847402,33.0280146 L3,33 L11.9972965,33.6788469 L12,34 Z" id="Fill-278" fill="#CDCDCA"></path>
        <path d="M12,33 L2.24523693,32.3320016 L2,32 L11.6116268,32.6584099 C11.8295066,32.6731922 11.9980459,32.8214143 12,33" id="Fill-280" fill="#F2F2F2"></path>
        <path d="M3.24463907,21.1884654 C3.13566879,21.2752297 3.04219745,21.3715105 2.97186837,21.4770293 C2.50530786,22.1850002 2.83227176,21.4897712 1,26 L1.06629512,25.9977304 L1.36783439,25.4664336 C1.94432059,24.0079259 2.61549894,23.1773143 3.63412951,22.2849842 C3.72085987,22.2089709 3.99984076,21.9709764 4,21.9707773 L4,21.4184962 C4,20.9713756 3.65334395,20.8630297 3.24463907,21.1884654" id="Fill-282" fill="#CDCDCA"></path>
        <path d="M58,33 C57.8186008,32.8465629 57.6927407,32.7280668 57.57707,32.6107355 C57.4614471,32.4934549 57.3559657,32.3772883 57.2153239,32.228358 C54.1573211,32.1251044 50.1504644,31.9457906 48.0622683,31.8246613 C43.8007255,31.5773389 34.993247,31.214255 29.9483676,31 L28,32.2361058 C33.0468407,32.3460438 43.0235121,32.6011141 48.0703528,32.7111027 C50.6043931,32.7663502 55.4659119,32.9447525 58,33" id="Fill-284" fill="#F2F2F2"></path>
        <path d="M81.9362951,28.4538397 C82.0142946,28.7385739 82.1131225,29.0558477 81.6080117,28.9916261 C80.1957071,28.8120781 79.1329858,28.671628 78.2986916,28.3806886 C77.3752979,28.0586222 76.7252881,27.6391891 76.1631777,27.1543237 C75.9579363,26.9772981 75.7643947,26.7915449 75.5735532,26.5986784 C75.3827117,26.4057614 75.1945272,26.2056806 75,26 C75.9221079,26.7768642 76.9988005,27.1909497 78.1251213,27.2790841 C79.0625292,27.352437 79.9998513,27.4257898 80.9372163,27.4991427 C81.0685297,27.6672892 81.2288571,27.7893758 81.4168701,27.850066 C81.5618548,27.9169109 81.7129252,28.0320355 81.8239673,28.2031586 C81.8477529,28.2396836 81.9156381,28.3784689 81.9362951,28.4538397" id="Fill-286" fill="#F2F2F2"></path>
        <path d="M74.4359133,25.7800362 C74.4349239,25.7795916 74.4344999,25.7795916 74.4335106,25.779147 C73.8699042,25.6062756 73.2841549,25.4721759 72.6458281,25.383517 C72.0354862,25.298771 71.8605105,25.5940928 72.2587521,26.0387652 C72.4677901,26.272106 72.6807856,26.5721854 72.9513996,27.0636771 C72.9523418,27.065011 72.9528129,27.0659002 72.9537552,27.0681234 C73.1153509,27.3620224 73.2543327,27.6674818 73.3716427,27.9809445 C73.4865972,28.408232 73.6816428,29.2178995 73.5289984,29.633182 C72.4331625,26.8876044 69.721369,24.9085655 66.4333902,24.9085655 C62.8137396,24.9085655 59.8927668,26.938292 59.0560494,30 C58.8590722,29.7790199 58.7267333,28.6861244 59.4734659,27.2273002 C59.765092,26.6768508 60.12032,26.2015435 60.5240738,25.7858164 C60.8703504,25.4296694 61.4909629,24.8544987 60.1273398,24.8103027 L23.0070054,23.6911742 C22.2767622,23.6689428 22.1844217,23.95306 22.8076725,24.3123194 C23.3735403,24.6382317 23.9063823,25.047734 24.4123702,25.5617239 C25.0450906,26.2024328 25.4921878,26.9711945 25.7998322,27.7910884 C25.9110176,28.1952552 26.1625511,29.2374631 25.8982973,29.5749357 C24.9193003,26.6684029 22.1062151,24.6671325 18.6217772,24.6671325 C15.0676129,24.6671325 12.210242,26.7502144 11.2873088,29.7541208 C11.1902571,29.5571506 11.1389046,29.0778417 11.2331295,28.5505129 C11.4757587,27.1583829 12.338859,25.900975 13.4912299,24.9645886 C13.6853332,24.8063011 13.8959259,24.6533491 14.123008,24.5079557 C15.0360476,23.92327 14.8867011,23.4163941 13.7847405,23.3679297 C11.6241629,23.2732239 9.20258229,23.2714454 6.91197429,23.9868518 C7.33457309,23.7054023 7.75858527,23.3848255 8.18872206,23.0264554 C8.62828135,22.6605266 8.5241628,22.2532474 7.95363087,22.1229715 C6.64861561,21.8246261 5.58203654,21.6947948 4,21.6014229 C5.40131313,21.0491505 11.1736736,20.9251883 13.6754396,21.0380793 L70.2145894,23.4168388 C72.3605622,23.4973164 74.1645455,23.9486138 76,24.5257408 C75.899038,24.5101789 75.6441596,24.4673612 75.1887234,24.4190301 C74.643161,24.363007 74.0778115,24.3341062 73.4884817,24.3318831 C73.3666959,24.3318831 73.1829102,24.351091 73.1167643,24.4483756 C73.0309725,24.5697145 73.1746655,24.7320037 73.2915516,24.8289771 C74.3578008,25.7143647 73.70812,25.1756535 74.4359133,25.7800362" id="Fill-288" fill="#F2F2F2"></path>
        <path d="M0.04061708,26.8485565 C-0.120307457,27.4144907 0.217919682,28.0106074 0.68569866,27.9998567 L5.75299186,27.8833239 C5.81158696,27.8833239 5.86835235,27.8810243 5.92516237,27.8764826 C6.78244478,27.7986982 7.55984506,27.1859669 8,26.2256493 L0.879290074,26 C0.696453739,26.0777269 0.547355326,26.1600529 0.428469312,26.25152 C0.246837902,26.3865646 0.11376054,26.5966916 0.0434285736,26.8388406 C0.042491409,26.8421176 0.0415542445,26.845337 0.04061708,26.8485565" id="Fill-290" fill="#F2F2F2"></path>
        <path d="M33.5899953,14.0045557 C29.3649733,14.0643243 24.9897751,14.7375324 22,15.7817989 L22.0746658,15.8040339 C28.258972,13.6438691 39.3374762,13.2084393 45.9211575,16 L46,15.9786077 C42.8623951,14.6482035 38.3918819,13.9357763 33.5899953,14.0045557" id="Fill-292" fill="#9A9A9A"></path>
        <path d="M13.9701343,26 L14,25.9765149 L13.1219668,25.4899916 C13.1122695,25.4899009 6.80610061,25.3010224 6.79640337,25.3007957 C5.94400182,25.2775372 5.79945368,25.0716569 5.55984521,24.730669 C5.49364899,24.6368191 5.10653312,24.0938952 5.03956294,24 L5,24.0174098 C5.05076258,24.088636 5.47671295,24.6846054 5.5257455,24.7544715 C5.76435238,25.0940539 5.92187571,25.3184775 6.79531072,25.342144 L13.104621,25.5150182 L13.9701343,26 Z" id="Fill-294" fill="#9A9A9A"></path>
        <path d="M38.0583796,22.0026822 L38,22 C39.2095867,25.9882812 39.1149418,29.3481069 38.5088594,33.9950187 L38.5633432,34 C39.1696548,29.351316 39.2664194,25.9914903 38.0583796,22.0026822" id="Fill-296" fill="#9A9A9A"></path>
        <path d="M4.0438263,21 C4.55013008,20.4196429 4.9869922,20.0379767 6.44931959,19.9184308 C10.7672103,19.4951519 11.4931459,19.4733759 13,19.0051309 L12.904993,19 C11.3685711,19.477416 10.6176206,19.4725679 6.44426656,19.8816661 C4.96302782,20.0028281 4.51355813,20.4097447 4,20.9984244 L4.0438263,21 Z" id="Fill-298" fill="#9A9A9A"></path>
        <path d="M75.9073364,24.9802116 L76,25 C74.0674876,23.5127627 71.1686258,23.0504811 67.8457859,22.5543209 C65.5325508,22.208853 62.9988435,21.8208037 60.2461553,21.0118109 L60,21 C62.7552052,21.8097181 65.5256523,22.2556302 67.8400527,22.6013054 C71.1574857,23.0966368 73.9717942,23.5469521 75.9073364,24.9802116" id="Fill-300" fill="#9A9A9A"></path>
        <path d="M70.0373344,27 L71.1168325,26.6369611 L73.978637,26.6622037 C74.2706697,26.6622037 74.5539264,26.530893 74.7766238,26.2926545 L75,26.0337182 L74.9594655,26 L74.7473866,26.2504606 C74.5333682,26.4794865 74.2601967,26.6058838 73.9787339,26.6058838 L71.1020927,26.596794 L70,26.954981 L70.0373344,27 Z" id="Fill-302" fill="#9A9A9A"></path>
        <path d="M60,32.956344 L58.2220516,32.9032452 C59.1884343,27.9959365 59.2109514,24.0734197 58.3257537,22.1368176 C58.3002439,22.0810273 58.2667532,22.022135 58.2257569,21.9605057 L58.1718394,21.9605057 C58.2184887,22.0286127 58.2562072,22.0933897 58.2840923,22.1543803 C59.1661547,24.0839574 59.1419749,28.0000877 58.1760673,32.9018766 L28.3199107,32.02716 C27.7333734,32.0112851 27.2559064,31.5918317 27.1846497,31.0297777 C27.0269825,29.7862888 26.6611034,28.5327639 26.1265835,27.4047786 C25.5035153,26.0899438 24.6943723,25.02523 23.721529,24.2402431 C23.3575025,23.946466 23.0538067,23.5852206 22.8188973,23.1665883 L21.0418514,20 L21,20.0216227 L22.7770459,23.1882566 C23.0148531,23.6119525 23.3223017,23.9776685 23.6910312,24.2751862 C25.4971972,25.7326671 26.78566,28.2597885 27.1375253,31.0352975 C27.2116323,31.6199321 27.7083386,32.056264 28.3186281,32.0727775 L59.9986224,33 L60,32.956344 Z" id="Fill-304" fill="#9A9A9A"></path>
        <path d="M12,25.993454 L13.9580624,26.05 C13.9720637,26.0373955 13.9859323,26.0245822 14,26.0120474 C13.9763106,26.011351 13.1635036,25.9857939 12.0282681,25.95 C12.0189117,25.9644847 12.0093563,25.9789694 12,25.993454" id="Fill-306" fill="#CDCDCD"></path>
        <polygon id="Fill-308" fill="#4C4C4C" points="36.0681368 15.0008245 36.025728 15 36 15.0028398 37.9293186 21.9974808 38 22"></polygon>
        <path d="M72,26.95895 C72.0083326,26.98105 72.0170758,27.00255 72.0256137,27.02455 L73,27.04105 C72.9947459,27.01575 72.9898202,26.99015 72.9845251,26.96495 L72,26.95895 Z" id="Fill-310" fill="#CDCDCD"></path>
        <path d="M10.5,22.0532295 C10.1135717,22.0532295 9.75020214,22.2037393 9.47697122,22.4769688 C9.20368041,22.7502583 9.05322972,23.1135661 9.05322972,23.4999925 C9.05322972,23.8864788 9.20368041,24.2497866 9.47697122,24.5230162 C10.0411014,25.0871436 10.9588986,25.0871436 11.5230288,24.5230162 C11.7963196,24.2497267 11.9467703,23.8864189 11.9467703,23.4999925 C11.9467703,23.1135661 11.7963196,22.7502583 11.5230288,22.4769688 C11.2497979,22.2037393 10.8864283,22.0532295 10.5,22.0532295 M10.5,25 C10.115668,25 9.7313958,24.8536826 9.43881951,24.5611677 C8.85372683,23.976018 8.85372683,23.023967 9.43881951,22.4388173 C10.0239721,21.8537276 10.9760279,21.8537276 11.5611805,22.4388173 C12.1462732,23.023967 12.1462732,23.976018 11.5611805,24.5611677 C11.2686042,24.8536826 10.8842722,25 10.5,25" id="Fill-312" fill="#9A9A9A"></path>
        <path d="M10.2876521,23.3371058 C10.1239447,23.5231063 10.0281821,23.7574126 10,24 C10.012188,23.9988039 10.0244164,23.9975157 10.0366044,23.9963656 C10.0657988,23.7586548 10.1614399,23.5390702 10.3134452,23.3664113 C10.4981678,23.1564879 10.7438301,23.040922 11.0050817,23.040922 C11.2663333,23.040922 11.5119551,23.1564879 11.6967182,23.3664113 C11.8339846,23.5223702 11.925374,23.7166517 11.9632741,23.9279553 C11.9755431,23.9281393 11.9877311,23.9283693 12,23.9285534 C11.9625048,23.7117291 11.8700626,23.5047961 11.7225113,23.3371058 C11.3269087,22.8876314 10.6832547,22.8876314 10.2876521,23.3371058" id="Fill-314" fill="#CDCDCD"></path>
        <path d="M39.1803597,24 C39.1015505,23.3436935 38.9950253,22.6816817 38.8574926,22.0019159 L38.8196403,22 C38.9574348,22.6799361 39.0641844,23.3421607 39.143218,23.9986376 L39.1803597,24 Z" id="Fill-316" fill="#CDCDCD"></path>
        <path d="M57.8196403,23 C57.9706772,23.5406726 58.0801466,24.2124174 58.1475702,24.9985149 L58.1803597,25 C58.1134485,24.2159145 58.005038,23.5444572 57.8554697,23.0022037 L57.8196403,23 Z" id="Fill-318" fill="#CDCDCD"></path>
        <path d="M21.0795711,21.002985 L21,21 L22.9235708,24 C22.9483642,23.9991389 22.9738406,23.9985075 23,23.9981631 L21.0795711,21.002985 Z" id="Fill-320" fill="#CDCDCD"></path>
        <path d="M54.9606948,22.8536552 C54.5507486,22.9459893 54.2914185,23.0731247 53.7844261,22.9472634 C53.7235407,22.9325784 53.6699245,22.8843662 53.6322821,22.8150318 L53,21.4468513 C53.3172523,21.4237846 53.6504319,21.3671235 54.006762,21.2832383 C54.1473308,21.249644 54.2690553,21.1447037 54.3559154,21 L54.9940313,22.7550851 C55.0099125,22.7949825 54.9925034,22.8452734 54.9606948,22.8536552" id="Fill-322" fill="#B4B4B4"></path>
        <path d="M52,22.0051516 L52.5800943,22.8823117 C52.6150121,22.9267994 52.6640754,22.9581343 52.7196381,22.9673327 C52.8229897,22.9856436 52.9160189,22.9960885 53,23 L52.5876131,22.2648567 C52.5249565,22.1531861 52.2835054,21.9877004 52.0784589,22.0007244 C52.0522068,22.0024437 52.0260822,22.0039051 52,22.0051516" id="Fill-324" fill="#131313"></path>
        <path d="M54.986475,21.2537569 C55.0623527,21.551133 54.8106298,21.8401723 54.4403149,21.8879588 C53.2984354,22.0354006 52.3647155,22.0633763 51.4277588,21.8112082 C51.125044,21.7297306 50.9493049,21.4752419 51.0129785,21.2220425 C51.1396889,20.7177492 51.5036895,20.3682033 52.2304173,20.1060224 C52.5604587,19.9869431 52.9341164,19.9669174 53.2797578,20.0523056 C53.8833834,20.2013375 54.249984,20.4259596 54.708646,20.831414 C54.8441646,20.9513098 54.945724,21.0938957 54.986475,21.2537569" id="Fill-326" fill="#DFDFDC"></path>
        <path d="M51.4967924,20.8087432 C51.1796318,20.9713257 51.0858611,21.0347725 51.0285862,20.9816097 C50.9979768,20.9532852 50.9963874,20.8972027 51.00351,20.8608603 C51.1029906,20.3588199 52.2043995,19.9323406 53.0844199,20.0089474 C53.8374113,20.0581448 54.1006522,20.4692418 53.9664417,20.5860258 C53.9311821,20.616529 53.8722001,20.5984014 53.8263448,20.5770491 C53.2688416,20.2760253 52.0929106,20.5438441 51.4967924,20.8087432" id="Fill-328" fill="#F2F2F2"></path>
    </g>
</svg>