<svg xmlns="http://www.w3.org/2000/svg" width="124" height="100" viewBox="0 0 124 100">
    <g fill="none" fill-rule="evenodd">
        <path stroke="#8E8E93" stroke-linecap="round" stroke-linejoin="round" stroke-width="4" d="M84.828 31.034L78.621 49.655 107.586 49.655zM74.483 80.69c0-7.999 6.484-14.483 14.483-14.483 7.998 0 14.482 6.484 14.482 14.483 0 7.998-6.484 14.482-14.482 14.482-8 0-14.483-6.484-14.483-14.482zM16.552 80.69c0-7.999 6.484-14.483 14.482-14.483 8 0 14.483 6.484 14.483 14.483 0 7.998-6.484 14.482-14.483 14.482-7.998 0-14.482-6.484-14.482-14.482zM45.307 82.759L46.954 82.759 73.044 82.759 74.695 82.759M0 24.828C0 11.118 11.119 0 24.828 0s24.827 11.119 24.827 24.828-11.118 24.827-24.827 24.827C11.118 49.655 0 38.537 0 24.828z" transform="translate(2 2)"/>
        <path stroke="#8E8E93" stroke-linecap="round" stroke-linejoin="round" stroke-width="4" d="M11.036 45.47l-.604 1.08-9.095 18.042C.455 66.334 0 68.254 0 70.207c0 6.931 5.669 12.55 12.666 12.55H16.763M103.238 82.759h3.104c1.977 0 3.786-1.113 4.675-2.88l5.07-10.051c2.569-5.086 3.906-10.697 3.914-16.382.004-4.358-1.945-8.5-5.3-11.276L92.805 24.087c-2.656-2.193-6-3.397-9.447-3.397H49.284" transform="translate(2 2)"/>
        <path fill="#F2A000" d="M26.897 41.38c0 1.141-.927 2.068-2.07 2.068-1.141 0-2.068-.927-2.068-2.069s.927-2.069 2.069-2.069 2.069.927 2.069 2.07" transform="translate(2 2)"/>
        <path stroke="#F2A000" stroke-linecap="round" stroke-linejoin="round" stroke-width="4" d="M24.828 33.103L24.828 8.276" transform="translate(2 2)"/>
    </g>
</svg>
