<?xml version="1.0" encoding="UTF-8"?>
<svg width="84px" height="50px" viewBox="0 0 84 50" version="1.1" xmlns="http://www.w3.org/2000/svg" xmlns:xlink="http://www.w3.org/1999/xlink">
    <title>Auto/compacto/LLanta</title>
    <defs>
        <polygon id="path-1" points="0 0.121678177 40.1506939 0.121678177 40.1506939 40.3280022 0 40.3280022"></polygon>
        <polygon id="path-3" points="0.081188993 0.0774332445 39.339147 0.0774332445 39.339147 17.0273787 0.081188993 17.0273787"></polygon>
    </defs>
    <g id="Auto/compacto/LLanta" stroke="none" stroke-width="1" fill="none" fill-rule="evenodd">
        <g id="Group-3" transform="translate(22.000000, 4.000000)">
            <mask id="mask-2" fill="white">
                <use xlink:href="#path-1"></use>
            </mask>
            <g id="Clip-2"></g>
            <path d="M0,20.2248567 C0,31.3274532 8.98795624,40.3280352 20.075512,40.3280352 C31.1627376,40.3280352 40.1506939,31.3274532 40.1506939,20.2248567 C40.1506939,9.1222602 31.1627376,0.121678177 20.075512,0.121678177 C8.98795624,0.121678177 0,9.1222602 0,20.2248567" id="Fill-1" fill="#3E3E3E" mask="url(#mask-2)"></path>
        </g>
        <path d="M52.2445768,20.4056872 C49.9852922,14.4724147 43.3431049,11.4955434 37.4092199,13.7569276 C31.4751738,16.0179894 28.496147,22.6611077 30.7555928,28.5942191 C33.0147163,34.5276528 39.6569036,37.5043629 45.5909497,35.2431399 C51.5246735,32.9819169 54.5037003,26.3389598 52.2445768,20.4056872" id="Fill-4" fill="#131313"></path>
        <path d="M51.3430181,20.439829 C49.378562,15.2803081 43.6026717,12.6918268 38.4427793,14.6581649 C33.2827177,16.6243337 30.6922763,22.4009178 32.657071,27.5602694 C34.6215271,32.719621 40.3972481,35.3082717 45.5573098,33.3417642 C50.7172021,31.3755954 53.3076435,25.5991807 51.3430181,20.439829" id="Fill-6" fill="#4C4C4C"></path>
        <path d="M42.1134553,36.231394 C35.263631,36.2877936 29.8300421,30.7489597 29.7816996,24.1007148 C29.7200384,17.3539761 35.1552716,11.8241859 41.912193,11.7686085 C48.7621818,11.7123733 54.1956063,17.2508783 54.2439487,23.8992877 C54.3057744,30.6456975 48.8705412,36.1758165 42.1134553,36.231394 M41.8848976,10.0004897 C34.1509332,10.0641242 27.9300536,16.3935389 28.000594,24.1151846 C28.0561714,31.7248534 34.2750779,38.0639694 42.115264,37.9995127 C49.849064,37.9358782 56.0701081,31.606628 55.9994032,23.8849822 C55.9438259,16.2753135 49.7250838,9.93586861 41.8848976,10.0004897" id="Fill-8" fill="#E7E7E7"></path>
        <path d="M51.027422,29.1217983 C50.2861801,30.430216 48.5630144,32.5302014 48.228286,30.9396455 L47.951147,29.62413 C47.6446487,28.1676261 48.4699357,26.7106382 49.8766016,26.2247605 L51.1471177,25.7856639 C52.6829968,25.2552635 51.7659216,27.8175748 51.027422,29.1217983 M44.8756786,15.1245843 L43.8753649,16.0221353 C42.7672929,17.0163133 41.093167,17.030025 39.9691248,16.0543981 L38.9538089,15.1731398 C37.7266865,14.1083062 40.4037071,13.6216219 41.9021612,13.6092008 C43.405616,13.5967796 46.0855403,14.0394251 44.8756786,15.1245843 M42.0731549,34.3911194 C40.5745396,34.4033793 37.8899371,33.9605724 39.0994762,32.8755746 L40.1001125,31.9778623 C41.2080232,30.9840069 42.8821491,30.9702952 44.0063526,31.9457608 L45.0213459,32.8266965 C46.248791,33.8918527 43.5766098,34.3786983 42.0731549,34.3911194 M34.0980693,21.775721 L32.8277145,22.2146563 C31.2915127,22.7453793 32.2063295,20.1872622 32.9472488,18.8786832 C33.6859097,17.574621 35.4116564,15.4706028 35.7463848,17.0606747 L36.0232012,18.3763515 C36.3300221,19.8330167 35.5048964,21.2900046 34.0980693,21.775721 M36.1164412,29.7212411 L35.8614024,31.0412733 C35.552807,32.6366686 33.7928615,30.5610416 33.032907,29.2694006 C32.2703715,27.9732428 31.3136129,25.4307731 32.8583643,25.9360085 L34.1358169,26.3538117 C35.5503872,26.8162989 36.3993875,28.2598977 36.1164412,29.7212411 M47.857907,18.2785952 L48.1132685,16.9588856 C48.4218639,15.3630064 50.1793896,17.4341165 50.9419251,18.7304357 C51.7017183,20.022238 52.6607353,22.5689018 51.1166292,22.0639891 L49.8388539,21.6458632 C48.4242836,21.1833761 47.5754446,19.7399386 47.857907,18.2785952 M41.9011933,12.0004164 C35.2722804,12.0549406 29.9400166,17.480091 30.0005097,24.0988036 C30.0480976,30.6210504 35.3785869,36.0549118 42.0986427,35.9995811 C48.7278782,35.945057 54.060142,30.5199066 53.9994876,23.9013553 C53.9518997,17.3789472 48.6214104,11.9452471 41.9011933,12.0004164" id="Fill-10" fill="#CDCDCD"></path>
        <path d="M37.7573439,19.7573439 C35.4142187,22.100469 35.4142187,25.899531 37.7573439,28.2426561 C40.100469,30.5857813 43.899531,30.5857813 46.2426561,28.2426561 C48.5857813,25.899531 48.5857813,22.100469 46.2426561,19.7573439 C43.899531,17.4142187 40.100469,17.4142187 37.7573439,19.7573439" id="Fill-12" fill="#B4B4B4"></path>
        <path d="M38.0001287,24.4977067 C38.0068486,25.4126978 38.3627002,26.2540334 38.94535,26.8825698 C39.030113,26.8220121 39.1296903,26.7802535 39.2391949,26.7614544 C39.4365169,26.728479 39.6289517,26.7796371 39.7792341,26.8899661 C39.9258511,26.9979837 40.032912,27.1616282 40.0651372,27.3568612 C40.0836171,27.4691934 40.0755226,27.5802928 40.0452828,27.6827632 C40.495061,27.8900153 40.9967659,28.0041966 41.5287107,27.999882 C42.05027,27.9954134 42.5438805,27.8761471 42.986786,27.6664296 C42.9557826,27.5665787 42.9460081,27.4574825 42.9626553,27.3462289 C42.9924369,27.1465273 43.1005669,26.978106 43.2503911,26.8676229 C43.397619,26.7602217 43.5850138,26.7084472 43.7792813,26.7377244 C43.8906186,26.7545203 43.9920287,26.796433 44.0786243,26.8563743 C44.6577614,26.2202876 45.0078094,25.3703228 44.9998677,24.4396145 C44.9984932,24.3010869 44.9899405,24.1650247 44.9725297,24.0301953 C44.868676,24.0289625 44.7640587,24.0039998 44.6644813,23.9540744 C44.4850283,23.8636231 44.3594875,23.7081455 44.3026734,23.5297084 C44.2463175,23.3554317 44.2556338,23.1594282 44.3428403,22.9828402 C44.3929345,22.8811403 44.4641048,22.7968526 44.5476459,22.7319804 C44.0526609,21.8488861 43.1903698,21.1972362 42.1603855,21 C42.1269385,21.0992345 42.0705826,21.1927676 41.9926923,21.2727407 C41.8523371,21.4169697 41.6666223,21.4893923 41.4810601,21.4893923 C41.2993162,21.4893923 41.1174195,21.4200515 40.9775225,21.2813698 C40.8971886,21.2021671 40.8396109,21.1078635 40.8043311,21.0075504 C39.7810668,21.2152648 38.9212193,21.8718457 38.4337178,22.7632608 C38.517259,22.8255135 38.5884293,22.9079521 38.6397452,23.007957 C38.7319918,23.1870105 38.7431408,23.3873285 38.685563,23.5659197 C38.6292071,23.7400423 38.5079427,23.8935167 38.3341405,23.9845844 C38.2339522,24.0371293 38.1275022,24.0633248 38.0224267,24.0657902 C38.0063904,24.2073997 37.9989069,24.3516286 38.0001287,24.4977067" id="Fill-14" fill="#818181"></path>
        <polygon id="Fill-16" fill="#131313" points="41.4773619 19.0300551 41 20.0299063 41.5226381 21 42.5226381 20.9705401 43 19.9703913 42.4773619 19"></polygon>
        <polygon id="Fill-18" fill="#131313" points="46.660548 22.1931724 45.660548 22 45 22.8065501 45.339186 23.8065501 46.339186 24 47 23.1931724"></polygon>
        <polygon id="Fill-20" fill="#131313" points="45 27.3860158 44.8584371 26.3860158 43.8587203 26 43 26.6137203 43.1415629 27.6137203 44.1412797 28"></polygon>
        <polygon id="Fill-22" fill="#131313" points="39.9129112 28 40.9127663 27.568149 41 26.5682802 40.0873786 26 39.0869439 26.431851 39 27.4319822"></polygon>
        <polygon id="Fill-24" fill="#131313" points="37 23.2433834 37.7079075 24 38.7076385 23.7566166 39 22.7568895 38.2918236 22 37.2918236 22.2433834"></polygon>
        <path d="M41.5001623,7.02505559 C50.4738794,7.02505559 58.115133,12.8500078 61,21 C59.5123611,11.366744 51.3487701,4 41.5001623,4 C31.6510675,4 23.4874766,11.366744 22,21 C24.8847047,12.8500078 32.5261206,7.02505559 41.5001623,7.02505559" id="Fill-26" fill="#585858"></path>
        <g id="Group-30" transform="translate(22.000000, 27.000000)">
            <mask id="mask-4" fill="white">
                <use xlink:href="#path-3"></use>
            </mask>
            <g id="Clip-29"></g>
            <path d="M19.7100046,14.0112844 C10.6767692,14.0112844 2.98497403,8.20346043 0.081188993,0.0774332445 C1.5786676,9.68219734 9.79625507,17.0274448 19.7100046,17.0274448 C29.6240809,17.0274448 37.8416684,9.68219734 39.339147,0.0774332445 C36.435362,8.20346043 28.7434034,14.0112844 19.7100046,14.0112844" id="Fill-28" fill="#212121" mask="url(#mask-4)"></path>
        </g>
        <path d="M41.8782435,11.03496 C47.4879145,10.9910677 52.3315653,13.8179863 55,17.9976145 C52.7687173,13.28778 47.7789586,9.95450975 41.8859422,10.0004694 C36.136021,10.045475 31.2111992,13.3254701 29,18 C31.6413219,13.8631508 36.4104962,11.0777391 41.8782435,11.03496" id="Fill-31" fill="#CDCDCD"></path>
        <path d="M42.121841,36.96504 C36.5121339,37.0087732 31.6682845,34.1820137 29,30.0023855 C31.2312971,34.712061 36.2209205,38.0454903 42.1139749,37.9995306 C47.8641004,37.9545251 52.7887866,34.6745299 55,30 C52.3586611,34.1368492 47.5896234,36.9221019 42.121841,36.96504" id="Fill-33" fill="#FAFAFA"></path>
        <path d="M42.3174346,13.6492438 C47.982608,13.7916102 52.6219366,17.7596002 54,22.9967083 C53.3868607,16.8637617 48.2647721,11.947266 41.9013237,12.0004271 C35.685606,12.0522715 30.6060041,16.871991 30,23 C31.5155778,17.213012 36.857722,13.4245847 42.3174346,13.6492438" id="Fill-35" fill="#B4B4B4"></path>
        <path d="M41.6825654,34.3507562 C36.017392,34.2083898 31.3780634,30.2403998 30,25.0034563 C30.6131393,31.1362383 35.7352279,36.052734 42.0986763,35.9995729 C48.314394,35.9477285 53.3941581,31.128009 54,25 C52.48426,30.786988 47.142278,34.5754153 41.6825654,34.3507562" id="Fill-37" fill="#F5F5F5"></path>
        <path d="M46.6111578,22.123841 C47.2204702,22.6797232 47.6822057,23.3185279 48,24 C47.8777078,22.7632488 47.2983075,21.5568019 46.2603115,20.6099778 C43.9075097,18.4633407 40.0924903,18.4633407 37.7395232,20.6099778 C36.7016925,21.5568019 36.1222922,22.7632488 36,24 C36.3176291,23.3185279 36.7795298,22.6797232 37.388677,22.123841 C39.9353284,19.8003528 44.0645064,19.8003528 46.6111578,22.123841" id="Fill-39" fill="#9A9A9A"></path>
        <path d="M37.3888422,26.876159 C36.7795298,26.3204276 36.3177943,25.6814721 36,25 C36.1222922,26.236902 36.7016925,27.4431981 37.7396885,28.3900222 C40.0924903,30.5366593 43.9075097,30.5366593 46.2604768,28.3900222 C47.2983075,27.4431981 47.8777078,26.236902 48,25 C47.6823709,25.6814721 47.2204702,26.3204276 46.611323,26.876159 C44.0646716,29.1996472 39.9354936,29.1996472 37.3888422,26.876159" id="Fill-41" fill="#E7E7E7"></path>
        <path d="M44,24 C43.9016234,23.6698001 43.7305093,23.3612355 43.4863792,23.0998209 C43.2880931,22.8874963 43.0559465,22.7223217 42.8051278,22.6116085 C42.5526371,22.4991047 42.2796628,22.4410624 42,22.4410624 C41.4373302,22.4410624 40.9103323,22.6751716 40.5119487,23.0998209 C40.26963,23.3612355 40.0983766,23.6698001 40,24 C40.0323277,23.4991047 40.2255974,23.0091018 40.5814812,22.6280215 C40.9593813,22.223217 41.4645022,22 42,22 C42.2678186,22 42.5271372,22.0562519 42.7677837,22.1615936 C43.0084303,22.2685765 43.2287327,22.4246494 43.4186581,22.6280215 C43.7745419,23.0091018 43.9678116,23.4991047 44,24" id="Fill-43" fill="#CDCDCD"></path>
        <path d="M44,25 C43.9016234,25.3303491 43.7305093,25.6389138 43.4863792,25.9001791 C43.2880931,26.1125037 43.0559465,26.2776783 42.8051278,26.3883915 C42.5526371,26.5008953 42.2796628,26.5589376 42,26.5589376 C41.4373302,26.5589376 40.9103323,26.3248284 40.5119487,25.9001791 C40.26963,25.6389138 40.0983766,25.3303491 40,25 C40.0323277,25.5008953 40.2255974,25.9908982 40.5814812,26.3721277 C40.9593813,26.776783 41.4645022,27 42,27 C42.2678186,27 42.5271372,26.9437481 42.7677837,26.8384064 C43.0084303,26.7314235 43.2287327,26.5753506 43.4186581,26.3721277 C43.7745419,25.9908982 43.9678116,25.5008953 44,25" id="Fill-45" fill="#4C4C4C"></path>
    </g>
</svg>