<svg width="26" height="26" viewBox="0 0 26 26" fill="none" xmlns="http://www.w3.org/2000/svg">
<path d="M16.629 5.99263C16.629 6.26878 16.8529 6.49263 17.129 6.49263C17.4052 6.49263 17.629 6.26878 17.629 5.99263H16.629ZM21.0955 17.6116C21.2908 17.4164 21.2908 17.0998 21.0955 16.9045L17.9135 13.7225C17.7182 13.5273 17.4017 13.5273 17.2064 13.7225C17.0111 13.9178 17.0111 14.2344 17.2064 14.4296L20.0348 17.2581L17.2064 20.0865C17.0111 20.2818 17.0111 20.5983 17.2064 20.7936C17.4017 20.9889 17.7182 20.9889 17.9135 20.7936L21.0955 17.6116ZM17.629 5.99263V3H16.629V5.99263H17.629ZM15.129 0.5H3V1.5H15.129V0.5ZM0.5 3V15.2581H1.5V3H0.5ZM3 17.7581H20.7419V16.7581H3V17.7581ZM0.5 15.2581C0.5 16.6388 1.61929 17.7581 3 17.7581V16.7581C2.17157 16.7581 1.5 16.0865 1.5 15.2581H0.5ZM3 0.5C1.61929 0.5 0.5 1.61929 0.5 3H1.5C1.5 2.17157 2.17157 1.5 3 1.5V0.5ZM17.629 3C17.629 1.61929 16.5097 0.5 15.129 0.5V1.5C15.9575 1.5 16.629 2.17157 16.629 3H17.629Z" fill="white"/>
<path d="M9.37097 20.0074C9.37097 19.7312 9.14711 19.5074 8.87097 19.5074C8.59483 19.5074 8.37097 19.7312 8.37097 20.0074L9.37097 20.0074ZM4.90451 8.38838C4.70925 8.58365 4.70925 8.90023 4.90451 9.09549L8.08649 12.2775C8.28175 12.4727 8.59834 12.4727 8.7936 12.2775C8.98886 12.0822 8.98886 11.7656 8.7936 11.5704L5.96517 8.74194L8.7936 5.91351C8.98886 5.71825 8.98886 5.40167 8.7936 5.2064C8.59834 5.01114 8.28176 5.01114 8.08649 5.2064L4.90451 8.38838ZM8.37097 20.0074L8.37097 23L9.37097 23L9.37097 20.0074L8.37097 20.0074ZM10.871 25.5L23 25.5L23 24.5L10.871 24.5L10.871 25.5ZM25.5 23L25.5 10.7419L24.5 10.7419L24.5 23L25.5 23ZM23 8.24194L5.25807 8.24194L5.25807 9.24194L23 9.24194L23 8.24194ZM25.5 10.7419C25.5 9.36123 24.3807 8.24194 23 8.24194L23 9.24194C23.8284 9.24194 24.5 9.91351 24.5 10.7419L25.5 10.7419ZM23 25.5C24.3807 25.5 25.5 24.3807 25.5 23L24.5 23C24.5 23.8284 23.8284 24.5 23 24.5L23 25.5ZM8.37097 23C8.37097 24.3807 9.49026 25.5 10.871 25.5L10.871 24.5C10.0425 24.5 9.37097 23.8284 9.37097 23L8.37097 23Z" fill="white"/>
</svg>
