<?xml version="1.0" encoding="UTF-8"?>
<svg width="84px" height="50px" viewBox="0 0 84 50" version="1.1" xmlns="http://www.w3.org/2000/svg" xmlns:xlink="http://www.w3.org/1999/xlink">
    <title>Auto/compacto/Cajuela</title>
    <defs>
        <polygon id="path-1" points="0.0303719286 0.0453129913 0.111867141 0.0453129913 0.111867141 0.200010087 0.0303719286 0.200010087"></polygon>
        <polygon id="path-3" points="0.0329896197 0.0160998346 0.111867141 0.0160998346 0.111867141 0.421441065 0.0329896197 0.421441065"></polygon>
        <polygon id="path-5" points="0.0108905564 0.0543090887 36.3538612 0.0543090887 36.3538612 44.865567 0.0108905564 44.865567"></polygon>
        <polygon id="path-7" points="0.00362336728 0.0127350928 6.08030811 0.0127350928 6.08030811 6.26189779 0.00362336728 6.26189779"></polygon>
        <polygon id="path-9" points="0.00362336728 0.0659873657 6.08030811 0.0659873657 6.08030811 3.57291043 0.00362336728 3.57291043"></polygon>
        <polygon id="path-11" points="0.00364818486 0.0127281991 6.08030811 0.0127281991 6.08030811 6.2618909 0.00364818486 6.2618909"></polygon>
        <polygon id="path-13" points="0.00362336728 0.00522540609 6.08030811 0.00522540609 6.08030811 6.25438811 0.00362336728 6.25438811"></polygon>
        <polygon id="path-15" points="0.00362336728 0.00554532891 6.08030811 0.00554532891 6.08030811 3.58403826 0.00362336728 3.58403826"></polygon>
        <polygon id="path-17" points="0.0416761032 0.0717166305 0.223734281 0.0717166305 0.223734281 3.57741492 0.0416761032 3.57741492"></polygon>
        <polygon id="path-19" points="0.00362957168 0.00525987447 6.08030811 0.00525987447 6.08030811 6.25435364 0.00362957168 6.25435364"></polygon>
        <polygon id="path-21" points="0.0416761032 0.000678807034 0.223734281 0.000678807034 0.223734281 3.58096642 0.0416761032 3.58096642"></polygon>
        <polygon id="path-23" points="0.025712642 0.0236561973 16.1088682 0.0236561973 16.1088682 7.168424 0.025712642 7.168424"></polygon>
        <polygon id="path-25" points="0.025712642 0.0563465934 16.1088682 0.0563465934 16.1088682 7.14059496 0.025712642 7.14059496"></polygon>
        <polygon id="path-27" points="0.00438694669 0.019404835 3.50955735 0.019404835 3.50955735 1.77681998 0.00438694669 1.77681998"></polygon>
        <polygon id="path-29" points="0.00264384314 0.0120839462 3.38087358 0.0120839462 3.38087358 1.77262101 0.00264384314 1.77262101"></polygon>
    </defs>
    <g id="Auto/compacto/Cajuela" stroke="none" stroke-width="1" fill="none" fill-rule="evenodd">
        <g id="Group-3" transform="translate(63.500000, 42.500000) rotate(-270.000000) translate(-63.500000, -42.500000) translate(63.000000, 42.000000)">
            <mask id="mask-2" fill="white">
                <use xlink:href="#path-1"></use>
            </mask>
            <g id="Clip-2"></g>
            <path d="M4.44912398,-0.306666451 C2.03603789,-0.306666451 0.0715390364,-0.0797094165 0.0303719286,0.200010087 L8.86787603,0.200010087 C8.82670892,-0.0797094165 6.86221007,-0.306666451 4.44912398,-0.306666451" id="Fill-1" fill="#CDCDCA" mask="url(#mask-2)"></path>
        </g>
        <g id="Group-6" transform="translate(19.500000, 42.500000) rotate(-270.000000) translate(-19.500000, -42.500000) translate(19.000000, 42.000000)">
            <mask id="mask-4" fill="white">
                <use xlink:href="#path-3"></use>
            </mask>
            <g id="Clip-5"></g>
            <path d="M4.45174167,0.421441065 C2.03865558,0.421441065 0.0741567274,0.239830629 0.0329896197,0.0160998346 L8.87049372,0.0160998346 C8.82932661,0.239830629 6.86482776,0.421441065 4.45174167,0.421441065" id="Fill-4" fill="#CDCDCA" mask="url(#mask-4)"></path>
        </g>
        <g id="Group-9" transform="translate(42.500000, 24.500000) rotate(-270.000000) translate(-42.500000, -24.500000) translate(24.000000, 2.000000)">
            <mask id="mask-6" fill="white">
                <use xlink:href="#path-5"></use>
            </mask>
            <g id="Clip-8"></g>
            <path d="M107.151291,44.0011834 C107.151291,44.0011834 107.601682,43.7330616 113.707628,41.6013124 C115.891251,40.5233206 117.692817,36.5762112 120.018303,29.1645982 C120.493294,28.4915415 120.474161,16.3203309 120.018303,15.6740595 C117.692817,8.26251359 115.891251,4.31540421 113.707628,3.23741244 C107.601682,1.10566323 107.151291,0.837474342 107.151291,0.837474342 C103.256234,-0.417407975 93.1651677,-0.0098548507 90.5229526,0.239537318 L26.086827,0.239537318 C23.7094074,0.239537318 21.3374547,0.376283441 18.9763671,0.644405196 C13.6483397,1.25583558 9.43122345,1.86719883 4.89744595,3.52701616 C-1.62615878,7.38296145 -1.60975854,37.4664372 4.89744595,41.3117087 C9.43122345,42.971526 13.6483397,43.5829564 18.9763671,44.1943196 C21.3374547,44.4624414 23.7094074,44.5991875 26.086827,44.5991875 L90.5229526,44.5991875 C93.1651677,44.8458944 103.256234,45.2561328 107.151291,44.0011834" id="Fill-7" fill="#DFDFDC" mask="url(#mask-6)"></path>
        </g>
        <path d="M52,19 C52.7550048,13.2975258 54.3862162,9.99241657 57.4688069,8.12781504 C58.8123974,7.97285497 60.0920338,7.95387307 61.637996,8.09796617 C62.1013699,8.1400933 62.1226649,8.31128325 61.6859098,8.47435826 C58.0307738,9.83886779 56.7923447,10.9274694 55.9162072,12.4984512 C54.6326299,13.7215491 53.3338418,15.4369768 52,19" id="Fill-10" fill="#891214" transform="translate(57.000000, 13.500000) rotate(-270.000000) translate(-57.000000, -13.500000) "></path>
        <path d="M55,16 C55.3237141,14.6679348 55.7429428,13.5447528 56.2786272,12.6002575 C56.9913218,11.6975504 57.7296693,11.0129421 58.5611463,10.4954287 L57.9765413,10.4954287 C58.1442444,10.3492568 58.3166011,10.2100399 58.4959382,10.0800385 L60.724883,10.0011567 C61.0789036,9.98956496 61.0928643,10.0661284 60.757458,10.1844801 C58.3655218,11.0198971 56.7933705,12.7116541 55,16" id="Fill-12" fill="#E2272C" transform="translate(58.000000, 13.000000) rotate(-270.000000) translate(-58.000000, -13.000000) "></path>
        <path d="M23,8 C23.7550048,13.7024742 25.3862162,17.0075834 28.4688069,18.872185 C29.8123974,19.027145 31.0920338,19.0461269 32.637996,18.9020338 C33.1013699,18.8599067 33.1226649,18.6887167 32.6859098,18.5256417 C29.0307738,17.1611322 27.7923447,16.0725306 26.9162072,14.5015488 C25.6326299,13.2784509 24.3338418,11.5630232 23,8" id="Fill-14" fill="#891214" transform="translate(28.000000, 13.500000) rotate(-270.000000) translate(-28.000000, -13.500000) "></path>
        <path d="M24,10 C24.3237141,11.3320073 24.7429428,12.4551893 25.2786272,13.3996846 C25.9913218,14.3024496 26.7296693,14.9870579 27.5611463,15.5045713 L26.9765413,15.5045713 C27.1442444,15.6507432 27.3166011,15.7899601 27.4959382,15.9199615 L29.724883,15.9988433 C30.0789036,16.010435 30.0928643,15.9338716 29.757458,15.8155199 C27.3655218,14.9801029 25.7933705,13.2882879 24,10" id="Fill-16" fill="#E2272C" transform="translate(27.000000, 13.000000) rotate(-270.000000) translate(-27.000000, -13.000000) "></path>
        <path d="M37.9192164,45 C32.7940433,38.1114727 32.594102,21.0238634 37.9192164,14 L51,16.9177611 C48.9079013,22.7479709 48.9027664,36.1273845 51,42.0822389 L37.9192164,45 Z" id="Fill-18" fill="#2B3D44" transform="translate(42.500000, 29.500000) rotate(-270.000000) translate(-42.500000, -29.500000) "></path>
        <path d="M34.4629151,29.3794064 C34.4629151,26.4126437 34.7905245,23.5010646 35.4105047,20.9596336 C35.9366439,18.8024288 36.6749845,16.9204775 37.5702619,15.4408814 C37.8548661,14.9703936 38.392944,14.7339211 38.9173501,14.8509288 L49.5903297,17.2315241 C49.949198,17.3116099 50.1673048,17.6880002 50.0676869,18.0535662 C49.2981514,20.873704 48.8501276,25.0122701 48.8501276,29.4624805 C48.8501276,33.9195971 49.3002696,38.0881124 50.072886,40.9473635 C50.1714769,41.3123982 49.9531776,41.6875268 49.5950153,41.7674134 L38.9289037,44.1465477 C38.4003897,44.2643523 37.8583322,44.0234971 37.5758461,43.5466343 C36.6927001,42.0556827 35.9589809,40.1520166 35.4293115,37.9636672 C34.7970716,35.3513808 34.4629151,32.382958 34.4629151,29.3794064 L34.4629151,29.3794064 Z M51,42.0822451 C49.9520864,39.1065841 49.4290925,34.277128 49.4290925,29.4620821 C49.4290925,24.641126 49.953306,19.8347129 51,16.9178213 L37.9191813,14 C35.2819386,17.4784887 34,23.4244319 34,29.3782111 C34,35.4464745 35.3321968,41.5229058 37.9191813,45 L51,42.0822451 Z" id="Fill-20" fill="#1D2A30" transform="translate(42.500000, 29.500000) rotate(-270.000000) translate(-42.500000, -29.500000) "></path>
        <g id="Group-24" transform="translate(24.500000, 39.500000) rotate(-270.000000) translate(-24.500000, -39.500000) translate(21.000000, 36.000000)">
            <mask id="mask-8" fill="white">
                <use xlink:href="#path-7"></use>
            </mask>
            <g id="Clip-23"></g>
            <path d="M49.2669621,6.06825444 C48.1318679,5.09369553 43.3229646,3.58790997 41.3082111,2.98547166 C30.4995948,-0.246283454 20.9961353,-0.208506112 12.1223599,0.214145138 C7.01856169,0.660855316 3.88441104,1.39971947 0.943527322,2.84973519 C0.483595444,3.07660605 0.00362336728,3.4771286 0.00362336728,4.03206949 C0.00362336728,4.33794187 0.148309883,4.57591155 0.341700907,4.78582398 L49.4923058,6.26189779 L49.2669621,6.06825444 Z" id="Fill-22" fill="#2B3D44" mask="url(#mask-8)"></path>
        </g>
        <g id="Group-27" transform="translate(23.500000, 39.000000) rotate(-270.000000) translate(-23.500000, -39.000000) translate(20.000000, 37.000000)">
            <mask id="mask-10" fill="white">
                <use xlink:href="#path-9"></use>
            </mask>
            <g id="Clip-26"></g>
            <path d="M49.2669621,3.37152135 C48.662716,2.83195061 47.017062,2.13579967 45.3062618,1.50811672 L0.865848283,0.0659873657 C0.431168298,0.307740296 0.00362336728,0.709227962 0.00362336728,1.253889 C0.00362336728,1.57199628 0.148309883,1.81955644 0.341700907,2.03779367 L49.4923058,3.57291043 L49.2669621,3.37152135 Z" id="Fill-25" fill="#445D66" mask="url(#mask-10)"></path>
        </g>
        <g id="Group-30" transform="translate(24.500000, 39.500000) rotate(-270.000000) translate(-24.500000, -39.500000) translate(21.000000, 36.000000)">
            <mask id="mask-12" fill="white">
                <use xlink:href="#path-11"></use>
            </mask>
            <g id="Clip-29"></g>
            <path d="M47.5907453,5.73535196 L0.750285203,4.32842171 C0.67080689,4.18882478 0.648222888,4.04550526 0.682967506,3.9013585 C0.743956719,3.64884317 0.976373394,3.41197647 1.33715902,3.23398177 C4.1798892,1.83242859 7.22413815,1.11658932 12.1916878,0.680977955 C20.1840047,0.300653873 29.9660416,0.106183285 41.0323885,3.415768 C41.6328499,3.59514144 42.2042748,3.77182634 42.7470974,3.94416823 C45.1276001,4.78988435 46.7744329,5.39921634 47.5907453,5.73535196 L47.5907453,5.73535196 Z M49.266987,6.06824755 C48.1318927,5.09368863 43.3229894,3.58790308 41.3081739,2.98546477 C30.4995576,-0.246290348 20.9960981,-0.208513005 12.1223847,0.214138245 C7.01852447,0.660848423 3.88443586,1.39971257 0.943490095,2.84972829 C0.483620262,3.07659916 0.00364818486,3.47712171 0.00364818486,4.03206259 C0.00364818486,4.33793498 0.1483347,4.57590466 0.341725724,4.78588602 L49.4922686,6.2618909 L49.266987,6.06824755 Z" id="Fill-28" fill="#131313" mask="url(#mask-12)"></path>
        </g>
        <g id="Group-33" transform="translate(59.500000, 39.500000) rotate(-270.000000) translate(-59.500000, -39.500000) translate(56.000000, 36.000000)">
            <mask id="mask-14" fill="white">
                <use xlink:href="#path-13"></use>
            </mask>
            <g id="Clip-32"></g>
            <path d="M49.2669621,0.198868753 C48.1318679,1.17342767 43.3229646,2.67921323 41.3082111,3.28165154 C30.4995948,6.51340665 20.9961353,6.47562931 12.1223599,6.05297806 C7.01856169,5.60626788 3.88441104,4.86740373 0.943527322,3.41738801 C0.483595444,3.19051715 0.00362336728,2.7899946 0.00362336728,2.23505371 C0.00362336728,1.92918132 0.148309883,1.69121164 0.341700907,1.48129922 L49.4923058,0.00522540609 L49.2669621,0.198868753 Z" id="Fill-31" fill="#2B3D44" mask="url(#mask-14)"></path>
        </g>
        <g id="Group-36" transform="translate(61.500000, 39.000000) rotate(-270.000000) translate(-61.500000, -39.000000) translate(58.000000, 37.000000)">
            <mask id="mask-16" fill="white">
                <use xlink:href="#path-15"></use>
            </mask>
            <g id="Clip-35"></g>
            <path d="M49.2669621,0.211044391 L49.4923058,0.00554532891 L0.341700907,1.57199101 C0.148309883,1.79475521 0.00362336728,2.04729447 0.00362336728,2.37189373 C0.00362336728,2.9276703 0.431168298,3.33735159 0.865848283,3.58403826 L45.3062618,2.11247769 C47.017062,1.47198488 48.662716,0.761626785 49.2669621,0.211044391" id="Fill-34" fill="#445D66" mask="url(#mask-16)"></path>
        </g>
        <g id="Group-39" transform="translate(59.500000, 42.000000) rotate(-270.000000) translate(-59.500000, -42.000000) translate(59.000000, 40.000000)">
            <mask id="mask-18" fill="white">
                <use xlink:href="#path-17"></use>
            </mask>
            <g id="Clip-38"></g>
            <path d="M0.0416761032,3.43454924 L0.383374284,0.0915819057 L0.92397224,0.0717166305 L0.564990587,3.57741492 C0.387737102,3.53200858 0.213615898,3.48436179 0.0416761032,3.43454924" id="Fill-37" fill="#131313" mask="url(#mask-18)"></path>
        </g>
        <g id="Group-42" transform="translate(59.500000, 39.500000) rotate(-270.000000) translate(-59.500000, -39.500000) translate(56.000000, 36.000000)">
            <mask id="mask-20" fill="white">
                <use xlink:href="#path-19"></use>
            </mask>
            <g id="Clip-41"></g>
            <path d="M42.7470788,2.32298254 C42.2042562,2.49532443 41.6328313,2.67200934 41.0323698,2.85138278 C29.966023,6.16096749 20.1839861,5.9664969 12.1917313,5.58617282 C7.22411954,5.15056146 4.17993263,4.43472218 1.33714041,3.033169 C0.976354781,2.8551743 0.74400015,2.61823867 0.682948893,2.36572333 C0.648266319,2.22157657 0.670788277,2.07825706 0.75026659,1.93872907 L47.5907267,0.531798816 C46.7744143,0.867934437 45.1275814,1.47719749 42.7470788,2.32298254 L42.7470788,2.32298254 Z M49.492312,0.00525987447 L0.341707111,1.48126475 C0.148316087,1.69124611 0.00362957168,1.92914686 0.00362957168,2.23508818 C0.00362957168,2.78996013 0.483601648,3.19055161 0.943533526,3.41742248 C3.88441724,4.86736926 7.0185679,5.60630235 12.1223661,6.05294359 C20.9961415,6.47559484 30.499601,6.51337218 41.3082173,3.28161707 C43.3229708,2.6792477 48.1318741,1.1733932 49.2669683,0.198903222 L49.492312,0.00525987447 Z" id="Fill-40" fill="#131313" mask="url(#mask-20)"></path>
        </g>
        <g id="Group-45" transform="translate(25.500000, 42.000000) rotate(-270.000000) translate(-25.500000, -42.000000) translate(25.000000, 40.000000)">
            <mask id="mask-22" fill="white">
                <use xlink:href="#path-21"></use>
            </mask>
            <g id="Clip-44"></g>
            <path d="M0.0416761032,0.146584184 L0.383374284,3.56067848 L0.92397224,3.58096642 L0.564990587,0.000678807034 C0.387737102,0.0471275131 0.213615898,0.0957880623 0.0416761032,0.146584184" id="Fill-43" fill="#131313" mask="url(#mask-22)"></path>
        </g>
        <path d="M47,30 C46.2040233,29.7620196 45.4061177,29.4956573 44.5979248,29.1925086 C38.4750763,25.4892331 38.4596454,-3.48276795 44.5979248,-7.19567655 C45.4029029,-7.49759685 46.1969508,-7.76331258 46.9897127,-8 C46.6181498,-7.38019058 43.4493522,-6.80660665 41.9476695,-0.559313066 C41.9483124,-0.560541435 41.9489554,-0.561187946 41.9495983,-0.562480966 C41.1875052,2.60988038 40.9947477,6.51874625 40.9350173,9.77845113 C40.9342458,10.4969827 40.9340529,12.1911629 40.9350173,12.2558786 C40.9953264,15.5460987 41.1917487,19.4296861 41.9495983,22.589699 C41.9489554,22.5883414 41.9483124,22.587113 41.9476695,22.5857553 C43.4357859,28.7701435 46.594039,29.4540867 47,30" id="Fill-46" fill="#CDCDCA" transform="translate(43.500000, 11.000000) rotate(-270.000000) translate(-43.500000, -11.000000) "></path>
        <path d="M45,25 C44.4412858,24.5596623 43.9150008,24.0544641 43.4161429,23.4820453 C42.3859146,22.3019458 41.4723144,20.8356369 40.6307418,19.0569587 C40.2646848,16.85999 40.0689431,14.2914548 40.0010004,11.2916167 C40,11.2473199 40,10.6027589 40,9.96804164 C40,9.33244785 40.0010004,8.70757427 40.0010004,8.70757427 C40.0689431,5.70766866 40.2646848,3.14088647 40.6307418,0.944726871 C41.471314,-0.834895293 42.3849142,-2.30032767 43.4151425,-3.48130369 C43.9150008,-4.05284591 44.4412858,-4.55797678 45,-5 C41.2178002,-1.73202174 41.0464845,5.61098451 41.0464845,9.99993258 C41.0464845,14.3890155 41.2178002,21.7328308 45,25" id="Fill-48" fill="#F2F2F2" transform="translate(42.500000, 10.000000) rotate(-270.000000) translate(-42.500000, -10.000000) "></path>
        <g id="Group-52" transform="translate(53.500000, 34.000000) rotate(-270.000000) translate(-53.500000, -34.000000) translate(45.000000, 30.000000)">
            <mask id="mask-24" fill="white">
                <use xlink:href="#path-23"></use>
            </mask>
            <g id="Clip-51"></g>
            <path d="M41.6730985,6.10951845 C45.3073388,5.5505486 46.7377134,5.29324599 50.3142799,4.47868928 C51.6404442,4.18259826 53.214274,3.80280269 54.8197249,3.32778248 C65.501827,0.166863715 64.3350278,-1.02877538 54.0645968,1.08473364 C52.3767454,1.43205234 50.8252559,1.77299821 49.6945194,1.97711229 C46.7337359,2.52492971 45.4438332,2.76035639 41.2410096,3.31583345 C36.1169974,3.8908579 33.5060349,4.05802188 28.2682,4.22794332 C25.5321451,4.30974827 21.9005566,4.39149194 19.168877,4.30398822 C14.6215358,4.13860129 13.0045501,3.9369383 9.70495008,3.50162566 C8.14709657,3.25523038 6.81370655,2.98990046 5.63477604,2.80098311 C-1.02037416,1.73457746 -2.37617076,2.68210551 4.97650007,4.76172828 C6.32619783,5.14348472 7.72289637,5.45906187 9.23712999,5.79289959 C12.6791245,6.43974083 14.4042981,6.72590497 19.0348353,7.03419014 C21.9197149,7.20705288 25.4689029,7.18536079 28.3515948,7.12175514 C33.6389497,6.98118543 36.3608181,6.79925368 41.6730985,6.10951845" id="Fill-50" fill="#F2F2F2" mask="url(#mask-24)"></path>
        </g>
        <g id="Group-55" transform="translate(30.500000, 34.000000) rotate(-270.000000) translate(-30.500000, -34.000000) translate(22.000000, 30.000000)">
            <mask id="mask-26" fill="white">
                <use xlink:href="#path-25"></use>
            </mask>
            <g id="Clip-54"></g>
            <path d="M41.6730985,1.10633912 C45.3073388,1.66051119 46.7377134,1.91563327 50.3142799,2.72328695 C51.6404442,3.01686873 53.214274,3.39344569 54.8197249,3.86450106 C65.501827,6.99857162 64.3350278,8.18413894 54.0645968,6.08848026 C52.3767454,5.74410494 50.8252559,5.40604844 49.6945194,5.2037249 C46.7337359,4.66048924 45.4438332,4.4270577 41.2410096,3.87634883 C36.1169974,3.30613671 33.5060349,3.14045013 28.2682,2.97190794 C25.5321451,2.89085701 21.9005566,2.80974533 19.168877,2.89650749 C14.6215358,3.06049284 13.0045501,3.26044683 9.70495008,3.69207037 C8.14709657,3.93637756 6.81370655,4.19945891 5.63477604,4.38677527 C-1.02037416,5.44414359 -2.37617076,4.50470619 4.97650007,2.44264659 C6.32619783,2.06412538 7.72289637,1.75122261 9.23712999,1.42021401 C12.6791245,0.778854478 14.4042981,0.495176222 19.0348353,0.189442879 C21.9197149,0.0180450722 25.4689029,0.03955334 28.3515948,0.102619956 C33.6389497,0.241998392 36.3608181,0.422388356 41.6730985,1.10633912" id="Fill-53" fill="#F2F2F2" mask="url(#mask-26)"></path>
        </g>
        <path d="M53.6775855,29.5769865 C46.941102,28.1832466 45.5688032,29.4216904 53.0112647,32.1397314 C54.3775243,32.638777 55.7912921,33.0511645 57.3240313,33.4874991 C58.1215361,33.6809984 58.8279167,33.8498298 59.4994715,34 C59.6411905,33.1231661 59.8000204,32.3089632 59.9748206,31.5699655 C60.0385002,31.3003799 59.9775718,31.0263093 59.8351818,30.8316086 C59.2063038,30.7319756 58.5446129,30.6200087 57.7975016,30.4928246 C56.2206094,30.1706994 54.8709909,29.8239063 53.6775855,29.5769865" id="Fill-56" fill="#445D66" transform="translate(54.000000, 31.500000) rotate(-270.000000) translate(-54.000000, -31.500000) "></path>
        <path d="M52.3864914,34.8963321 C52.2443669,35.7935393 52.1151727,36.781945 52,37.8462847 C52.1590921,37.8993705 52.3158928,37.9505117 52.4713296,38 C52.6208195,36.5936171 52.7971521,35.3025449 53,34.1650908 C52.7607071,34.113269 52.5199411,34.0584332 52.2729554,34 C52.3887282,34.2363579 52.4382672,34.5690674 52.3864914,34.8963321" id="Fill-58" fill="#31444C" transform="translate(52.500000, 36.000000) rotate(-270.000000) translate(-52.500000, -36.000000) "></path>
        <path d="M36.9752921,31.4332948 C36.8015038,30.6913448 36.6435449,29.8759765 36.5022873,29 C35.8287318,29.1505197 35.1203649,29.3198543 34.320174,29.5139286 C32.7880062,29.9501955 31.3748274,30.3625234 30.009204,30.8612399 C22.5697757,33.5785205 23.94157,34.8164648 30.6752472,33.423197 C31.8680884,33.1763608 33.2172117,32.829605 34.793447,32.5076691 C35.5423936,32.3800476 36.2054856,32.2678784 36.8357785,32.1681191 C36.9773043,31.9742049 37.0381403,31.7017482 36.9752921,31.4332948" id="Fill-60" fill="#445D66" transform="translate(31.000000, 31.500000) rotate(-270.000000) translate(-31.000000, -31.500000) "></path>
        <path d="M31,34.1535882 C31.1152793,35.2170405 31.2443045,36.207101 31.3861993,37.1079249 C31.4375137,37.4337651 31.3878423,37.7645629 31.2722892,38 C31.5194414,37.9418698 31.7605148,37.8871419 32,37.8355246 C31.7980285,36.6922647 31.6222892,35.4013463 31.4730011,34 C31.316977,34.0493815 31.1596386,34.1005128 31,34.1535882" id="Fill-62" fill="#31444C" transform="translate(31.500000, 36.000000) rotate(-270.000000) translate(-31.500000, -36.000000) "></path>
        <g id="Group-66" transform="translate(30.000000, 40.000000) rotate(-270.000000) translate(-30.000000, -40.000000) translate(28.000000, 39.000000)">
            <mask id="mask-28" fill="white">
                <use xlink:href="#path-27"></use>
            </mask>
            <g id="Clip-65"></g>
            <path d="M0.00438694669,0.553450516 C5.8100371,-0.091277157 10.777605,-0.0213174687 16.1868155,0.0981921808 C23.5177193,0.260371458 29.3183859,0.731876631 35.5162641,1.72802165 L35.4816599,1.77681998 C29.2875018,0.781079684 23.5123146,0.313390495 16.1851309,0.151442489 C10.778728,0.0318750216 5.82709355,-0.0395879327 0.0260760111,0.604792833 L0.00438694669,0.553450516 Z" id="Fill-64" fill="#9A9A9A" mask="url(#mask-28)"></path>
        </g>
        <g id="Group-69" transform="translate(56.000000, 40.000000) rotate(-270.000000) translate(-56.000000, -40.000000) translate(54.000000, 39.000000)">
            <mask id="mask-30" fill="white">
                <use xlink:href="#path-29"></use>
            </mask>
            <g id="Clip-68"></g>
            <path d="M0.00264384314,1.23828648 L0.0250928437,1.18584563 C5.61347402,1.83005294 10.3834809,1.7602667 15.5917167,1.64087269 C22.6494255,1.47892468 28.2128558,1.00782424 34.1807063,0.0120839462 L34.2164083,0.0627324478 C28.2452446,1.05905092 22.6546997,1.53194372 15.5932719,1.69389173 C10.3824667,1.81340138 5.59542015,1.88318761 0.00264384314,1.23828648" id="Fill-67" fill="#9A9A9A" mask="url(#mask-30)"></path>
        </g>
        <path d="M20,17.8406014 C20.3493171,17.8002483 20.7062312,17.7724292 21.0672954,17.7915357 L21.3825671,17.8080438 C24.9946162,17.9980395 29.8840714,18.2376614 32.9565991,18.1574138 L33,18.1983783 C29.9240958,18.2787278 24.9913101,18.0447615 21.3779246,17.8547148 L21.0623715,17.8380539 C20.7062312,17.8193549 20.3820261,17.8505878 20.0371404,17.8901766 L20,17.8406014 Z" id="Fill-70" fill="#9A9A9A" transform="translate(26.500000, 18.000000) rotate(-270.000000) translate(-26.500000, -18.000000) "></path>
        <path d="M51,18.1764579 L51.0324977,18.137126 C51.3774518,18.1761081 51.7062977,18.1775074 52.0624361,18.1591659 L52.3873429,18.1424236 C55.9982469,17.9562593 60.9269261,17.722367 64,17.8010308 L63.9551222,17.8419619 C60.885284,17.7634981 56.0012716,18.0021882 52.3919854,18.1882025 L52.06736,18.2049948 C51.7062977,18.2235862 51.3493153,18.2158897 51,18.1764579" id="Fill-72" fill="#9A9A9A" transform="translate(57.500000, 18.000000) rotate(-270.000000) translate(-57.500000, -18.000000) "></path>
        <path d="M21,34 L21.0384013,34.0021425 C21.6694243,35.511225 22.1621576,36.4353982 22.8082728,37.6380997 L23,38 L22.9335942,38 L22.7699832,37.6952026 C22.1226942,36.4901723 21.6327557,35.5138333 21,34" id="Fill-74" fill="#9A9A9A" transform="translate(22.000000, 36.000000) rotate(-270.000000) translate(-22.000000, -36.000000) "></path>
        <path d="M62,38 C62.6347497,36.4864512 63.1252279,35.5115916 63.7744496,34.3061581 L63.9392512,34 L64,34 L63.8128173,34.363289 C63.1647174,35.5664857 62.7087365,36.4870104 62.0757818,37.9966448 L62,38 Z" id="Fill-76" fill="#9A9A9A" transform="translate(63.000000, 36.000000) rotate(-270.000000) translate(-63.000000, -36.000000) "></path>
        <path d="M61.9034604,13.9720952 C61.9283933,13.9408306 61.9398245,13.9258983 61.9650594,13.895287 C62.119704,13.7073262 62.2133535,13.3726552 62.2153378,13 L62.1640915,13.0287448 C62.1622798,13.3541764 62.0821752,13.6239851 61.9396519,13.7971069 C61.8882331,13.859636 61.8348301,13.934951 61.7846622,14 L61.9034604,13.9720952 Z" id="Fill-78" fill="#9A9A9A" transform="translate(62.000000, 13.500000) rotate(-270.000000) translate(-62.000000, -13.500000) "></path>
        <path d="M21.9757813,12.8419533 C21.9450903,12.8247331 21.9272603,12.8143092 21.8970287,12.7966303 L21.7846622,12.7853725 C21.8389456,12.8181452 21.8953585,12.8545036 21.9511868,12.8858169 C22.0891082,12.9632454 22.1658147,13.0561847 22.1675267,13.2015351 L22.2153378,13.2146275 C22.213417,13.0482208 22.1254362,12.9259697 21.9757813,12.8419533" id="Fill-80" fill="#9A9A9A" transform="translate(22.000000, 13.000000) rotate(-270.000000) translate(-22.000000, -13.000000) "></path>
        <path d="M21.5519378,21.078535 C21.2437047,21.078535 20.9491245,21.1164112 20.6975106,21.1961272 C20.3221376,21.3151287 20.1009615,21.5071519 20.0749408,21.7369631 C20.0487594,21.9666863 20.2201428,22.2124407 20.5575287,22.4287751 C21.2738213,22.8883975 22.5051474,23.0565499 23.3024737,22.803925 C23.6779269,22.6848354 23.8990227,22.4928122 23.9251238,22.2630009 C23.9512248,22.0332778 23.7797611,21.7876115 23.4424555,21.5712771 C22.952238,21.2566409 22.2204454,21.078535 21.5519378,21.078535 M22.4504557,23 C21.768215,23 21.0214846,22.8182827 20.5209873,22.4972164 C20.1571791,22.2637937 19.9732672,21.9903809 20.0031429,21.7270977 C20.0330185,21.4639027 20.2725055,21.248361 20.6774329,21.1200226 C21.4910622,20.8620245 22.7479272,21.0337884 23.4789969,21.5027477 C23.8428854,21.7361704 24.0267973,22.0095832 23.9968414,22.2728664 C23.9669657,22.5360614 23.7274787,22.7516911 23.3225514,22.8800296 C23.0658779,22.9614192 22.7649531,23 22.4504557,23" id="Fill-82" fill="#9A9A9A" transform="translate(22.000000, 22.000000) rotate(-270.000000) translate(-22.000000, -22.000000) "></path>
    </g>
</svg>