<svg xmlns="http://www.w3.org/2000/svg" width="90" height="96" viewBox="0 0 90 96">
    <g fill="none" fill-rule="evenodd">
        <g>
            <g>
                <g fill-rule="nonzero" stroke="#8E8E93" stroke-width="4">
                    <path d="M29.721 34c9.39 0 17-7.61 17-17s-7.61-17-17-17c-9.388 0-17 7.61-17 17 .011 9.384 7.615 16.99 17 17h0zM39.55 37.718c-2.462 3.257-6.344 5.179-10.471 5.179-4.128.001-8.011-1.917-10.475-5.172-.648-.854-1.674-1.35-2.756-1.335C7.174 36.39 0 43.247 0 51.772v18.405c0 1.857 1.652 3.212 3.541 3.212h51.07c1.89 0 3.543-1.355 3.543-3.212V51.772c0-8.525-7.178-15.382-15.848-15.382-1.083-.017-2.106.478-2.756 1.328z" transform="translate(-660 -303) translate(660 303) translate(31 22)"/>
                </g>
                <g>
                    <path fill="#FFF" stroke="#8E8E93" stroke-linecap="round" stroke-linejoin="round" stroke-width="4" d="M0 24.828C0 11.118 11.027 0 24.622 0c13.596 0 24.623 11.119 24.623 24.828S38.218 49.655 24.622 49.655C11.027 49.655 0 38.537 0 24.828z" transform="translate(-660 -303) translate(660 303)"/>
                    <path fill="#F2A000" d="M26.674 41.38c0 1.141-.919 2.068-2.052 2.068-1.132 0-2.051-.927-2.051-2.069s.919-2.069 2.051-2.069c1.133 0 2.052.927 2.052 2.07" transform="translate(-660 -303) translate(660 303)"/>
                    <path stroke="#F2A000" stroke-linecap="round" stroke-linejoin="round" stroke-width="4" d="M24.622 33.103L24.622 8.276" transform="translate(-660 -303) translate(660 303)"/>
                </g>
            </g>
        </g>
    </g>
</svg>
