<?xml version="1.0" encoding="UTF-8"?>
<svg width="59px" height="73px" viewBox="0 0 59 73" version="1.1" xmlns="http://www.w3.org/2000/svg" xmlns:xlink="http://www.w3.org/1999/xlink">
    <!-- Generator: Sketch 53.2 (72643) - https://sketchapp.com -->
    <title>Group 2</title>
    <desc>Created with Sketch.</desc>
    <g id="Symbols" stroke="none" stroke-width="1" fill="none" fill-rule="evenodd">
        <g id="Ico_user_grande" transform="translate(2.000000, 2.000000)" fill-rule="nonzero" stroke="#7FBDFF" stroke-width="4">
            <g id="Group-2">
                <path d="M28.0007812,32 C36.8373137,32 44,24.8369642 44,16 C44,7.16303579 36.8373137,0 28.0007812,0 C19.1642491,0 12,7.16303579 12,16 C12.0109403,24.8322752 19.167375,31.9906225 28.0007812,32 L28.0007812,32 Z" id="Shape"></path>
                <path d="M37.404929,35.257242 C35.0764021,38.3380418 31.4051011,40.1557601 27.50158,40.1557601 C23.5980586,40.157314 19.9251784,38.3427027 17.5950714,35.2634564 C16.9821349,34.4555816 16.0121783,33.9863929 14.988511,34.0003753 C6.78495529,34.0003753 0,40.4866783 0,48.5514446 L0,65.9611476 C0,67.7182756 1.56235669,69 3.34903493,69 L51.6493854,69 C53.4360641,69 55,67.7182756 55,65.9611476 L55,48.5514446 C55,40.4866783 48.2118854,34.0003753 40.011489,34.0003753 C38.9878217,33.9848394 38.0194452,34.4524746 37.404929,35.257242 Z" id="Path"></path>
            </g>
        </g>
    </g>
</svg>