<svg xmlns="http://www.w3.org/2000/svg" xmlns:xlink="http://www.w3.org/1999/xlink" width="24" height="24" viewBox="0 0 24 24">
  <path
  class="main-icon"
  d="M15.96 8.227c.74 0 1.402.457 1.662 1.15l1.572 4.234.464.484c.49.465.77 1.11.776 1.785v7.708c-.01.22-.189.394-.409.398h-3.933c-.214-.006-.384-.184-.381-.398v-2.3H4.723v2.3c.003.214-.167.392-.382.398H.41c-.22-.004-.4-.178-.409-.398v-7.55c.004-.722.324-1.406.876-1.873l.66-.602L3.09 9.377c.26-.692.923-1.15 1.663-1.15zM3.951 21.287H.772v1.928h3.18v-1.928zm15.71 0h-3.18v1.928h3.18v-1.928zm-1.006-7.132H2.018l-.618.574-.018.016c-.384.321-.607.794-.61 1.294v4.477h18.89V15.88c-.004-.469-.2-.915-.543-1.236-.005-.005-.023-.014-.028-.02l-.435-.47zm-14.738 1.88c.838 0 1.518.679 1.518 1.517 0 .839-.68 1.518-1.518 1.518h-.34c-.838 0-1.518-.68-1.518-1.518s.68-1.518 1.518-1.518zm12.938 0c.838 0 1.518.679 1.518 1.517 0 .839-.68 1.518-1.518 1.518h-.34c-.838 0-1.518-.68-1.518-1.518s.68-1.518 1.518-1.518zm-3.651 0c.213 0 .385.172.385.385v2.217c0 .213-.172.385-.385.385H7.229c-.213 0-.386-.172-.386-.385V16.42c0-.213.173-.386.386-.386zm-9.287.77h-.34c-.413 0-.747.335-.747.747 0 .413.334.747.747.747h.34c.412 0 .747-.334.747-.747 0-.412-.335-.747-.747-.747zm12.938 0h-.34c-.413 0-.747.335-.747.747 0 .413.334.747.747.747h.34c.412 0 .747-.334.747-.747 0-.412-.335-.747-.747-.747zm-4.037 0H7.614v1.446h5.205v-1.446zm3.14-7.807H4.752c-.417-.004-.792.252-.94.642L2.42 13.384h15.871L16.9 9.64c-.148-.39-.523-.646-.94-.642zM14.58 0c1.413.019 2.677.883 3.208 2.192.531 1.31.226 2.81-.775 3.808-.819.818-1.987 1.18-3.125.971-1.138-.21-2.1-.965-2.573-2.021H3.517c-.126-.003-.242-.067-.314-.17L2.465 3.74c-.105-.148-.094-.349.026-.485L3.943 1.63c.142-.158.383-.172.542-.032l.749.657.705-.65c.08-.073.185-.11.293-.1.107.009.206.062.271.147l.581.743h.478l.51-.252c.053-.026.112-.038.172-.037h3.07C11.879.812 13.166-.018 14.579 0zm1.888 1.573c-1.071-1.07-2.808-1.07-3.879 0-.519.512-.81 1.21-.81 1.94 0 .729.291 1.427.81 1.94 1.071 1.07 2.808 1.07 3.879 0 1.07-1.072 1.07-2.808 0-3.88zM13.85 2.766c.356-.533 1.04-.74 1.632-.496.593.245.93.875.805 1.504-.124.63-.676 1.083-1.318 1.083-.356 0-.699-.14-.95-.393-.455-.453-.525-1.164-.169-1.698zM4.264 2.43L3.27 3.549l.444.63h7.36c-.08-.43-.08-.871 0-1.301h-2.74l-.51.251c-.053.026-.112.039-.172.038h-.757c-.118-.002-.23-.057-.303-.151l-.438-.562-.654.604c-.144.133-.367.136-.515.006l-.722-.634zm10.926.552c-.215-.088-.461-.04-.626.125-.108.107-.169.253-.169.406 0 .152.061.298.17.406.164.164.41.213.625.124.215-.089.354-.298.354-.53 0-.232-.14-.442-.354-.53z"/>
</svg>
