<svg xmlns="http://www.w3.org/2000/svg" xmlns:xlink="http://www.w3.org/1999/xlink" width="50" height="50" viewBox="0 0 50 50">
    <defs>
        <path id="qbgcm357ta" d="M0.116 -0.01L11.678 -0.01 11.678 14.583 0.116 14.583z"/>
        <path id="rvh9pzlsuc" d="M0 0.238L9.36 0.238 9.36 7.926 0 7.926z"/>
    </defs>
    <g fill="none" fill-rule="evenodd">
        <g>
            <g>
                <g>
                    <g>
                        <g>
                            <path fill="#00529B" d="M19.177 0.246L16.769 14.386 20.619 14.386 23.032 0.246z" transform="translate(-315 -1140) translate(135 1012) translate(170 127) translate(10 1) translate(0 18.75)"/>
                            <g>
                                <g transform="translate(-315 -1140) translate(135 1012) translate(170 127) translate(10 1) translate(0 18.75) translate(0 .01) translate(22.917)">
                                    <mask id="ybh259mxjb" fill="#fff">
                                        <use xlink:href="#qbgcm357ta"/>
                                    </mask>
                                    <path fill="#00529B" d="M11.678.584C10.918.296 9.722-.01 8.226-.01 4.42-.01 1.739 1.91 1.714 4.655 1.693 6.688 3.628 7.82 5.09 8.499c1.5.691 2.002 1.133 1.998 1.752-.013.948-1.198 1.379-2.309 1.379-1.541 0-2.358-.213-3.625-.742l-.498-.223-.541 3.165c.902.396 2.566.735 4.295.754 4.048 0 6.682-1.896 6.709-4.831.014-1.607-1.013-2.832-3.234-3.84-1.35-.654-2.172-1.092-2.162-1.752 0-.59.698-1.217 2.204-1.217 1.26-.02 2.175.255 2.883.542l.346.163.521-3.065" mask="url(#ybh259mxjb)"/>
                                </g>
                                <path fill="#00529B" d="M39.726 9.363l1.533-3.952c-.019.037.319-.82.515-1.35l.258 1.218s.742 3.375.894 4.084h-3.2zM44.478.25h-2.975c-.925 0-1.615.25-2.019 1.169l-5.723 12.958h4.046s.66-1.743.813-2.123l4.933.007c.114.495.47 2.116.47 2.116h3.574L44.477.25zM13.536.246L9.763 9.888l-.402-1.96c-.702-2.259-2.892-4.705-5.336-5.93l3.45 12.363 4.077-.004L17.62.247h-4.083" transform="translate(-315 -1140) translate(135 1012) translate(170 127) translate(10 1) translate(0 18.75) translate(0 .01)"/>
                                <g transform="translate(-315 -1140) translate(135 1012) translate(170 127) translate(10 1) translate(0 18.75) translate(0 .01)">
                                    <mask id="y6v2jdqeid" fill="#fff">
                                        <use xlink:href="#rvh9pzlsuc"/>
                                    </mask>
                                    <path fill="#F3AA00" d="M6.264.238H.05L0 .534c4.833 1.167 8.035 3.998 9.36 7.392L8.01 1.432C7.777.536 7.1.269 6.264.238" mask="url(#y6v2jdqeid)"/>
                                </g>
                            </g>
                        </g>
                    </g>
                </g>
            </g>
        </g>
    </g>
</svg>
