<svg width="90" height="90" viewBox="0 0 90 90" fill="none" xmlns="http://www.w3.org/2000/svg">
<path d="M16.763 78.7488H73.238C79.013 78.7488 82.613 72.4863 79.7255 67.4988L51.488 18.7113C48.6005 13.7238 41.4005 13.7238 38.513 18.7113L10.2755 67.4988C7.38795 72.4863 10.988 78.7488 16.763 78.7488ZM45.0005 52.4988C42.938 52.4988 41.2505 50.8113 41.2505 48.7488V41.2488C41.2505 39.1863 42.938 37.4988 45.0005 37.4988C47.063 37.4988 48.7505 39.1863 48.7505 41.2488V48.7488C48.7505 50.8113 47.063 52.4988 45.0005 52.4988ZM48.7505 67.4988H41.2505V59.9988H48.7505V67.4988Z" fill="#F2A000"/>
</svg>
